<svg width="180" height="180" viewBox="0 0 180 180" fill="none" xmlns="http://www.w3.org/2000/svg">
<g clip-path="url(#clip0_1097_516)">
<rect width="180" height="180" rx="90" fill="white"/>
<mask id="path-2-outside-1_1097_516" maskUnits="userSpaceOnUse" x="-1.00018" y="-1" width="182.003" height="182" fill="black">
<rect fill="white" x="-1.00018" y="-1" width="182.003" height="182"/>
<path fill-rule="evenodd" clip-rule="evenodd" d="M72.3364 12.5981L72.3364 14.1962H65.8667H59.3969L59.397 15.7942L59.397 17.3923H56.1201H52.8432L52.8433 18.9904L52.8433 20.5885H49.6504H46.4576L46.4576 22.2706L46.4576 23.9528H44.8612H43.2648L43.2648 25.5509L43.2648 27.149H41.6684H40.072L40.072 28.7471L40.072 30.3451H38.3916H36.7111L36.7112 31.9432L36.7112 33.5413H35.1148H33.5183L33.5184 35.1394L33.5184 36.7374H31.922H30.3255L30.3256 38.4196L30.3256 40.1018H28.7292H27.1327L27.1328 41.6999L27.1328 43.298H25.5363H23.9399L23.94 46.4941L23.94 49.6903H22.2596H20.5791L20.5792 52.9705L20.5792 56.2508H18.9828H17.3864L17.3864 59.4469L17.3865 62.6431H15.79H14.1936L14.1937 69.1195L14.1938 75.5959H12.5974H11.001L11.0012 90.1468L11.0014 104.698H12.5978H14.1942L14.1943 111.174L14.1944 117.651H15.7909H17.3873L17.3873 120.931L17.3874 124.211H18.9838H20.5802L20.5803 127.407L20.5803 130.603H22.2608H23.9412L23.9413 133.8L23.9413 136.996H25.5377H27.1342L27.1342 138.678L27.1342 140.36H28.7306H30.3271L30.3271 141.958L30.3271 143.556H31.9235H33.52L33.52 145.154L33.52 146.752H35.1164H36.7129L36.7129 148.35L36.7129 149.949H38.3933H40.0738L40.0738 151.547L40.0738 153.145H43.2667H46.4595L46.4596 154.827L46.4596 156.509H48.056H49.6524L49.6525 158.107L49.6525 159.705H52.9294H56.2062L56.2063 161.303L56.2063 162.901H60.9956H65.7848L65.7849 164.499L65.7849 166.097H72.2546H78.7243L78.7244 167.696L78.7244 169.294H90.0674H101.41L101.41 167.696L101.41 166.097H109.477H117.543L117.543 164.499L117.543 162.901H120.819H124.096L124.096 161.303L124.096 159.705H127.289H130.482L130.482 158.107L130.482 156.509H133.675H136.868L136.868 154.827L136.868 153.145H138.548H140.229L140.228 151.547L140.228 149.949H141.825H143.421L143.421 148.35L143.421 146.752H145.018H146.614L146.614 145.154L146.614 143.556H148.211H149.807L149.807 141.958L149.807 140.36H151.403H153L153 138.678L153 136.996H154.68H156.361L156.361 133.8L156.36 130.603H157.957H159.553L159.553 127.407L159.553 124.211H161.15H162.746L162.746 120.931L162.746 117.651H164.342H165.939L165.939 112.856L165.939 108.062H167.509H169.079L169.189 105.413C169.332 101.963 169.332 77.6766 169.189 74.6973L169.079 72.3998H167.509H165.938L165.938 65.9233L165.938 59.4469H164.342H162.745L162.745 56.1667L162.745 52.8864H161.149H159.552L159.552 49.6903L159.552 46.4941H157.956H156.359L156.359 44.896L156.359 43.298H154.679H152.998L152.998 41.6999L152.998 40.1018H151.402H149.805L149.805 36.8215L149.805 33.5413H148.209H146.612L146.612 31.9432L146.612 30.3451H143.42H140.227L140.227 28.7471L140.227 27.149H138.546H136.866L136.866 25.5509L136.866 23.9528H135.269H133.673L133.673 22.2706L133.673 20.5885H130.48H127.287L127.287 18.9904L127.287 17.3923H124.01H120.733L120.733 15.7942L120.733 14.1962H114.348H107.962L107.962 12.5981L107.962 11H90.1491H72.3363L72.3364 12.5981ZM88.4689 27.2331L88.4689 30.5133H86.8725H85.2761L85.2761 33.7095L85.2762 36.9057H83.6797H82.0833L82.0834 41.784L82.0835 46.6623H80.487H78.8906L78.8907 51.4566L78.8908 56.2508H77.2943H75.6979L75.6979 57.8489L75.6979 59.4469H90.1498H104.602L104.602 56.2508L104.602 53.0546H102.921H101.241L101.241 48.2604L101.241 43.4662H99.6441H98.0477L98.0476 40.1859L98.0476 36.9057H96.4511H94.8547L94.8547 33.7095L94.8546 30.5133H93.2582H91.6618L91.6617 27.2331L91.6617 23.9528H90.0653H88.4688L88.4689 27.2331ZM65.9509 28.9153L65.9509 30.5133H62.7581H59.5652L59.5652 32.1114L59.5653 33.7095H56.2884H53.0115L53.0116 35.3076L53.0116 36.9057H51.4151H49.8187L49.8187 38.5037L49.8188 40.1018H48.2223H46.6259L46.6259 41.784L46.626 43.4662H45.0295H43.4331L43.4331 45.0643L43.4332 46.6623H41.7527H40.0723L40.0723 48.2604L40.0723 49.8585H38.4759H36.8795L36.8795 51.4566L36.8795 53.0546H35.2831H33.6867L33.6867 56.2508L33.6868 59.4469H48.1386H62.5905L62.5904 54.5686L62.5903 49.6903H64.1867H65.7832L65.7831 44.896L65.783 40.1018H67.3794H68.9759L68.9758 35.2235L68.9757 30.3451H70.6562H72.3366L72.3366 28.8312L72.3366 27.3172H69.1437H65.9509L65.9509 28.9153ZM107.962 28.8312L107.962 30.3451H109.559H111.155L111.155 33.5413L111.155 36.7374H112.751H114.348L114.348 43.2138L114.348 49.6903H115.945H117.541L117.541 54.5686L117.541 59.4469H131.993H146.445L146.445 56.2508L146.445 53.0546H144.848H143.252L143.252 51.4566L143.252 49.8585H141.655H140.059L140.059 48.2604L140.059 46.6623H138.462H136.866L136.866 45.0643L136.866 43.4662H135.186H133.505L133.505 41.784L133.505 40.1018H131.909H130.312L130.312 38.5037L130.312 36.9057H128.716H127.119L127.119 35.3076L127.119 33.7095H123.926H120.734L120.734 32.1114L120.734 30.5133H117.457H114.18L114.18 28.9153L114.18 27.3172H111.071H107.962L107.962 28.8312ZM27.3013 75.68L27.3013 78.9603H25.6209H23.9405L23.9406 88.5487L23.9407 98.1372H25.6212H27.3016L27.3017 103.016L27.3018 107.894H43.35H59.3983L59.3981 90.1468L59.3978 72.3998H43.3495H27.3012L27.3013 75.68ZM72.3375 90.1468L72.3378 107.894H90.0665H107.795L107.795 90.1468L107.795 72.3998H90.066H72.3372L72.3375 90.1468ZM120.734 90.1468L120.735 107.894H136.867H152.999L152.999 104.614L152.999 101.333H154.596H156.192L156.192 88.5487L156.192 75.7641H154.595H152.999L152.999 74.0819L152.999 72.3998H136.866H120.734L120.734 90.1468ZM11.0815 90.1468C11.0816 98.1961 11.1022 101.514 11.1273 97.519C11.1523 93.5245 11.1522 86.9387 11.1271 82.884C11.102 78.8292 11.0814 82.0976 11.0815 90.1468ZM33.6877 122.445L33.6877 124.043H35.2841H36.8806L36.8806 127.239L36.8807 130.435H38.4771H40.0735L40.0735 132.033L40.0736 133.631H41.754H43.4344L43.4345 135.313L43.4345 136.996H45.0309H46.6274L46.6274 138.594L46.6274 140.192H48.2238H49.8202L49.8203 141.79L49.8203 143.388H53.0131H56.206L56.206 144.986L56.206 146.584H59.4829H62.7598L62.7598 148.182L62.7598 149.78H65.9527H69.1455L69.1456 151.462L69.1456 153.145H70.742H72.3384L72.3384 149.949L72.3383 146.752H70.6579H68.9774L68.9774 143.556L68.9774 140.36H67.3809H65.7845L65.7844 133.884L65.7843 127.407H64.1879H62.5915L62.5914 124.127L62.5914 120.847H48.1395H33.6877L33.6877 122.445ZM75.6989 122.445L75.6989 124.043H77.2953H78.8918L78.8918 128.837L78.8919 133.631H80.4883H82.0847L82.0848 138.51L82.0849 143.388H83.6813H85.2777L85.2778 146.584L85.2778 149.78H86.8743H88.4707L88.4707 151.462L88.4707 153.145H90.0672H91.6636L91.6636 151.462L91.6635 149.78H93.26H94.8564L94.8563 146.584L94.8563 143.388H96.4527H98.0491L98.0491 140.192L98.049 136.996H99.6455H101.242L101.242 132.117L101.242 127.239H102.922H104.603L104.603 124.043L104.603 120.847H90.1507H75.6989L75.6989 122.445ZM117.542 125.725L117.542 130.603H115.946H114.349L114.349 135.482L114.349 140.36H112.753H111.157L111.157 145.07L111.157 149.78H114.266H117.374L117.374 148.182L117.374 146.584H120.651H123.928L123.928 144.986L123.928 143.388H127.121H130.314L130.314 141.79L130.314 140.192H131.91H133.507L133.507 138.594L133.506 136.996H135.187H136.867L136.867 135.313L136.867 133.631H138.464H140.06L140.06 132.033L140.06 130.435H141.657H143.253L143.253 127.239L143.253 124.043H144.849H146.446L146.446 122.445L146.446 120.847H131.994H117.542L117.542 125.725ZM107.964 151.547L107.964 153.145H109.476H110.989L110.989 151.547L110.989 149.949H109.476H107.964L107.964 151.547Z"/>
</mask>
<path fill-rule="evenodd" clip-rule="evenodd" d="M72.3364 12.5981L72.3364 14.1962H65.8667H59.3969L59.397 15.7942L59.397 17.3923H56.1201H52.8432L52.8433 18.9904L52.8433 20.5885H49.6504H46.4576L46.4576 22.2706L46.4576 23.9528H44.8612H43.2648L43.2648 25.5509L43.2648 27.149H41.6684H40.072L40.072 28.7471L40.072 30.3451H38.3916H36.7111L36.7112 31.9432L36.7112 33.5413H35.1148H33.5183L33.5184 35.1394L33.5184 36.7374H31.922H30.3255L30.3256 38.4196L30.3256 40.1018H28.7292H27.1327L27.1328 41.6999L27.1328 43.298H25.5363H23.9399L23.94 46.4941L23.94 49.6903H22.2596H20.5791L20.5792 52.9705L20.5792 56.2508H18.9828H17.3864L17.3864 59.4469L17.3865 62.6431H15.79H14.1936L14.1937 69.1195L14.1938 75.5959H12.5974H11.001L11.0012 90.1468L11.0014 104.698H12.5978H14.1942L14.1943 111.174L14.1944 117.651H15.7909H17.3873L17.3873 120.931L17.3874 124.211H18.9838H20.5802L20.5803 127.407L20.5803 130.603H22.2608H23.9412L23.9413 133.8L23.9413 136.996H25.5377H27.1342L27.1342 138.678L27.1342 140.36H28.7306H30.3271L30.3271 141.958L30.3271 143.556H31.9235H33.52L33.52 145.154L33.52 146.752H35.1164H36.7129L36.7129 148.35L36.7129 149.949H38.3933H40.0738L40.0738 151.547L40.0738 153.145H43.2667H46.4595L46.4596 154.827L46.4596 156.509H48.056H49.6524L49.6525 158.107L49.6525 159.705H52.9294H56.2062L56.2063 161.303L56.2063 162.901H60.9956H65.7848L65.7849 164.499L65.7849 166.097H72.2546H78.7243L78.7244 167.696L78.7244 169.294H90.0674H101.41L101.41 167.696L101.41 166.097H109.477H117.543L117.543 164.499L117.543 162.901H120.819H124.096L124.096 161.303L124.096 159.705H127.289H130.482L130.482 158.107L130.482 156.509H133.675H136.868L136.868 154.827L136.868 153.145H138.548H140.229L140.228 151.547L140.228 149.949H141.825H143.421L143.421 148.35L143.421 146.752H145.018H146.614L146.614 145.154L146.614 143.556H148.211H149.807L149.807 141.958L149.807 140.36H151.403H153L153 138.678L153 136.996H154.68H156.361L156.361 133.8L156.36 130.603H157.957H159.553L159.553 127.407L159.553 124.211H161.15H162.746L162.746 120.931L162.746 117.651H164.342H165.939L165.939 112.856L165.939 108.062H167.509H169.079L169.189 105.413C169.332 101.963 169.332 77.6766 169.189 74.6973L169.079 72.3998H167.509H165.938L165.938 65.9233L165.938 59.4469H164.342H162.745L162.745 56.1667L162.745 52.8864H161.149H159.552L159.552 49.6903L159.552 46.4941H157.956H156.359L156.359 44.896L156.359 43.298H154.679H152.998L152.998 41.6999L152.998 40.1018H151.402H149.805L149.805 36.8215L149.805 33.5413H148.209H146.612L146.612 31.9432L146.612 30.3451H143.42H140.227L140.227 28.7471L140.227 27.149H138.546H136.866L136.866 25.5509L136.866 23.9528H135.269H133.673L133.673 22.2706L133.673 20.5885H130.48H127.287L127.287 18.9904L127.287 17.3923H124.01H120.733L120.733 15.7942L120.733 14.1962H114.348H107.962L107.962 12.5981L107.962 11H90.1491H72.3363L72.3364 12.5981ZM88.4689 27.2331L88.4689 30.5133H86.8725H85.2761L85.2761 33.7095L85.2762 36.9057H83.6797H82.0833L82.0834 41.784L82.0835 46.6623H80.487H78.8906L78.8907 51.4566L78.8908 56.2508H77.2943H75.6979L75.6979 57.8489L75.6979 59.4469H90.1498H104.602L104.602 56.2508L104.602 53.0546H102.921H101.241L101.241 48.2604L101.241 43.4662H99.6441H98.0477L98.0476 40.1859L98.0476 36.9057H96.4511H94.8547L94.8547 33.7095L94.8546 30.5133H93.2582H91.6618L91.6617 27.2331L91.6617 23.9528H90.0653H88.4688L88.4689 27.2331ZM65.9509 28.9153L65.9509 30.5133H62.7581H59.5652L59.5652 32.1114L59.5653 33.7095H56.2884H53.0115L53.0116 35.3076L53.0116 36.9057H51.4151H49.8187L49.8187 38.5037L49.8188 40.1018H48.2223H46.6259L46.6259 41.784L46.626 43.4662H45.0295H43.4331L43.4331 45.0643L43.4332 46.6623H41.7527H40.0723L40.0723 48.2604L40.0723 49.8585H38.4759H36.8795L36.8795 51.4566L36.8795 53.0546H35.2831H33.6867L33.6867 56.2508L33.6868 59.4469H48.1386H62.5905L62.5904 54.5686L62.5903 49.6903H64.1867H65.7832L65.7831 44.896L65.783 40.1018H67.3794H68.9759L68.9758 35.2235L68.9757 30.3451H70.6562H72.3366L72.3366 28.8312L72.3366 27.3172H69.1437H65.9509L65.9509 28.9153ZM107.962 28.8312L107.962 30.3451H109.559H111.155L111.155 33.5413L111.155 36.7374H112.751H114.348L114.348 43.2138L114.348 49.6903H115.945H117.541L117.541 54.5686L117.541 59.4469H131.993H146.445L146.445 56.2508L146.445 53.0546H144.848H143.252L143.252 51.4566L143.252 49.8585H141.655H140.059L140.059 48.2604L140.059 46.6623H138.462H136.866L136.866 45.0643L136.866 43.4662H135.186H133.505L133.505 41.784L133.505 40.1018H131.909H130.312L130.312 38.5037L130.312 36.9057H128.716H127.119L127.119 35.3076L127.119 33.7095H123.926H120.734L120.734 32.1114L120.734 30.5133H117.457H114.18L114.18 28.9153L114.18 27.3172H111.071H107.962L107.962 28.8312ZM27.3013 75.68L27.3013 78.9603H25.6209H23.9405L23.9406 88.5487L23.9407 98.1372H25.6212H27.3016L27.3017 103.016L27.3018 107.894H43.35H59.3983L59.3981 90.1468L59.3978 72.3998H43.3495H27.3012L27.3013 75.68ZM72.3375 90.1468L72.3378 107.894H90.0665H107.795L107.795 90.1468L107.795 72.3998H90.066H72.3372L72.3375 90.1468ZM120.734 90.1468L120.735 107.894H136.867H152.999L152.999 104.614L152.999 101.333H154.596H156.192L156.192 88.5487L156.192 75.7641H154.595H152.999L152.999 74.0819L152.999 72.3998H136.866H120.734L120.734 90.1468ZM11.0815 90.1468C11.0816 98.1961 11.1022 101.514 11.1273 97.519C11.1523 93.5245 11.1522 86.9387 11.1271 82.884C11.102 78.8292 11.0814 82.0976 11.0815 90.1468ZM33.6877 122.445L33.6877 124.043H35.2841H36.8806L36.8806 127.239L36.8807 130.435H38.4771H40.0735L40.0735 132.033L40.0736 133.631H41.754H43.4344L43.4345 135.313L43.4345 136.996H45.0309H46.6274L46.6274 138.594L46.6274 140.192H48.2238H49.8202L49.8203 141.79L49.8203 143.388H53.0131H56.206L56.206 144.986L56.206 146.584H59.4829H62.7598L62.7598 148.182L62.7598 149.78H65.9527H69.1455L69.1456 151.462L69.1456 153.145H70.742H72.3384L72.3384 149.949L72.3383 146.752H70.6579H68.9774L68.9774 143.556L68.9774 140.36H67.3809H65.7845L65.7844 133.884L65.7843 127.407H64.1879H62.5915L62.5914 124.127L62.5914 120.847H48.1395H33.6877L33.6877 122.445ZM75.6989 122.445L75.6989 124.043H77.2953H78.8918L78.8918 128.837L78.8919 133.631H80.4883H82.0847L82.0848 138.51L82.0849 143.388H83.6813H85.2777L85.2778 146.584L85.2778 149.78H86.8743H88.4707L88.4707 151.462L88.4707 153.145H90.0672H91.6636L91.6636 151.462L91.6635 149.78H93.26H94.8564L94.8563 146.584L94.8563 143.388H96.4527H98.0491L98.0491 140.192L98.049 136.996H99.6455H101.242L101.242 132.117L101.242 127.239H102.922H104.603L104.603 124.043L104.603 120.847H90.1507H75.6989L75.6989 122.445ZM117.542 125.725L117.542 130.603H115.946H114.349L114.349 135.482L114.349 140.36H112.753H111.157L111.157 145.07L111.157 149.78H114.266H117.374L117.374 148.182L117.374 146.584H120.651H123.928L123.928 144.986L123.928 143.388H127.121H130.314L130.314 141.79L130.314 140.192H131.91H133.507L133.507 138.594L133.506 136.996H135.187H136.867L136.867 135.313L136.867 133.631H138.464H140.06L140.06 132.033L140.06 130.435H141.657H143.253L143.253 127.239L143.253 124.043H144.849H146.446L146.446 122.445L146.446 120.847H131.994H117.542L117.542 125.725ZM107.964 151.547L107.964 153.145H109.476H110.989L110.989 151.547L110.989 149.949H109.476H107.964L107.964 151.547Z" fill="#FF551D"/>
<path fill-rule="evenodd" clip-rule="evenodd" d="M72.3364 12.5981L72.3364 14.1962H65.8667H59.3969L59.397 15.7942L59.397 17.3923H56.1201H52.8432L52.8433 18.9904L52.8433 20.5885H49.6504H46.4576L46.4576 22.2706L46.4576 23.9528H44.8612H43.2648L43.2648 25.5509L43.2648 27.149H41.6684H40.072L40.072 28.7471L40.072 30.3451H38.3916H36.7111L36.7112 31.9432L36.7112 33.5413H35.1148H33.5183L33.5184 35.1394L33.5184 36.7374H31.922H30.3255L30.3256 38.4196L30.3256 40.1018H28.7292H27.1327L27.1328 41.6999L27.1328 43.298H25.5363H23.9399L23.94 46.4941L23.94 49.6903H22.2596H20.5791L20.5792 52.9705L20.5792 56.2508H18.9828H17.3864L17.3864 59.4469L17.3865 62.6431H15.79H14.1936L14.1937 69.1195L14.1938 75.5959H12.5974H11.001L11.0012 90.1468L11.0014 104.698H12.5978H14.1942L14.1943 111.174L14.1944 117.651H15.7909H17.3873L17.3873 120.931L17.3874 124.211H18.9838H20.5802L20.5803 127.407L20.5803 130.603H22.2608H23.9412L23.9413 133.8L23.9413 136.996H25.5377H27.1342L27.1342 138.678L27.1342 140.36H28.7306H30.3271L30.3271 141.958L30.3271 143.556H31.9235H33.52L33.52 145.154L33.52 146.752H35.1164H36.7129L36.7129 148.35L36.7129 149.949H38.3933H40.0738L40.0738 151.547L40.0738 153.145H43.2667H46.4595L46.4596 154.827L46.4596 156.509H48.056H49.6524L49.6525 158.107L49.6525 159.705H52.9294H56.2062L56.2063 161.303L56.2063 162.901H60.9956H65.7848L65.7849 164.499L65.7849 166.097H72.2546H78.7243L78.7244 167.696L78.7244 169.294H90.0674H101.41L101.41 167.696L101.41 166.097H109.477H117.543L117.543 164.499L117.543 162.901H120.819H124.096L124.096 161.303L124.096 159.705H127.289H130.482L130.482 158.107L130.482 156.509H133.675H136.868L136.868 154.827L136.868 153.145H138.548H140.229L140.228 151.547L140.228 149.949H141.825H143.421L143.421 148.35L143.421 146.752H145.018H146.614L146.614 145.154L146.614 143.556H148.211H149.807L149.807 141.958L149.807 140.36H151.403H153L153 138.678L153 136.996H154.68H156.361L156.361 133.8L156.36 130.603H157.957H159.553L159.553 127.407L159.553 124.211H161.15H162.746L162.746 120.931L162.746 117.651H164.342H165.939L165.939 112.856L165.939 108.062H167.509H169.079L169.189 105.413C169.332 101.963 169.332 77.6766 169.189 74.6973L169.079 72.3998H167.509H165.938L165.938 65.9233L165.938 59.4469H164.342H162.745L162.745 56.1667L162.745 52.8864H161.149H159.552L159.552 49.6903L159.552 46.4941H157.956H156.359L156.359 44.896L156.359 43.298H154.679H152.998L152.998 41.6999L152.998 40.1018H151.402H149.805L149.805 36.8215L149.805 33.5413H148.209H146.612L146.612 31.9432L146.612 30.3451H143.42H140.227L140.227 28.7471L140.227 27.149H138.546H136.866L136.866 25.5509L136.866 23.9528H135.269H133.673L133.673 22.2706L133.673 20.5885H130.48H127.287L127.287 18.9904L127.287 17.3923H124.01H120.733L120.733 15.7942L120.733 14.1962H114.348H107.962L107.962 12.5981L107.962 11H90.1491H72.3363L72.3364 12.5981ZM88.4689 27.2331L88.4689 30.5133H86.8725H85.2761L85.2761 33.7095L85.2762 36.9057H83.6797H82.0833L82.0834 41.784L82.0835 46.6623H80.487H78.8906L78.8907 51.4566L78.8908 56.2508H77.2943H75.6979L75.6979 57.8489L75.6979 59.4469H90.1498H104.602L104.602 56.2508L104.602 53.0546H102.921H101.241L101.241 48.2604L101.241 43.4662H99.6441H98.0477L98.0476 40.1859L98.0476 36.9057H96.4511H94.8547L94.8547 33.7095L94.8546 30.5133H93.2582H91.6618L91.6617 27.2331L91.6617 23.9528H90.0653H88.4688L88.4689 27.2331ZM65.9509 28.9153L65.9509 30.5133H62.7581H59.5652L59.5652 32.1114L59.5653 33.7095H56.2884H53.0115L53.0116 35.3076L53.0116 36.9057H51.4151H49.8187L49.8187 38.5037L49.8188 40.1018H48.2223H46.6259L46.6259 41.784L46.626 43.4662H45.0295H43.4331L43.4331 45.0643L43.4332 46.6623H41.7527H40.0723L40.0723 48.2604L40.0723 49.8585H38.4759H36.8795L36.8795 51.4566L36.8795 53.0546H35.2831H33.6867L33.6867 56.2508L33.6868 59.4469H48.1386H62.5905L62.5904 54.5686L62.5903 49.6903H64.1867H65.7832L65.7831 44.896L65.783 40.1018H67.3794H68.9759L68.9758 35.2235L68.9757 30.3451H70.6562H72.3366L72.3366 28.8312L72.3366 27.3172H69.1437H65.9509L65.9509 28.9153ZM107.962 28.8312L107.962 30.3451H109.559H111.155L111.155 33.5413L111.155 36.7374H112.751H114.348L114.348 43.2138L114.348 49.6903H115.945H117.541L117.541 54.5686L117.541 59.4469H131.993H146.445L146.445 56.2508L146.445 53.0546H144.848H143.252L143.252 51.4566L143.252 49.8585H141.655H140.059L140.059 48.2604L140.059 46.6623H138.462H136.866L136.866 45.0643L136.866 43.4662H135.186H133.505L133.505 41.784L133.505 40.1018H131.909H130.312L130.312 38.5037L130.312 36.9057H128.716H127.119L127.119 35.3076L127.119 33.7095H123.926H120.734L120.734 32.1114L120.734 30.5133H117.457H114.18L114.18 28.9153L114.18 27.3172H111.071H107.962L107.962 28.8312ZM27.3013 75.68L27.3013 78.9603H25.6209H23.9405L23.9406 88.5487L23.9407 98.1372H25.6212H27.3016L27.3017 103.016L27.3018 107.894H43.35H59.3983L59.3981 90.1468L59.3978 72.3998H43.3495H27.3012L27.3013 75.68ZM72.3375 90.1468L72.3378 107.894H90.0665H107.795L107.795 90.1468L107.795 72.3998H90.066H72.3372L72.3375 90.1468ZM120.734 90.1468L120.735 107.894H136.867H152.999L152.999 104.614L152.999 101.333H154.596H156.192L156.192 88.5487L156.192 75.7641H154.595H152.999L152.999 74.0819L152.999 72.3998H136.866H120.734L120.734 90.1468ZM11.0815 90.1468C11.0816 98.1961 11.1022 101.514 11.1273 97.519C11.1523 93.5245 11.1522 86.9387 11.1271 82.884C11.102 78.8292 11.0814 82.0976 11.0815 90.1468ZM33.6877 122.445L33.6877 124.043H35.2841H36.8806L36.8806 127.239L36.8807 130.435H38.4771H40.0735L40.0735 132.033L40.0736 133.631H41.754H43.4344L43.4345 135.313L43.4345 136.996H45.0309H46.6274L46.6274 138.594L46.6274 140.192H48.2238H49.8202L49.8203 141.79L49.8203 143.388H53.0131H56.206L56.206 144.986L56.206 146.584H59.4829H62.7598L62.7598 148.182L62.7598 149.78H65.9527H69.1455L69.1456 151.462L69.1456 153.145H70.742H72.3384L72.3384 149.949L72.3383 146.752H70.6579H68.9774L68.9774 143.556L68.9774 140.36H67.3809H65.7845L65.7844 133.884L65.7843 127.407H64.1879H62.5915L62.5914 124.127L62.5914 120.847H48.1395H33.6877L33.6877 122.445ZM75.6989 122.445L75.6989 124.043H77.2953H78.8918L78.8918 128.837L78.8919 133.631H80.4883H82.0847L82.0848 138.51L82.0849 143.388H83.6813H85.2777L85.2778 146.584L85.2778 149.78H86.8743H88.4707L88.4707 151.462L88.4707 153.145H90.0672H91.6636L91.6636 151.462L91.6635 149.78H93.26H94.8564L94.8563 146.584L94.8563 143.388H96.4527H98.0491L98.0491 140.192L98.049 136.996H99.6455H101.242L101.242 132.117L101.242 127.239H102.922H104.603L104.603 124.043L104.603 120.847H90.1507H75.6989L75.6989 122.445ZM117.542 125.725L117.542 130.603H115.946H114.349L114.349 135.482L114.349 140.36H112.753H111.157L111.157 145.07L111.157 149.78H114.266H117.374L117.374 148.182L117.374 146.584H120.651H123.928L123.928 144.986L123.928 143.388H127.121H130.314L130.314 141.79L130.314 140.192H131.91H133.507L133.507 138.594L133.506 136.996H135.187H136.867L136.867 135.313L136.867 133.631H138.464H140.06L140.06 132.033L140.06 130.435H141.657H143.253L143.253 127.239L143.253 124.043H144.849H146.446L146.446 122.445L146.446 120.847H131.994H117.542L117.542 125.725ZM107.964 151.547L107.964 153.145H109.476H110.989L110.989 151.547L110.989 149.949H109.476H107.964L107.964 151.547Z" stroke="white" stroke-width="22.4123" stroke-linejoin="round" mask="url(#path-2-outside-1_1097_516)"/>
</g>
<defs>
<clipPath id="clip0_1097_516">
<rect width="180" height="180" rx="90" fill="white"/>
</clipPath>
</defs>
</svg>
