<svg width="110" height="108" viewBox="0 0 110 108" fill="none" xmlns="http://www.w3.org/2000/svg">
<g>
<path d="M32.6247 53.8612L65.8136 25.7187C67.3093 24.4506 69.5393 24.6476 70.7942 26.159C72.049 27.6704 71.8539 29.9239 70.3585 31.1922L37.1696 59.3347C36.0349 60.2969 35.3243 61.6749 35.195 63.166C35.0659 64.6573 35.5288 66.1407 36.4811 67.2875C37.4333 68.4341 38.7978 69.1515 40.2734 69.282C41.749 69.4123 43.2152 68.9444 44.3499 67.9822L86.2727 32.4337C88.3339 30.6858 89.6236 28.182 89.8581 25.4731C90.0925 22.7642 89.2529 20.072 87.5232 17.989C85.7935 15.906 83.3159 14.6028 80.6353 14.3658C77.9546 14.1288 75.2907 14.9774 73.2293 16.7253L23.1545 59.1862C16.9332 64.462 16.1216 73.8359 21.3428 80.124C26.5633 86.4107 35.8395 87.2308 42.0609 81.9557L83.4019 46.9006C84.8975 45.6326 87.1275 45.8298 88.3825 47.341C89.6374 48.8524 89.4422 51.1058 87.9467 52.3741L46.6058 87.4292C37.393 95.2408 23.657 94.0264 15.9265 84.7168C8.19491 75.4055 9.39727 61.5248 18.6097 53.7128L68.6844 11.2518C72.1823 8.28586 76.7027 6.84642 81.2514 7.24858C85.8001 7.65073 90.0045 9.86154 92.9396 13.3962C95.8747 16.931 97.2999 21.5 96.9019 26.0968C96.5038 30.6933 94.3152 34.9413 90.8175 37.9072L48.8948 73.4557C46.3235 75.636 43.001 76.6947 39.6572 76.3991C36.3135 76.1035 33.2223 74.4785 31.0647 71.8803C28.9071 69.2818 27.8596 65.9225 28.1522 62.5433C28.4449 59.1644 30.0535 56.0415 32.6247 53.8612Z" fill="#232323"/>
</g>
<g>
<path d="M64.1187 5.75378C69.0659 1.55886 75.4581 -0.47452 81.8843 0.0936279C88.3097 0.661839 94.2465 3.7842 98.3901 8.77429C102.404 13.6082 104.419 19.8136 104.03 26.1005L103.985 26.7098L103.924 27.3182C103.227 33.579 100.174 39.3422 95.3823 43.4052L94.7241 43.9637C97.4691 48.4272 96.6299 54.3797 92.5122 57.8719L51.1714 92.9266C39.1301 103.137 21.2872 101.723 10.9614 89.9091L10.4761 89.3387C0.231173 77.0005 1.81279 58.5872 14.0444 48.2147L64.1187 5.75378ZM81.2515 7.24792C76.7029 6.84586 72.1819 8.28598 68.6841 11.2518L18.6099 53.7128C9.39758 61.5248 8.19495 75.4054 15.9263 84.7167C23.6568 94.0261 37.3932 95.2402 46.606 87.4286L87.9458 52.3739C89.4412 51.1057 89.6369 48.8531 88.3823 47.3417C87.1274 45.8306 84.8975 45.6327 83.4019 46.9003L42.061 81.9559C35.8397 87.2308 26.5627 86.4104 21.3423 80.1239C16.1214 73.8359 16.9337 64.4621 23.1548 59.1864L73.229 16.7255C75.2903 14.9776 77.9547 14.1281 80.6353 14.3651C83.3158 14.6021 85.7933 15.9062 87.5229 17.9891L87.8364 18.3866C89.353 20.4086 90.0775 22.9331 89.8579 25.4725C89.6234 28.1814 88.3332 30.6855 86.272 32.4335L44.3501 67.9823L44.1333 68.1571C43.0319 69.0007 41.6563 69.4043 40.2729 69.2821C38.7977 69.1515 37.4331 68.4342 36.481 67.288C35.5288 66.1412 35.0658 64.6571 35.1948 63.1659C35.3242 61.6749 36.0348 60.2959 37.1694 59.3339L70.3579 31.1923C71.8533 29.9241 72.049 27.6704 70.7944 26.1591C69.5395 24.6477 67.3087 24.4506 65.813 25.7186L32.6245 53.8612C30.0537 56.0413 28.4446 59.1643 28.1519 62.5428C27.8593 65.9219 28.9075 69.2813 31.0649 71.8798C33.2225 74.4778 36.3132 76.1036 39.6567 76.3993C43.0005 76.6948 46.3238 75.6352 48.895 73.455L90.8169 37.9071C94.3145 34.9412 96.5038 30.693 96.9019 26.0966C97.2997 21.5 95.8748 16.931 92.9399 13.3964C90.005 9.86182 85.8 7.65017 81.2515 7.24792ZM80.0034 21.5204C79.201 21.4494 78.4069 21.7042 77.7944 22.2235L77.1362 22.7821C78.3993 24.8364 78.9018 27.2055 78.6763 29.5057L81.7075 26.9354C82.3197 26.4161 82.7057 25.67 82.7759 24.8593L82.7749 24.8602C82.8451 24.0484 82.5937 23.2388 82.0728 22.6112C81.5514 21.9835 80.8061 21.5915 80.0034 21.5204Z" fill="white"/>
</g>
<defs>
<filter id="filter0_d_725_9549" x="7.10914" y="7.18231" width="93.5796" height="92.8382" filterUnits="userSpaceOnUse" color-interpolation-filters="sRGB">
<feFlood flood-opacity="0" result="BackgroundImageFix"/>
<feColorMatrix in="SourceAlpha" type="matrix" values="0 0 0 0 0 0 0 0 0 0 0 0 0 0 0 0 0 0 127 0" result="hardAlpha"/>
<feOffset dy="3.72143"/>
<feGaussianBlur stdDeviation="1.86071"/>
<feComposite in2="hardAlpha" operator="out"/>
<feColorMatrix type="matrix" values="0 0 0 0 0 0 0 0 0 0 0 0 0 0 0 0 0 0 0.25 0"/>
<feBlend mode="normal" in2="BackgroundImageFix" result="effect1_dropShadow_725_9549"/>
<feBlend mode="normal" in="SourceGraphic" in2="effect1_dropShadow_725_9549" result="shape"/>
</filter>
<filter id="filter1_d_725_9549" x="-0.000235558" y="0" width="107.799" height="107.203" filterUnits="userSpaceOnUse" color-interpolation-filters="sRGB">
<feFlood flood-opacity="0" result="BackgroundImageFix"/>
<feColorMatrix in="SourceAlpha" type="matrix" values="0 0 0 0 0 0 0 0 0 0 0 0 0 0 0 0 0 0 127 0" result="hardAlpha"/>
<feOffset dy="3.72143"/>
<feGaussianBlur stdDeviation="1.86071"/>
<feComposite in2="hardAlpha" operator="out"/>
<feColorMatrix type="matrix" values="0 0 0 0 0 0 0 0 0 0 0 0 0 0 0 0 0 0 0.25 0"/>
<feBlend mode="normal" in2="BackgroundImageFix" result="effect1_dropShadow_725_9549"/>
<feBlend mode="normal" in="SourceGraphic" in2="effect1_dropShadow_725_9549" result="shape"/>
</filter>
</defs>
</svg>
