<svg width="196" height="161" viewBox="0 0 196 161" fill="none" xmlns="http://www.w3.org/2000/svg">
<g>
<mask id="path-1-outside-1_935_36476" maskUnits="userSpaceOnUse" x="-5.31955" y="-2.33177" width="205.96" height="166.362" fill="black">
<rect fill="white" x="-5.31955" y="-2.33177" width="205.96" height="166.362"/>
<path d="M160.898 8.00095L161.354 8.92553C162.273 10.783 163.456 13.4848 164.272 15.5866C164.94 17.3064 165.316 18.3645 166.1 20.7287C166.789 22.8071 167.735 26.5256 168.182 28.9155C170.572 41.6866 168.64 51.8944 162.53 58.7734C159.196 62.5271 154.556 65.2591 148.969 66.7574C146.284 67.4778 143.957 67.7926 141.177 67.8116C135.778 67.8486 130.002 66.3175 125.159 63.5649C124.941 63.4412 124.727 63.3156 124.518 63.1903L127.385 73.8899L115.055 77.1937C120.261 79.004 125.053 82.7959 129.178 88.3914C129.58 88.9356 130.005 89.541 130.398 90.1205C130.51 86.6829 130.853 82.8448 131.395 79.246C131.926 75.721 132.915 71.4226 133.61 69.6181L133.868 68.9485L135.325 69.1137C136.127 69.2046 141.257 69.7453 146.725 70.3153C152.193 70.8852 156.68 71.3552 156.695 71.3596C156.71 71.3648 156.395 72.3593 155.996 73.5704C152.332 84.6653 150.676 98.0564 152.227 104.026C152.78 106.152 153.537 107.224 154.749 107.593C155.294 107.759 155.46 107.755 156.184 107.561C156.92 107.364 157.079 107.275 157.743 106.689C158.363 106.141 158.627 105.78 159.381 104.447C160.328 102.772 160.82 101.588 161.495 99.3601C163.831 91.6498 165.037 80.2446 165.219 64.1457C165.257 60.7898 165.277 60.5233 165.494 60.5179C165.623 60.5146 168.056 60.3312 170.901 60.1102C173.744 59.8893 176.086 59.7186 176.108 59.7305C176.243 59.8182 178.03 65.8492 179.058 69.6856C181.757 79.7675 183.382 87.8831 184.36 96.1727C185.032 101.866 185.373 107.451 185.261 110.909L185.223 112.053L160.966 118.553L161.24 117.845C162.572 114.404 164.442 106.464 165.601 99.338C166.754 92.2443 167.548 80.6277 167.376 73.3858C167.316 70.8889 167.284 70.6081 167.057 70.5834C166.834 70.5591 166.83 70.5739 166.821 71.4403C166.748 78.6528 166.114 87.6282 165.272 93.3591C164.235 100.418 162.194 107.998 160.293 111.845C157.868 116.754 155.42 119.477 152.074 120.989C150.855 121.539 149.901 121.797 148.503 121.952C142.778 122.587 137.991 119.3 134.607 112.41C134.451 112.093 134.299 111.766 134.149 111.43C135.725 116.315 136.931 120.049 137.875 122.957C138.161 123.838 138.385 124.578 138.372 124.601C138.324 124.686 134.202 125.795 132.227 126.254C123.852 128.204 116.679 129.021 109.973 128.791C98.2667 128.389 89.4029 124.534 84.3513 117.709C85.7092 120.541 86.7267 123.232 87.4214 125.825C88.4132 129.527 88.6107 131.742 88.1569 134.078C87.857 135.622 87.2136 136.85 86.2972 137.627C85.4043 138.384 83.8531 138.818 82.4755 138.696C79.514 138.433 75.8891 136.409 71.6847 132.671C69.8218 131.015 68.2148 129.258 63.334 123.542C61.7487 121.685 59.9362 120.056 58.834 119.497C56.2548 118.189 53.5019 119.024 52.9881 121.27C52.8497 121.875 52.8853 122.122 53.3586 123.825C53.7052 125.072 54.3306 126.783 55.2057 128.881C57.3521 134.025 58.2285 137.301 58.2719 140.341C58.3074 142.828 57.56 145.032 56.3262 146.078C55.4193 146.847 53.7823 147.256 52.1129 147.129C47.6541 146.79 42.3975 143.211 36.4411 136.459C29.8486 128.985 24.514 119.841 22.1724 112C20.9563 107.928 20.6553 105.353 21.1184 102.985C21.523 100.915 22.6466 99.4912 24.2081 98.7646C23.7925 98.6144 23.3831 98.4402 22.9795 98.2417C20.5898 97.0663 18.4748 94.887 17.2254 92.3122C15.4537 88.6614 14.9725 84.7852 15.8191 80.9833C16.8355 76.4186 19.2326 71.4524 23.1397 65.8151C23.7049 64.9996 24.0062 64.5828 25.132 63.0599C25.9165 61.9987 27.5847 59.9438 28.7873 58.5566C29.9258 57.2436 30.3347 56.8013 31.7826 55.3188C32.1994 54.8921 32.6677 54.4025 32.8231 54.2307C32.9786 54.059 33.1981 53.8162 33.3112 53.6913C33.4242 53.5663 33.7627 53.1514 34.0633 52.7692C35.014 51.56 35.4828 50.4983 35.5423 49.4203C35.5663 48.9838 35.5402 48.8373 35.2366 47.7207C34.9494 46.6638 34.8679 46.436 34.6332 46.0336C33.9559 44.8723 33.2483 44.3003 32.2394 44.0986C31.7138 43.9934 31.7082 43.994 30.9038 44.2094C30.1763 44.4043 30.0482 44.4578 29.6163 44.7485C27.7127 46.0294 26.0705 48.4198 24.7133 51.885C24.2312 53.1159 23.1712 55.0073 22.4417 55.9386C20.3578 58.5989 17.8316 60.3897 14.6334 61.4733L14.0991 61.6543L10.6031 48.6069L22.954 45.2995C29.747 43.4805 35.7523 41.9003 36.2991 41.7879C39.4413 41.142 42.5325 41.0689 45.6433 41.5667C50.0662 42.2745 54.1658 44.0698 57.6181 46.8105C59.471 48.2815 61.2042 50.2484 62.2346 52.0498C62.8573 53.1386 63.1814 53.9076 63.5583 55.191C63.6561 55.5241 64.822 59.7227 66.2887 65.0152C66.5135 64.7907 66.7273 64.5449 66.9296 64.277L67.0141 64.1627C67.9577 62.8494 68.6862 61.2662 69.1966 59.4095C69.7085 57.5478 70.0507 55.491 70.2222 53.2383L70.2223 53.2366L70.2223 53.2352C70.4348 50.9097 70.4932 48.5656 70.3973 46.2029C70.3014 43.8392 70.0738 41.5412 69.7144 39.3089L69.714 39.3068L69.7136 39.3045C69.3947 36.9995 68.9892 34.9296 68.4973 33.0941L68.445 32.8987L109.415 21.9208L116.682 49.0414L116.523 49.11L96.4432 57.7594L120.296 51.3682C118.551 48.5516 117.21 44.8097 116.331 40.2661C116.114 39.1391 116.109 39.1144 115.917 37.8824C115.026 32.1671 114.698 25.1114 115.134 21.013L115.213 20.2702L125.285 17.5715C130.824 16.0873 135.354 14.8929 135.35 14.9172C135.346 14.9423 135.174 15.5674 134.968 16.3071C134.762 17.0472 134.463 18.1843 134.305 18.8338C134.147 19.4832 133.987 20.1373 133.95 20.2873C133.455 22.2862 132.358 27.6988 132.02 29.8038C130.975 36.3126 130.953 41.6063 131.96 44.3169C132.645 46.162 133.585 46.992 134.978 46.9821C135.387 46.9792 136.064 46.8127 136.411 46.6297C138.451 45.5556 140.052 42.3843 141.071 37.3968C141.93 33.195 142.558 27.0936 142.82 20.4009C142.926 17.6915 142.975 13.2064 142.902 12.9326C142.885 12.8671 144.005 12.5539 151.078 10.6455C155.587 9.42917 159.64 8.33658 160.086 8.2175L160.898 8.00095ZM130.374 93.9109C129.277 94.7942 127.696 96.0616 125.952 97.4553C122.688 100.062 119.401 102.688 118.646 103.291C117.892 103.894 116.361 105.116 115.244 106.008C114.127 106.9 113.197 107.657 113.177 107.69C113.158 107.724 113.276 107.735 113.44 107.715C118.966 107.029 123.042 106.25 129.643 104.617L131.746 104.097C131.195 101.763 130.781 99.2929 130.538 96.81C130.453 95.9402 130.399 94.9648 130.374 93.9109ZM103.481 78.8574C102.36 78.2762 101.355 78.2455 99.902 78.7479C97.0706 79.7267 93.9818 82.7977 92.0302 86.5747C88.606 93.2015 89.1793 99.6465 93.5422 103.574C96.5561 106.287 101.473 107.863 107.338 107.994C108.301 108.016 109.762 107.997 110.065 107.959C110.212 107.941 110.221 107.888 110.297 106.626C110.758 98.9403 109.563 89.7141 107.4 84.2647C106.32 81.5428 104.911 79.5991 103.481 78.8574ZM45.9139 79.5513C45.5326 81.4518 45.1061 83.0243 44.4402 84.9865C44.2198 85.6358 43.4236 87.6473 43.1923 88.1391C42.7834 89.0082 42.6289 89.3135 42.2441 90.0118C41.2052 91.8971 40.4673 92.9767 39.3497 94.2476C37.0287 96.8868 34.5476 98.4271 31.498 99.1215C31.3685 99.1509 31.2442 99.1779 31.1241 99.203C31.9478 99.5761 32.7863 100.055 33.6246 100.643C36.3748 102.573 38.5288 104.653 43.7643 110.434C48.0223 115.135 49.4537 116.515 51.0945 117.5C52.233 118.184 53.0598 118.354 54.0114 118.099C55.4953 117.701 56.459 116.678 56.5917 115.357C56.6852 114.428 55.9453 112.156 54.9593 110.344C51.636 104.239 50.1322 98.5281 50.8403 94.7028C51.1189 93.1976 52.0103 91.6412 53.0033 90.926C54.074 90.1547 55.9647 89.7404 57.4975 89.9417C64.2104 90.8223 72.8451 98.5497 80.199 110.257C80.5869 110.875 80.9602 111.486 81.3198 112.09C81.122 111.539 80.9334 110.948 80.7399 110.279C80.2175 108.475 79.9779 107.252 79.8134 105.55C79.097 98.1396 81.6918 90.6676 86.9591 84.9729C87.0544 84.8698 87.164 84.7564 87.2843 84.6348L76.7494 87.4576L76.668 87.3469L69.9386 78.1996C71.3581 83.3326 72.4929 87.4434 72.6444 88.0104L72.7265 88.3177L71.6758 88.56C65.4449 89.9964 58.6608 88.6364 53.0872 84.8335C50.4987 83.0673 48.3875 81.0193 46.3717 78.3193L46.2056 78.0969L45.9139 79.5513ZM89.3931 82.6789C89.853 82.2803 90.2829 81.9259 90.604 81.6868C92.9221 79.9616 95.2693 78.6898 98.0643 77.6448C99.1637 77.2337 102.403 76.403 103.552 76.2377C103.861 76.1933 104.165 76.1541 104.465 76.1195L102.92 69.0285L86.1435 73.5237L89.3931 82.6789ZM144.398 14.4925C144.118 13.8269 143.982 13.6802 144.026 14.0895C144.1 14.7939 144.283 17.8833 144.337 19.3436C144.532 24.647 144.394 29.7862 143.903 35.5627C143.824 36.4896 143.636 38.1996 143.481 39.4068C142.369 48.0373 139.225 53.8949 134.447 56.2354C132.01 57.4293 129.232 57.7039 126.876 56.9839C125.514 56.5678 124.256 55.8306 123.049 54.7411C122.672 54.4014 122.308 54.0304 121.956 53.6291L123.975 61.1665C126.196 61.9937 128.88 62.3548 131.447 62.1565C132.848 62.0483 133.351 61.959 134.9 61.5435C136.679 61.0662 137.799 60.6229 139.133 59.8684C142.697 57.8529 145.455 54.8894 147.407 50.9813C148.553 48.6851 149.461 45.565 149.791 42.7864C150.338 38.1764 149.968 33.4009 148.586 27.2329C147.768 23.5852 146.142 18.6378 144.398 14.4925ZM36.8082 52.4501C36.5299 52.8469 36.2926 53.1919 36.2809 53.2167C36.2689 53.2421 36.0616 53.5712 35.8199 53.9487C32.536 59.078 31.0501 64.1842 31.5333 68.6798C31.6193 69.4801 32.1238 71.3773 32.4357 72.0733C33.2442 73.8778 34.3294 75.1616 35.9765 76.2624C38.2599 77.7885 41.5107 78.2573 44.8121 77.5366C45.288 77.4327 45.6714 77.3253 45.664 77.2979C45.6566 77.2703 45.4956 76.9989 45.3062 76.6945C44.6505 75.6401 43.9317 74.2638 43.3795 73.005C42.633 71.3035 42.6558 71.3808 39.9253 61.3351L37.3142 51.7288L36.8082 52.4501ZM87.4014 60.1821L91.964 58.9596L88.5196 46.1049L87.4014 60.1821ZM68.7791 61.3035L68.8412 61.1443C68.8481 61.1262 68.8547 61.108 68.8615 61.09C68.8344 61.1616 68.8071 61.2328 68.7791 61.3035ZM70.6292 47.2234C70.6282 47.1769 70.6277 47.1305 70.6265 47.084L70.6258 47.0564C70.6272 47.1121 70.628 47.1677 70.6292 47.2234ZM68.9095 33.899C68.897 33.8476 68.8849 33.7962 68.8722 33.7452L68.8666 33.7229C68.8812 33.7813 68.8952 33.8401 68.9095 33.899Z"/>
</mask>
<path d="M160.898 8.00095L161.354 8.92553C162.273 10.783 163.456 13.4848 164.272 15.5866C164.94 17.3064 165.316 18.3645 166.1 20.7287C166.789 22.8071 167.735 26.5256 168.182 28.9155C170.572 41.6866 168.64 51.8944 162.53 58.7734C159.196 62.5271 154.556 65.2591 148.969 66.7574C146.284 67.4778 143.957 67.7926 141.177 67.8116C135.778 67.8486 130.002 66.3175 125.159 63.5649C124.941 63.4412 124.727 63.3156 124.518 63.1903L127.385 73.8899L115.055 77.1937C120.261 79.004 125.053 82.7959 129.178 88.3914C129.58 88.9356 130.005 89.541 130.398 90.1205C130.51 86.6829 130.853 82.8448 131.395 79.246C131.926 75.721 132.915 71.4226 133.61 69.6181L133.868 68.9485L135.325 69.1137C136.127 69.2046 141.257 69.7453 146.725 70.3153C152.193 70.8852 156.68 71.3552 156.695 71.3596C156.71 71.3648 156.395 72.3593 155.996 73.5704C152.332 84.6653 150.676 98.0564 152.227 104.026C152.78 106.152 153.537 107.224 154.749 107.593C155.294 107.759 155.46 107.755 156.184 107.561C156.92 107.364 157.079 107.275 157.743 106.689C158.363 106.141 158.627 105.78 159.381 104.447C160.328 102.772 160.82 101.588 161.495 99.3601C163.831 91.6498 165.037 80.2446 165.219 64.1457C165.257 60.7898 165.277 60.5233 165.494 60.5179C165.623 60.5146 168.056 60.3312 170.901 60.1102C173.744 59.8893 176.086 59.7186 176.108 59.7305C176.243 59.8182 178.03 65.8492 179.058 69.6856C181.757 79.7675 183.382 87.8831 184.36 96.1727C185.032 101.866 185.373 107.451 185.261 110.909L185.223 112.053L160.966 118.553L161.24 117.845C162.572 114.404 164.442 106.464 165.601 99.338C166.754 92.2443 167.548 80.6277 167.376 73.3858C167.316 70.8889 167.284 70.6081 167.057 70.5834C166.834 70.5591 166.83 70.5739 166.821 71.4403C166.748 78.6528 166.114 87.6282 165.272 93.3591C164.235 100.418 162.194 107.998 160.293 111.845C157.868 116.754 155.42 119.477 152.074 120.989C150.855 121.539 149.901 121.797 148.503 121.952C142.778 122.587 137.991 119.3 134.607 112.41C134.451 112.093 134.299 111.766 134.149 111.43C135.725 116.315 136.931 120.049 137.875 122.957C138.161 123.838 138.385 124.578 138.372 124.601C138.324 124.686 134.202 125.795 132.227 126.254C123.852 128.204 116.679 129.021 109.973 128.791C98.2667 128.389 89.4029 124.534 84.3513 117.709C85.7092 120.541 86.7267 123.232 87.4214 125.825C88.4132 129.527 88.6107 131.742 88.1569 134.078C87.857 135.622 87.2136 136.85 86.2972 137.627C85.4043 138.384 83.8531 138.818 82.4755 138.696C79.514 138.433 75.8891 136.409 71.6847 132.671C69.8218 131.015 68.2148 129.258 63.334 123.542C61.7487 121.685 59.9362 120.056 58.834 119.497C56.2548 118.189 53.5019 119.024 52.9881 121.27C52.8497 121.875 52.8853 122.122 53.3586 123.825C53.7052 125.072 54.3306 126.783 55.2057 128.881C57.3521 134.025 58.2285 137.301 58.2719 140.341C58.3074 142.828 57.56 145.032 56.3262 146.078C55.4193 146.847 53.7823 147.256 52.1129 147.129C47.6541 146.79 42.3975 143.211 36.4411 136.459C29.8486 128.985 24.514 119.841 22.1724 112C20.9563 107.928 20.6553 105.353 21.1184 102.985C21.523 100.915 22.6466 99.4912 24.2081 98.7646C23.7925 98.6144 23.3831 98.4402 22.9795 98.2417C20.5898 97.0663 18.4748 94.887 17.2254 92.3122C15.4537 88.6614 14.9725 84.7852 15.8191 80.9833C16.8355 76.4186 19.2326 71.4524 23.1397 65.8151C23.7049 64.9996 24.0062 64.5828 25.132 63.0599C25.9165 61.9987 27.5847 59.9438 28.7873 58.5566C29.9258 57.2436 30.3347 56.8013 31.7826 55.3188C32.1994 54.8921 32.6677 54.4025 32.8231 54.2307C32.9786 54.059 33.1981 53.8162 33.3112 53.6913C33.4242 53.5663 33.7627 53.1514 34.0633 52.7692C35.014 51.56 35.4828 50.4983 35.5423 49.4203C35.5663 48.9838 35.5402 48.8373 35.2366 47.7207C34.9494 46.6638 34.8679 46.436 34.6332 46.0336C33.9559 44.8723 33.2483 44.3003 32.2394 44.0986C31.7138 43.9934 31.7082 43.994 30.9038 44.2094C30.1763 44.4043 30.0482 44.4578 29.6163 44.7485C27.7127 46.0294 26.0705 48.4198 24.7133 51.885C24.2312 53.1159 23.1712 55.0073 22.4417 55.9386C20.3578 58.5989 17.8316 60.3897 14.6334 61.4733L14.0991 61.6543L10.6031 48.6069L22.954 45.2995C29.747 43.4805 35.7523 41.9003 36.2991 41.7879C39.4413 41.142 42.5325 41.0689 45.6433 41.5667C50.0662 42.2745 54.1658 44.0698 57.6181 46.8105C59.471 48.2815 61.2042 50.2484 62.2346 52.0498C62.8573 53.1386 63.1814 53.9076 63.5583 55.191C63.6561 55.5241 64.822 59.7227 66.2887 65.0152C66.5135 64.7907 66.7273 64.5449 66.9296 64.277L67.0141 64.1627C67.9577 62.8494 68.6862 61.2662 69.1966 59.4095C69.7085 57.5478 70.0507 55.491 70.2222 53.2383L70.2223 53.2366L70.2223 53.2352C70.4348 50.9097 70.4932 48.5656 70.3973 46.2029C70.3014 43.8392 70.0738 41.5412 69.7144 39.3089L69.714 39.3068L69.7136 39.3045C69.3947 36.9995 68.9892 34.9296 68.4973 33.0941L68.445 32.8987L109.415 21.9208L116.682 49.0414L116.523 49.11L96.4432 57.7594L120.296 51.3682C118.551 48.5516 117.21 44.8097 116.331 40.2661C116.114 39.1391 116.109 39.1144 115.917 37.8824C115.026 32.1671 114.698 25.1114 115.134 21.013L115.213 20.2702L125.285 17.5715C130.824 16.0873 135.354 14.8929 135.35 14.9172C135.346 14.9423 135.174 15.5674 134.968 16.3071C134.762 17.0472 134.463 18.1843 134.305 18.8338C134.147 19.4832 133.987 20.1373 133.95 20.2873C133.455 22.2862 132.358 27.6988 132.02 29.8038C130.975 36.3126 130.953 41.6063 131.96 44.3169C132.645 46.162 133.585 46.992 134.978 46.9821C135.387 46.9792 136.064 46.8127 136.411 46.6297C138.451 45.5556 140.052 42.3843 141.071 37.3968C141.93 33.195 142.558 27.0936 142.82 20.4009C142.926 17.6915 142.975 13.2064 142.902 12.9326C142.885 12.8671 144.005 12.5539 151.078 10.6455C155.587 9.42917 159.64 8.33658 160.086 8.2175L160.898 8.00095ZM130.374 93.9109C129.277 94.7942 127.696 96.0616 125.952 97.4553C122.688 100.062 119.401 102.688 118.646 103.291C117.892 103.894 116.361 105.116 115.244 106.008C114.127 106.9 113.197 107.657 113.177 107.69C113.158 107.724 113.276 107.735 113.44 107.715C118.966 107.029 123.042 106.25 129.643 104.617L131.746 104.097C131.195 101.763 130.781 99.2929 130.538 96.81C130.453 95.9402 130.399 94.9648 130.374 93.9109ZM103.481 78.8574C102.36 78.2762 101.355 78.2455 99.902 78.7479C97.0706 79.7267 93.9818 82.7977 92.0302 86.5747C88.606 93.2015 89.1793 99.6465 93.5422 103.574C96.5561 106.287 101.473 107.863 107.338 107.994C108.301 108.016 109.762 107.997 110.065 107.959C110.212 107.941 110.221 107.888 110.297 106.626C110.758 98.9403 109.563 89.7141 107.4 84.2647C106.32 81.5428 104.911 79.5991 103.481 78.8574ZM45.9139 79.5513C45.5326 81.4518 45.1061 83.0243 44.4402 84.9865C44.2198 85.6358 43.4236 87.6473 43.1923 88.1391C42.7834 89.0082 42.6289 89.3135 42.2441 90.0118C41.2052 91.8971 40.4673 92.9767 39.3497 94.2476C37.0287 96.8868 34.5476 98.4271 31.498 99.1215C31.3685 99.1509 31.2442 99.1779 31.1241 99.203C31.9478 99.5761 32.7863 100.055 33.6246 100.643C36.3748 102.573 38.5288 104.653 43.7643 110.434C48.0223 115.135 49.4537 116.515 51.0945 117.5C52.233 118.184 53.0598 118.354 54.0114 118.099C55.4953 117.701 56.459 116.678 56.5917 115.357C56.6852 114.428 55.9453 112.156 54.9593 110.344C51.636 104.239 50.1322 98.5281 50.8403 94.7028C51.1189 93.1976 52.0103 91.6412 53.0033 90.926C54.074 90.1547 55.9647 89.7404 57.4975 89.9417C64.2104 90.8223 72.8451 98.5497 80.199 110.257C80.5869 110.875 80.9602 111.486 81.3198 112.09C81.122 111.539 80.9334 110.948 80.7399 110.279C80.2175 108.475 79.9779 107.252 79.8134 105.55C79.097 98.1396 81.6918 90.6676 86.9591 84.9729C87.0544 84.8698 87.164 84.7564 87.2843 84.6348L76.7494 87.4576L76.668 87.3469L69.9386 78.1996C71.3581 83.3326 72.4929 87.4434 72.6444 88.0104L72.7265 88.3177L71.6758 88.56C65.4449 89.9964 58.6608 88.6364 53.0872 84.8335C50.4987 83.0673 48.3875 81.0193 46.3717 78.3193L46.2056 78.0969L45.9139 79.5513ZM89.3931 82.6789C89.853 82.2803 90.2829 81.9259 90.604 81.6868C92.9221 79.9616 95.2693 78.6898 98.0643 77.6448C99.1637 77.2337 102.403 76.403 103.552 76.2377C103.861 76.1933 104.165 76.1541 104.465 76.1195L102.92 69.0285L86.1435 73.5237L89.3931 82.6789ZM144.398 14.4925C144.118 13.8269 143.982 13.6802 144.026 14.0895C144.1 14.7939 144.283 17.8833 144.337 19.3436C144.532 24.647 144.394 29.7862 143.903 35.5627C143.824 36.4896 143.636 38.1996 143.481 39.4068C142.369 48.0373 139.225 53.8949 134.447 56.2354C132.01 57.4293 129.232 57.7039 126.876 56.9839C125.514 56.5678 124.256 55.8306 123.049 54.7411C122.672 54.4014 122.308 54.0304 121.956 53.6291L123.975 61.1665C126.196 61.9937 128.88 62.3548 131.447 62.1565C132.848 62.0483 133.351 61.959 134.9 61.5435C136.679 61.0662 137.799 60.6229 139.133 59.8684C142.697 57.8529 145.455 54.8894 147.407 50.9813C148.553 48.6851 149.461 45.565 149.791 42.7864C150.338 38.1764 149.968 33.4009 148.586 27.2329C147.768 23.5852 146.142 18.6378 144.398 14.4925ZM36.8082 52.4501C36.5299 52.8469 36.2926 53.1919 36.2809 53.2167C36.2689 53.2421 36.0616 53.5712 35.8199 53.9487C32.536 59.078 31.0501 64.1842 31.5333 68.6798C31.6193 69.4801 32.1238 71.3773 32.4357 72.0733C33.2442 73.8778 34.3294 75.1616 35.9765 76.2624C38.2599 77.7885 41.5107 78.2573 44.8121 77.5366C45.288 77.4327 45.6714 77.3253 45.664 77.2979C45.6566 77.2703 45.4956 76.9989 45.3062 76.6945C44.6505 75.6401 43.9317 74.2638 43.3795 73.005C42.633 71.3035 42.6558 71.3808 39.9253 61.3351L37.3142 51.7288L36.8082 52.4501ZM87.4014 60.1821L91.964 58.9596L88.5196 46.1049L87.4014 60.1821ZM68.7791 61.3035L68.8412 61.1443C68.8481 61.1262 68.8547 61.108 68.8615 61.09C68.8344 61.1616 68.8071 61.2328 68.7791 61.3035ZM70.6292 47.2234C70.6282 47.1769 70.6277 47.1305 70.6265 47.084L70.6258 47.0564C70.6272 47.1121 70.628 47.1677 70.6292 47.2234ZM68.9095 33.899C68.897 33.8476 68.8849 33.7962 68.8722 33.7452L68.8666 33.7229C68.8812 33.7813 68.8952 33.8401 68.9095 33.899Z" fill="#2A2A2A"/>
<path d="M68.542 61.8696L72.2015 63.4844C72.2435 63.3893 72.2904 63.2818 72.3386 63.167L68.651 61.6172L64.9635 60.0674C64.9404 60.1224 64.9141 60.1829 64.8824 60.2547L68.542 61.8696ZM69.3896 59.4644L65.5327 58.404C65.4997 58.5243 65.4643 58.6465 65.4265 58.7716L69.2559 59.9273L73.0853 61.0829C73.1396 60.9031 73.1937 60.7168 73.2465 60.5247L69.3896 59.4644ZM70.3953 43.1206L74.3786 42.7558C74.3659 42.6167 74.3528 42.4807 74.34 42.3504L70.3591 42.7413L66.3783 43.1321C66.3903 43.2545 66.4015 43.3711 66.412 43.4854L70.3953 43.1206ZM160.898 8.00095L168.07 4.45697C166.381 1.03998 162.517 -0.711391 158.834 0.271604L160.898 8.00095ZM161.354 8.92553L154.182 12.4695L154.183 12.4705L161.354 8.92553ZM164.272 15.5866L156.815 18.4824L156.815 18.4826L164.272 15.5866ZM166.1 20.7287L158.506 23.2457L158.506 23.246L166.1 20.7287ZM168.182 28.9155L160.318 30.3874L160.318 30.3874L168.182 28.9155ZM162.53 58.7734L168.512 64.086L168.512 64.086L162.53 58.7734ZM148.969 66.7574L146.897 59.0305L146.897 59.0306L148.969 66.7574ZM141.177 67.8116L141.123 59.8118L141.123 59.8118L141.177 67.8116ZM125.159 63.5649L129.112 56.6097L129.112 56.6097L125.159 63.5649ZM124.518 63.1903L128.631 56.3286C125.835 54.6527 122.302 54.8407 119.7 56.8037C117.098 58.7667 115.947 62.1123 116.79 65.2608L124.518 63.1903ZM127.385 73.8899L129.455 81.6173C133.723 80.4738 136.256 76.0871 135.112 71.8194L127.385 73.8899ZM115.055 77.1937L112.984 69.4663C109.591 70.3754 107.188 73.3918 107.06 76.9022C106.932 80.4127 109.109 83.596 112.427 84.7498L115.055 77.1937ZM129.178 88.3914L135.618 83.6442L135.618 83.6442L129.178 88.3914ZM130.398 90.1205L123.778 94.6123C125.724 97.4797 129.294 98.7686 132.623 97.805C135.951 96.8415 138.281 93.8446 138.394 90.3813L130.398 90.1205ZM131.395 79.246L123.485 78.0535L123.484 78.0537L131.395 79.246ZM133.61 69.6181L126.145 66.7432L126.145 66.7436L133.61 69.6181ZM133.868 68.9485L134.769 60.9994C131.15 60.5892 127.711 62.675 126.403 66.0736L133.868 68.9485ZM135.325 69.1137L136.227 61.1647L136.227 61.1646L135.325 69.1137ZM146.725 70.3153L145.896 78.2721L146.725 70.3153ZM156.695 71.3596L159.297 63.7945C159.164 63.7489 159.031 63.7068 158.896 63.6683L156.695 71.3596ZM155.996 73.5704L163.592 76.0786L163.592 76.0784L155.996 73.5704ZM152.227 104.026L159.97 102.014L159.97 102.014L152.227 104.026ZM154.749 107.593L157.082 99.9405L157.081 99.9403L154.749 107.593ZM156.184 107.561L158.255 115.289V115.289L156.184 107.561ZM157.743 106.689L163.037 112.686L163.037 112.686L157.743 106.689ZM159.381 104.447L152.417 100.51L152.416 100.51L159.381 104.447ZM161.495 99.3601L153.839 97.04L153.839 97.0401L161.495 99.3601ZM165.219 64.1457L157.22 64.0555L157.22 64.0555L165.219 64.1457ZM165.494 60.5179L165.693 68.5155L165.701 68.5153L165.494 60.5179ZM170.901 60.1102L171.52 68.0862L171.52 68.0862L170.901 60.1102ZM176.108 59.7305L180.457 53.0158C180.306 52.9181 180.152 52.8256 179.995 52.7382L176.108 59.7305ZM179.058 69.6856L186.785 67.6162L186.785 67.6161L179.058 69.6856ZM184.36 96.1727L176.415 97.1099L176.415 97.11L184.36 96.1727ZM185.261 110.909L193.256 111.169L193.256 111.168L185.261 110.909ZM185.223 112.053L187.294 119.781C190.698 118.869 193.104 115.836 193.219 112.314L185.223 112.053ZM160.966 118.553L153.505 115.666C152.418 118.475 153.001 121.657 155.014 123.898C157.026 126.139 160.127 127.06 163.037 126.28L160.966 118.553ZM161.24 117.845L168.701 120.732L168.701 120.732L161.24 117.845ZM165.601 99.338L157.704 98.0545L157.704 98.0546L165.601 99.338ZM167.376 73.3858L175.373 73.1953L175.373 73.1952L167.376 73.3858ZM167.057 70.5834L167.923 62.6304L167.923 62.6303L167.057 70.5834ZM166.821 71.4403L158.822 71.3586L158.822 71.3589L166.821 71.4403ZM165.272 93.3591L173.187 94.5213L173.187 94.5213L165.272 93.3591ZM160.293 111.845L167.466 115.389L167.466 115.389L160.293 111.845ZM152.074 120.989L155.367 128.279L155.367 128.279L152.074 120.989ZM148.503 121.952L149.386 129.903L149.386 129.903L148.503 121.952ZM134.607 112.41L127.426 115.937L127.426 115.937L134.607 112.41ZM134.149 111.43L141.459 108.18C139.732 104.294 135.265 102.438 131.292 103.957C127.32 105.476 125.23 109.837 126.535 113.885L134.149 111.43ZM137.875 122.957L130.266 125.427L130.266 125.427L137.875 122.957ZM138.372 124.601L145.323 128.562C145.349 128.517 145.374 128.471 145.4 128.425L138.372 124.601ZM132.227 126.254L134.041 134.046L134.041 134.046L132.227 126.254ZM109.973 128.791L110.247 120.796L110.247 120.796L109.973 128.791ZM84.3513 117.709L90.7816 112.95C88.3279 109.635 83.7562 108.728 80.2234 110.856C76.6905 112.984 75.3545 117.449 77.1379 121.168L84.3513 117.709ZM87.4214 125.825L95.1488 123.754V123.754L87.4214 125.825ZM88.1569 134.078L80.3037 132.553L80.3037 132.553L88.1569 134.078ZM86.2972 137.627L91.4709 143.729L91.4717 143.728L86.2972 137.627ZM82.4755 138.696L83.1831 130.727L83.183 130.727L82.4755 138.696ZM71.6847 132.671L66.3688 138.649L66.3692 138.65L71.6847 132.671ZM63.334 123.542L69.418 118.347L69.4178 118.347L63.334 123.542ZM58.834 119.497L62.4529 112.362L62.4523 112.362L58.834 119.497ZM52.9881 121.27L45.1896 119.486L45.1895 119.486L52.9881 121.27ZM53.3586 123.825L45.6508 125.967L45.6509 125.967L53.3586 123.825ZM55.2057 128.881L62.5889 125.8L62.5888 125.8L55.2057 128.881ZM58.2719 140.341L66.2711 140.226L66.2711 140.226L58.2719 140.341ZM56.3262 146.078L51.1524 139.977L51.152 139.977L56.3262 146.078ZM52.1129 147.129L52.7189 139.152L52.7187 139.152L52.1129 147.129ZM36.4411 136.459L30.4417 141.751L30.4418 141.751L36.4411 136.459ZM22.1724 112L29.8379 109.711L29.8379 109.711L22.1724 112ZM21.1184 102.985L28.9697 104.52L28.9698 104.52L21.1184 102.985ZM24.2081 98.7646L27.5833 106.018C30.5211 104.651 32.3441 101.647 32.2002 98.4095C32.0564 95.1724 29.9742 92.3418 26.9268 91.2407L24.2081 98.7646ZM22.9795 98.2417L19.4485 105.42L19.4488 105.42L22.9795 98.2417ZM17.2254 92.3122L24.4227 88.8196L24.4227 88.8195L17.2254 92.3122ZM15.8191 80.9833L8.01035 79.2444L8.01035 79.2445L15.8191 80.9833ZM23.1397 65.8151L16.5646 61.258L16.5646 61.258L23.1397 65.8151ZM25.132 63.0599L18.699 58.3042L18.699 58.3043L25.132 63.0599ZM28.7873 58.5566L22.743 53.3158L22.7428 53.3161L28.7873 58.5566ZM31.7826 55.3188L26.0597 49.7288L26.0594 49.7292L31.7826 55.3188ZM32.8231 54.2307L38.7542 59.5993V59.5993L32.8231 54.2307ZM33.3112 53.6913L39.2435 59.0585V59.0585L33.3112 53.6913ZM34.0633 52.7692L40.3518 57.7143L40.3522 57.7139L34.0633 52.7692ZM35.5423 49.4203L43.5302 49.861L43.5302 49.8601L35.5423 49.4203ZM35.2366 47.7207L27.5167 49.8189L27.5168 49.8192L35.2366 47.7207ZM34.6332 46.0336L27.7228 50.0642L27.7229 50.0644L34.6332 46.0336ZM32.2394 44.0986L30.6702 51.9432L30.6706 51.9433L32.2394 44.0986ZM30.9038 44.2094L28.8345 36.4817L28.8339 36.4818L30.9038 44.2094ZM29.6163 44.7485L25.1501 38.1113L25.1501 38.1113L29.6163 44.7485ZM24.7133 51.885L17.2643 48.9674L17.2643 48.9674L24.7133 51.885ZM22.4417 55.9386L28.7396 60.8719L28.7396 60.8719L22.4417 55.9386ZM14.6334 61.4733L17.2003 69.0503L17.2007 69.0502L14.6334 61.4733ZM14.0991 61.6543L6.37172 63.7249C6.94416 65.8613 8.37552 67.6653 10.3258 68.7085C12.2761 69.7517 14.5712 69.941 16.666 69.2313L14.0991 61.6543ZM10.6031 48.6069L8.53371 40.8791C6.48399 41.428 4.73629 42.7688 3.67518 44.6063C2.61406 46.4439 2.32647 48.6278 2.87567 50.6774L10.6031 48.6069ZM22.954 45.2995L20.8847 37.5718L20.8846 37.5718L22.954 45.2995ZM36.2991 41.7879L37.9094 49.6242L37.9099 49.6241L36.2991 41.7879ZM45.6433 41.5667L46.9075 33.6672L46.9074 33.6672L45.6433 41.5667ZM57.6181 46.8105L52.6439 53.0761L52.6439 53.0761L57.6181 46.8105ZM62.2346 52.0498L55.2902 56.0218L55.2902 56.0218L62.2346 52.0498ZM63.5583 55.191L55.8825 57.4453L55.8825 57.4453L63.5583 55.191ZM66.2887 65.0152L58.5793 67.1518C59.3392 69.8935 61.4978 72.0253 64.2488 72.7508C66.9997 73.4762 69.9289 72.6861 71.9419 70.6758L66.2887 65.0152ZM66.9296 64.277L73.3145 69.097C73.3306 69.0756 73.3467 69.0542 73.3626 69.0326L66.9296 64.277ZM67.0141 64.1627L73.4471 68.9184C73.4686 68.8893 73.4899 68.86 73.511 68.8306L67.0141 64.1627ZM69.1966 59.4095L76.9104 61.5302L76.9104 61.5301L69.1966 59.4095ZM70.2222 53.2383L62.2574 52.488C62.2529 52.5356 62.2489 52.5833 62.2453 52.631L70.2222 53.2383ZM70.2223 53.2366L78.1871 53.9869C78.2074 53.7707 78.219 53.5537 78.2217 53.3365L70.2223 53.2366ZM70.2223 53.2352L62.2555 52.5074C62.2364 52.7162 62.2256 52.9257 62.223 53.1353L70.2223 53.2352ZM70.3973 46.2029L62.4039 46.5272L62.4039 46.5272L70.3973 46.2029ZM69.7144 39.3089L77.6127 38.0374C77.6065 37.9989 77.6 37.9604 77.5932 37.922L69.7144 39.3089ZM69.714 39.3068L77.5929 37.9199C77.591 37.9092 77.5891 37.8985 77.5871 37.8877L69.714 39.3068ZM69.7136 39.3045L61.7891 40.4008C61.804 40.5087 61.8211 40.6163 61.8404 40.7235L69.7136 39.3045ZM68.4973 33.0941L76.2247 31.0236L76.2247 31.0236L68.4973 33.0941ZM68.445 32.8987L66.3744 25.1713C62.1067 26.3149 59.574 30.7016 60.7176 34.9693L68.445 32.8987ZM109.415 21.9208L117.143 19.8502C115.999 15.5825 111.613 13.0498 107.345 14.1934L109.415 21.9208ZM116.682 49.0414L119.849 56.388C123.496 54.8161 125.438 50.8068 124.41 46.9708L116.682 49.0414ZM116.523 49.11L119.688 56.4574L119.689 56.4567L116.523 49.11ZM96.4432 57.7594L93.2783 50.4121C89.4269 52.0711 87.5102 56.4226 88.886 60.384C90.2618 64.3455 94.4631 66.5722 98.5138 65.4868L96.4432 57.7594ZM120.296 51.3682L122.366 59.0956C124.811 58.4405 126.801 56.6674 127.733 54.3144C128.665 51.9614 128.429 49.3061 127.096 47.1547L120.296 51.3682ZM116.331 40.2661L108.477 41.7845L108.477 41.7845L116.331 40.2661ZM115.917 37.8824L123.822 36.6497L123.822 36.6496L115.917 37.8824ZM115.134 21.013L123.089 21.8591L123.089 21.8589L115.134 21.013ZM115.213 20.2702L113.143 12.5428C109.947 13.3992 107.608 16.1344 107.258 19.4244L115.213 20.2702ZM125.285 17.5715L123.215 9.84413V9.84413L125.285 17.5715ZM135.35 14.9172L143.252 16.1632L143.254 16.1503L135.35 14.9172ZM134.968 16.3071L127.262 14.1591L127.262 14.1596L134.968 16.3071ZM134.305 18.8338L142.077 20.7285V20.7285L134.305 18.8338ZM133.95 20.2873L141.716 22.207L141.716 22.2064L133.95 20.2873ZM132.02 29.8038L139.919 31.0719L139.919 31.0718L132.02 29.8038ZM131.96 44.3169L124.461 47.1019L124.461 47.102L131.96 44.3169ZM134.978 46.9821L135.035 54.9819L135.035 54.9819L134.978 46.9821ZM136.411 46.6297L132.684 39.551L132.684 39.5513L136.411 46.6297ZM141.071 37.3968L133.233 35.7948L133.233 35.7948L141.071 37.3968ZM142.82 20.4009L134.826 20.0878L134.826 20.0878L142.82 20.4009ZM142.902 12.9326L135.157 14.9371C135.163 14.9591 135.168 14.9811 135.174 15.0031L142.902 12.9326ZM151.078 10.6455L153.162 18.3693L153.162 18.3693L151.078 10.6455ZM160.086 8.2175L162.149 15.9471L162.15 15.9469L160.086 8.2175ZM130.374 93.9109L138.372 93.7207C138.299 90.6759 136.504 87.9364 133.742 86.6543C130.979 85.3722 127.728 85.7699 125.356 87.6802L130.374 93.9109ZM125.952 97.4553L120.959 91.2046V91.2046L125.952 97.4553ZM118.646 103.291L113.652 97.0412V97.0412L118.646 103.291ZM115.244 106.008L120.234 112.261V112.261L115.244 106.008ZM113.177 107.69L106.239 103.707C106.233 103.719 106.226 103.731 106.219 103.742L113.177 107.69ZM113.44 107.715L114.424 115.654L114.425 115.654L113.44 107.715ZM129.643 104.617L131.564 112.384L131.564 112.383L129.643 104.617ZM131.746 104.097L133.667 111.863C137.924 110.81 140.54 106.526 139.532 102.258L131.746 104.097ZM130.538 96.81L138.5 96.0305L138.5 96.0304L130.538 96.81ZM103.481 78.8574L107.163 71.7555L107.163 71.7555L103.481 78.8574ZM99.902 78.7479L102.516 86.309L102.516 86.3089L99.902 78.7479ZM92.0302 86.5747L84.923 82.9022L84.9229 82.9022L92.0302 86.5747ZM93.5422 103.574L88.1898 109.52L88.1899 109.52L93.5422 103.574ZM107.338 107.994L107.518 99.9964L107.518 99.9964L107.338 107.994ZM110.065 107.959L111.06 115.897L111.06 115.897L110.065 107.959ZM110.297 106.626L102.311 106.146L102.311 106.147L110.297 106.626ZM107.4 84.2647L114.836 81.3136L114.836 81.3135L107.4 84.2647ZM45.9139 79.5513L53.7576 81.125L53.7577 81.1245L45.9139 79.5513ZM44.4402 84.9865L52.0157 87.5581L52.0159 87.5574L44.4402 84.9865ZM43.1923 88.1391L50.4313 91.5445L50.4314 91.5442L43.1923 88.1391ZM42.2441 90.0118L49.2506 93.873L49.2506 93.873L42.2441 90.0118ZM39.3497 94.2476L33.3423 88.9645L33.3422 88.9646L39.3497 94.2476ZM31.498 99.1215L29.7218 91.3211L29.7216 91.3212L31.498 99.1215ZM31.1241 99.203L29.4859 91.3726C26.0982 92.0813 23.5504 94.8882 23.172 98.3285C22.7937 101.769 24.6706 105.062 27.8233 106.49L31.1241 99.203ZM33.6246 100.643L38.2198 94.0947L38.2196 94.0946L33.6246 100.643ZM43.7643 110.434L37.8348 115.804L37.8348 115.804L43.7643 110.434ZM51.0945 117.5L46.9748 124.358L46.975 124.358L51.0945 117.5ZM54.0114 118.099L56.0819 125.826L56.082 125.826L54.0114 118.099ZM56.5917 115.357L48.6319 114.557L48.6318 114.557L56.5917 115.357ZM54.9593 110.344L61.986 106.52L61.9858 106.52L54.9593 110.344ZM50.8403 94.7028L58.7067 96.159L58.7067 96.1589L50.8403 94.7028ZM53.0033 90.926L57.6789 97.4174L57.6792 97.4172L53.0033 90.926ZM57.4975 89.9417L56.4563 97.8736L56.4569 97.8737L57.4975 89.9417ZM80.199 110.257L86.9734 106.002L86.9734 106.002L80.199 110.257ZM81.3198 112.09L74.4459 116.182C76.554 119.723 81.0071 121.083 84.7339 119.325C88.4607 117.566 90.2419 113.264 88.8489 109.385L81.3198 112.09ZM80.7399 110.279L73.0555 112.504L73.0555 112.504L80.7399 110.279ZM79.8134 105.55L87.7763 104.781L87.7763 104.78L79.8134 105.55ZM86.9591 84.9729L81.0862 79.5406L81.0861 79.5407L86.9591 84.9729ZM87.2843 84.6348L92.972 90.2606C95.5125 87.6921 96.0164 83.7396 94.2015 80.6159C92.3866 77.4921 88.7033 75.9723 85.2137 76.9074L87.2843 84.6348ZM76.7494 87.4576L70.3019 92.1936C72.2536 94.8506 75.6354 96.0383 78.8199 95.185L76.7494 87.4576ZM76.668 87.3469L83.1155 82.6108L83.1121 82.6061L76.668 87.3469ZM69.9386 78.1996L76.3826 73.4589C74.0958 70.3504 69.9157 69.3175 66.4442 71.0031C62.9727 72.6888 61.1994 76.6124 62.228 80.3319L69.9386 78.1996ZM72.6444 88.0104L64.9156 90.0759L64.9157 90.0762L72.6444 88.0104ZM72.7265 88.3177L74.524 96.1131C76.6382 95.6256 78.4637 94.3003 79.582 92.441C80.7003 90.5817 81.0155 88.348 80.4552 86.2519L72.7265 88.3177ZM71.6758 88.56L73.473 96.3555L73.4733 96.3554L71.6758 88.56ZM53.0872 84.8335L48.5783 91.4418L48.5783 91.4418L53.0872 84.8335ZM46.3717 78.3193L52.7823 73.5334L52.7803 73.5308L46.3717 78.3193ZM46.2056 78.0969L52.6142 73.3084C50.7246 70.7795 47.5245 69.5983 44.445 70.293C41.3655 70.9877 38.9826 73.4285 38.3618 76.5237L46.2056 78.0969ZM89.3931 82.6789L81.854 85.3549C82.7384 87.8466 84.7968 89.7403 87.3533 90.4145C89.9099 91.0886 92.6344 90.4561 94.6325 88.7245L89.3931 82.6789ZM90.604 81.6868L95.3802 88.1046L95.3804 88.1045L90.604 81.6868ZM98.0643 77.6448L100.866 85.1382L100.866 85.1382L98.0643 77.6448ZM103.552 76.2377L104.692 84.1561L104.692 84.1561L103.552 76.2377ZM104.465 76.1195L105.382 84.0668C107.627 83.808 109.658 82.6112 110.973 80.7724C112.288 78.9336 112.763 76.6245 112.282 74.4159L104.465 76.1195ZM102.92 69.0285L110.736 67.3249C110.271 65.1879 108.95 63.3347 107.082 62.1966C105.214 61.0586 102.962 60.735 100.849 61.3011L102.92 69.0285ZM86.1435 73.5237L84.0729 65.7963C81.9171 66.374 80.1006 67.8259 79.0622 69.8014C78.0237 71.777 77.8578 74.0965 78.6043 76.1998L86.1435 73.5237ZM144.398 14.4925L151.771 11.3895L151.771 11.3894L144.398 14.4925ZM144.026 14.0895L151.981 13.2462L151.981 13.2459L144.026 14.0895ZM144.337 19.3436L152.332 19.0499L152.332 19.0497L144.337 19.3436ZM143.903 35.5627L135.932 34.8845L135.931 34.8849L143.903 35.5627ZM143.481 39.4068L135.546 38.3847L135.546 38.3847L143.481 39.4068ZM134.447 56.2354L130.927 49.0512L130.927 49.0512L134.447 56.2354ZM126.876 56.9839L124.538 64.6347L124.538 64.6347L126.876 56.9839ZM123.049 54.7411L128.408 48.8016L128.408 48.8016L123.049 54.7411ZM121.956 53.6291L127.968 48.3515C125.515 45.5575 121.461 44.8213 118.183 46.5746C114.905 48.3279 113.266 52.1086 114.228 55.6996L121.956 53.6291ZM123.975 61.1665L116.248 63.2371C116.918 65.7375 118.756 67.7592 121.182 68.6631L123.975 61.1665ZM131.447 62.1565L130.831 54.1802L130.831 54.1802L131.447 62.1565ZM134.9 61.5435L132.827 53.8168L132.827 53.8168L134.9 61.5435ZM139.133 59.8684L135.194 52.9051L135.194 52.9052L139.133 59.8684ZM147.407 50.9813L140.249 47.4075L140.249 47.4076L147.407 50.9813ZM149.791 42.7864L141.846 41.8438L141.846 41.8438L149.791 42.7864ZM148.586 27.2329L140.779 28.9819L140.779 28.982L148.586 27.2329ZM36.8082 52.4501L43.3574 57.0445L43.3577 57.0441L36.8082 52.4501ZM36.2809 53.2167L43.5116 56.6398L43.5175 56.6272L36.2809 53.2167ZM35.8199 53.9487L42.5574 58.2622L42.5575 58.2621L35.8199 53.9487ZM31.5333 68.6798L23.5791 69.5347L23.5791 69.535L31.5333 68.6798ZM32.4357 72.0733L39.7363 68.8021L39.7362 68.802L32.4357 72.0733ZM35.9765 76.2624L40.4218 69.6112L40.4217 69.6111L35.9765 76.2624ZM44.8121 77.5366L46.5185 85.3525L46.5188 85.3524L44.8121 77.5366ZM45.664 77.2979L53.3914 75.2273C53.3895 75.2201 53.3876 75.2129 53.3856 75.2057L45.664 77.2979ZM45.3062 76.6945L38.5129 80.9195V80.9195L45.3062 76.6945ZM43.3795 73.005L36.0535 76.2191L36.0535 76.2191L43.3795 73.005ZM39.9253 61.3351L32.2054 63.4334L32.2054 63.4334L39.9253 61.3351ZM37.3142 51.7288L45.0341 49.6304C44.2203 46.6364 41.7487 44.3829 38.6924 43.8484C35.6361 43.3139 32.5464 44.5947 30.7647 47.1348L37.3142 51.7288ZM87.4014 60.1821L79.4265 59.5487C79.2208 62.1394 80.2862 64.6685 82.2837 66.331C84.2812 67.9935 86.9617 68.5822 89.472 67.9096L87.4014 60.1821ZM91.964 58.9596L94.0346 66.687C98.3023 65.5435 100.835 61.1568 99.6914 56.8891L91.964 58.9596ZM88.5196 46.1049L96.247 44.0344C95.239 40.2726 91.6687 37.7833 87.7905 38.1382C83.9122 38.4931 80.8531 41.5892 80.5447 45.4715L88.5196 46.1049ZM68.7791 61.3035L61.3261 58.3962C59.7231 62.5058 61.749 67.1374 65.8548 68.7498C69.9606 70.3623 74.5969 68.347 76.2187 64.2449L68.7791 61.3035ZM68.8412 61.1443L76.2943 64.0515C76.2999 64.0371 76.3055 64.0227 76.311 64.0083L68.8412 61.1443ZM68.8615 61.09L76.3415 63.9271C77.9084 59.7961 75.8299 55.1771 71.699 53.6101C67.5681 52.043 62.949 54.1213 61.3818 58.2522L68.8615 61.09ZM62.6311 47.3973C62.7272 51.8146 66.3859 55.3176 70.8032 55.2215C75.2204 55.1254 78.7234 51.4667 78.6273 47.0495L70.6292 47.2234L62.6311 47.3973ZM70.6265 47.084L78.6242 46.8896L78.6239 46.8779L70.6265 47.084ZM70.6258 47.0564L78.6232 46.8503C78.5094 42.4349 74.8389 38.9473 70.4235 39.0589C66.0082 39.1706 62.5187 42.8394 62.6283 47.2548L70.6258 47.0564ZM61.1379 35.7969C62.1861 40.089 66.5153 42.7188 70.8075 41.6706C75.0996 40.6224 77.7293 36.2932 76.6811 32.0011L68.9095 33.899L61.1379 35.7969ZM68.8722 33.7452L76.6365 31.8175L76.6336 31.8061L68.8722 33.7452ZM68.8666 33.7229L76.6281 31.7838C75.5575 27.4987 71.2167 24.892 66.9311 25.9606C62.6454 27.0292 60.0367 31.3688 61.1034 35.655L68.8666 33.7229ZM160.898 8.00095L153.725 11.5449L154.182 12.4695L161.354 8.92553L168.527 5.38155L168.07 4.45697L160.898 8.00095ZM161.354 8.92553L154.183 12.4705C154.987 14.0983 156.077 16.582 156.815 18.4824L164.272 15.5866L171.73 12.6909C170.835 10.3877 169.558 7.46771 168.526 5.38059L161.354 8.92553ZM164.272 15.5866L156.815 18.4826C157.421 20.0429 157.751 20.9685 158.506 23.2457L166.1 20.7287L173.694 18.2116C172.881 15.7605 172.459 14.5699 171.73 12.6907L164.272 15.5866ZM166.1 20.7287L158.506 23.246C159.07 24.9475 159.93 28.3135 160.318 30.3874L168.182 28.9155L176.045 27.4437C175.539 24.7377 174.507 20.6667 173.693 18.2113L166.1 20.7287ZM168.182 28.9155L160.318 30.3874C162.452 41.7851 160.415 49.1087 156.549 53.4608L162.53 58.7734L168.512 64.086C176.866 54.6801 178.693 41.5882 176.045 27.4437L168.182 28.9155ZM162.53 58.7734L156.549 53.4608C154.405 55.8747 151.209 57.8741 146.897 59.0305L148.969 66.7574L151.042 74.4844C157.904 72.644 163.988 69.1795 168.512 64.086L162.53 58.7734ZM148.969 66.7574L146.897 59.0306C144.869 59.5744 143.22 59.7974 141.123 59.8118L141.177 67.8116L141.232 75.8114C144.693 75.7877 147.698 75.3812 151.042 74.4843L148.969 66.7574ZM141.177 67.8116L141.123 59.8118C137.173 59.8388 132.774 58.6913 129.112 56.6097L125.159 63.5649L121.206 70.5201C127.23 73.9437 134.382 75.8583 141.232 75.8114L141.177 67.8116ZM125.159 63.5649L129.112 56.6097C128.952 56.5189 128.791 56.4248 128.631 56.3286L124.518 63.1903L120.405 70.0519C120.662 70.2065 120.931 70.3635 121.206 70.5201L125.159 63.5649ZM124.518 63.1903L116.79 65.2608L119.657 75.9605L127.385 73.8899L135.112 71.8194L132.245 61.1197L124.518 63.1903ZM127.385 73.8899L125.314 66.1625L112.984 69.4663L115.055 77.1937L117.125 84.9211L129.455 81.6173L127.385 73.8899ZM115.055 77.1937L112.427 84.7498C115.76 85.9087 119.327 88.5102 122.739 93.1386L129.178 88.3914L135.618 83.6442C130.78 77.0816 124.761 72.0992 117.683 69.6375L115.055 77.1937ZM129.178 88.3914L122.739 93.1386C123.067 93.5834 123.432 94.1016 123.778 94.6123L130.398 90.1205L137.018 85.6288C136.578 84.9803 136.092 84.2877 135.618 83.6442L129.178 88.3914ZM130.398 90.1205L138.394 90.3813C138.496 87.2524 138.81 83.7253 139.306 80.4382L131.395 79.246L123.484 78.0537C122.895 81.9643 122.525 86.1135 122.402 89.8597L130.398 90.1205ZM131.395 79.246L139.306 80.4385C139.81 77.0936 140.697 73.4777 141.076 72.4926L133.61 69.6181L126.145 66.7436C125.134 69.3676 124.043 74.3485 123.485 78.0535L131.395 79.246ZM133.61 69.6181L141.076 72.4929L141.334 71.8233L133.868 68.9485L126.403 66.0736L126.145 66.7432L133.61 69.6181ZM133.868 68.9485L132.967 76.8976L134.424 77.0628L135.325 69.1137L136.227 61.1646L134.769 60.9994L133.868 68.9485ZM135.325 69.1137L134.424 77.0627C135.272 77.1589 140.453 77.7048 145.896 78.2721L146.725 70.3153L147.555 62.3584C142.061 61.7858 136.982 61.2503 136.227 61.1647L135.325 69.1137ZM146.725 70.3153L145.896 78.2721C148.629 78.557 151.116 78.8169 152.921 79.006C153.824 79.1005 154.555 79.1773 155.061 79.2306C155.314 79.2573 155.508 79.2778 155.638 79.2917C155.704 79.2987 155.748 79.3034 155.773 79.3062C155.787 79.3078 155.786 79.3077 155.777 79.3066C155.775 79.3064 155.752 79.3038 155.72 79.2999C155.709 79.2985 155.665 79.2932 155.608 79.2854C155.584 79.2821 155.517 79.2729 155.433 79.2594C155.388 79.2521 155.275 79.2326 155.207 79.22C155.091 79.1972 154.734 79.1155 154.494 79.0509L156.695 71.3596L158.896 63.6683C158.656 63.6037 158.299 63.522 158.182 63.4991C158.114 63.4865 158.001 63.4669 157.956 63.4596C157.871 63.4461 157.804 63.4368 157.779 63.4334C157.721 63.4255 157.676 63.4199 157.662 63.4181C157.625 63.4137 157.595 63.4103 157.584 63.409C157.557 63.4059 157.529 63.4028 157.508 63.4006C157.463 63.3957 157.404 63.3893 157.335 63.382C157.195 63.3671 156.993 63.3457 156.739 63.3188C156.228 63.2649 155.492 63.1877 154.588 63.093C152.78 62.9036 150.289 62.6434 147.555 62.3584L146.725 70.3153ZM156.695 71.3596L154.093 78.9246C151.338 77.9771 150.015 75.9205 149.495 74.8457C148.976 73.7736 148.823 72.8405 148.768 72.4351C148.652 71.5816 148.706 70.9073 148.72 70.7306C148.759 70.2482 148.834 69.8773 148.849 69.8043C148.897 69.5652 148.945 69.3855 148.951 69.3638C148.976 69.2695 148.992 69.2168 148.981 69.2537C148.967 69.3014 148.932 69.4135 148.873 69.5999C148.759 69.96 148.592 70.4782 148.399 71.0624L155.996 73.5704L163.592 76.0784C163.799 75.4515 163.989 74.867 164.128 74.4256C164.196 74.2114 164.262 73.9982 164.316 73.8202C164.338 73.7441 164.38 73.6034 164.42 73.449C164.434 73.3972 164.488 73.1945 164.539 72.9396C164.555 72.8588 164.632 72.4818 164.67 71.9953C164.685 71.8165 164.739 71.1406 164.623 70.286C164.568 69.88 164.415 68.9465 163.896 67.874C163.375 66.7989 162.052 64.7421 159.297 63.7945L156.695 71.3596ZM155.996 73.5704L148.399 71.0622C146.396 77.13 144.955 83.7643 144.216 89.7379C143.512 95.4286 143.311 101.524 144.485 106.039L152.227 104.026L159.97 102.014C159.592 100.559 159.443 96.9736 160.095 91.7026C160.712 86.7144 161.932 81.1057 163.592 76.0786L155.996 73.5704ZM152.227 104.026L144.485 106.039C145.219 108.864 147.037 113.606 152.416 115.245L154.749 107.593L157.081 99.9403C157.612 100.102 158.169 100.369 158.689 100.755C159.201 101.134 159.551 101.536 159.773 101.85C160.156 102.391 160.133 102.641 159.97 102.014L152.227 104.026ZM154.749 107.593L152.416 115.245C152.851 115.378 154.042 115.744 155.576 115.71C156.868 115.682 157.967 115.366 158.255 115.289L156.184 107.561L154.114 99.8338C153.966 99.8733 154.028 99.8535 154.17 99.8252C154.34 99.7913 154.719 99.7252 155.223 99.7141C156.356 99.6891 157.192 99.974 157.082 99.9405L154.749 107.593ZM156.184 107.561L158.255 115.289C158.667 115.178 159.739 114.9 160.897 114.252C161.956 113.66 162.75 112.94 163.037 112.686L157.743 106.689L152.449 100.691C152.302 100.821 152.314 100.806 152.389 100.747C152.491 100.667 152.734 100.486 153.083 100.29C153.812 99.8822 154.437 99.7473 154.114 99.8338L156.184 107.561ZM157.743 106.689L163.037 112.686C164.671 111.244 165.46 109.95 166.345 108.384L159.381 104.447L152.416 100.51C152.333 100.658 152.263 100.78 152.204 100.882C152.144 100.985 152.1 101.059 152.067 101.113C151.998 101.225 152 101.215 152.052 101.143C152.08 101.105 152.12 101.053 152.17 100.992C152.221 100.931 152.273 100.871 152.324 100.817C152.426 100.709 152.489 100.655 152.448 100.692L157.743 106.689ZM159.381 104.447L166.345 108.384C167.634 106.103 168.34 104.357 169.151 101.68L161.495 99.3601L153.839 97.0401C153.3 98.8181 153.021 99.4403 152.417 100.51L159.381 104.447ZM161.495 99.3601L169.151 101.68C171.83 92.8394 173.035 80.4953 173.219 64.236L165.219 64.1457L157.22 64.0555C157.04 79.9939 155.832 90.4603 153.839 97.04L161.495 99.3601ZM165.219 64.1457L173.219 64.236C173.228 63.3936 173.236 62.7858 173.246 62.3346C173.25 62.1114 173.255 61.9483 173.26 61.8292C173.264 61.7052 173.268 61.6655 173.267 61.6799C173.266 61.6899 173.263 61.7297 173.256 61.7918C173.249 61.8521 173.236 61.9574 173.214 62.0943C173.181 62.2899 173.069 62.9336 172.736 63.7244C172.383 64.5618 171.579 66.0388 169.882 67.1789C168.15 68.3419 166.462 68.4963 165.693 68.5155L165.494 60.5179L165.295 52.5204C164.472 52.5409 162.735 52.7048 160.961 53.8966C159.221 55.0654 158.38 56.5902 157.994 57.5059C157.387 58.9434 157.323 60.3239 157.312 60.4709C157.251 61.2833 157.237 62.523 157.22 64.0555L165.219 64.1457ZM165.494 60.5179L165.701 68.5153C166.105 68.5048 168.903 68.2895 171.52 68.0862L170.901 60.1102L170.281 52.1343C168.863 52.2444 167.55 52.345 166.578 52.4183C166.09 52.4551 165.694 52.4846 165.414 52.5049C165.272 52.5152 165.169 52.5225 165.102 52.5271C164.92 52.5395 165.088 52.5258 165.287 52.5206L165.494 60.5179ZM170.901 60.1102L171.52 68.0862C172.933 67.9764 174.217 67.8795 175.144 67.8119C175.611 67.7779 175.975 67.7522 176.217 67.7361C176.342 67.7277 176.41 67.7236 176.436 67.7222C176.456 67.721 176.416 67.7235 176.349 67.7258C176.328 67.7265 176.215 67.7305 176.067 67.7299C176.007 67.7296 175.816 67.7287 175.569 67.7121C175.457 67.7046 175.192 67.685 174.858 67.6322C174.691 67.6058 174.403 67.5551 174.052 67.4618C173.894 67.4181 173.541 67.3074 173.346 67.2386C173.098 67.1425 172.533 66.8875 172.221 66.7228L176.108 59.7305L179.995 52.7382C179.161 52.2749 178.438 52.0721 178.163 51.999C177.812 51.9056 177.523 51.8548 177.355 51.8283C177.021 51.7754 176.755 51.7557 176.641 51.748C176.392 51.7313 176.196 51.7303 176.131 51.73C175.972 51.7294 175.845 51.7337 175.805 51.735C175.699 51.7386 175.604 51.7437 175.553 51.7465C175.435 51.753 175.295 51.762 175.153 51.7714C174.861 51.7909 174.458 51.8194 173.981 51.8543C173.021 51.9242 171.711 52.0232 170.281 52.1343L170.901 60.1102ZM176.108 59.7305L171.759 66.4452C170.943 65.9169 170.407 65.3566 170.148 65.0664C169.856 64.7399 169.647 64.4514 169.52 64.2673C169.272 63.906 169.11 63.6035 169.038 63.4664C168.886 63.1758 168.791 62.9475 168.766 62.8879C168.702 62.7341 168.671 62.6427 168.687 62.6891C168.709 62.7493 168.763 62.9118 168.857 63.206C169.037 63.7723 169.288 64.5981 169.578 65.575C170.156 67.5255 170.839 69.9222 171.33 71.7551L179.058 69.6856L186.785 67.6161C186.249 65.6126 185.525 63.0756 184.918 61.0295C184.616 60.0081 184.331 59.07 184.106 58.3609C183.997 58.0175 183.881 57.6645 183.775 57.3631C183.728 57.2287 183.644 56.995 183.538 56.7414C183.493 56.6319 183.38 56.3642 183.213 56.0455C183.134 55.8942 182.964 55.5804 182.71 55.2106C182.61 55.0646 181.867 53.9289 180.457 53.0158L176.108 59.7305ZM179.058 69.6856L171.33 71.755C173.954 81.5529 175.492 89.2831 176.415 97.1099L184.36 96.1727L192.305 95.2355C191.272 86.4831 189.561 77.9821 186.785 67.6162L179.058 69.6856ZM184.36 96.1727L176.415 97.11C177.066 102.628 177.358 107.764 177.265 110.65L185.261 110.909L193.256 111.168C193.387 107.137 192.997 101.105 192.305 95.2355L184.36 96.1727ZM185.261 110.909L177.265 110.649L177.228 111.793L185.223 112.053L193.219 112.314L193.256 111.169L185.261 110.909ZM185.223 112.053L183.153 104.326L158.896 110.826L160.966 118.553L163.037 126.28L187.294 119.781L185.223 112.053ZM160.966 118.553L168.427 121.44L168.701 120.732L161.24 117.845L153.779 114.958L153.505 115.666L160.966 118.553ZM161.24 117.845L168.701 120.732C170.342 116.489 172.317 107.88 173.497 100.621L165.601 99.338L157.704 98.0546C156.568 105.047 154.801 112.318 153.779 114.959L161.24 117.845ZM165.601 99.338L173.497 100.622C174.73 93.0367 175.557 80.9267 175.373 73.1953L167.376 73.3858L159.378 73.5763C159.539 80.3288 158.777 91.4519 157.704 98.0545L165.601 99.338ZM167.376 73.3858L175.373 73.1952C175.348 72.1197 175.322 70.9844 175.228 70.1543C175.202 69.9275 175.073 68.4875 174.289 66.9836C173.795 66.0365 172.941 64.851 171.524 63.9211C170.119 62.9987 168.758 62.7213 167.923 62.6304L167.057 70.5834L166.191 78.5363C165.413 78.4516 164.102 78.1884 162.743 77.2958C161.372 76.3958 160.557 75.2558 160.1 74.3775C159.682 73.5752 159.509 72.8941 159.441 72.5973C159.366 72.2667 159.338 72.0269 159.33 71.9607C159.324 71.9014 159.344 72.155 159.378 73.5764L167.376 73.3858ZM167.057 70.5834L167.923 62.6303C167.898 62.6277 167.798 62.6167 167.676 62.6066C167.552 62.5964 167.336 62.5809 167.067 62.5781C166.59 62.5731 165.496 62.5961 164.209 63.0612C160.726 64.3198 159.505 67.2483 159.146 68.5557C158.862 69.587 158.842 70.5018 158.837 70.6052C158.826 70.8806 158.823 71.1846 158.822 71.3586L166.821 71.4403L174.821 71.5221C174.824 71.2629 174.825 71.2401 174.824 71.2698C174.823 71.2951 174.817 71.4358 174.795 71.6357C174.777 71.8102 174.724 72.2474 174.572 72.8C174.425 73.3339 174.083 74.3624 173.268 75.4407C172.343 76.6634 171.083 77.5899 169.646 78.1091C168.39 78.5628 167.334 78.5818 166.899 78.5772C166.652 78.5747 166.459 78.5606 166.36 78.5524C166.306 78.548 166.264 78.5438 166.238 78.5412C166.212 78.5387 166.194 78.5367 166.191 78.5364L167.057 70.5834ZM166.821 71.4403L158.822 71.3589C158.751 78.2933 158.135 86.8982 157.357 92.1968L165.272 93.3591L173.187 94.5213C174.092 88.3582 174.745 79.0123 174.821 71.5218L166.821 71.4403ZM165.272 93.3591L157.357 92.1968C156.373 98.8995 154.487 105.537 153.121 108.302L160.293 111.845L167.466 115.389C169.901 110.458 172.098 101.937 173.187 94.5213L165.272 93.3591ZM160.293 111.845L153.121 108.302C151.128 112.335 149.784 113.245 148.78 113.698L152.074 120.989L155.367 128.279C161.056 125.709 164.608 121.172 167.466 115.389L160.293 111.845ZM152.074 120.989L148.78 113.698C148.474 113.836 148.34 113.876 148.272 113.894C148.197 113.915 148.028 113.955 147.621 114.001L148.503 121.952L149.386 129.903C151.573 129.66 153.346 129.192 155.367 128.279L152.074 120.989ZM148.503 121.952L147.621 114.001C146.446 114.131 144.298 113.996 141.788 108.884L134.607 112.41L127.426 115.937C131.683 124.605 139.11 131.044 149.386 129.903L148.503 121.952ZM134.607 112.41L141.788 108.884C141.68 108.664 141.57 108.43 141.459 108.18L134.149 111.43L126.839 114.679C127.027 115.102 127.222 115.522 127.426 115.937L134.607 112.41ZM134.149 111.43L126.535 113.885C128.111 118.772 129.32 122.511 130.266 125.427L137.875 122.957L145.485 120.487C144.543 117.586 143.338 113.858 141.763 108.974L134.149 111.43ZM137.875 122.957L130.266 125.427C130.397 125.832 130.508 126.183 130.578 126.416C130.616 126.541 130.628 126.586 130.625 126.572C130.622 126.564 130.616 126.542 130.608 126.509C130.6 126.48 130.584 126.414 130.563 126.325C130.551 126.27 130.5 126.046 130.457 125.751C130.438 125.622 130.389 125.277 130.376 124.831C130.37 124.611 130.366 124.195 130.426 123.676C130.457 123.408 130.515 123.03 130.631 122.586C130.742 122.159 130.948 121.508 131.345 120.778L138.372 124.601L145.4 128.425C146.124 127.093 146.276 125.899 146.319 125.523C146.38 125.003 146.376 124.585 146.369 124.363C146.356 123.913 146.307 123.562 146.287 123.426C146.242 123.117 146.187 122.875 146.169 122.795C146.124 122.594 146.077 122.423 146.056 122.345C146.005 122.158 145.946 121.958 145.894 121.786C145.784 121.422 145.639 120.964 145.484 120.487L137.875 122.957ZM138.372 124.601L131.422 120.64C131.735 120.091 132.062 119.668 132.318 119.372C132.579 119.07 132.823 118.833 133.016 118.659C133.391 118.322 133.724 118.087 133.927 117.951C134.327 117.684 134.664 117.513 134.808 117.442C135.119 117.288 135.367 117.192 135.434 117.166C135.536 117.127 135.611 117.101 135.643 117.09C135.679 117.077 135.703 117.069 135.708 117.068C135.716 117.065 135.698 117.071 135.644 117.087C135.594 117.102 135.527 117.122 135.441 117.147C135.088 117.25 134.562 117.395 133.944 117.562C132.697 117.897 131.272 118.263 130.414 118.462L132.227 126.254L134.041 134.046C135.157 133.786 136.781 133.367 138.1 133.012C138.766 132.833 139.403 132.657 139.898 132.514C140.134 132.445 140.402 132.366 140.643 132.288C140.747 132.254 140.96 132.184 141.2 132.091C141.3 132.052 141.574 131.946 141.905 131.782C142.058 131.706 142.402 131.531 142.807 131.261C142.903 131.197 144.32 130.322 145.323 128.562L138.372 124.601ZM132.227 126.254L130.414 118.462C122.541 120.295 116.086 120.996 110.247 120.796L109.973 128.791L109.698 136.786C117.271 137.046 125.163 136.112 134.041 134.046L132.227 126.254ZM109.973 128.791L110.247 120.796C100.02 120.445 93.8937 117.154 90.7816 112.95L84.3513 117.709L77.921 122.468C84.9121 131.914 96.5131 136.334 109.698 136.786L109.973 128.791ZM84.3513 117.709L77.1379 121.168C78.316 123.625 79.1462 125.851 79.694 127.896L87.4214 125.825L95.1488 123.754C94.3071 120.613 93.1024 117.456 91.5647 114.25L84.3513 117.709ZM87.4214 125.825L79.694 127.896C80.5419 131.06 80.4265 131.921 80.3037 132.553L88.1569 134.078L96.0101 135.604C96.795 131.563 96.2845 127.993 95.1488 123.754L87.4214 125.825ZM88.1569 134.078L80.3037 132.553C80.2801 132.675 80.275 132.613 80.3723 132.427C80.4718 132.237 80.6956 131.888 81.1227 131.526L86.2972 137.627L91.4717 143.728C94.1526 141.455 95.4713 138.378 96.0102 135.604L88.1569 134.078ZM86.2972 137.627L81.1235 131.525C81.4719 131.23 81.7715 131.059 81.9596 130.965C82.1543 130.869 82.3079 130.816 82.4137 130.787C82.5915 130.737 82.8296 130.696 83.1831 130.727L82.4755 138.696L81.7679 146.664C84.8609 146.939 88.653 146.118 91.4709 143.729L86.2972 137.627ZM82.4755 138.696L83.183 130.727C83.196 130.728 83.0597 130.717 82.7529 130.611C82.4457 130.504 82.0118 130.317 81.4461 130.002C80.2949 129.359 78.8118 128.303 77.0002 126.692L71.6847 132.671L66.3692 138.65C70.8742 142.655 76.1368 146.165 81.7681 146.664L82.4755 138.696ZM71.6847 132.671L77.0006 126.693C75.6177 125.463 74.3601 124.135 69.418 118.347L63.334 123.542L57.2501 128.737C62.0694 134.381 64.026 136.566 66.3688 138.649L71.6847 132.671ZM63.334 123.542L69.4178 118.347C68.4127 117.17 67.3192 116.043 66.2508 115.083C65.3001 114.228 63.9502 113.122 62.4529 112.362L58.834 119.497L55.215 126.632C54.9407 126.492 54.8595 126.415 55.0015 126.52C55.114 126.604 55.3019 126.755 55.5548 126.982C56.0646 127.441 56.67 128.057 57.2502 128.737L63.334 123.542ZM58.834 119.497L62.4523 112.362C59.5806 110.906 56.1221 110.392 52.8147 111.395C49.365 112.441 46.1687 115.206 45.1896 119.486L52.9881 121.27L60.7867 123.054C60.3213 125.088 58.7584 126.312 57.4584 126.706C56.3007 127.057 55.5082 126.78 55.2156 126.632L58.834 119.497ZM52.9881 121.27L45.1895 119.486C44.9628 120.477 44.7992 121.714 45.0268 123.284C45.1661 124.244 45.4577 125.272 45.6508 125.967L53.3586 123.825L61.0665 121.683C60.9491 121.26 60.8838 121.017 60.8446 120.859C60.8024 120.69 60.8306 120.777 60.8612 120.988C60.9002 121.257 60.938 121.683 60.9043 122.202C60.873 122.686 60.7918 123.031 60.7868 123.053L52.9881 121.27ZM53.3586 123.825L45.6509 125.967C46.1283 127.685 46.8998 129.75 47.8227 131.961L55.2057 128.881L62.5888 125.8C61.7613 123.817 61.2821 122.458 61.0664 121.682L53.3586 123.825ZM55.2057 128.881L47.8226 131.961C49.8483 136.816 50.2514 138.959 50.2728 140.455L58.2719 140.341L66.2711 140.226C66.2056 135.643 64.856 131.234 62.5889 125.8L55.2057 128.881ZM58.2719 140.341L50.2728 140.455C50.2757 140.663 50.2617 140.838 50.2418 140.974C50.232 141.04 50.2215 141.092 50.2128 141.129C50.2041 141.165 50.1983 141.182 50.1989 141.181C50.1993 141.179 50.2082 141.153 50.2304 141.105C50.2525 141.057 50.2913 140.98 50.3535 140.88C50.471 140.69 50.716 140.347 51.1524 139.977L56.3262 146.078L61.5001 152.18C65.3575 148.909 66.3222 143.806 66.2711 140.226L58.2719 140.341ZM56.3262 146.078L51.152 139.977C51.5528 139.637 51.9018 139.446 52.1148 139.346C52.3343 139.242 52.4923 139.197 52.5698 139.177C52.6511 139.157 52.6952 139.153 52.7047 139.152C52.7156 139.151 52.718 139.152 52.7189 139.152L52.1129 147.129L51.5069 155.106C54.4104 155.326 58.4304 154.783 61.5004 152.18L56.3262 146.078ZM52.1129 147.129L52.7187 139.152C51.6339 139.069 48.2222 137.721 42.4405 131.167L36.4411 136.459L30.4418 141.751C36.5729 148.701 43.6744 154.511 51.5071 155.106L52.1129 147.129ZM36.4411 136.459L42.4406 131.167C36.4506 124.376 31.7839 116.227 29.8379 109.711L22.1724 112L14.5069 114.289C17.244 123.455 23.2465 133.594 30.4417 141.751L36.4411 136.459ZM22.1724 112L29.8379 109.711C28.75 106.068 28.8784 104.987 28.9697 104.52L21.1184 102.985L13.2671 101.45C12.4323 105.719 13.1626 109.787 14.5069 114.289L22.1724 112ZM21.1184 102.985L28.9698 104.52C28.9702 104.518 28.957 104.585 28.9064 104.703C28.8552 104.823 28.7709 104.982 28.6402 105.157C28.3601 105.532 27.9805 105.833 27.5833 106.018L24.2081 98.7646L20.8329 91.5114C16.7074 93.4312 14.109 97.1431 13.2671 101.45L21.1184 102.985ZM24.2081 98.7646L26.9268 91.2407C26.7923 91.1921 26.6539 91.1336 26.5102 91.063L22.9795 98.2417L19.4488 105.42C20.1124 105.747 20.7927 106.037 21.4895 106.288L24.2081 98.7646ZM22.9795 98.2417L26.5105 91.0631C25.8417 90.7341 24.9562 89.9191 24.4227 88.8196L17.2254 92.3122L10.028 95.8048C11.9933 99.8549 15.338 103.398 19.4485 105.42L22.9795 98.2417ZM17.2254 92.3122L24.4227 88.8195C23.4039 86.7201 23.1912 84.6831 23.6278 82.7221L15.8191 80.9833L8.01035 79.2445C6.75382 84.8873 7.50355 90.6027 10.0281 95.8049L17.2254 92.3122ZM15.8191 80.9833L23.6278 82.7221C24.34 79.5239 26.1462 75.5212 29.7148 70.3723L23.1397 65.8151L16.5646 61.258C12.319 67.3835 9.33108 73.3134 8.01035 79.2444L15.8191 80.9833ZM23.1397 65.8151L29.7148 70.3723C30.2096 69.6585 30.4532 69.3195 31.565 67.8155L25.132 63.0599L18.699 58.3043C17.5591 59.8461 17.2003 60.3407 16.5646 61.258L23.1397 65.8151ZM25.132 63.0599L31.565 67.8156C32.189 66.9715 33.7163 65.0838 34.8319 63.7971L28.7873 58.5566L22.7428 53.3161C21.453 54.8037 19.644 57.0259 18.699 58.3042L25.132 63.0599ZM28.7873 58.5566L34.8316 63.7974C35.8495 62.6235 36.1487 62.2982 37.5059 60.9085L31.7826 55.3188L26.0594 49.7292C24.5208 51.3045 24.002 51.8637 22.743 53.3158L28.7873 58.5566ZM31.7826 55.3188L37.5055 60.9089C37.9171 60.4876 38.4841 59.8978 38.7542 59.5993L32.8231 54.2307L26.892 48.8621C26.9081 48.8444 26.8938 48.8604 26.8302 48.9279C26.7753 48.9862 26.7036 49.0617 26.6189 49.1503C26.4494 49.3276 26.2478 49.5363 26.0597 49.7288L31.7826 55.3188ZM32.8231 54.2307L38.7542 59.5993C38.9105 59.4267 39.1318 59.182 39.2435 59.0585L33.3112 53.6913L27.3788 48.3241C27.2645 48.4505 27.0466 48.6913 26.892 48.8621L32.8231 54.2307ZM33.3112 53.6913L39.2435 59.0585C39.5707 58.6969 40.074 58.0675 40.3518 57.7143L34.0633 52.7692L27.7747 47.8241C27.6538 47.9779 27.5238 48.14 27.4176 48.2702C27.3644 48.3354 27.3256 48.3823 27.3024 48.41C27.2909 48.4237 27.2891 48.4257 27.2954 48.4184C27.2972 48.4162 27.3288 48.3794 27.3788 48.3241L33.3112 53.6913ZM34.0633 52.7692L40.3522 57.7139C41.9038 55.7405 43.3492 53.141 43.5302 49.861L35.5423 49.4203L27.5544 48.9796C27.5827 48.4675 27.7099 48.0604 27.8189 47.8136C27.9122 47.6023 27.9527 47.5978 27.7744 47.8245L34.0633 52.7692ZM35.5423 49.4203L43.5302 49.8601C43.5634 49.2566 43.5726 48.448 43.3861 47.4102C43.2693 46.7606 43.0783 46.0702 42.9565 45.6223L35.2366 47.7207L27.5168 49.8192C27.5925 50.098 27.6336 50.2528 27.6585 50.3513C27.6848 50.4557 27.6651 50.3891 27.6385 50.2409C27.6045 50.0517 27.5675 49.78 27.5542 49.4572C27.5422 49.1674 27.5555 48.9597 27.5544 48.9804L35.5423 49.4203ZM35.2366 47.7207L42.9566 45.6225C42.6657 44.5524 42.3619 43.4059 41.5436 42.0029L34.6332 46.0336L27.7229 50.0644C27.7173 50.0548 27.65 49.9394 27.5677 49.7672C27.5271 49.6823 27.4898 49.5982 27.4564 49.5172C27.4236 49.4377 27.3991 49.3722 27.3825 49.3259C27.353 49.2434 27.3488 49.2212 27.3776 49.3194C27.4061 49.4168 27.4482 49.5669 27.5167 49.8189L35.2366 47.7207ZM34.6332 46.0336L41.5437 42.0031C40.0885 39.5082 37.7006 37.0323 33.8082 36.2539L32.2394 44.0986L30.6706 51.9433C30.0101 51.8112 29.2275 51.4905 28.5314 50.9277C27.9235 50.4363 27.6881 50.0047 27.7228 50.0642L34.6332 46.0336ZM32.2394 44.0986L33.8087 36.254C33.7757 36.2474 32.5063 35.9373 31.0143 36.0612C29.9487 36.1497 28.8857 36.4679 28.8345 36.4817L30.9038 44.2094L32.9732 51.9371C33.2183 51.8715 33.235 51.8679 33.2119 51.8734C33.1742 51.8822 32.8274 51.9657 32.338 52.0064C31.7616 52.0542 31.2594 52.0227 30.8856 51.9738C30.6483 51.9428 30.4559 51.9003 30.6702 51.9432L32.2394 44.0986ZM30.9038 44.2094L28.8339 36.4818C28.5429 36.5598 27.8128 36.7484 27.0597 37.0637C26.1323 37.4519 25.4623 37.9012 25.1501 38.1113L29.6163 44.7485L34.0826 51.3857C34.1542 51.3375 34.0687 51.3976 33.9206 51.4838C33.734 51.5923 33.5019 51.7122 33.2388 51.8224C33.0006 51.9221 32.8277 51.9755 32.7929 51.9862C32.7723 51.9925 32.8029 51.9827 32.9737 51.937L30.9038 44.2094ZM29.6163 44.7485L25.1501 38.1113C21.2936 40.7063 18.8779 44.8476 17.2643 48.9674L24.7133 51.885L32.1623 54.8026C32.678 53.486 33.163 52.5965 33.5537 52.0278C33.945 51.4582 34.1533 51.3381 34.0826 51.3857L29.6163 44.7485ZM24.7133 51.885L17.2643 48.9674C17.2028 49.1244 17.0027 49.5577 16.6914 50.1133C16.5494 50.3667 16.413 50.594 16.2973 50.7748C16.1714 50.9717 16.118 51.0384 16.1439 51.0054L22.4417 55.9386L28.7396 60.8719C30.0012 59.2612 31.4293 56.6741 32.1623 54.8026L24.7133 51.885ZM22.4417 55.9386L16.1439 51.0054C15.019 52.4414 13.7888 53.3128 12.0661 53.8964L14.6334 61.4733L17.2007 69.0502C21.8744 67.4666 25.6967 64.7565 28.7396 60.8719L22.4417 55.9386ZM14.6334 61.4733L12.0665 53.8963L11.5322 54.0773L14.0991 61.6543L16.666 69.2313L17.2003 69.0503L14.6334 61.4733ZM14.0991 61.6543L21.8265 59.5838L18.3305 46.5363L10.6031 48.6069L2.87567 50.6774L6.37172 63.7249L14.0991 61.6543ZM10.6031 48.6069L12.6724 56.3346L25.0233 53.0272L22.954 45.2995L20.8846 37.5718L8.53371 40.8791L10.6031 48.6069ZM22.954 45.2995L25.0232 53.0273C28.4113 52.12 31.5994 51.2733 34.0046 50.6404C36.6079 49.9553 37.9168 49.6226 37.9094 49.6242L36.2991 41.7879L34.6888 33.9517C33.8371 34.1267 27.4598 35.8111 20.8847 37.5718L22.954 45.2995ZM36.2991 41.7879L37.9099 49.6241C40.1229 49.1691 42.24 49.1239 44.3791 49.4662L45.6433 41.5667L46.9074 33.6672C42.8249 33.0139 38.7597 33.1148 34.6883 33.9517L36.2991 41.7879ZM45.6433 41.5667L44.3791 49.4662C47.4685 49.9606 50.2856 51.2038 52.6439 53.0761L57.6181 46.8105L62.5923 40.545C58.0461 36.9358 52.6639 34.5885 46.9075 33.6672L45.6433 41.5667ZM57.6181 46.8105L52.6439 53.0761C53.8112 54.0028 54.8307 55.2183 55.2902 56.0218L62.2346 52.0498L69.1789 48.0779C67.5777 45.2785 65.1308 42.5602 62.5922 40.5449L57.6181 46.8105ZM62.2346 52.0498L55.2902 56.0218C55.4895 56.3701 55.568 56.5392 55.6165 56.6541C55.6685 56.7777 55.7475 56.9857 55.8825 57.4453L63.5583 55.191L71.2341 52.9367C70.6929 51.0938 70.1315 49.7434 69.1789 48.0779L62.2346 52.0498ZM63.5583 55.191L55.8825 57.4453C55.8784 57.4315 55.8929 57.4817 55.9416 57.6551C55.9839 57.8056 56.0418 58.0125 56.1143 58.2724C56.2591 58.7914 56.4589 59.5095 56.7022 60.385C57.1885 62.1354 57.8461 64.5062 58.5793 67.1518L66.2887 65.0152L73.9981 62.8786C72.5495 57.6515 71.3548 53.3478 71.2341 52.9366L63.5583 55.191ZM66.2887 65.0152L71.9419 70.6758C72.4391 70.1792 72.8962 69.6511 73.3145 69.097L66.9296 64.277L60.5447 59.4569C60.5585 59.4387 60.5879 59.4023 60.6356 59.3547L66.2887 65.0152ZM66.9296 64.277L73.3626 69.0326L73.4471 68.9184L67.0141 64.1627L60.5811 59.407L60.4966 59.5213L66.9296 64.277ZM67.0141 64.1627L73.511 68.8306C75.0988 66.6207 76.1934 64.1383 76.9104 61.5302L69.1966 59.4095L61.4828 57.2889C61.179 58.3942 60.8165 59.078 60.5171 59.4947L67.0141 64.1627ZM69.1966 59.4095L76.9104 61.5301C77.5786 59.0999 77.9949 56.5277 78.1991 53.8456L70.2222 53.2383L62.2453 52.631C62.1064 54.4542 61.8384 55.9956 61.4828 57.2889L69.1966 59.4095ZM70.2222 53.2383L78.1869 53.9886L78.1871 53.9869L70.2223 53.2366L62.2576 52.4863L62.2574 52.488L70.2222 53.2383ZM70.2223 53.2366L78.2217 53.3365L78.2217 53.3351L70.2223 53.2352L62.223 53.1353L62.223 53.1367L70.2223 53.2366ZM70.2223 53.2352L78.1892 53.9629C78.4339 51.2836 78.5007 48.588 78.3908 45.8786L70.3973 46.2029L62.4039 46.5272C62.4857 48.5431 62.4356 50.5357 62.2555 52.5074L70.2223 53.2352ZM70.3973 46.2029L78.3908 45.8786C78.2826 43.212 78.0248 40.5972 77.6127 38.0374L69.7144 39.3089L61.8161 40.5805C62.1227 42.4852 62.3203 44.4664 62.4039 46.5272L70.3973 46.2029ZM69.7144 39.3089L77.5932 37.922L77.5929 37.9199L69.714 39.3068L61.8352 40.6937L61.8355 40.6959L69.7144 39.3089ZM69.714 39.3068L77.5871 37.8877L77.5867 37.8854L69.7136 39.3045L61.8404 40.7235L61.8409 40.7259L69.714 39.3068ZM69.7136 39.3045L77.6381 38.2081C77.2833 35.6439 76.8188 33.2405 76.2247 31.0236L68.4973 33.0941L60.7699 35.1647C61.1596 36.6188 61.5061 38.3552 61.7891 40.4008L69.7136 39.3045ZM68.4973 33.0941L76.2247 31.0236L76.1724 30.8282L68.445 32.8987L60.7176 34.9693L60.7699 35.1647L68.4973 33.0941ZM68.445 32.8987L70.5155 40.6261L111.486 29.6482L109.415 21.9208L107.345 14.1934L66.3744 25.1713L68.445 32.8987ZM109.415 21.9208L101.688 23.9913L108.955 51.1119L116.682 49.0414L124.41 46.9708L117.143 19.8502L109.415 21.9208ZM116.682 49.0414L113.516 41.6947L113.356 41.7634L116.523 49.11L119.689 56.4567L119.849 56.388L116.682 49.0414ZM116.523 49.11L113.358 41.7627L93.2783 50.4121L96.4432 57.7594L99.6081 65.1068L119.688 56.4574L116.523 49.11ZM96.4432 57.7594L98.5138 65.4868L122.366 59.0956L120.296 51.3682L118.225 43.6408L94.3727 50.032L96.4432 57.7594ZM120.296 51.3682L127.096 47.1547C126.019 45.4158 124.946 42.6767 124.186 38.7476L116.331 40.2661L108.477 41.7845C109.474 46.9427 111.082 51.6875 113.495 55.5816L120.296 51.3682ZM116.331 40.2661L124.186 38.7477C124.073 38.1622 124.033 37.9553 123.997 37.7443C123.959 37.5268 123.922 37.2908 123.822 36.6497L115.917 37.8824L108.013 39.115C108.218 40.4339 108.239 40.5543 108.477 41.7845L116.331 40.2661ZM115.917 37.8824L123.822 36.6496C122.998 31.3686 122.75 25.0497 123.089 21.8591L115.134 21.013L107.179 20.1669C106.647 25.1731 107.054 32.9655 108.013 39.1151L115.917 37.8824ZM115.134 21.013L123.089 21.8589L123.168 21.1161L115.213 20.2702L107.258 19.4244L107.179 20.1671L115.134 21.013ZM115.213 20.2702L117.284 27.9977L127.356 25.2989L125.285 17.5715L123.215 9.84413L113.143 12.5428L115.213 20.2702ZM125.285 17.5715L127.356 25.2989C130.118 24.5587 132.625 23.8918 134.436 23.4142C135.344 23.1748 136.067 22.9857 136.556 22.8593C136.806 22.795 136.973 22.7526 137.067 22.7292C137.123 22.7154 137.112 22.7187 137.066 22.729C137.061 22.73 136.945 22.7568 136.788 22.7858C136.75 22.7927 136.481 22.8439 136.132 22.8783C136.047 22.8867 135.457 22.9512 134.711 22.8913C134.471 22.8721 133.291 22.7887 131.948 22.1577C131.213 21.7644 129.608 20.4872 128.826 19.5476C128.051 18.1925 127.355 15.2036 127.445 13.6842L135.35 14.9172L143.254 16.1503C143.345 14.6307 142.649 11.6417 141.874 10.2866C141.092 9.34693 139.487 8.06961 138.752 7.6763C137.408 7.04515 136.228 6.96166 135.988 6.94241C135.24 6.88252 134.649 6.94701 134.561 6.95566C134.208 6.99045 133.932 7.04265 133.886 7.05121C133.712 7.08333 133.57 7.11562 133.531 7.12438C133.416 7.15032 133.303 7.17821 133.224 7.19758C133.05 7.24066 132.821 7.29917 132.559 7.36663C132.028 7.50374 131.273 7.70141 130.356 7.94313C128.519 8.42764 125.991 9.10015 123.215 9.84413L125.285 17.5715ZM135.35 14.9172L127.447 13.6713C127.465 13.5615 127.481 13.4728 127.492 13.4182C127.503 13.3599 127.513 13.3113 127.52 13.2765C127.534 13.2086 127.546 13.1546 127.553 13.1242C127.568 13.0631 127.579 13.0163 127.584 12.998C127.594 12.9577 127.601 12.9298 127.601 12.9283C127.604 12.9197 127.602 12.9261 127.594 12.9565C127.579 13.0126 127.554 13.1025 127.521 13.2241C127.455 13.4643 127.363 13.7958 127.262 14.1591L134.968 16.3071L142.674 18.4551C142.779 18.0787 142.876 17.7279 142.949 17.4642C142.984 17.334 143.017 17.2166 143.041 17.1254C143.053 17.0821 143.067 17.0298 143.08 16.9793C143.086 16.9569 143.098 16.9123 143.111 16.8596C143.117 16.8352 143.13 16.7834 143.145 16.7185C143.152 16.6861 143.165 16.6305 143.179 16.5612C143.189 16.5124 143.221 16.3599 143.252 16.1632L135.35 14.9172ZM134.968 16.3071L127.262 14.1596C127.035 14.9712 126.714 16.1934 126.533 16.9391L134.305 18.8338L142.077 20.7285C142.212 20.1753 142.488 19.1232 142.674 18.4546L134.968 16.3071ZM134.305 18.8338L126.533 16.9391C126.373 17.5916 126.217 18.2327 126.183 18.3681L133.95 20.2873L141.716 22.2064C141.757 22.0418 141.92 21.3748 142.077 20.7285L134.305 18.8338ZM133.95 20.2873L126.183 18.3675C125.634 20.5893 124.493 26.2196 124.121 28.5359L132.02 29.8038L139.919 31.0718C140.223 29.178 141.277 23.9831 141.716 22.207L133.95 20.2873ZM132.02 29.8038L124.121 28.5358C123.551 32.0892 123.233 35.4644 123.221 38.4515C123.209 41.2649 123.458 44.4026 124.461 47.1019L131.96 44.3169L139.46 41.5319C139.488 41.6088 139.41 41.4137 139.335 40.8225C139.265 40.2612 139.217 39.4966 139.221 38.5178C139.229 36.5533 139.445 34.0272 139.919 31.0719L132.02 29.8038ZM131.96 44.3169L124.461 47.102C125.04 48.6625 126.038 50.6899 127.908 52.3413C130.006 54.1945 132.544 54.9996 135.035 54.9819L134.978 46.9821L134.921 38.9823C135.384 38.979 136.009 39.0464 136.706 39.2954C137.415 39.5487 138.021 39.9267 138.499 40.3489C139.38 41.1266 139.565 41.8164 139.46 41.5318L131.96 44.3169ZM134.978 46.9821L135.035 54.9819C136.096 54.9743 137.035 54.7878 137.627 54.6421C138.204 54.5004 139.158 54.225 140.139 53.7081L136.411 46.6297L132.684 39.5513C133.058 39.354 133.345 39.2491 133.465 39.2073C133.61 39.1569 133.723 39.1255 133.808 39.1047C133.893 39.0839 134.002 39.0604 134.144 39.0393C134.264 39.0213 134.538 38.985 134.921 38.9823L134.978 46.9821ZM136.411 46.6297L140.138 53.7084C143.218 52.0869 145.102 49.3904 146.266 47.0853C147.476 44.6873 148.315 41.9059 148.909 38.9988L141.071 37.3968L133.233 35.7948C132.808 37.8751 132.337 39.1732 131.982 39.8762C131.58 40.6722 131.644 40.0984 132.684 39.551L136.411 46.6297ZM141.071 37.3968L148.909 38.9988C149.889 34.2056 150.543 27.6279 150.814 20.714L142.82 20.4009L134.826 20.0878C134.572 26.5592 133.971 32.1844 133.233 35.7948L141.071 37.3968ZM142.82 20.4009L150.814 20.714C150.87 19.2623 150.911 17.3848 150.928 15.8413C150.936 15.0689 150.939 14.342 150.935 13.7695C150.932 13.4904 150.928 13.1985 150.919 12.9374C150.914 12.8128 150.907 12.6316 150.892 12.4332C150.884 12.3355 150.871 12.1768 150.848 11.9874C150.834 11.8741 150.778 11.4189 150.629 10.862L142.902 12.9326L135.174 15.0031C135.03 14.4634 134.979 14.0335 134.969 13.9534C134.95 13.7971 134.94 13.6795 134.937 13.6304C134.929 13.5291 134.928 13.475 134.929 13.5045C134.93 13.5516 134.933 13.6763 134.935 13.8984C134.939 14.3286 134.936 14.9436 134.929 15.6655C134.913 17.1103 134.875 18.8301 134.826 20.0878L142.82 20.4009ZM142.902 12.9326L150.647 10.928C151.453 14.0428 150.201 16.4756 149.41 17.5811C148.66 18.6288 147.839 19.2323 147.527 19.4528C146.842 19.9363 146.24 20.1906 146.138 20.2345C145.931 20.3241 145.775 20.3803 145.723 20.3988C145.688 20.4112 145.662 20.4202 145.647 20.4252C145.631 20.4304 145.622 20.4333 145.621 20.4336C145.621 20.4337 145.639 20.4281 145.681 20.4153C145.722 20.4029 145.778 20.3861 145.854 20.3642C146.005 20.32 146.211 20.2615 146.486 20.1845C147.605 19.8716 149.612 19.3273 153.162 18.3693L151.078 10.6455L148.994 2.92169C145.472 3.87213 143.382 4.43858 142.176 4.77581C141.6 4.93694 141.108 5.07843 140.734 5.19835C140.596 5.24263 140.207 5.36734 139.778 5.55303C139.634 5.61549 139.003 5.88511 138.3 6.38129C137.978 6.60817 137.151 7.21733 136.398 8.27018C135.603 9.38082 134.35 11.8182 135.157 14.9371L142.902 12.9326ZM151.078 10.6455L153.162 18.3693C157.68 17.1504 161.717 16.0624 162.149 15.9471L160.086 8.2175L158.024 0.487897C157.564 0.610758 153.493 1.70793 148.994 2.92169L151.078 10.6455ZM160.086 8.2175L162.15 15.9469L162.961 15.7303L160.898 8.00095L158.834 0.271604L158.023 0.488153L160.086 8.2175ZM130.374 93.9109L125.356 87.6802C124.27 88.5551 122.698 89.8155 120.959 91.2046L125.952 97.4553L130.944 103.706C132.695 102.308 134.284 101.033 135.392 100.142L130.374 93.9109ZM125.952 97.4553L120.959 91.2046C117.695 93.8114 114.407 96.4379 113.652 97.0412L118.646 103.291L123.64 109.541C124.394 108.939 127.681 106.313 130.944 103.706L125.952 97.4553ZM118.646 103.291L113.652 97.0412C112.9 97.6427 111.37 98.8643 110.253 99.7552L115.244 106.008L120.234 112.261C121.352 111.368 122.884 110.145 123.64 109.541L118.646 103.291ZM115.244 106.008L110.253 99.7552C109.68 100.213 109.147 100.642 108.748 100.967C108.551 101.127 108.368 101.277 108.223 101.398C108.156 101.455 108.063 101.533 107.97 101.614C107.931 101.648 107.838 101.729 107.728 101.831C107.68 101.877 107.563 101.987 107.423 102.132C107.355 102.203 107.227 102.337 107.077 102.514C106.99 102.617 106.61 103.062 106.239 103.707L113.177 107.69L120.115 111.674C120.003 111.868 119.9 112.03 119.817 112.154C119.732 112.279 119.655 112.386 119.591 112.472C119.466 112.639 119.356 112.773 119.28 112.863C119.132 113.038 119.006 113.17 118.94 113.239C118.866 113.316 118.803 113.377 118.762 113.418C118.718 113.46 118.681 113.495 118.654 113.52C118.561 113.607 118.491 113.668 118.481 113.677C118.447 113.706 118.439 113.713 118.479 113.679C118.549 113.621 118.672 113.519 118.85 113.375C119.199 113.09 119.69 112.695 120.234 112.261L115.244 106.008ZM113.177 107.69L106.219 103.742C105.196 105.546 104.589 108.386 106.006 111.249C107.137 113.536 108.963 114.546 109.628 114.876C111.03 115.572 112.29 115.669 112.505 115.689C113.345 115.766 114.043 115.701 114.424 115.654L113.44 107.715L112.456 99.7755C112.673 99.7485 113.231 99.688 113.975 99.7567C114.142 99.7721 115.366 99.8611 116.746 100.547C117.4 100.871 119.219 101.875 120.347 104.155C121.76 107.011 121.154 109.843 120.135 111.638L113.177 107.69ZM113.44 107.715L114.425 115.654C120.326 114.922 124.719 114.076 131.564 112.384L129.643 104.617L127.723 96.8514C121.365 98.4235 117.606 99.1363 112.455 99.7757L113.44 107.715ZM129.643 104.617L131.564 112.383L133.667 111.863L131.746 104.097L129.826 96.3313L127.722 96.8515L129.643 104.617ZM131.746 104.097L139.532 102.258C139.063 100.273 138.708 98.1574 138.5 96.0305L130.538 96.81L122.576 97.5896C122.854 100.428 123.327 103.252 123.961 105.936L131.746 104.097ZM130.538 96.81L138.5 96.0304C138.438 95.4004 138.393 94.6275 138.372 93.7207L130.374 93.9109L122.376 94.1011C122.405 95.3021 122.468 96.4799 122.576 97.5897L130.538 96.81ZM103.481 78.8574L107.163 71.7555C105.722 71.0082 104.023 70.46 102.06 70.4C100.195 70.343 98.5709 70.7436 97.2883 71.187L99.902 78.7479L102.516 86.3089C102.687 86.2499 102.291 86.4145 101.572 86.3926C100.755 86.3676 100.118 86.1254 99.7976 85.9592L103.481 78.8574ZM99.902 78.7479L97.2884 71.1869C91.8297 73.0738 87.4215 78.0669 84.923 82.9022L92.0302 86.5747L99.1375 90.2471C99.7447 89.072 100.517 88.0407 101.277 87.2851C102.093 86.4738 102.58 86.2868 102.516 86.309L99.902 78.7479ZM92.0302 86.5747L84.9229 82.9022C80.4292 91.5991 80.2599 102.381 88.1898 109.52L93.5422 103.574L98.8946 97.6284C98.0986 96.9119 96.7829 94.804 99.1375 90.2471L92.0302 86.5747ZM93.5422 103.574L88.1899 109.52C93.146 113.981 100.217 115.836 107.158 115.992L107.338 107.994L107.518 99.9964C102.728 99.8888 99.9661 98.593 98.8945 97.6283L93.5422 103.574ZM107.338 107.994L107.158 115.992C107.757 116.006 108.461 116.006 109.052 115.998C109.401 115.994 110.362 115.984 111.06 115.897L110.065 107.959L109.07 100.021C109.211 100.004 109.314 99.9949 109.353 99.9918C109.4 99.988 109.43 99.9862 109.436 99.9858C109.448 99.9852 109.428 99.9864 109.368 99.9885C109.25 99.9926 109.07 99.9969 108.845 99.9998C108.39 100.006 107.882 100.005 107.518 99.9964L107.338 107.994ZM110.065 107.959L111.06 115.897C111.435 115.85 114.198 115.563 116.298 113.042C117.795 111.246 118.06 109.296 118.089 109.129C118.218 108.388 118.262 107.445 118.282 107.105L110.297 106.626L102.311 106.147C102.291 106.476 102.28 106.652 102.272 106.761C102.259 106.934 102.268 106.719 102.326 106.389C102.357 106.211 102.437 105.784 102.621 105.25C102.805 104.719 103.195 103.773 104.007 102.799C106.062 100.333 108.768 100.059 109.07 100.021L110.065 107.959ZM110.297 106.626L118.282 107.105C118.793 98.6003 117.544 88.1375 114.836 81.3136L107.4 84.2647L99.9645 87.2159C101.582 91.2907 102.723 99.2802 102.311 106.146L110.297 106.626ZM107.4 84.2647L114.836 81.3135C113.563 78.1055 111.234 73.8666 107.163 71.7555L103.481 78.8574L99.7976 85.9592C99.3767 85.7409 99.1403 85.532 99.0656 85.4619C98.9866 85.3876 99.0038 85.3887 99.0944 85.5138C99.2856 85.7775 99.6108 86.3249 99.9645 87.216L107.4 84.2647ZM45.9139 79.5513L38.0702 77.9777C37.7612 79.5178 37.4274 80.7571 36.8646 82.4155L44.4402 84.9865L52.0159 87.5574C52.7848 85.2916 53.304 83.3859 53.7576 81.125L45.9139 79.5513ZM44.4402 84.9865L36.8648 82.4149C36.8666 82.4097 36.8546 82.4449 36.8221 82.5334C36.792 82.6153 36.7532 82.7193 36.7063 82.8426C36.6125 83.0895 36.4987 83.3823 36.3819 83.6774C36.2648 83.9733 36.1517 84.2536 36.0595 84.4769C35.9468 84.7498 35.9196 84.8052 35.9531 84.7339L43.1923 88.1391L50.4314 91.5442C50.8184 90.7215 51.7226 88.4212 52.0157 87.5581L44.4402 84.9865ZM43.1923 88.1391L35.9533 84.7337C35.6026 85.4791 35.5252 85.6287 35.2375 86.1507L42.2441 90.0118L49.2506 93.873C49.7326 92.9983 49.9642 92.5374 50.4313 91.5445L43.1923 88.1391ZM42.2441 90.0118L35.2376 86.1507C34.4074 87.657 33.9893 88.2288 33.3423 88.9645L39.3497 94.2476L45.3571 99.5307C46.9454 97.7246 48.0029 96.1371 49.2506 93.873L42.2441 90.0118ZM39.3497 94.2476L33.3422 88.9646C31.9884 90.5041 30.9314 91.0457 29.7218 91.3211L31.498 99.1215L33.2741 106.922C38.1638 105.808 42.0691 103.27 45.3571 99.5306L39.3497 94.2476ZM31.498 99.1215L29.7216 91.3212C29.6438 91.3389 29.566 91.3558 29.4859 91.3726L31.1241 99.203L32.7623 107.033C32.9224 107 33.0931 106.963 33.2743 106.922L31.498 99.1215ZM31.1241 99.203L27.8233 106.49C28.1636 106.644 28.5709 106.87 29.0296 107.192L33.6246 100.643L38.2196 94.0946C37.0017 93.24 35.732 92.5078 34.4249 91.9157L31.1241 99.203ZM33.6246 100.643L29.0294 107.192C30.9792 108.56 32.6145 110.04 37.8348 115.804L43.7643 110.434L49.6938 105.063C44.4431 99.2658 41.7705 96.5863 38.2198 94.0947L33.6246 100.643ZM43.7643 110.434L37.8348 115.804C41.8936 120.285 44.1254 122.646 46.9748 124.358L51.0945 117.5L55.2142 110.643C54.782 110.383 54.151 109.984 49.6937 105.063L43.7643 110.434ZM51.0945 117.5L46.975 124.358C49.3035 125.757 52.3836 126.817 56.0819 125.826L54.0114 118.099L51.9408 110.372C52.5502 110.208 53.3687 110.138 54.2313 110.315C54.9644 110.466 55.3415 110.719 55.214 110.643L51.0945 117.5ZM54.0114 118.099L56.082 125.826C60.1225 124.744 64.0231 121.414 64.5516 116.158L56.5917 115.357L48.6318 114.557C48.745 113.432 49.2402 112.38 49.9827 111.591C50.6939 110.836 51.4505 110.503 51.9408 110.372L54.0114 118.099ZM56.5917 115.357L64.5516 116.158C64.69 114.782 64.4955 113.574 64.3705 112.924C64.2205 112.145 64.0094 111.387 63.7872 110.704C63.3454 109.348 62.7231 107.874 61.986 106.52L54.9593 110.344L47.9325 114.168C48.048 114.381 48.1715 114.635 48.2896 114.911C48.4077 115.186 48.5039 115.445 48.5735 115.659C48.6478 115.887 48.6657 115.984 48.659 115.949C48.655 115.928 48.6338 115.816 48.6179 115.63C48.6097 115.534 48.6012 115.398 48.5999 115.229C48.5986 115.063 48.604 114.834 48.6319 114.557L56.5917 115.357ZM54.9593 110.344L61.9858 106.52C58.925 100.896 58.5089 97.2274 58.7067 96.159L50.8403 94.7028L42.974 93.2466C41.7555 99.8289 44.347 107.581 47.9327 114.169L54.9593 110.344ZM50.8403 94.7028L58.7067 96.1589C58.6682 96.3667 58.6228 96.4473 58.596 96.4939C58.5738 96.5327 58.5169 96.6263 58.4028 96.7617C58.2966 96.8877 58.0669 97.138 57.6789 97.4174L53.0033 90.926L48.3276 84.4346C45.2685 86.638 43.529 90.2479 42.9739 93.2467L50.8403 94.7028ZM53.0033 90.926L57.6792 97.4172C57.3375 97.6633 57.079 97.7785 56.9752 97.821C56.8595 97.8685 56.7976 97.8819 56.7889 97.8838C56.7776 97.8863 56.7661 97.8885 56.7399 97.89C56.7174 97.8912 56.6227 97.8955 56.4563 97.8736L57.4975 89.9417L58.5388 82.0097C55.3554 81.5918 51.3301 82.2718 48.3273 84.4348L53.0033 90.926ZM57.4975 89.9417L56.4569 97.8737C57.495 98.0099 59.8666 98.9524 63.273 102.001C66.5137 104.901 70.0503 109.14 73.4246 114.512L80.199 110.257L86.9734 106.002C82.9938 99.6663 78.5362 94.1885 73.9428 90.0779C69.5152 86.1156 64.213 82.7541 58.5382 82.0096L57.4975 89.9417ZM80.199 110.257L73.4246 114.512C73.7778 115.075 74.118 115.631 74.4459 116.182L81.3198 112.09L88.1937 107.997C87.8024 107.34 87.396 106.674 86.9734 106.002L80.199 110.257ZM81.3198 112.09L88.8489 109.385C88.7202 109.027 88.5824 108.601 88.4243 108.055L80.7399 110.279L73.0555 112.504C73.2844 113.295 73.5238 114.051 73.7907 114.794L81.3198 112.09ZM80.7399 110.279L88.4243 108.055C88.0262 106.679 87.8887 105.944 87.7763 104.781L79.8134 105.55L71.8505 106.32C72.067 108.56 72.4089 110.271 73.0555 112.504L80.7399 110.279ZM79.8134 105.55L87.7763 104.78C87.2896 99.7466 89.04 94.5048 92.8321 90.405L86.9591 84.9729L81.0861 79.5407C74.3435 86.8305 70.9044 96.5327 71.8505 106.32L79.8134 105.55ZM86.9591 84.9729L92.832 90.4051C92.845 90.391 92.8872 90.3464 92.972 90.2606L87.2843 84.6348L81.5966 79.0089C81.4408 79.1664 81.2638 79.3486 81.0862 79.5406L86.9591 84.9729ZM87.2843 84.6348L85.2137 76.9074L74.6788 79.7302L76.7494 87.4576L78.8199 95.185L89.3548 92.3622L87.2843 84.6348ZM76.7494 87.4576L83.1969 82.7216L83.1155 82.6108L76.668 87.3469L70.2205 92.0829L70.3019 92.1936L76.7494 87.4576ZM76.668 87.3469L83.1121 82.6061L76.3826 73.4589L69.9386 78.1996L63.4946 82.9403L70.224 92.0876L76.668 87.3469ZM69.9386 78.1996L62.228 80.3319C63.6564 85.497 64.7759 89.5531 64.9156 90.0759L72.6444 88.0104L80.3731 85.9449C80.2098 85.3338 79.0598 81.1681 77.6492 76.0673L69.9386 78.1996ZM72.6444 88.0104L64.9157 90.0762L64.9979 90.3835L72.7265 88.3177L80.4552 86.2519L80.3731 85.9446L72.6444 88.0104ZM72.7265 88.3177L70.9291 80.5222L69.8783 80.7645L71.6758 88.56L73.4733 96.3554L74.524 96.1131L72.7265 88.3177ZM71.6758 88.56L69.8786 80.7644C65.955 81.669 61.4401 80.8479 57.5961 78.2251L53.0872 84.8335L48.5783 91.4418C55.8815 96.4248 64.9347 98.3239 73.473 96.3555L71.6758 88.56ZM53.0872 84.8335L57.5961 78.2252C55.791 76.9935 54.3091 75.5785 52.7823 73.5334L46.3717 78.3193L39.9612 83.1051C42.4658 86.4601 45.2065 89.1411 48.5783 91.4418L53.0872 84.8335ZM46.3717 78.3193L52.7803 73.5308L52.6142 73.3084L46.2056 78.0969L39.797 82.8854L39.9631 83.1078L46.3717 78.3193ZM46.2056 78.0969L38.3618 76.5237L38.0701 77.9782L45.9139 79.5513L53.7577 81.1245L54.0494 79.6701L46.2056 78.0969ZM89.3931 82.6789L94.6325 88.7245C95.0371 88.3738 95.2939 88.1689 95.3802 88.1046L90.604 81.6868L85.8278 75.2691C85.2718 75.6828 84.669 76.1868 84.1538 76.6333L89.3931 82.6789ZM90.604 81.6868L95.3804 88.1045C97.0748 86.8434 98.7536 85.928 100.866 85.1382L98.0643 77.6448L95.2627 70.1514C91.785 71.4516 88.7694 73.0798 85.8277 75.2692L90.604 81.6868ZM98.0643 77.6448L100.866 85.1382C100.851 85.1437 101.027 85.0818 101.454 84.9576C101.836 84.8469 102.297 84.7214 102.777 84.5984C103.257 84.4754 103.72 84.3637 104.105 84.2778C104.54 84.181 104.716 84.1526 104.692 84.1561L103.552 76.2377L102.413 68.3193C100.689 68.5673 96.8929 69.5419 95.2626 70.1515L98.0643 77.6448ZM103.552 76.2377L104.692 84.1561C104.924 84.1227 105.153 84.0931 105.382 84.0668L104.465 76.1195L103.549 68.1721C103.177 68.2151 102.798 68.2639 102.413 68.3193L103.552 76.2377ZM104.465 76.1195L112.282 74.4159L110.736 67.3249L102.92 69.0285L95.1034 70.732L96.6488 77.823L104.465 76.1195ZM102.92 69.0285L100.849 61.3011L84.0729 65.7963L86.1435 73.5237L88.214 81.2511L104.99 76.7559L102.92 69.0285ZM86.1435 73.5237L78.6043 76.1998L81.854 85.3549L89.3931 82.6789L96.9323 80.0029L93.6826 70.8477L86.1435 73.5237ZM144.398 14.4925L151.771 11.3894C151.662 11.1305 151.518 10.8014 151.344 10.4607C151.295 10.3641 150.827 9.39048 149.967 8.45995C149.703 8.17419 149.202 7.66961 148.464 7.18447C147.781 6.73484 146.323 5.92361 144.28 5.86495C141.898 5.79653 139.802 6.77966 138.363 8.22742C137.143 9.4548 136.633 10.7573 136.426 11.3896C136.017 12.6324 136.018 13.6811 136.018 13.939C136.016 14.3665 136.048 14.7207 136.07 14.9332L144.026 14.0895L151.981 13.2459C151.993 13.3561 152.019 13.6253 152.018 13.9851C152.017 14.1752 152.024 15.1734 151.626 16.3828C151.424 16.9984 150.922 18.2885 149.71 19.5077C148.279 20.9473 146.192 21.9265 143.821 21.8584C141.789 21.8 140.343 20.9933 139.672 20.5524C138.948 20.0761 138.462 19.5845 138.213 19.3159C137.718 18.7794 137.422 18.3038 137.331 18.1561C137.205 17.9499 137.122 17.791 137.087 17.7217C137.016 17.5829 136.993 17.5218 137.024 17.5957L144.398 14.4925ZM144.026 14.0895L136.07 14.9329C136.068 14.9137 136.072 14.9549 136.083 15.0893C136.093 15.2095 136.104 15.3658 136.117 15.5551C136.143 15.9329 136.173 16.4031 136.203 16.9064C136.264 17.9275 136.319 18.9958 136.342 19.6374L144.337 19.3436L152.332 19.0497C152.277 17.5558 152.086 14.2382 151.981 13.2462L144.026 14.0895ZM144.337 19.3436L136.342 19.6372C136.524 24.5884 136.398 29.402 135.932 34.8845L143.903 35.5627L151.874 36.2408C152.39 30.1705 152.539 24.7055 152.332 19.0499L144.337 19.3436ZM143.903 35.5627L135.931 34.8849C135.865 35.6684 135.691 37.2597 135.546 38.3847L143.481 39.4068L151.415 40.4289C151.581 39.1395 151.783 37.3108 151.874 36.2404L143.903 35.5627ZM143.481 39.4068L135.546 38.3847C134.555 46.0813 132.06 48.4961 130.927 49.0512L134.447 56.2354L137.966 63.4197C146.389 59.2937 150.183 49.9933 151.415 40.4289L143.481 39.4068ZM134.447 56.2354L130.927 49.0512C130.112 49.4506 129.425 49.3977 129.214 49.3331L126.876 56.9839L124.538 64.6347C129.039 66.0101 133.908 65.4079 137.966 63.4197L134.447 56.2354ZM126.876 56.9839L129.214 49.3331C129.122 49.305 128.87 49.2181 128.408 48.8016L123.049 54.7411L117.689 60.6806C119.643 62.4431 121.907 63.8306 124.538 64.6347L126.876 56.9839ZM123.049 54.7411L128.408 48.8016C128.277 48.6831 128.129 48.5352 127.968 48.3515L121.956 53.6291L115.944 58.9067C116.487 59.5256 117.068 60.1198 117.69 60.6807L123.049 54.7411ZM121.956 53.6291L114.228 55.6996L116.248 63.2371L123.975 61.1665L131.703 59.096L129.683 51.5585L121.956 53.6291ZM123.975 61.1665L121.182 68.6631C124.566 69.9239 128.422 70.414 132.064 70.1327L131.447 62.1565L130.831 54.1802C129.338 54.2956 127.825 54.0635 126.769 53.6699L123.975 61.1665ZM131.447 62.1565L132.063 70.1327C134.019 69.9817 135.013 69.7962 136.973 69.2702L134.9 61.5435L132.827 53.8168C132.087 54.0153 131.854 54.0646 131.72 54.0884C131.616 54.1068 131.45 54.1324 130.831 54.1802L131.447 62.1565ZM134.9 61.5435L136.973 69.2702C139.277 68.6521 141.047 67.9771 143.072 66.8317L139.133 59.8684L135.194 52.9052C134.552 53.2686 134.081 53.4803 132.827 53.8168L134.9 61.5435ZM139.133 59.8684L143.072 66.8317C148.116 63.9785 151.951 59.7878 154.564 54.5551L147.407 50.9813L140.249 47.4076C138.96 49.9909 137.277 51.7272 135.194 52.9051L139.133 59.8684ZM147.407 50.9813L154.564 54.5552C156.158 51.3625 157.306 47.3409 157.735 43.7289L149.791 42.7864L141.846 41.8438C141.616 43.789 140.948 46.0076 140.249 47.4075L147.407 50.9813ZM149.791 42.7864L157.735 43.7289C158.419 37.9609 157.905 32.2374 156.392 25.4838L148.586 27.2329L140.779 28.982C142.03 34.5643 142.256 38.3919 141.846 41.8438L149.791 42.7864ZM148.586 27.2329L156.392 25.4839C155.453 21.2909 153.664 15.8874 151.771 11.3895L144.398 14.4925L137.024 17.5956C138.62 21.3881 140.084 25.8794 140.779 28.9819L148.586 27.2329ZM36.8082 52.4501L30.2591 47.8557C30.1094 48.0691 29.966 48.2753 29.8533 48.4391C29.7988 48.5183 29.7406 48.6035 29.6886 48.6808C29.665 48.716 29.6251 48.7756 29.5813 48.8433C29.5612 48.8743 29.519 48.9397 29.4687 49.0216C29.444 49.0619 29.3997 49.1346 29.347 49.2264C29.3155 49.2811 29.1856 49.5064 29.0443 49.8062L36.2809 53.2167L43.5175 56.6272C43.437 56.798 43.3665 56.9316 43.3264 57.0061C43.2824 57.088 43.2446 57.1548 43.2184 57.2004C43.1672 57.2894 43.125 57.3587 43.1027 57.3951C43.0573 57.469 43.0217 57.524 43.0098 57.5425C42.9939 57.567 42.9823 57.5845 42.9776 57.5916C42.9748 57.5958 42.9727 57.5989 42.9715 57.6008C42.9703 57.6026 42.9696 57.6036 42.9696 57.6036C42.9696 57.6037 42.97 57.603 42.9709 57.6017C42.9718 57.6003 42.9731 57.5984 42.9749 57.5958C42.9783 57.5907 42.983 57.5838 42.989 57.575C43.0011 57.5573 43.0167 57.5345 43.0358 57.5067C43.1143 57.3926 43.2287 57.2279 43.3574 57.0445L36.8082 52.4501ZM36.2809 53.2167L29.0503 49.7935C29.079 49.7328 29.1047 49.6806 29.1253 49.6394C29.1462 49.5977 29.1649 49.5612 29.1805 49.531C29.2111 49.4721 29.2374 49.4234 29.256 49.3893C29.2923 49.3226 29.3221 49.2704 29.3384 49.242C29.3564 49.2106 29.3712 49.1854 29.3809 49.1689C29.391 49.1517 29.3994 49.1377 29.4052 49.128C29.4165 49.1092 29.4245 49.0961 29.4273 49.0915C29.4306 49.0861 29.432 49.0839 29.4309 49.0856C29.424 49.0967 29.4037 49.1293 29.3671 49.1875C29.2966 49.2994 29.1954 49.4588 29.0824 49.6352L35.8199 53.9487L42.5575 58.2621C42.6862 58.0611 42.8094 57.8672 42.906 57.7138C42.9529 57.6393 43.0018 57.5613 43.0447 57.4918C43.0645 57.4597 43.0959 57.4087 43.1299 57.3518C43.1458 57.3254 43.1771 57.2729 43.2144 57.2079C43.233 57.1756 43.2646 57.12 43.3025 57.0506C43.328 57.0037 43.4137 56.8464 43.5116 56.6398L36.2809 53.2167ZM35.8199 53.9487L29.0825 49.6351C25.1565 55.7673 22.8432 62.6872 23.5791 69.5347L31.5333 68.6798L39.4875 67.8249C39.2571 65.6813 39.9155 62.3887 42.5574 58.2622L35.8199 53.9487ZM31.5333 68.6798L23.5791 69.535C23.6909 70.5746 23.9739 71.7398 24.1685 72.4715C24.3569 73.1802 24.696 74.3647 25.1351 75.3447L32.4357 72.0733L39.7362 68.802C39.7715 68.8807 39.795 68.9384 39.8069 68.9682C39.8193 68.9994 39.8257 69.0169 39.8261 69.0179C39.8267 69.0196 39.8238 69.0117 39.8175 68.9932C39.8113 68.9749 39.8029 68.9498 39.7926 68.9176C39.7483 68.7794 39.6907 68.5838 39.6311 68.3598C39.5717 68.1363 39.5231 67.9327 39.4907 67.7808C39.4747 67.7061 39.467 67.6639 39.465 67.6526C39.4614 67.6318 39.4737 67.6971 39.4874 67.8246L31.5333 68.6798ZM32.4357 72.0733L25.135 75.3445C26.5599 78.5246 28.6362 80.9789 31.5312 82.9137L35.9765 76.2624L40.4217 69.6111C40.134 69.4188 40.0347 69.3067 40.0014 69.2674C39.9684 69.2283 39.8759 69.1136 39.7363 68.8021L32.4357 72.0733ZM35.9765 76.2624L31.5311 82.9136C36.0227 85.9156 41.6158 86.4228 46.5185 85.3525L44.8121 77.5366L43.1058 69.7207C42.3281 69.8905 41.6559 69.8963 41.1544 69.824C40.9083 69.7885 40.7244 69.7374 40.5994 69.6917C40.4746 69.6462 40.4216 69.6111 40.4218 69.6112L35.9765 76.2624ZM44.8121 77.5366L46.5188 85.3524C46.8589 85.2781 47.2318 85.1888 47.5774 85.0919C47.7204 85.0519 48.0197 84.9662 48.3578 84.8421C48.4742 84.7994 48.9183 84.6372 49.4396 84.3567C49.6391 84.2494 50.3362 83.8728 51.0754 83.1932C51.4425 82.8557 52.171 82.1284 52.7636 80.9871C53.4017 79.7582 54.0485 77.6793 53.3914 75.2273L45.664 77.2979L37.9366 79.3684C37.2801 76.9181 37.9265 74.8412 38.5636 73.6142C39.1551 72.4749 39.8818 71.7499 40.2464 71.4147C40.9806 70.7397 41.6697 70.3683 41.8585 70.2667C42.3584 69.9978 42.77 69.8493 42.844 69.8222C42.9925 69.7676 43.1044 69.7323 43.1519 69.7176C43.2078 69.7002 43.2462 69.6893 43.2611 69.6851C43.2979 69.6748 43.2412 69.6911 43.1054 69.7207L44.8121 77.5366ZM45.664 77.2979L53.3856 75.2057C53.1987 74.5159 52.9515 73.9962 52.936 73.9624C52.8626 73.8018 52.7986 73.676 52.7664 73.6135C52.6985 73.4817 52.6389 73.3746 52.6099 73.3228C52.5449 73.2069 52.4808 73.0977 52.4342 73.0191C52.3343 72.8507 52.2165 72.6575 52.0995 72.4694L45.3062 76.6945L38.5129 80.9195C38.5853 81.0358 38.6426 81.1306 38.6725 81.1809C38.6907 81.2116 38.6801 81.1945 38.6533 81.1467C38.6434 81.1291 38.5991 81.0501 38.5422 80.9396C38.5155 80.8877 38.4559 80.7708 38.3857 80.6174C38.3503 80.5399 38.2933 80.4121 38.2293 80.2511C38.1774 80.1208 38.0551 79.8059 37.9425 79.3901L45.664 77.2979ZM45.3062 76.6945L52.0995 72.4694C51.6653 71.7713 51.1206 70.7371 50.7054 69.7908L43.3795 73.005L36.0535 76.2191C36.7429 77.7904 37.6356 79.5089 38.5129 80.9195L45.3062 76.6945ZM43.3795 73.005L50.7054 69.7908C50.2622 68.7806 50.4674 69.6198 47.6452 59.2367L39.9253 61.3351L32.2054 63.4334C34.8443 73.1418 35.0038 73.8264 36.0535 76.2191L43.3795 73.005ZM39.9253 61.3351L47.6452 59.2367L45.0341 49.6304L37.3142 51.7288L29.5943 53.8271L32.2054 63.4334L39.9253 61.3351ZM37.3142 51.7288L30.7647 47.1348L30.2588 47.8562L36.8082 52.4501L43.3577 57.0441L43.8637 56.3227L37.3142 51.7288ZM87.4014 60.1821L89.472 67.9096L94.0346 66.687L91.964 58.9596L89.8934 51.2322L85.3309 52.4547L87.4014 60.1821ZM91.964 58.9596L99.6914 56.8891L96.247 44.0344L88.5196 46.1049L80.7922 48.1755L84.2366 61.0302L91.964 58.9596ZM88.5196 46.1049L80.5447 45.4715L79.4265 59.5487L87.4014 60.1821L95.3763 60.8156L96.4945 46.7384L88.5196 46.1049ZM68.7791 61.3035L76.2322 64.2107L76.2943 64.0515L68.8412 61.1443L61.3882 58.237L61.3261 58.3962L68.7791 61.3035ZM68.8412 61.1443L76.311 64.0083C76.3231 63.9767 76.3332 63.9499 76.3403 63.9309C76.3471 63.9126 76.3528 63.8972 76.3549 63.8916C76.3583 63.8825 76.3566 63.887 76.3552 63.8906C76.3532 63.896 76.3482 63.9096 76.3413 63.9277L68.8615 61.09L61.3818 58.2522C61.3714 58.2793 61.363 58.302 61.3576 58.3165C61.3549 58.3238 61.3525 58.3301 61.351 58.3343C61.3502 58.3365 61.3495 58.3384 61.349 58.3397C61.3484 58.3413 61.3482 58.3418 61.3479 58.3426C61.3474 58.3441 61.3477 58.3432 61.3484 58.3414C61.3491 58.3395 61.3505 58.3356 61.3524 58.3305C61.3561 58.3206 61.3628 58.3029 61.3715 58.2802L68.8412 61.1443ZM68.8615 61.09L61.3815 58.2528C61.3597 58.3104 61.3475 58.3419 61.3395 58.362L68.7791 61.3035L76.2187 64.2449C76.2667 64.1237 76.3091 64.0127 76.3415 63.9271L68.8615 61.09ZM70.6292 47.2234L78.6273 47.0495C78.6274 47.0504 78.6273 47.0488 78.6272 47.0424C78.6271 47.0346 78.627 47.0284 78.6267 47.0134C78.6263 46.9897 78.6255 46.9425 78.6242 46.8896L70.6265 47.084L62.6289 47.2784C62.6287 47.272 62.6288 47.2713 62.6292 47.294C62.6293 47.3022 62.6296 47.3192 62.6299 47.3347C62.6302 47.3516 62.6306 47.3732 62.6311 47.3973L70.6292 47.2234ZM70.6265 47.084L78.6239 46.8779L78.6232 46.8503L70.6258 47.0564L62.6285 47.2625L62.6292 47.2901L70.6265 47.084ZM70.6258 47.0564L62.6283 47.2548C62.6299 47.3201 62.6277 47.241 62.6311 47.3973L70.6292 47.2234L78.6273 47.0495C78.627 47.0359 78.6268 47.0242 78.6261 46.9879C78.6256 46.958 78.6247 46.9105 78.6234 46.858L70.6258 47.0564ZM68.9095 33.899L76.6811 32.0011C76.6784 31.9898 76.6765 31.9817 76.6678 31.946C76.661 31.9176 76.6496 31.8704 76.6365 31.8175L68.8722 33.7452L61.1079 35.6729C61.1074 35.671 61.1084 35.6749 61.114 35.6979C61.1155 35.7043 61.1206 35.7256 61.1237 35.7382C61.1276 35.7544 61.1325 35.7746 61.1379 35.7969L68.9095 33.899ZM68.8722 33.7452L76.6336 31.8061L76.6281 31.7838L68.8666 33.7229L61.1052 35.662L61.1107 35.6842L68.8722 33.7452ZM68.8666 33.7229L61.1034 35.655C61.114 35.6976 61.1076 35.6726 61.1379 35.7969L68.9095 33.899L76.6811 32.0011C76.6761 31.9805 76.6729 31.967 76.663 31.9263C76.6549 31.8929 76.6432 31.8445 76.6298 31.7909L68.8666 33.7229Z" fill="white" mask="url(#path-1-outside-1_935_36476)"/>
</g>
<defs>
<filter id="filter0_d_935_36476" x="-0.000292778" y="0" width="195.885" height="160.358" filterUnits="userSpaceOnUse" color-interpolation-filters="sRGB">
<feFlood flood-opacity="0" result="BackgroundImageFix"/>
<feColorMatrix in="SourceAlpha" type="matrix" values="0 0 0 0 0 0 0 0 0 0 0 0 0 0 0 0 0 0 127 0" result="hardAlpha"/>
<feOffset dy="2.60381"/>
<feGaussianBlur stdDeviation="1.3019"/>
<feComposite in2="hardAlpha" operator="out"/>
<feColorMatrix type="matrix" values="0 0 0 0 0 0 0 0 0 0 0 0 0 0 0 0 0 0 0.25 0"/>
<feBlend mode="normal" in2="BackgroundImageFix" result="effect1_dropShadow_935_36476"/>
<feBlend mode="normal" in="SourceGraphic" in2="effect1_dropShadow_935_36476" result="shape"/>
</filter>
</defs>
</svg>
