<svg width="148" height="148" viewBox="0 0 148 148" fill="none" xmlns="http://www.w3.org/2000/svg">
<g>
<mask id="path-1-outside-1_935_36477" maskUnits="userSpaceOnUse" x="1.53027" y="0" width="144" height="144" fill="black">
<rect fill="white" x="1.53027" width="144" height="144"/>
<path d="M73.5303 8C80.5858 8.00037 86.9282 16.1202 91.3193 29.0459C103.565 23.01 113.794 21.7547 118.783 26.7441C123.772 31.7337 122.516 41.9614 116.48 54.207C129.219 58.5338 137.291 64.7574 137.525 71.6895L137.53 72C137.53 79.0562 129.409 85.3998 116.481 89.791C122.517 102.036 123.772 112.264 118.783 117.253L118.561 117.469C113.494 122.205 103.387 120.897 91.3213 114.95C86.9301 127.878 80.5865 136 73.5303 136L73.2197 135.995C66.2875 135.761 60.0651 127.688 55.7383 114.948C43.4918 120.984 33.2642 122.242 28.2744 117.253L28.0586 117.03C23.3224 111.963 24.6285 101.856 30.5762 89.7891C17.8401 85.4624 9.76968 79.2417 9.53516 72.3105L9.53027 72C9.53028 64.9441 17.6504 58.6003 30.5771 54.209C24.5408 41.9622 23.2847 31.7338 28.2744 26.7441C33.2641 21.7547 43.492 23.0106 55.7383 29.0469C60.065 16.3098 66.2882 8.23927 73.2197 8.00488L73.5303 8ZM73.5283 103.784C67.7092 108.168 61.9923 111.779 56.6396 114.497C56.9173 115.319 57.203 116.122 57.4961 116.903C59.643 122.628 62.1753 127.193 64.9365 130.308C67.6987 133.423 70.6054 135 73.5303 135C76.4551 135 79.3619 133.423 82.124 130.308C84.8852 127.193 87.4175 122.628 89.5645 116.903C89.8574 116.122 90.1404 115.32 90.418 114.498C85.0651 111.779 79.3478 108.168 73.5283 103.784ZM31.5342 90.1084C31.1497 90.8851 30.7845 91.6531 30.4395 92.4121C27.9092 97.9786 26.4724 102.997 26.2227 107.151C25.9729 111.308 26.9132 114.478 28.9814 116.546C31.0497 118.614 34.2199 119.554 38.376 119.305C42.5307 119.055 47.5489 117.618 53.1152 115.088C53.8745 114.743 54.642 114.376 55.4189 113.991C53.5568 108.284 52.0675 101.689 51.0527 94.4756C43.8377 93.4605 37.2416 91.9711 31.5342 90.1084ZM115.523 90.1104C109.816 91.9728 103.22 93.4617 96.0059 94.4766C94.991 101.691 93.503 108.286 91.6406 113.993C92.4166 114.377 93.184 114.743 93.9424 115.088C99.5087 117.618 104.527 119.055 108.682 119.305C112.838 119.554 116.008 118.614 118.076 116.546C120.144 114.478 121.085 111.307 120.835 107.151C120.585 102.997 119.148 97.9785 116.618 92.4121C116.273 91.6537 115.908 90.8864 115.523 90.1104ZM94.9756 94.6172C91.2475 95.1143 87.3606 95.4872 83.3506 95.7188C80.3528 98.3889 77.3426 100.873 74.3564 103.156C80.0072 107.396 85.5489 110.894 90.7363 113.54C92.533 108.001 93.9776 101.61 94.9756 94.6172ZM52.083 94.6182C53.0809 101.61 54.5249 108.001 56.3213 113.539C61.5086 110.893 67.0497 107.394 72.7002 103.155C69.7138 100.872 66.7031 98.3874 63.7051 95.7168C59.6962 95.4852 55.8101 95.1152 52.083 94.6182ZM65.3125 95.8027C68.055 98.2081 70.8029 100.454 73.5283 102.53C76.2536 100.455 79.0008 98.2079 81.7432 95.8027C79.0541 95.9319 76.313 96 73.5303 96L71.8789 95.9922C69.6602 95.9711 67.4696 95.9064 65.3125 95.8027ZM73.5303 49C70.3268 49 67.18 49.0896 64.1064 49.2607C61.8142 51.3114 59.5288 53.4722 57.2656 55.7354C55.002 57.999 52.8411 60.2854 50.79 62.5781C50.619 65.6511 50.5303 68.7972 50.5303 72C50.5303 75.2015 50.6191 78.3462 50.79 81.418C52.8412 83.7108 55.0019 85.998 57.2656 88.2617C59.53 90.5261 61.8179 92.6866 64.1113 94.7383C67.1834 94.9092 70.3285 95 73.5303 95C76.7304 95 79.8738 94.9091 82.9443 94.7383C85.2381 92.6864 87.5273 90.5264 89.792 88.2617C92.0567 85.997 94.2166 83.7079 96.2686 81.4141C96.4393 78.3436 96.5303 75.2001 96.5303 72C96.5303 68.7985 96.4395 65.6538 96.2686 62.582C94.2168 60.2884 92.0565 57.9999 89.792 55.7354C87.5286 53.472 85.2417 51.3116 82.9492 49.2607C79.8772 49.0898 76.7321 49 73.5303 49ZM96.1719 83.0156C94.3602 85.0104 92.4686 86.9991 90.499 88.9688L89.3262 90.1318C87.7421 91.6861 86.1467 93.1894 84.5479 94.6416C88.1896 94.4032 91.7226 94.0484 95.1191 93.5889C95.5788 90.1918 95.9334 86.6581 96.1719 83.0156ZM50.8867 83.0195C51.1252 86.6606 51.48 90.193 51.9395 93.5889C55.3356 94.0484 58.8683 94.4031 62.5098 94.6416C60.5154 92.8302 58.5279 90.938 56.5586 88.9688L55.3955 87.7959C53.8418 86.2124 52.3384 84.6178 50.8867 83.0195ZM42.3691 72.8271C38.1305 78.4771 34.6333 84.0183 31.9873 89.2051C37.5261 91.002 43.9174 92.4472 50.9102 93.4453C50.4133 89.7186 50.0431 85.8327 49.8115 81.8242C47.14 78.8251 44.6536 75.8146 42.3691 72.8271ZM104.686 72.8262C102.402 75.8123 99.9183 78.8226 97.248 81.8203C97.0165 85.8303 96.6436 89.7173 96.1465 93.4453C103.139 92.4473 109.531 91.0028 115.07 89.2061C112.424 84.0185 108.925 78.4771 104.686 72.8262ZM116.028 55.1104C113.31 60.4628 109.698 66.1791 105.314 71.998C109.699 77.8177 113.311 83.5347 116.029 88.8877C116.851 88.6103 117.653 88.327 118.434 88.0342C124.159 85.8872 128.723 83.355 131.838 80.5938C134.953 77.8316 136.53 74.9249 136.53 72C136.53 69.0751 134.953 66.1685 131.838 63.4062C128.723 60.645 124.159 58.1128 118.434 55.9658C117.652 55.6728 116.85 55.3879 116.028 55.1104ZM31.0293 55.1113C30.2085 55.3886 29.4073 55.6732 28.627 55.9658C22.9019 58.1127 18.3381 60.6451 15.2236 63.4062C12.1081 66.1685 10.5303 69.075 10.5303 72C10.5303 74.925 12.1081 77.8315 15.2236 80.5938C18.3381 83.3549 22.902 85.8873 28.627 88.0342C29.4069 88.3266 30.2081 88.6096 31.0283 88.8867C33.747 83.5342 37.3575 77.8171 41.7412 71.998C37.358 66.1796 33.7477 60.4634 31.0293 55.1113ZM49.7266 63.7783C47.3199 66.5222 45.072 69.2713 42.9951 71.998C45.0718 74.7247 47.3201 77.4731 49.7266 80.2168C49.6229 78.0604 49.5592 75.8704 49.5381 73.6523L49.5303 72C49.5303 69.2143 49.5971 66.4701 49.7266 63.7783ZM97.333 63.7822C97.4367 65.9393 97.5014 68.1299 97.5225 70.3486L97.5303 72C97.5303 74.7827 97.4622 77.5239 97.333 80.2129C99.7382 77.4706 101.985 74.7233 104.061 71.998C101.985 69.2726 99.7383 66.5247 97.333 63.7822ZM50.9111 50.5537C43.9183 51.5518 37.5262 52.9951 31.9873 54.792C34.6334 59.9789 38.1313 65.5198 42.3701 71.1699C44.6545 68.1826 47.1391 65.1708 49.8105 62.1719C50.0422 58.1643 50.4143 54.2796 50.9111 50.5537ZM96.1475 50.5537C96.6444 54.2805 97.0164 58.1662 97.248 62.1748C99.9184 65.1727 102.402 68.1837 104.686 71.1699C108.925 65.5197 112.423 59.979 115.069 54.792C109.531 52.9955 103.14 51.5516 96.1475 50.5537ZM84.5508 49.3574C86.5442 51.168 88.5307 53.06 90.499 55.0283C92.4683 56.9976 94.3605 58.9851 96.1719 60.9795C95.9334 57.3381 95.5787 53.8054 95.1191 50.4092C91.7236 49.9497 88.1915 49.5959 84.5508 49.3574ZM62.5049 49.3574C58.8652 49.5959 55.3341 49.9508 51.9395 50.4102C51.4801 53.8051 51.1252 57.3365 50.8867 60.9766C52.6975 58.9829 54.5901 56.9968 56.5586 55.0283C58.5267 53.0603 60.5117 51.1678 62.5049 49.3574ZM38.376 24.6924C34.2198 24.4426 31.0497 25.383 28.9814 27.4512C26.9131 29.5195 25.9728 32.6894 26.2227 36.8457C26.4724 41.0004 27.9093 46.0185 30.4395 51.585C30.7846 52.3443 31.1505 53.1126 31.5352 53.8896C37.2423 52.0271 43.8382 50.5384 51.0527 49.5234C52.0677 42.3085 53.5573 35.7124 55.4199 30.0049C54.6429 29.6202 53.8746 29.2544 53.1152 28.9092C47.5489 26.379 42.5307 24.9422 38.376 24.6924ZM118.076 27.4512C116.008 25.383 112.838 24.4427 108.682 24.6924C104.527 24.9421 99.5088 26.379 93.9424 28.9092C93.1835 29.2541 92.4152 29.6195 91.6387 30.0039C93.5014 35.7113 94.9908 42.3074 96.0059 49.5225C103.22 50.5372 109.815 52.0265 115.521 53.8887C115.906 53.1118 116.273 52.3442 116.618 51.585C119.148 46.0185 120.585 41.0004 120.835 36.8457C121.085 32.6896 120.144 29.5195 118.076 27.4512ZM56.3223 30.458C54.5255 35.9967 53.0811 42.3883 52.083 49.3809C55.8089 48.884 59.6937 48.5129 63.7012 48.2812C66.7003 45.6096 69.7127 43.1253 72.7002 40.8408C67.0501 36.602 61.5092 33.1041 56.3223 30.458ZM90.7354 30.457C85.5481 33.1032 80.0069 36.6017 74.3564 40.8408C77.3436 43.1251 80.3548 45.61 83.3535 48.2812C87.3624 48.5128 91.2485 48.8839 94.9756 49.3809C93.9774 42.3878 92.5323 35.996 90.7354 30.457ZM73.5283 41.4658C70.8017 43.5426 68.0523 45.7897 65.3086 48.1963C67.4669 48.0925 69.6589 48.0289 71.8789 48.0078L73.5303 48C76.3143 48 79.0568 48.066 81.7471 48.1953C79.0037 45.7891 76.2546 43.5423 73.5283 41.4658ZM73.5303 9C70.6053 9 67.6988 10.5779 64.9365 13.6934C62.1754 16.8078 59.643 21.3717 57.4961 27.0967C57.2035 27.877 56.9189 28.6783 56.6416 29.499C61.9937 32.2175 67.7098 35.8286 73.5283 40.2119C79.3475 35.828 85.0644 32.2167 90.417 29.498C90.1399 28.6778 89.8569 27.8766 89.5645 27.0967C87.4176 21.3718 84.8851 16.8078 82.124 13.6934C79.3619 10.5779 76.4551 9.00017 73.5303 9Z"/>
</mask>
<path d="M73.5303 8C80.5858 8.00037 86.9282 16.1202 91.3193 29.0459C103.565 23.01 113.794 21.7547 118.783 26.7441C123.772 31.7337 122.516 41.9614 116.48 54.207C129.219 58.5338 137.291 64.7574 137.525 71.6895L137.53 72C137.53 79.0562 129.409 85.3998 116.481 89.791C122.517 102.036 123.772 112.264 118.783 117.253L118.561 117.469C113.494 122.205 103.387 120.897 91.3213 114.95C86.9301 127.878 80.5865 136 73.5303 136L73.2197 135.995C66.2875 135.761 60.0651 127.688 55.7383 114.948C43.4918 120.984 33.2642 122.242 28.2744 117.253L28.0586 117.03C23.3224 111.963 24.6285 101.856 30.5762 89.7891C17.8401 85.4624 9.76968 79.2417 9.53516 72.3105L9.53027 72C9.53028 64.9441 17.6504 58.6003 30.5771 54.209C24.5408 41.9622 23.2847 31.7338 28.2744 26.7441C33.2641 21.7547 43.492 23.0106 55.7383 29.0469C60.065 16.3098 66.2882 8.23927 73.2197 8.00488L73.5303 8ZM73.5283 103.784C67.7092 108.168 61.9923 111.779 56.6396 114.497C56.9173 115.319 57.203 116.122 57.4961 116.903C59.643 122.628 62.1753 127.193 64.9365 130.308C67.6987 133.423 70.6054 135 73.5303 135C76.4551 135 79.3619 133.423 82.124 130.308C84.8852 127.193 87.4175 122.628 89.5645 116.903C89.8574 116.122 90.1404 115.32 90.418 114.498C85.0651 111.779 79.3478 108.168 73.5283 103.784ZM31.5342 90.1084C31.1497 90.8851 30.7845 91.6531 30.4395 92.4121C27.9092 97.9786 26.4724 102.997 26.2227 107.151C25.9729 111.308 26.9132 114.478 28.9814 116.546C31.0497 118.614 34.2199 119.554 38.376 119.305C42.5307 119.055 47.5489 117.618 53.1152 115.088C53.8745 114.743 54.642 114.376 55.4189 113.991C53.5568 108.284 52.0675 101.689 51.0527 94.4756C43.8377 93.4605 37.2416 91.9711 31.5342 90.1084ZM115.523 90.1104C109.816 91.9728 103.22 93.4617 96.0059 94.4766C94.991 101.691 93.503 108.286 91.6406 113.993C92.4166 114.377 93.184 114.743 93.9424 115.088C99.5087 117.618 104.527 119.055 108.682 119.305C112.838 119.554 116.008 118.614 118.076 116.546C120.144 114.478 121.085 111.307 120.835 107.151C120.585 102.997 119.148 97.9785 116.618 92.4121C116.273 91.6537 115.908 90.8864 115.523 90.1104ZM94.9756 94.6172C91.2475 95.1143 87.3606 95.4872 83.3506 95.7188C80.3528 98.3889 77.3426 100.873 74.3564 103.156C80.0072 107.396 85.5489 110.894 90.7363 113.54C92.533 108.001 93.9776 101.61 94.9756 94.6172ZM52.083 94.6182C53.0809 101.61 54.5249 108.001 56.3213 113.539C61.5086 110.893 67.0497 107.394 72.7002 103.155C69.7138 100.872 66.7031 98.3874 63.7051 95.7168C59.6962 95.4852 55.8101 95.1152 52.083 94.6182ZM65.3125 95.8027C68.055 98.2081 70.8029 100.454 73.5283 102.53C76.2536 100.455 79.0008 98.2079 81.7432 95.8027C79.0541 95.9319 76.313 96 73.5303 96L71.8789 95.9922C69.6602 95.9711 67.4696 95.9064 65.3125 95.8027ZM73.5303 49C70.3268 49 67.18 49.0896 64.1064 49.2607C61.8142 51.3114 59.5288 53.4722 57.2656 55.7354C55.002 57.999 52.8411 60.2854 50.79 62.5781C50.619 65.6511 50.5303 68.7972 50.5303 72C50.5303 75.2015 50.6191 78.3462 50.79 81.418C52.8412 83.7108 55.0019 85.998 57.2656 88.2617C59.53 90.5261 61.8179 92.6866 64.1113 94.7383C67.1834 94.9092 70.3285 95 73.5303 95C76.7304 95 79.8738 94.9091 82.9443 94.7383C85.2381 92.6864 87.5273 90.5264 89.792 88.2617C92.0567 85.997 94.2166 83.7079 96.2686 81.4141C96.4393 78.3436 96.5303 75.2001 96.5303 72C96.5303 68.7985 96.4395 65.6538 96.2686 62.582C94.2168 60.2884 92.0565 57.9999 89.792 55.7354C87.5286 53.472 85.2417 51.3116 82.9492 49.2607C79.8772 49.0898 76.7321 49 73.5303 49ZM96.1719 83.0156C94.3602 85.0104 92.4686 86.9991 90.499 88.9688L89.3262 90.1318C87.7421 91.6861 86.1467 93.1894 84.5479 94.6416C88.1896 94.4032 91.7226 94.0484 95.1191 93.5889C95.5788 90.1918 95.9334 86.6581 96.1719 83.0156ZM50.8867 83.0195C51.1252 86.6606 51.48 90.193 51.9395 93.5889C55.3356 94.0484 58.8683 94.4031 62.5098 94.6416C60.5154 92.8302 58.5279 90.938 56.5586 88.9688L55.3955 87.7959C53.8418 86.2124 52.3384 84.6178 50.8867 83.0195ZM42.3691 72.8271C38.1305 78.4771 34.6333 84.0183 31.9873 89.2051C37.5261 91.002 43.9174 92.4472 50.9102 93.4453C50.4133 89.7186 50.0431 85.8327 49.8115 81.8242C47.14 78.8251 44.6536 75.8146 42.3691 72.8271ZM104.686 72.8262C102.402 75.8123 99.9183 78.8226 97.248 81.8203C97.0165 85.8303 96.6436 89.7173 96.1465 93.4453C103.139 92.4473 109.531 91.0028 115.07 89.2061C112.424 84.0185 108.925 78.4771 104.686 72.8262ZM116.028 55.1104C113.31 60.4628 109.698 66.1791 105.314 71.998C109.699 77.8177 113.311 83.5347 116.029 88.8877C116.851 88.6103 117.653 88.327 118.434 88.0342C124.159 85.8872 128.723 83.355 131.838 80.5938C134.953 77.8316 136.53 74.9249 136.53 72C136.53 69.0751 134.953 66.1685 131.838 63.4062C128.723 60.645 124.159 58.1128 118.434 55.9658C117.652 55.6728 116.85 55.3879 116.028 55.1104ZM31.0293 55.1113C30.2085 55.3886 29.4073 55.6732 28.627 55.9658C22.9019 58.1127 18.3381 60.6451 15.2236 63.4062C12.1081 66.1685 10.5303 69.075 10.5303 72C10.5303 74.925 12.1081 77.8315 15.2236 80.5938C18.3381 83.3549 22.902 85.8873 28.627 88.0342C29.4069 88.3266 30.2081 88.6096 31.0283 88.8867C33.747 83.5342 37.3575 77.8171 41.7412 71.998C37.358 66.1796 33.7477 60.4634 31.0293 55.1113ZM49.7266 63.7783C47.3199 66.5222 45.072 69.2713 42.9951 71.998C45.0718 74.7247 47.3201 77.4731 49.7266 80.2168C49.6229 78.0604 49.5592 75.8704 49.5381 73.6523L49.5303 72C49.5303 69.2143 49.5971 66.4701 49.7266 63.7783ZM97.333 63.7822C97.4367 65.9393 97.5014 68.1299 97.5225 70.3486L97.5303 72C97.5303 74.7827 97.4622 77.5239 97.333 80.2129C99.7382 77.4706 101.985 74.7233 104.061 71.998C101.985 69.2726 99.7383 66.5247 97.333 63.7822ZM50.9111 50.5537C43.9183 51.5518 37.5262 52.9951 31.9873 54.792C34.6334 59.9789 38.1313 65.5198 42.3701 71.1699C44.6545 68.1826 47.1391 65.1708 49.8105 62.1719C50.0422 58.1643 50.4143 54.2796 50.9111 50.5537ZM96.1475 50.5537C96.6444 54.2805 97.0164 58.1662 97.248 62.1748C99.9184 65.1727 102.402 68.1837 104.686 71.1699C108.925 65.5197 112.423 59.979 115.069 54.792C109.531 52.9955 103.14 51.5516 96.1475 50.5537ZM84.5508 49.3574C86.5442 51.168 88.5307 53.06 90.499 55.0283C92.4683 56.9976 94.3605 58.9851 96.1719 60.9795C95.9334 57.3381 95.5787 53.8054 95.1191 50.4092C91.7236 49.9497 88.1915 49.5959 84.5508 49.3574ZM62.5049 49.3574C58.8652 49.5959 55.3341 49.9508 51.9395 50.4102C51.4801 53.8051 51.1252 57.3365 50.8867 60.9766C52.6975 58.9829 54.5901 56.9968 56.5586 55.0283C58.5267 53.0603 60.5117 51.1678 62.5049 49.3574ZM38.376 24.6924C34.2198 24.4426 31.0497 25.383 28.9814 27.4512C26.9131 29.5195 25.9728 32.6894 26.2227 36.8457C26.4724 41.0004 27.9093 46.0185 30.4395 51.585C30.7846 52.3443 31.1505 53.1126 31.5352 53.8896C37.2423 52.0271 43.8382 50.5384 51.0527 49.5234C52.0677 42.3085 53.5573 35.7124 55.4199 30.0049C54.6429 29.6202 53.8746 29.2544 53.1152 28.9092C47.5489 26.379 42.5307 24.9422 38.376 24.6924ZM118.076 27.4512C116.008 25.383 112.838 24.4427 108.682 24.6924C104.527 24.9421 99.5088 26.379 93.9424 28.9092C93.1835 29.2541 92.4152 29.6195 91.6387 30.0039C93.5014 35.7113 94.9908 42.3074 96.0059 49.5225C103.22 50.5372 109.815 52.0265 115.521 53.8887C115.906 53.1118 116.273 52.3442 116.618 51.585C119.148 46.0185 120.585 41.0004 120.835 36.8457C121.085 32.6896 120.144 29.5195 118.076 27.4512ZM56.3223 30.458C54.5255 35.9967 53.0811 42.3883 52.083 49.3809C55.8089 48.884 59.6937 48.5129 63.7012 48.2812C66.7003 45.6096 69.7127 43.1253 72.7002 40.8408C67.0501 36.602 61.5092 33.1041 56.3223 30.458ZM90.7354 30.457C85.5481 33.1032 80.0069 36.6017 74.3564 40.8408C77.3436 43.1251 80.3548 45.61 83.3535 48.2812C87.3624 48.5128 91.2485 48.8839 94.9756 49.3809C93.9774 42.3878 92.5323 35.996 90.7354 30.457ZM73.5283 41.4658C70.8017 43.5426 68.0523 45.7897 65.3086 48.1963C67.4669 48.0925 69.6589 48.0289 71.8789 48.0078L73.5303 48C76.3143 48 79.0568 48.066 81.7471 48.1953C79.0037 45.7891 76.2546 43.5423 73.5283 41.4658ZM73.5303 9C70.6053 9 67.6988 10.5779 64.9365 13.6934C62.1754 16.8078 59.643 21.3717 57.4961 27.0967C57.2035 27.877 56.9189 28.6783 56.6416 29.499C61.9937 32.2175 67.7098 35.8286 73.5283 40.2119C79.3475 35.828 85.0644 32.2167 90.417 29.498C90.1399 28.6778 89.8569 27.8766 89.5645 27.0967C87.4176 21.3718 84.8851 16.8078 82.124 13.6934C79.3619 10.5779 76.4551 9.00017 73.5303 9Z" fill="url(#paint0_linear_935_36477)"/>
<path d="M73.5303 8L73.5307 0C73.4886 -1.90735e-06 73.4466 0.000327587 73.4045 0.000988483L73.5303 8ZM91.3193 29.0459L83.7445 31.6192C84.4854 33.8 86.1301 35.5556 88.258 36.437C90.3858 37.3183 92.7903 37.2398 94.8562 36.2216L91.3193 29.0459ZM118.783 26.7441L124.44 21.0876L124.44 21.0873L118.783 26.7441ZM116.48 54.207L109.305 50.6702C108.286 52.7361 108.208 55.1407 109.089 57.2686C109.971 59.3965 111.727 61.0413 113.908 61.782L116.48 54.207ZM137.525 71.6895L145.524 71.5637C145.524 71.5155 145.522 71.4673 145.521 71.4191L137.525 71.6895ZM137.53 72L145.53 72.0002C145.53 71.9582 145.53 71.9162 145.529 71.8742L137.53 72ZM116.481 89.791L113.908 82.2161C111.728 82.9569 109.972 84.6016 109.09 86.7295C108.209 88.8573 108.287 91.2618 109.306 93.3277L116.481 89.791ZM118.783 117.253L124.351 122.997C124.381 122.968 124.411 122.939 124.44 122.91L118.783 117.253ZM118.561 117.469L124.023 123.313C124.059 123.28 124.094 123.247 124.129 123.213L118.561 117.469ZM91.3213 114.95L94.858 107.774C92.7921 106.756 90.3876 106.678 88.2597 107.559C86.1318 108.441 84.4871 110.196 83.7463 112.377L91.3213 114.95ZM73.5303 136L73.4045 143.999C73.4466 144 73.4886 144 73.5307 144L73.5303 136ZM73.2197 135.995L72.9494 143.991C72.9975 143.992 73.0457 143.993 73.094 143.994L73.2197 135.995ZM55.7383 114.948L63.3133 112.375C62.5726 110.195 60.9278 108.439 58.7999 107.557C56.672 106.676 54.2674 106.754 52.2014 107.773L55.7383 114.948ZM28.2744 117.253L22.5301 122.821C22.5591 122.851 22.5883 122.881 22.6178 122.91L28.2744 117.253ZM28.0586 117.03L22.2141 122.493C22.2472 122.528 22.2806 122.563 22.3142 122.598L28.0586 117.03ZM30.5762 89.7891L37.7518 93.326C38.7701 91.2601 38.8486 88.8556 37.9673 86.7277C37.0859 84.5999 35.3303 82.9551 33.1495 82.2142L30.5762 89.7891ZM9.53516 72.3105L1.53614 72.4363C1.5369 72.4846 1.5381 72.5328 1.53973 72.5811L9.53516 72.3105ZM9.53027 72L1.53027 72C1.53027 72.0419 1.5306 72.0838 1.53126 72.1258L9.53027 72ZM30.5771 54.209L33.1504 61.7838C35.3312 61.043 37.0869 59.3982 37.9682 57.2704C38.8496 55.1425 38.7711 52.738 37.7528 50.6721L30.5771 54.209ZM28.2744 26.7441L22.6177 21.0872L22.6176 21.0873L28.2744 26.7441ZM55.7383 29.0469L52.2014 36.2225C54.2672 37.2408 56.6718 37.3193 58.7997 36.438C60.9276 35.5566 62.5723 33.8009 63.3132 31.62L55.7383 29.0469ZM73.2197 8.00488L73.094 0.0058713C73.0457 0.00662947 72.9975 0.00782347 72.9494 0.00945282L73.2197 8.00488ZM73.5283 103.784L78.342 97.3945C75.492 95.2474 71.5647 95.2474 68.7147 97.3944L73.5283 103.784ZM56.6396 114.497L53.017 107.364C49.4736 109.164 47.7886 113.292 49.0603 117.057L56.6396 114.497ZM57.4961 116.903L50.0054 119.712L50.0055 119.712L57.4961 116.903ZM64.9365 130.308L58.9505 135.615L58.9506 135.615L64.9365 130.308ZM73.5303 135L73.5303 143H73.5307L73.5303 135ZM82.124 130.308L88.11 135.615L88.1102 135.615L82.124 130.308ZM89.5645 116.903L97.0551 119.712L97.0551 119.712L89.5645 116.903ZM90.418 114.498L97.9972 117.058C99.2691 113.293 97.5841 109.165 94.0407 107.365L90.418 114.498ZM31.5342 90.1084L34.0163 82.5032C30.2381 81.2701 26.1275 82.9976 24.3644 86.5595L31.5342 90.1084ZM30.4395 92.4121L23.1565 89.1017L23.1565 89.1017L30.4395 92.4121ZM26.2227 107.151L18.2371 106.671L18.2371 106.671L26.2227 107.151ZM28.9814 116.546L23.3246 122.203L23.3249 122.203L28.9814 116.546ZM38.376 119.305L38.856 127.29L38.8561 127.29L38.376 119.305ZM53.1152 115.088L56.4257 122.371L56.4257 122.371L53.1152 115.088ZM55.4189 113.991L58.9679 121.161C62.5296 119.398 64.2571 115.288 63.0243 111.51L55.4189 113.991ZM51.0527 94.4756L58.9747 93.3612C58.4777 89.8278 55.7007 87.0507 52.1673 86.5536L51.0527 94.4756ZM115.523 90.1104L122.693 86.5616C120.93 82.9997 116.82 81.2721 113.042 82.5051L115.523 90.1104ZM96.0059 94.4766L94.8914 86.5546C91.358 87.0516 88.581 89.8287 88.0839 93.3621L96.0059 94.4766ZM91.6406 113.993L84.0353 111.511C82.8024 115.29 84.53 119.4 88.0919 121.163L91.6406 113.993ZM93.9424 115.088L90.6319 122.371L90.632 122.371L93.9424 115.088ZM108.682 119.305L108.202 127.29L108.202 127.29L108.682 119.305ZM118.076 116.546L123.733 122.203L123.733 122.203L118.076 116.546ZM120.835 107.151L128.821 106.671L128.821 106.671L120.835 107.151ZM116.618 92.4121L123.901 89.1017L123.901 89.1017L116.618 92.4121ZM94.9756 94.6172L102.895 95.7475C103.249 93.2679 102.421 90.7657 100.658 88.9865C98.8955 87.2072 96.401 86.3563 93.9183 86.6874L94.9756 94.6172ZM83.3506 95.7188L82.8894 87.7321C81.0888 87.836 79.3763 88.5454 78.0295 89.7449L83.3506 95.7188ZM74.3564 103.156L69.4969 96.8013C67.5073 98.3228 66.345 100.688 66.3565 103.193C66.368 105.698 67.552 108.052 69.5555 109.556L74.3564 103.156ZM90.7363 113.54L87.1011 120.666C89.187 121.73 91.6344 121.827 93.7979 120.931C95.9613 120.035 97.6235 118.236 98.346 116.008L90.7363 113.54ZM52.083 94.6182L53.1404 86.6884C50.6576 86.3573 48.1631 87.2082 46.4002 88.9874C44.6372 90.7667 43.8094 93.2689 44.1633 95.7485L52.083 94.6182ZM56.3213 113.539L48.7116 116.007C49.4341 118.235 51.0963 120.034 53.2597 120.93C55.4232 121.826 57.8707 121.729 59.9567 120.665L56.3213 113.539ZM72.7002 103.155L77.5011 109.555C79.5047 108.051 80.6886 105.697 80.7001 103.192C80.7116 100.687 79.5494 98.3219 77.5598 96.8004L72.7002 103.155ZM63.7051 95.7168L69.0262 89.7431C67.6795 88.5435 65.967 87.8341 64.1665 87.7301L63.7051 95.7168ZM65.3125 95.8027L65.6966 87.812C62.2989 87.6486 59.1695 89.6517 57.8952 92.8056C56.6208 95.9594 57.4801 99.5743 60.0374 101.817L65.3125 95.8027ZM73.5283 102.53L68.681 108.894C71.5445 111.076 75.5121 111.076 78.3757 108.895L73.5283 102.53ZM81.7432 95.8027L87.0182 101.817C89.5755 99.5743 90.4349 95.9595 89.1606 92.8057C87.8862 89.6519 84.7569 87.6487 81.3593 87.812L81.7432 95.8027ZM73.5303 96L73.4924 104C73.505 104 73.5177 104 73.5303 104V96ZM71.8789 95.9922L71.8029 103.992C71.8156 103.992 71.8283 103.992 71.8411 103.992L71.8789 95.9922ZM73.5303 49V41V41V49ZM64.1064 49.2607L63.6617 41.2731C61.8494 41.374 60.1253 42.0882 58.7725 43.2985L64.1064 49.2607ZM57.2656 55.7354L51.6088 50.0785L51.6088 50.0785L57.2656 55.7354ZM50.79 62.5781L44.8277 57.2442C43.6175 58.597 42.9033 60.3212 42.8024 62.1335L50.79 62.5781ZM50.5303 72H42.5303V72H50.5303ZM50.79 81.418L42.8024 81.8624C42.9032 83.6748 43.6174 85.399 44.8277 86.7518L50.79 81.418ZM57.2656 88.2617L51.6088 93.9186L51.6088 93.9186L57.2656 88.2617ZM64.1113 94.7383L58.7776 100.701C60.1304 101.911 61.8545 102.625 63.6668 102.726L64.1113 94.7383ZM73.5303 95V103V103V95ZM82.9443 94.7383L83.3886 102.726C85.201 102.625 86.9252 101.911 88.2781 100.701L82.9443 94.7383ZM89.792 88.2617L95.4488 93.9186L95.4489 93.9186L89.792 88.2617ZM96.2686 81.4141L102.231 86.7478C103.441 85.3949 104.155 83.6707 104.256 81.8583L96.2686 81.4141ZM96.5303 72H104.53V72H96.5303ZM96.2686 62.582L104.256 62.1376C104.155 60.3253 103.441 58.6011 102.231 57.2483L96.2686 62.582ZM89.792 55.7354L95.4489 50.0785L95.4488 50.0785L89.792 55.7354ZM82.9492 49.2607L88.2831 43.2984C86.9303 42.0882 85.2061 41.374 83.3937 41.2731L82.9492 49.2607ZM96.1719 83.0156L104.155 83.5382C104.377 80.1439 102.428 76.9803 99.2972 75.6514C96.166 74.3225 92.5368 75.119 90.2498 77.637L96.1719 83.0156ZM90.499 88.9688L96.1322 94.6492C96.1401 94.6413 96.148 94.6335 96.1559 94.6256L90.499 88.9688ZM89.3262 90.1318L94.929 95.8422C94.9392 95.8322 94.9493 95.8223 94.9593 95.8123L89.3262 90.1318ZM84.5479 94.6416L79.1692 88.7196C76.6512 91.0066 75.8547 94.6358 77.1836 97.767C78.5126 100.898 81.6762 102.847 85.0705 102.625L84.5479 94.6416ZM95.1191 93.5889L96.1918 101.517C99.7588 101.034 102.564 98.2285 103.047 94.6616L95.1191 93.5889ZM50.8867 83.0195L56.8086 77.6408C54.5216 75.1228 50.8924 74.3264 47.7612 75.6553C44.63 76.9843 42.6815 80.148 42.9038 83.5423L50.8867 83.0195ZM51.9395 93.5889L44.0117 94.6615C44.4943 98.2285 47.2997 101.034 50.8667 101.517L51.9395 93.5889ZM62.5098 94.6416L61.987 102.625C65.3813 102.847 68.545 100.898 69.874 97.7671C71.2029 94.6358 70.4065 91.0066 67.8884 88.7196L62.5098 94.6416ZM56.5586 88.9688L50.8781 94.6019C50.886 94.6098 50.8939 94.6177 50.9018 94.6256L56.5586 88.9688ZM55.3955 87.7959L49.6852 93.3988C49.6951 93.4089 49.7051 93.419 49.7151 93.4291L55.3955 87.7959ZM42.3691 72.8271L48.7241 67.9677C47.2026 65.978 44.8371 64.8157 42.3324 64.8272C39.8277 64.8387 37.4729 66.0227 35.9698 68.0263L42.3691 72.8271ZM31.9873 89.2051L24.861 85.5697C23.7969 87.6556 23.7001 90.103 24.5962 92.2664C25.4923 94.4298 27.2912 96.092 29.5186 96.8147L31.9873 89.2051ZM50.9102 93.4453L49.7797 101.365C52.2593 101.719 54.7616 100.891 56.5408 99.1282C58.3201 97.3653 59.171 94.8708 58.84 92.388L50.9102 93.4453ZM49.8115 81.8242L57.7982 81.3628C57.6942 79.5623 56.9848 77.8497 55.7852 76.503L49.8115 81.8242ZM104.686 72.8262L111.085 68.0252C109.582 66.0217 107.227 64.8378 104.722 64.8263C102.218 64.8147 99.8521 65.977 98.3307 67.9666L104.686 72.8262ZM97.248 81.8203L91.2743 76.4992C90.0747 77.846 89.3653 79.5586 89.2614 81.3591L97.248 81.8203ZM96.1465 93.4453L88.2167 92.388C87.8856 94.8707 88.7365 97.3652 90.5157 99.1281C92.295 100.891 94.7972 101.719 97.2768 101.365L96.1465 93.4453ZM115.07 89.2061L117.539 96.8157C119.766 96.0932 121.565 94.431 122.461 92.2676C123.357 90.1042 123.261 87.6567 122.197 85.5708L115.07 89.2061ZM116.028 55.1104L118.588 47.5311C114.823 46.2593 110.695 47.9442 108.896 51.4875L116.028 55.1104ZM105.314 71.998L98.9247 67.1844C96.7777 70.0344 96.7777 73.9617 98.9247 76.8117L105.314 71.998ZM116.029 88.8877L108.897 92.5104C110.696 96.0538 114.824 97.7389 118.59 96.4669L116.029 88.8877ZM118.434 88.0342L121.243 95.5248L121.243 95.5248L118.434 88.0342ZM131.838 80.5938L137.145 86.5798L137.145 86.5798L131.838 80.5938ZM136.53 72L144.53 72.0002V72L136.53 72ZM131.838 63.4062L137.145 57.4203L137.145 57.4202L131.838 63.4062ZM118.434 55.9658L121.243 48.4752L121.243 48.4752L118.434 55.9658ZM31.0293 55.1113L38.162 51.4885C36.3622 47.9451 32.2341 46.2601 28.4689 47.5321L31.0293 55.1113ZM28.627 55.9658L25.818 48.4752L25.818 48.4752L28.627 55.9658ZM15.2236 63.4062L9.9165 57.4201L9.91636 57.4202L15.2236 63.4062ZM10.5303 72L2.53027 72V72.0002L10.5303 72ZM15.2236 80.5938L9.91638 86.5798L9.91655 86.58L15.2236 80.5938ZM28.627 88.0342L25.818 95.5248L25.818 95.5248L28.627 88.0342ZM31.0283 88.8867L28.4677 96.4659C32.233 97.7379 36.3612 96.053 38.161 92.5095L31.0283 88.8867ZM41.7412 71.998L48.1309 76.8117C50.2779 73.9618 50.278 70.0345 48.131 67.1845L41.7412 71.998ZM49.7266 63.7783L57.7173 64.1626C57.8807 60.765 55.8777 57.6355 52.7239 56.361C49.5701 55.0866 45.9553 55.9458 43.7123 58.5031L49.7266 63.7783ZM42.9951 71.998L36.6309 67.1507C34.4499 70.0143 34.4499 73.9818 36.6309 76.8453L42.9951 71.998ZM49.7266 80.2168L43.7122 85.492C45.9552 88.0492 49.57 88.9085 52.7238 87.6341C55.8776 86.3597 57.8806 83.2304 57.7173 79.8327L49.7266 80.2168ZM49.5381 73.6523L41.5382 73.6902C41.5382 73.7029 41.5383 73.7156 41.5384 73.7284L49.5381 73.6523ZM49.5303 72H41.5303C41.5303 72.0126 41.5303 72.0252 41.5304 72.0378L49.5303 72ZM97.333 63.7822L103.347 58.5072C101.105 55.9498 97.4897 55.0905 94.3359 56.3649C91.182 57.6393 89.1789 60.7687 89.3422 64.1663L97.333 63.7822ZM97.5225 70.3486L105.522 70.3108C105.522 70.2981 105.522 70.2854 105.522 70.2727L97.5225 70.3486ZM97.5303 72H105.53C105.53 71.9874 105.53 71.9748 105.53 71.9622L97.5303 72ZM97.333 80.2129L89.3422 79.829C89.179 83.2267 91.1822 86.356 94.336 87.6303C97.4898 88.9046 101.105 88.0452 103.348 85.4879L97.333 80.2129ZM104.061 71.998L110.425 76.8454C112.606 73.9818 112.606 70.0142 110.425 67.1507L104.061 71.998ZM50.9111 50.5537L58.841 51.6111C59.172 49.1283 58.3211 46.6338 56.5419 44.8708C54.7626 43.1079 52.2603 42.2801 49.7807 42.634L50.9111 50.5537ZM31.9873 54.792L29.5187 47.1824C27.2913 47.905 25.4923 49.5672 24.5962 51.7306C23.7001 53.8941 23.7969 56.3415 24.861 58.4274L31.9873 54.792ZM42.3701 71.1699L35.9708 75.9708C37.4739 77.9744 39.8286 79.1583 42.3333 79.1698C44.838 79.1814 47.2035 78.0191 48.725 76.0295L42.3701 71.1699ZM49.8105 62.1719L55.7842 67.4931C56.9838 66.1465 57.6932 64.4339 57.7972 62.6335L49.8105 62.1719ZM96.1475 50.5537L97.2778 42.634C94.7982 42.2801 92.296 43.1079 90.5167 44.8709C88.7375 46.6338 87.8866 49.1283 88.2176 51.6111L96.1475 50.5537ZM97.248 62.1748L89.2614 62.6362C89.3654 64.4367 90.0747 66.1492 91.2743 67.4959L97.248 62.1748ZM104.686 71.1699L98.3307 76.0295C99.8522 78.0191 102.218 79.1814 104.722 79.1698C107.227 79.1583 109.582 77.9744 111.085 75.9708L104.686 71.1699ZM115.069 54.792L122.196 58.4274C123.26 56.3414 123.357 53.8939 122.46 51.7305C121.564 49.567 119.765 47.9048 117.538 47.1823L115.069 54.792ZM84.5508 49.3574L85.0736 41.3745C81.6793 41.1522 78.5156 43.1006 77.1866 46.2318C75.8577 49.363 76.654 52.9922 79.172 55.2793L84.5508 49.3574ZM90.499 55.0283L96.1559 49.3715L96.1559 49.3715L90.499 55.0283ZM96.1719 60.9795L90.2499 66.3582C92.5369 68.8762 96.1661 69.6726 99.2974 68.3437C102.429 67.0147 104.377 63.851 104.155 60.4567L96.1719 60.9795ZM95.1191 50.4092L103.047 49.3364C102.564 45.7694 99.7588 42.9641 96.1918 42.4814L95.1191 50.4092ZM62.5049 49.3574L67.8837 55.2792C70.4017 52.9922 71.198 49.3629 69.869 46.2317C68.5399 43.1005 65.3762 41.1521 61.9818 41.3745L62.5049 49.3574ZM51.9395 50.4102L50.8667 42.4824C47.2997 42.9651 44.4944 45.7705 44.0117 49.3374L51.9395 50.4102ZM50.8867 60.9766L42.9038 60.4536C42.6815 63.8479 44.6299 67.0117 47.7611 68.3407C50.8923 69.6697 54.5215 68.8733 56.8086 66.3554L50.8867 60.9766ZM56.5586 55.0283L50.9017 49.3715L50.9017 49.3715L56.5586 55.0283ZM38.376 24.6924L38.8561 16.7068L38.856 16.7068L38.376 24.6924ZM28.9814 27.4512L23.3247 21.7942L23.3246 21.7943L28.9814 27.4512ZM26.2227 36.8457L18.2371 37.3257L18.2371 37.3258L26.2227 36.8457ZM30.4395 51.585L23.1565 54.8954L23.1565 54.8954L30.4395 51.585ZM31.5352 53.8896L24.3655 57.4387C26.1286 61.0004 30.239 62.7279 34.0172 61.4949L31.5352 53.8896ZM51.0527 49.5234L52.1673 57.4454C55.7007 56.9483 58.4776 54.1713 58.9747 50.6379L51.0527 49.5234ZM55.4199 30.0049L63.0252 32.4869C64.2582 28.7087 62.5307 24.5983 58.969 22.8352L55.4199 30.0049ZM53.1152 28.9092L56.4257 21.6263L56.4257 21.6262L53.1152 28.9092ZM118.076 27.4512L123.733 21.7946L123.733 21.7943L118.076 27.4512ZM108.682 24.6924L108.202 16.7068L108.202 16.7068L108.682 24.6924ZM93.9424 28.9092L90.632 21.6262L90.6319 21.6263L93.9424 28.9092ZM91.6387 30.0039L88.0898 22.8341C84.5279 24.5972 82.8004 28.7078 84.0335 32.486L91.6387 30.0039ZM96.0059 49.5225L88.0839 50.637C88.581 54.1704 91.358 56.9474 94.8914 57.4445L96.0059 49.5225ZM115.521 53.8887L113.04 61.494C116.818 62.7268 120.928 60.9993 122.691 57.4376L115.521 53.8887ZM116.618 51.585L123.901 54.8954L123.901 54.8954L116.618 51.585ZM120.835 36.8457L128.821 37.3257V37.3257L120.835 36.8457ZM56.3223 30.458L59.9577 23.3318C57.8718 22.2676 55.4243 22.1708 53.2609 23.0669C51.0974 23.963 49.4352 25.762 48.7126 27.9895L56.3223 30.458ZM52.083 49.3809L44.1633 48.2504C43.8093 50.7301 44.6372 53.2323 46.4002 55.0116C48.1631 56.7909 50.6576 57.6417 53.1404 57.3107L52.083 49.3809ZM63.7012 48.2812L64.1628 56.2679C65.9633 56.1638 67.6758 55.4545 69.0225 54.2548L63.7012 48.2812ZM72.7002 40.8408L77.5598 47.1957C79.5494 45.6742 80.7116 43.3087 80.7001 40.804C80.6886 38.2993 79.5047 35.9446 77.5011 34.4415L72.7002 40.8408ZM90.7354 30.457L98.3449 27.9883C97.6223 25.761 95.9601 23.962 93.7967 23.066C91.6333 22.1699 89.1859 22.2666 87.1 23.3307L90.7354 30.457ZM74.3564 40.8408L69.5555 34.4415C67.552 35.9446 66.368 38.2994 66.3565 40.804C66.345 43.3087 67.5072 45.6742 69.4969 47.1957L74.3564 40.8408ZM83.3535 48.2812L78.0323 54.2549C79.379 55.4545 81.0916 56.1639 82.8922 56.2679L83.3535 48.2812ZM94.9756 49.3809L93.9183 57.3107C96.401 57.6417 98.8955 56.7908 100.658 55.0116C102.421 53.2323 103.249 50.73 102.895 48.2504L94.9756 49.3809ZM73.5283 41.4658L78.3756 35.1016C75.5121 32.9206 71.5445 32.9206 68.681 35.1016L73.5283 41.4658ZM65.3086 48.1963L60.0334 42.182C57.4761 44.425 56.6169 48.0398 57.8913 51.1936C59.1658 54.3474 62.2952 56.3505 65.6929 56.1871L65.3086 48.1963ZM71.8789 48.0078L71.8411 40.0079C71.8283 40.008 71.8156 40.0081 71.8029 40.0082L71.8789 48.0078ZM73.5303 48V40C73.5177 40 73.505 40 73.4924 40.0001L73.5303 48ZM81.7471 48.1953L81.363 56.1861C84.7606 56.3494 87.89 54.3463 89.1644 51.1925C90.4388 48.0387 89.5795 44.4239 87.0222 42.1809L81.7471 48.1953ZM73.5303 9L73.5307 1H73.5303L73.5303 9ZM64.9365 13.6934L58.9505 8.38604L58.9503 8.38623L64.9365 13.6934ZM57.4961 27.0967L50.0055 24.2877L50.0054 24.2877L57.4961 27.0967ZM56.6416 29.499L49.0624 26.9386C47.7904 30.7038 49.4753 34.8319 53.0187 36.6317L56.6416 29.499ZM73.5283 40.2119L68.7147 46.6016C71.5647 48.7487 75.492 48.7487 78.342 46.6016L73.5283 40.2119ZM90.417 29.498L94.0397 36.6308C97.5833 34.831 99.2682 30.7028 97.9961 26.9375L90.417 29.498ZM89.5645 27.0967L97.0551 24.2877L97.0551 24.2877L89.5645 27.0967ZM82.124 13.6934L88.1103 8.38632L88.1101 8.38611L82.124 13.6934ZM73.5303 8L73.5299 16C73.7424 16 75.0485 16.1027 77.2602 18.7758C79.4346 21.4038 81.7258 25.677 83.7445 31.6192L91.3193 29.0459L98.8942 26.4726C96.5217 19.4891 93.4462 13.2396 89.5877 8.57612C85.7665 3.95778 80.3736 0.000356674 73.5307 0L73.5303 8ZM91.3193 29.0459L94.8562 36.2216C100.486 33.447 105.128 32.0457 108.524 31.7251C111.979 31.3991 112.976 32.2503 113.126 32.401L118.783 26.7441L124.44 21.0873C119.601 16.2485 112.989 15.2327 107.021 15.7959C100.994 16.3647 94.3991 18.609 87.7825 21.8702L91.3193 29.0459ZM118.783 26.7441L113.126 32.4007C113.277 32.5513 114.128 33.548 113.802 37.0025C113.481 40.3987 112.079 45.0409 109.305 50.6702L116.48 54.207L123.656 57.7438C126.917 51.1276 129.162 44.5331 129.731 38.5066C130.294 32.5385 129.279 25.9265 124.44 21.0876L118.783 26.7441ZM116.48 54.207L113.908 61.782C119.759 63.7696 123.999 66.024 126.641 68.1751C129.339 70.3721 129.522 71.7124 129.53 71.9598L137.525 71.6895L145.521 71.4191C145.295 64.7345 141.324 59.497 136.743 55.7675C132.106 51.9921 125.94 48.9713 119.053 46.6321L116.48 54.207ZM137.525 71.6895L129.526 71.8152L129.531 72.1258L137.53 72L145.529 71.8742L145.524 71.5637L137.525 71.6895ZM137.53 72L129.53 71.9998C129.53 72.2125 129.427 73.519 126.754 75.7311C124.125 77.9058 119.852 80.1973 113.908 82.2161L116.481 89.791L119.054 97.3659C126.039 94.9934 132.289 91.9175 136.953 88.0586C141.572 84.2371 145.53 78.8437 145.53 72.0002L137.53 72ZM116.481 89.791L109.306 93.3277C112.08 98.9568 113.481 103.599 113.802 106.995C114.128 110.449 113.277 111.446 113.126 111.596L118.783 117.253L124.44 122.91C129.279 118.071 130.294 111.459 129.731 105.491C129.162 99.4648 126.918 92.8704 123.657 86.2543L116.481 89.791ZM118.783 117.253L113.215 111.509L112.993 111.724L118.561 117.469L124.129 123.213L124.351 122.997L118.783 117.253ZM118.561 117.469L113.098 111.624C112.917 111.793 111.842 112.612 108.381 112.257C104.992 111.91 100.401 110.506 94.858 107.774L91.3213 114.95L87.7846 122.126C94.3075 125.341 100.802 127.565 106.75 128.174C112.626 128.776 119.137 127.88 124.023 123.313L118.561 117.469ZM91.3213 114.95L83.7463 112.377C81.7276 118.321 79.4361 122.595 77.2613 125.223C75.0491 127.897 73.7426 128 73.5299 128L73.5303 136L73.5307 144C80.3742 144 85.7676 140.042 89.5891 135.423C93.4479 130.758 96.5238 124.508 98.8962 117.523L91.3213 114.95ZM73.5303 136L73.656 128.001L73.3455 127.996L73.2197 135.995L73.094 143.994L73.4045 143.999L73.5303 136ZM73.2197 135.995L73.4901 128C73.2431 127.991 71.9032 127.81 69.7063 125.111C67.5552 122.468 65.301 118.228 63.3133 112.375L55.7383 114.948L48.1633 117.521C50.5024 124.408 53.5227 130.574 57.2976 135.211C61.0267 139.793 66.2641 143.764 72.9494 143.991L73.2197 135.995ZM55.7383 114.948L52.2014 107.773C46.5712 110.548 41.9287 111.95 38.5323 112.271C35.0776 112.597 34.0813 111.746 33.931 111.596L28.2744 117.253L22.6178 122.91C27.4573 127.749 34.0697 128.764 40.0378 128.2C46.0643 127.63 52.6588 125.385 59.2751 122.124L55.7383 114.948ZM28.2744 117.253L34.0188 111.685L33.8029 111.462L28.0586 117.03L22.3142 122.598L22.5301 122.821L28.2744 117.253ZM28.0586 117.03L33.9031 111.567C33.734 111.387 32.915 110.31 33.2694 106.849C33.6163 103.46 35.0198 98.8688 37.7518 93.326L30.5762 89.7891L23.4005 86.2522C20.185 92.7759 17.9615 99.2714 17.3526 105.22C16.751 111.096 17.6471 117.607 22.2141 122.493L28.0586 117.03ZM30.5762 89.7891L33.1495 82.2142C27.2986 80.2266 23.0598 77.9728 20.4182 75.8224C17.7205 73.6262 17.5389 72.2869 17.5306 72.04L9.53516 72.3105L1.53973 72.5811C1.7659 79.2653 5.73676 84.5019 10.3169 88.2306C14.9532 92.0049 21.1177 95.0249 28.0029 97.3639L30.5762 89.7891ZM9.53516 72.3105L17.5342 72.1848L17.5293 71.8742L9.53027 72L1.53126 72.1258L1.53614 72.4363L9.53516 72.3105ZM9.53027 72L17.5303 72C17.5303 71.7872 17.6331 70.4808 20.3063 68.2688C22.9344 66.0941 27.2078 63.8026 33.1504 61.7838L30.5771 54.209L28.0039 46.6341C21.0198 49.0067 14.7697 52.0827 10.1061 55.9417C5.48756 59.7634 1.53028 65.1569 1.53027 72L9.53027 72ZM30.5771 54.209L37.7528 50.6721C34.9779 45.0422 33.5763 40.3996 33.2556 37.0032C32.9294 33.5484 33.7806 32.5517 33.9313 32.401L28.2744 26.7441L22.6176 21.0873C17.7786 25.9263 16.7629 32.5385 17.3264 38.5071C17.8955 44.534 20.1401 51.129 23.4015 57.7458L30.5771 54.209ZM28.2744 26.7441L33.9312 32.4011C34.0819 32.2504 35.0786 31.3993 38.5331 31.7255C41.9294 32.0461 46.5717 33.4476 52.2014 36.2225L55.7383 29.0469L59.2752 21.8712C52.6586 18.6099 46.0638 16.3653 40.0371 15.7963C34.0686 15.2328 27.4566 16.2484 22.6177 21.0872L28.2744 26.7441ZM55.7383 29.0469L63.3132 31.62C65.3007 25.7691 67.5549 21.5302 69.7058 18.8886C71.9026 16.1907 73.2426 16.0087 73.4901 16.0003L73.2197 8.00488L72.9494 0.00945282C66.2653 0.235477 61.0281 4.20585 57.2986 8.78611C53.5234 13.4226 50.5026 19.5875 48.1634 26.4737L55.7383 29.0469ZM73.2197 8.00488L73.3455 16.0039L73.656 15.999L73.5303 8L73.4045 0.000988483L73.094 0.0058713L73.2197 8.00488ZM73.5283 103.784L68.7147 97.3944C63.2078 101.543 57.8875 104.891 53.017 107.364L56.6396 114.497L60.2623 121.63C66.097 118.666 72.2105 114.793 78.3419 110.174L73.5283 103.784ZM56.6396 114.497L49.0603 117.057C49.3652 117.96 49.6803 118.845 50.0054 119.712L57.4961 116.903L64.9867 114.094C64.7257 113.398 64.4695 112.679 64.219 111.937L56.6396 114.497ZM57.4961 116.903L50.0055 119.712C52.3489 125.962 55.3085 131.507 58.9505 135.615L64.9365 130.308L70.9226 125C69.0421 122.879 66.9371 119.295 64.9867 114.094L57.4961 116.903ZM64.9365 130.308L58.9506 135.615C62.5885 139.718 67.4999 143 73.5303 143L73.5303 135L73.5303 127C73.5262 127 73.4977 127.001 73.4298 126.982C73.3581 126.963 73.2161 126.915 73.0015 126.798C72.5564 126.555 71.8415 126.037 70.9225 125L64.9365 130.308ZM73.5303 135L73.5307 143C79.5604 143 84.4719 139.718 88.11 135.615L82.124 130.308L76.138 125C75.2191 126.037 74.5043 126.555 74.0591 126.798C73.8445 126.915 73.7025 126.963 73.6307 126.982C73.5626 127 73.534 127 73.5298 127L73.5303 135ZM82.124 130.308L88.1102 135.615C91.752 131.507 94.7116 125.962 97.0551 119.712L89.5645 116.903L82.0738 114.094C80.1235 119.295 78.0184 122.879 76.1379 125L82.124 130.308ZM89.5645 116.903L97.0551 119.712C97.3851 118.832 97.6978 117.945 97.9972 117.058L90.418 114.498L82.8387 111.938C82.5831 112.695 82.3296 113.412 82.0738 114.094L89.5645 116.903ZM90.418 114.498L94.0407 107.365C89.17 104.891 83.8493 101.543 78.342 97.3945L73.5283 103.784L68.7146 110.174C74.8463 114.793 80.9602 118.667 86.7952 121.631L90.418 114.498ZM31.5342 90.1084L24.3644 86.5595C23.9437 87.4095 23.5404 88.2572 23.1565 89.1017L30.4395 92.4121L37.7224 95.7226C38.0285 95.0491 38.3558 94.3606 38.7039 93.6573L31.5342 90.1084ZM30.4395 92.4121L23.1565 89.1017C20.3946 95.178 18.5664 101.192 18.2371 106.671L26.2227 107.151L34.2082 107.631C34.3783 104.802 35.4239 100.779 37.7224 95.7225L30.4395 92.4121ZM26.2227 107.151L18.2371 106.671C17.9081 112.146 19.0606 117.939 23.3246 122.203L28.9814 116.546L34.6383 110.889C34.6353 110.886 34.6147 110.866 34.5796 110.805C34.5427 110.741 34.4761 110.607 34.4071 110.372C34.264 109.886 34.1251 109.014 34.2082 107.631L26.2227 107.151ZM28.9814 116.546L23.3249 122.203C27.5886 126.466 33.3813 127.619 38.856 127.29L38.376 119.305L37.896 111.319C36.5134 111.402 35.6415 111.263 35.1553 111.12C34.9209 111.051 34.7867 110.985 34.7222 110.948C34.661 110.912 34.641 110.892 34.638 110.889L28.9814 116.546ZM38.376 119.305L38.8561 127.29C44.3356 126.961 50.3494 125.133 56.4257 122.371L53.1152 115.088L49.8048 107.805C44.7484 110.103 40.7257 111.149 37.8958 111.319L38.376 119.305ZM53.1152 115.088L56.4257 122.371C57.2798 121.983 58.1281 121.577 58.9679 121.161L55.4189 113.991L51.8699 106.822C51.156 107.175 50.4692 107.503 49.8047 107.805L53.1152 115.088ZM55.4189 113.991L63.0243 111.51C61.3298 106.317 59.935 100.188 58.9747 93.3612L51.0527 94.4756L43.1307 95.59C44.2 103.191 45.7838 110.252 47.8136 116.473L55.4189 113.991ZM51.0527 94.4756L52.1673 86.5536C45.3392 85.593 39.2096 84.1981 34.0163 82.5032L31.5342 90.1084L29.0521 97.7136C35.2737 99.7441 42.3361 101.328 49.9382 102.398L51.0527 94.4756ZM115.523 90.1104L113.042 82.5051C107.849 84.1997 101.719 85.5941 94.8914 86.5546L96.0059 94.4766L97.1203 102.399C104.722 101.329 111.784 99.7459 118.005 97.7156L115.523 90.1104ZM96.0059 94.4766L88.0839 93.3621C87.1233 100.19 85.7297 106.319 84.0353 111.511L91.6406 113.993L99.2459 116.475C101.276 110.253 102.859 103.191 103.928 95.591L96.0059 94.4766ZM91.6406 113.993L88.0919 121.163C88.936 121.581 89.7834 121.985 90.6319 122.371L93.9424 115.088L97.2528 107.805C96.5847 107.501 95.8972 107.174 95.1893 106.823L91.6406 113.993ZM93.9424 115.088L90.632 122.371C96.7081 125.133 102.722 126.961 108.202 127.29L108.682 119.305L109.162 111.319C106.332 111.149 102.309 110.103 97.2528 107.805L93.9424 115.088ZM108.682 119.305L108.202 127.29C113.676 127.619 119.469 126.467 123.733 122.203L118.076 116.546L112.419 110.889C112.416 110.892 112.397 110.913 112.335 110.948C112.271 110.985 112.137 111.051 111.903 111.12C111.416 111.263 110.544 111.402 109.161 111.319L108.682 119.305ZM118.076 116.546L123.733 122.203C127.997 117.939 129.15 112.146 128.821 106.671L120.835 107.151L112.849 107.631C112.932 109.014 112.794 109.886 112.65 110.372C112.581 110.607 112.515 110.741 112.478 110.805C112.443 110.866 112.422 110.886 112.419 110.889L118.076 116.546ZM120.835 107.151L128.821 106.671C128.491 101.192 126.663 95.1779 123.901 89.1017L116.618 92.4121L109.335 95.7225C111.634 100.779 112.679 104.802 112.849 107.631L120.835 107.151ZM116.618 92.4121L123.901 89.1017C123.515 88.2531 123.111 87.4058 122.693 86.5616L115.523 90.1104L108.354 93.6591C108.704 94.367 109.032 95.0544 109.335 95.7226L116.618 92.4121ZM94.9756 94.6172L93.9183 86.6874C90.3918 87.1576 86.7038 87.5118 82.8894 87.7321L83.3506 95.7188L83.8118 103.705C88.0174 103.463 92.1033 103.071 96.0329 102.547L94.9756 94.6172ZM83.3506 95.7188L78.0295 89.7449C75.1774 92.2854 72.3209 94.6419 69.4969 96.8013L74.3564 103.156L79.2159 109.511C82.3642 107.104 85.5283 104.492 88.6716 101.693L83.3506 95.7188ZM74.3564 103.156L69.5555 109.556C75.5124 114.025 81.4423 117.78 87.1011 120.666L90.7363 113.54L94.3716 106.414C89.6555 104.008 84.502 100.767 79.1574 96.7569L74.3564 103.156ZM90.7363 113.54L98.346 116.008C100.306 109.966 101.843 103.119 102.895 95.7475L94.9756 94.6172L87.0558 93.4869C86.1119 100.101 84.7601 106.036 83.1267 111.072L90.7363 113.54ZM52.083 94.6182L44.1633 95.7485C45.2152 103.118 46.7519 109.966 48.7116 116.007L56.3213 113.539L63.931 111.071C62.2979 106.036 60.9467 100.101 60.0027 93.4878L52.083 94.6182ZM56.3213 113.539L59.9567 120.665C65.6155 117.779 71.5448 114.023 77.5011 109.555L72.7002 103.155L67.8993 96.756C62.5545 100.766 57.4017 104.007 52.6859 106.413L56.3213 113.539ZM72.7002 103.155L77.5598 96.8004C74.7355 94.6406 71.8786 92.2839 69.0262 89.7431L63.7051 95.7168L58.3839 101.691C61.5277 104.491 64.6921 107.102 67.8406 109.51L72.7002 103.155ZM63.7051 95.7168L64.1665 87.7301C60.3492 87.5096 56.6621 87.158 53.1404 86.6884L52.083 94.6182L51.0256 102.548C54.9581 103.072 59.0432 103.461 63.2436 103.703L63.7051 95.7168ZM65.3125 95.8027L60.0374 101.817C62.9147 104.341 65.805 106.704 68.681 108.894L73.5283 102.53L78.3757 96.1661C75.8007 94.2048 73.1953 92.0755 70.5876 89.7883L65.3125 95.8027ZM73.5283 102.53L78.3757 108.895C81.2522 106.704 84.1419 104.34 87.0182 101.817L81.7432 95.8027L76.4681 89.7882C73.8598 92.0759 71.255 94.2056 68.681 96.166L73.5283 102.53ZM81.7432 95.8027L81.3593 87.812C78.7958 87.9351 76.1826 88 73.5303 88L73.5303 96V104C76.4433 104 79.3125 103.929 82.127 103.794L81.7432 95.8027ZM73.5303 96L73.5681 88.0001L71.9168 87.9923L71.8789 95.9922L71.8411 103.992L73.4924 104L73.5303 96ZM71.8789 95.9922L71.9549 87.9925C69.8416 87.9725 67.7537 87.9108 65.6966 87.812L65.3125 95.8027L64.9284 103.794C67.1854 103.902 69.4788 103.97 71.8029 103.992L71.8789 95.9922ZM73.5303 49V41C70.1779 41 66.8828 41.0938 63.6617 41.2731L64.1064 49.2607L64.5512 57.2484C67.4772 57.0854 70.4757 57 73.5303 57V49ZM64.1064 49.2607L58.7725 43.2985C56.3686 45.449 53.9755 47.7117 51.6088 50.0785L57.2656 55.7354L62.9225 61.3922C65.082 59.2327 67.2598 57.1738 69.4404 55.223L64.1064 49.2607ZM57.2656 55.7354L51.6088 50.0785C49.2408 52.4465 46.978 54.8406 44.8277 57.2442L50.79 62.5781L56.7524 67.912C58.7042 65.7303 60.7632 63.5515 62.9225 61.3922L57.2656 55.7354ZM50.79 62.5781L42.8024 62.1335C42.6231 65.3554 42.5303 68.6498 42.5303 72H50.5303H58.5303C58.5303 68.9446 58.6149 65.9467 58.7777 63.0228L50.79 62.5781ZM50.5303 72H42.5303C42.5303 75.3492 42.6232 78.6422 42.8024 81.8624L50.79 81.418L58.7777 80.9735C58.615 78.0503 58.5303 75.0538 58.5303 72L50.5303 72ZM50.79 81.418L44.8277 86.7518C46.9774 89.1548 49.2399 91.5497 51.6088 93.9186L57.2656 88.2617L62.9225 82.6049C60.7639 80.4463 58.705 78.2668 56.7524 76.0841L50.79 81.418ZM57.2656 88.2617L51.6088 93.9186C53.979 96.2887 56.3746 98.5512 58.7776 100.701L64.1113 94.7383L69.4451 88.7758C67.2611 86.8221 65.081 84.7634 62.9225 82.6049L57.2656 88.2617ZM64.1113 94.7383L63.6668 102.726C66.8842 102.905 70.1775 103 73.5303 103V95V87C70.4794 87 67.4825 86.9135 64.5558 86.7506L64.1113 94.7383ZM73.5303 95V103C76.8817 103 80.1733 102.905 83.3886 102.726L82.9443 94.7383L82.5001 86.7506C79.5743 86.9134 76.5791 87 73.5303 87L73.5303 95ZM82.9443 94.7383L88.2781 100.701C90.6796 98.5524 93.0768 96.2906 95.4488 93.9186L89.792 88.2617L84.1351 82.6049C81.9779 84.7621 79.7966 86.8203 77.6106 88.7758L82.9443 94.7383ZM89.792 88.2617L95.4489 93.9186C97.8209 91.5465 100.083 89.1494 102.231 86.7478L96.2686 81.4141L90.3061 76.0803C88.3506 78.2663 86.2924 80.4476 84.1351 82.6049L89.792 88.2617ZM96.2686 81.4141L104.256 81.8583C104.435 78.643 104.53 75.3514 104.53 72H96.5303L88.5303 72C88.5303 75.0488 88.4436 78.0441 88.2809 80.9698L96.2686 81.4141ZM96.5303 72H104.53C104.53 68.6475 104.435 65.3545 104.256 62.1376L96.2686 62.582L88.2809 63.0265C88.4437 65.953 88.5303 68.9495 88.5303 72H96.5303ZM96.2686 62.582L102.231 57.2483C100.082 54.846 97.82 52.4496 95.4489 50.0785L89.792 55.7354L84.1351 61.3922C86.2931 63.5501 88.3515 65.7308 90.3061 67.9158L96.2686 62.582ZM89.792 55.7354L95.4488 50.0785C93.0802 47.7099 90.6857 45.4477 88.2831 43.2984L82.9492 49.2607L77.6153 55.2231C79.7978 57.1755 81.977 59.234 84.1351 61.3922L89.792 55.7354ZM82.9492 49.2607L83.3937 41.2731C80.1747 41.094 76.8814 41 73.5303 41V49L73.5303 57C76.5828 57 79.5797 57.0856 82.5047 57.2484L82.9492 49.2607ZM96.1719 83.0156L90.2498 77.637C88.522 79.5394 86.7188 81.4353 84.8422 83.3119L90.499 88.9688L96.1559 94.6256C98.2185 92.563 100.198 90.4813 102.094 88.3942L96.1719 83.0156ZM90.499 88.9688L84.8659 83.2883L83.693 84.4514L89.3262 90.1318L94.9593 95.8123L96.1322 94.6492L90.499 88.9688ZM89.3262 90.1318L83.7233 84.4215C82.2151 85.9013 80.6946 87.3341 79.1692 88.7196L84.5479 94.6416L89.9265 100.564C91.5988 99.0447 93.2691 97.4709 94.929 95.8422L89.3262 90.1318ZM84.5479 94.6416L85.0705 102.625C88.8911 102.374 92.6077 102.002 96.1918 101.517L95.1191 93.5889L94.0465 85.6611C90.8376 86.0953 87.4881 86.432 84.0252 86.6587L84.5479 94.6416ZM95.1191 93.5889L103.047 94.6616C103.532 91.0766 103.905 87.3593 104.155 83.5382L96.1719 83.0156L88.189 82.4931C87.9622 85.9568 87.6256 89.3069 87.1914 92.5162L95.1191 93.5889ZM50.8867 83.0195L42.9038 83.5423C43.154 87.3623 43.5269 91.0783 44.0117 94.6615L51.9395 93.5889L59.8672 92.5162C59.4331 89.3077 59.0963 85.9588 58.8696 82.4968L50.8867 83.0195ZM51.9395 93.5889L50.8667 101.517C54.4506 102.002 58.1668 102.374 61.987 102.625L62.5098 94.6416L63.0326 86.6587C59.5699 86.4319 56.2207 86.0953 53.0122 85.6611L51.9395 93.5889ZM62.5098 94.6416L67.8884 88.7196C65.9883 86.9938 64.0936 85.19 62.2154 83.3119L56.5586 88.9688L50.9018 94.6256C52.9622 96.686 55.0425 98.6666 57.1311 100.564L62.5098 94.6416ZM56.5586 88.9688L62.239 83.3356L61.076 82.1627L55.3955 87.7959L49.7151 93.4291L50.8781 94.6019L56.5586 88.9688ZM55.3955 87.7959L61.1058 82.193C59.6256 80.6844 58.1927 79.1646 56.8086 77.6408L50.8867 83.0195L44.9648 88.3983C46.4842 90.0711 48.058 91.7404 49.6852 93.3988L55.3955 87.7959ZM42.3691 72.8271L35.9698 68.0263C31.5012 73.9827 27.7472 79.9121 24.861 85.5697L31.9873 89.2051L39.1136 92.8405C41.5194 88.1245 44.7598 82.9715 48.7685 77.628L42.3691 72.8271ZM31.9873 89.2051L29.5186 96.8147C35.5604 98.7747 42.4079 100.313 49.7797 101.365L50.9102 93.4453L52.0406 85.5256C45.4269 84.5815 39.4917 83.2292 34.456 81.5955L31.9873 89.2051ZM50.9102 93.4453L58.84 92.388C58.3704 88.8664 58.0187 85.1795 57.7982 81.3628L49.8115 81.8242L41.8248 82.2856C42.0675 86.4859 42.4561 90.5708 42.9803 94.5026L50.9102 93.4453ZM49.8115 81.8242L55.7852 76.503C53.2418 73.6478 50.8831 70.791 48.7241 67.9677L42.3691 72.8271L36.0142 77.6866C38.4241 80.8382 41.0382 84.0025 43.8379 87.1454L49.8115 81.8242ZM104.686 72.8262L98.3307 67.9666C96.1711 70.7906 93.8147 73.6472 91.2743 76.4992L97.248 81.8203L103.222 87.1414C106.022 83.998 108.633 80.8339 111.04 77.6857L104.686 72.8262ZM97.248 81.8203L89.2614 81.3591C89.0411 85.1735 88.6869 88.8615 88.2167 92.388L96.1465 93.4453L104.076 94.5026C104.6 90.573 104.992 86.4871 105.235 82.2815L97.248 81.8203ZM96.1465 93.4453L97.2768 101.365C104.648 100.313 111.496 98.7758 117.539 96.8157L115.07 89.2061L112.602 81.5964C107.566 83.2299 101.631 84.5816 95.0162 85.5256L96.1465 93.4453ZM115.07 89.2061L122.197 85.5708C119.31 79.9113 115.554 73.9817 111.085 68.0252L104.686 72.8262L98.2863 77.6271C102.297 82.9725 105.538 88.1256 107.944 92.8413L115.07 89.2061ZM116.028 55.1104L108.896 51.4875C106.422 56.3572 103.074 61.6769 98.9247 67.1844L105.314 71.998L111.704 76.8117C116.323 70.6812 120.197 64.5684 123.161 58.7332L116.028 55.1104ZM105.314 71.998L98.9247 76.8117C103.074 82.3197 106.423 87.6402 108.897 92.5104L116.029 88.8877L123.162 85.265C120.198 79.4293 116.323 73.3156 111.704 67.1844L105.314 71.998ZM116.029 88.8877L118.59 96.4669C119.478 96.1669 120.364 95.8541 121.243 95.5248L118.434 88.0342L115.625 80.5435C114.941 80.7999 114.223 81.0536 113.469 81.3085L116.029 88.8877ZM118.434 88.0342L121.243 95.5248C127.492 93.1813 133.037 90.2218 137.145 86.5798L131.838 80.5938L126.531 74.6077C124.41 76.4882 120.826 78.5931 115.625 80.5435L118.434 88.0342ZM131.838 80.5938L137.145 86.5798C141.249 82.9417 144.53 78.0303 144.53 72.0002L136.53 72L128.53 71.9998C128.53 72.004 128.531 72.0326 128.512 72.1006C128.493 72.1723 128.445 72.3142 128.328 72.5288C128.086 72.9739 127.567 73.6887 126.531 74.6077L131.838 80.5938ZM136.53 72L144.53 72C144.53 65.9696 141.248 61.0582 137.145 57.4203L131.838 63.4062L126.531 69.3922C127.567 70.3113 128.086 71.0261 128.328 71.4713C128.445 71.6858 128.493 71.8277 128.512 71.8994C128.531 71.9674 128.53 71.9959 128.53 72L136.53 72ZM131.838 63.4062L137.145 57.4202C133.037 53.7782 127.492 50.8187 121.243 48.4752L118.434 55.9658L115.625 63.4564C120.826 65.4069 124.41 67.5118 126.531 69.3923L131.838 63.4062ZM118.434 55.9658L121.243 48.4752C120.372 48.1489 119.487 47.8345 118.588 47.5311L116.028 55.1104L113.468 62.6896C114.213 62.9413 114.932 63.1968 115.625 63.4565L118.434 55.9658ZM31.0293 55.1113L28.4689 47.5321C27.5715 47.8353 26.6871 48.1493 25.818 48.4752L28.627 55.9658L31.4359 63.4565C32.1276 63.1971 32.8456 62.9419 33.5897 62.6905L31.0293 55.1113ZM28.627 55.9658L25.818 48.4752C19.5681 50.8189 14.0239 53.7786 9.9165 57.4201L15.2236 63.4062L20.5308 69.3924C22.6522 67.5116 26.2357 65.4066 31.4359 63.4565L28.627 55.9658ZM15.2236 63.4062L9.91636 57.4202C5.81422 61.0572 2.53028 65.9683 2.53027 72L10.5303 72L18.5303 72C18.5303 71.9963 18.5297 71.968 18.5481 71.9002C18.5674 71.8286 18.6152 71.6867 18.7322 71.4721C18.975 71.0268 19.4939 70.3118 20.5309 69.3923L15.2236 63.4062ZM10.5303 72L2.53027 72.0002C2.53043 78.0316 5.8141 82.9427 9.91638 86.5798L15.2236 80.5938L20.5309 74.6077C19.4939 73.6883 18.9751 72.9732 18.7323 72.5279C18.6152 72.3133 18.5674 72.1713 18.5481 72.0998C18.5297 72.0319 18.5303 72.0036 18.5303 71.9998L10.5303 72ZM15.2236 80.5938L9.91655 86.58C14.0239 90.2214 19.5682 93.1811 25.818 95.5248L28.627 88.0342L31.4359 80.5435C26.2358 78.5935 22.6522 76.4884 20.5307 74.6075L15.2236 80.5938ZM28.627 88.0342L25.818 95.5248C26.695 95.8537 27.5807 96.1662 28.4677 96.4659L31.0283 88.8867L33.5889 81.3076C32.8355 81.053 32.1187 80.7996 31.4359 80.5435L28.627 88.0342ZM31.0283 88.8867L38.161 92.5095C40.6349 87.6389 43.9826 82.3183 48.1309 76.8117L41.7412 71.998L35.3515 67.1844C30.7324 73.3158 26.859 79.4296 23.8956 85.2639L31.0283 88.8867ZM41.7412 71.998L48.131 67.1845C43.983 61.6781 40.6355 56.3585 38.162 51.4885L31.0293 55.1113L23.8966 58.7341C26.8598 64.5683 30.7331 70.681 35.3514 76.8116L41.7412 71.998ZM49.7266 63.7783L43.7123 58.5031C41.1878 61.3813 38.8228 64.2729 36.6309 67.1507L42.9951 71.998L49.3594 76.8454C51.3212 74.2696 53.452 71.6631 55.7409 69.0536L49.7266 63.7783ZM42.9951 71.998L36.6309 76.8453C38.8232 79.7238 41.1886 82.6148 43.7122 85.492L49.7266 80.2168L55.7409 74.9416C53.4515 72.3314 51.3204 69.7255 49.3594 67.1508L42.9951 71.998ZM49.7266 80.2168L57.7173 79.8327C57.6186 77.7785 57.5578 75.6912 57.5377 73.5763L49.5381 73.6523L41.5384 73.7284C41.5605 76.0496 41.6272 78.3422 41.7358 80.6009L49.7266 80.2168ZM49.5381 73.6523L57.538 73.6145L57.5302 71.9622L49.5303 72L41.5304 72.0378L41.5382 73.6902L49.5381 73.6523ZM49.5303 72H57.5303C57.5303 69.3421 57.5941 66.726 57.7173 64.1626L49.7266 63.7783L41.7358 63.394C41.6002 66.2142 41.5303 69.0865 41.5303 72H49.5303ZM97.333 63.7822L89.3422 64.1663C89.4411 66.2234 89.5027 68.3113 89.5228 70.4246L97.5225 70.3486L105.522 70.2727C105.5 67.9486 105.432 65.6551 105.324 63.3981L97.333 63.7822ZM97.5225 70.3486L89.5226 70.3865L89.5304 72.0378L97.5303 72L105.53 71.9622L105.522 70.3108L97.5225 70.3486ZM97.5303 72L89.5303 72C89.5303 74.6524 89.4654 77.2655 89.3422 79.829L97.333 80.2129L105.324 80.5968C105.459 77.7822 105.53 74.913 105.53 72H97.5303ZM97.333 80.2129L103.348 85.4879C105.87 82.6116 108.234 79.7219 110.425 76.8454L104.061 71.998L97.6963 67.1507C95.7359 69.7247 93.6062 72.3295 91.3185 74.9379L97.333 80.2129ZM104.061 71.998L110.425 67.1507C108.234 64.2748 105.871 61.3844 103.347 58.5072L97.333 63.7822L91.3185 69.0573C93.6057 71.6651 95.7351 74.2705 97.6963 76.8454L104.061 71.998ZM50.9111 50.5537L49.7807 42.634C42.4106 43.686 35.562 45.2219 29.5187 47.1824L31.9873 54.792L34.4559 62.4016C39.4903 60.7684 45.426 59.4177 52.0416 58.4734L50.9111 50.5537ZM31.9873 54.792L24.861 58.4274C27.7475 64.0856 31.5024 70.0148 35.9708 75.9708L42.3701 71.1699L48.7694 66.369C44.7602 61.0249 41.5192 55.8722 39.1136 51.1566L31.9873 54.792ZM42.3701 71.1699L48.725 76.0295C50.8857 73.2039 53.243 70.3459 55.7842 67.4931L49.8105 62.1719L43.8369 56.8506C41.0353 59.9957 38.4232 63.1614 36.0152 66.3103L42.3701 71.1699ZM49.8105 62.1719L57.7972 62.6335C58.0176 58.8206 58.3711 55.1346 58.841 51.6111L50.9111 50.5537L42.9813 49.4964C42.4575 53.4246 42.0667 57.5081 41.8239 61.7103L49.8105 62.1719ZM96.1475 50.5537L88.2176 51.6111C88.6876 55.1353 89.041 58.8221 89.2614 62.6362L97.248 62.1748L105.235 61.7134C104.992 57.5103 104.601 53.4258 104.077 49.4963L96.1475 50.5537ZM97.248 62.1748L91.2743 67.4959C93.8143 70.3474 96.1704 73.2046 98.3307 76.0295L104.686 71.1699L111.04 66.3103C108.633 63.1628 106.023 59.998 103.222 56.8537L97.248 62.1748ZM104.686 71.1699L111.085 75.9708C115.553 70.0152 119.309 64.0863 122.196 58.4274L115.069 54.792L107.943 51.1566C105.538 55.8718 102.296 61.0242 98.2862 66.369L104.686 71.1699ZM115.069 54.792L117.538 47.1823C111.495 45.2224 104.648 43.6858 97.2778 42.634L96.1475 50.5537L95.0171 58.4735C101.631 59.4174 107.566 60.7686 112.601 62.4017L115.069 54.792ZM84.5508 49.3574L79.172 55.2793C81.0705 57.0037 82.9643 58.8073 84.8422 60.6852L90.499 55.0283L96.1559 49.3715C94.0971 47.3127 92.0179 45.3324 89.9296 43.4356L84.5508 49.3574ZM90.499 55.0283L84.8422 60.6852C86.7203 62.5633 88.5241 64.458 90.2499 66.3582L96.1719 60.9795L102.094 55.6008C100.197 53.5122 98.2163 51.4319 96.1559 49.3715L90.499 55.0283ZM96.1719 60.9795L104.155 60.4567C103.905 56.6366 103.532 52.9203 103.047 49.3364L95.1191 50.4092L87.1914 51.482C87.6256 54.6904 87.9622 58.0396 88.189 61.5023L96.1719 60.9795ZM95.1191 50.4092L96.1918 42.4814C92.6076 41.9964 88.8919 41.6246 85.0736 41.3745L84.5508 49.3574L84.028 57.3403C87.4911 57.5671 90.8396 57.903 94.0465 58.3369L95.1191 50.4092ZM62.5049 49.3574L61.9818 41.3745C58.163 41.6247 54.4485 41.9977 50.8667 42.4824L51.9395 50.4102L53.0122 58.3379C56.2197 57.9039 59.5674 57.567 63.0279 57.3403L62.5049 49.3574ZM51.9395 50.4102L44.0117 49.3374C43.527 52.9195 43.154 56.6344 42.9038 60.4536L50.8867 60.9766L58.8696 61.4995C59.0963 58.0386 59.4332 54.6907 59.8672 51.4829L51.9395 50.4102ZM50.8867 60.9766L56.8086 66.3554C58.5322 64.4577 60.3364 62.5643 62.2154 60.6852L56.5586 55.0283L50.9017 49.3715C48.8438 51.4294 46.8628 53.5082 44.9648 55.5978L50.8867 60.9766ZM56.5586 55.0283L62.2154 60.6852C64.0949 58.8057 65.9874 57.0017 67.8837 55.2792L62.5049 49.3574L57.126 43.4356C55.0361 45.3339 52.9584 47.3148 50.9017 49.3715L56.5586 55.0283ZM38.376 24.6924L38.856 16.7068C33.3813 16.3777 27.5886 17.5305 23.3247 21.7942L28.9814 27.4512L34.6382 33.1082C34.6412 33.1051 34.6612 33.0845 34.7223 33.0494C34.7867 33.0124 34.9208 32.9458 35.1552 32.8768C35.6413 32.7337 36.5132 32.5949 37.896 32.678L38.376 24.6924ZM28.9814 27.4512L23.3246 21.7943C19.0606 26.0583 17.908 31.8511 18.2371 37.3257L26.2227 36.8457L34.2082 36.3657C34.1251 34.9828 34.264 34.1109 34.4071 33.6248C34.4761 33.3905 34.5426 33.2564 34.5796 33.1921C34.6147 33.131 34.6352 33.1111 34.6383 33.108L28.9814 27.4512ZM26.2227 36.8457L18.2371 37.3258C18.5665 42.8054 20.3946 48.8191 23.1565 54.8954L30.4395 51.585L37.7224 48.2745C35.4239 43.218 34.3784 39.1954 34.2082 36.3657L26.2227 36.8457ZM30.4395 51.585L23.1565 54.8954C23.5417 55.7427 23.9458 56.5908 24.3655 57.4387L31.5352 53.8896L38.7048 50.3406C38.3553 49.6344 38.0276 48.9459 37.7224 48.2745L30.4395 51.585ZM31.5352 53.8896L34.0172 61.4949C39.2097 59.8003 45.3392 58.4061 52.1673 57.4454L51.0527 49.5234L49.9382 41.6015C42.3372 42.6708 35.2749 44.2539 29.0532 46.2844L31.5352 53.8896ZM51.0527 49.5234L58.9747 50.6379C59.9353 43.8101 61.3303 37.6803 63.0252 32.4869L55.4199 30.0049L47.8147 27.5229C45.7843 33.7444 44.2002 40.8068 43.1307 48.409L51.0527 49.5234ZM55.4199 30.0049L58.969 22.8352C58.121 22.4155 57.273 22.0114 56.4257 21.6263L53.1152 28.9092L49.8047 36.1921C50.4762 36.4973 51.1647 36.825 51.8709 37.1746L55.4199 30.0049ZM53.1152 28.9092L56.4257 21.6262C50.3494 18.8643 44.3356 17.0363 38.8561 16.7068L38.376 24.6924L37.8958 32.678C40.7257 32.8481 44.7484 33.8938 49.8048 36.1921L53.1152 28.9092ZM118.076 27.4512L123.733 21.7943C119.469 17.5303 113.676 16.3779 108.202 16.7068L108.682 24.6924L109.161 32.678C110.544 32.5949 111.416 32.7337 111.903 32.8769C112.137 32.9459 112.271 33.0125 112.335 33.0494C112.397 33.0845 112.416 33.1051 112.419 33.108L118.076 27.4512ZM108.682 24.6924L108.202 16.7068C102.722 17.0362 96.7082 18.8644 90.632 21.6262L93.9424 28.9092L97.2528 36.1921C102.309 33.8937 106.332 32.8481 109.162 32.678L108.682 24.6924ZM93.9424 28.9092L90.6319 21.6263C89.7875 22.0101 88.9397 22.4135 88.0898 22.8341L91.6387 30.0039L95.1875 37.1737C95.8908 36.8256 96.5795 36.4982 97.2528 36.1921L93.9424 28.9092ZM91.6387 30.0039L84.0335 32.486C85.7284 37.6793 87.1232 43.8089 88.0839 50.637L96.0059 49.5225L103.928 48.4079C102.858 40.8059 101.274 33.7434 99.2439 27.5218L91.6387 30.0039ZM96.0059 49.5225L94.8914 57.4445C101.718 58.4048 107.847 59.7995 113.04 61.494L115.521 53.8887L118.003 46.2833C111.783 44.2535 104.721 42.6697 97.1203 41.6005L96.0059 49.5225ZM115.521 53.8887L122.691 57.4376C123.107 56.5979 123.513 55.7495 123.901 54.8954L116.618 51.585L109.335 48.2745C109.033 48.9389 108.705 49.6257 108.352 50.3397L115.521 53.8887ZM116.618 51.585L123.901 54.8954C126.663 48.8191 128.491 42.8054 128.821 37.3257L120.835 36.8457L112.849 36.3657C112.679 39.1954 111.634 43.218 109.335 48.2745L116.618 51.585ZM120.835 36.8457L128.821 37.3257C129.15 31.851 127.997 26.0584 123.733 21.7946L118.076 27.4512L112.419 33.1077C112.422 33.1108 112.443 33.1308 112.478 33.1919C112.515 33.2564 112.581 33.3906 112.65 33.625C112.794 34.1112 112.932 34.9831 112.849 36.3657L120.835 36.8457ZM56.3223 30.458L48.7126 27.9895C46.7526 34.0317 45.2154 40.8795 44.1633 48.2504L52.083 49.3809L60.0027 50.5113C60.9468 43.8971 62.2985 37.9617 63.9319 32.9266L56.3223 30.458ZM52.083 49.3809L53.1404 57.3107C56.6625 56.841 60.3485 56.4884 64.1628 56.2679L63.7012 48.2812L63.2395 40.2946C59.0389 40.5374 54.9552 40.927 51.0256 41.451L52.083 49.3809ZM63.7012 48.2812L69.0225 54.2548C71.8747 51.7141 74.7333 49.3571 77.5598 47.1957L72.7002 40.8408L67.8406 34.4859C64.6922 36.8936 61.5259 39.5052 58.3799 42.3077L63.7012 48.2812ZM72.7002 40.8408L77.5011 34.4415C71.545 29.9731 65.6159 26.2183 59.9577 23.3318L56.3223 30.458L52.6868 37.5843C57.4025 39.99 62.5552 43.2309 67.8993 47.2401L72.7002 40.8408ZM90.7354 30.457L87.1 23.3307C81.4412 26.2175 75.5118 29.973 69.5555 34.4415L74.3564 40.8408L79.1574 47.2401C84.5021 43.2304 89.655 39.989 94.3707 37.5833L90.7354 30.457ZM74.3564 40.8408L69.4969 47.1957C72.3216 49.3558 75.179 51.7133 78.0323 54.2549L83.3535 48.2812L88.6747 42.3076C85.5305 39.5068 82.3655 36.8943 79.216 34.4859L74.3564 40.8408ZM83.3535 48.2812L82.8922 56.2679C86.7079 56.4884 90.3951 56.8409 93.9183 57.3107L94.9756 49.3809L96.0329 41.451C92.1019 40.9269 88.0169 40.5373 83.8149 40.2946L83.3535 48.2812ZM94.9756 49.3809L102.895 48.2504C101.843 40.8784 100.305 34.0305 98.3449 27.9883L90.7354 30.457L83.1258 32.9257C84.7595 37.9616 86.1118 43.8971 87.0559 50.5113L94.9756 49.3809ZM73.5283 41.4658L68.681 35.1016C65.8042 37.2927 62.9123 39.6569 60.0334 42.182L65.3086 48.1963L70.5838 54.2106C73.1924 51.9226 75.7992 49.7924 78.3756 47.8301L73.5283 41.4658ZM65.3086 48.1963L65.6929 56.1871C67.7483 56.0882 69.8375 56.0276 71.9549 56.0075L71.8789 48.0078L71.8029 40.0082C69.4803 40.0302 67.1855 40.0968 64.9243 40.2055L65.3086 48.1963ZM71.8789 48.0078L71.9168 56.0077L73.5681 55.9999L73.5303 48L73.4924 40.0001L71.8411 40.0079L71.8789 48.0078ZM73.5303 48L73.5303 56C76.1881 56 78.8025 56.063 81.363 56.1861L81.7471 48.1953L82.1311 40.2045C79.3111 40.069 76.4405 40 73.5303 40V48ZM81.7471 48.1953L87.0222 42.1809C84.1436 39.6561 81.252 37.2924 78.3756 35.1016L73.5283 41.4658L68.681 47.8301C71.2573 49.7923 73.8638 51.9221 76.4719 54.2097L81.7471 48.1953ZM73.5303 9L73.5303 1C67.4986 1.00001 62.5874 4.28408 58.9505 8.38604L64.9365 13.6934L70.9225 19.0007C71.842 17.9637 72.5571 17.4448 73.0024 17.202C73.2171 17.0849 73.359 17.0371 73.4305 17.0178C73.4983 16.9994 73.5266 17 73.5303 17L73.5303 9ZM64.9365 13.6934L58.9503 8.38623C55.3089 12.4936 52.3491 18.0379 50.0055 24.2877L57.4961 27.0967L64.9867 29.9057C66.9368 24.7054 69.0419 21.122 70.9227 19.0005L64.9365 13.6934ZM57.4961 27.0967L50.0054 24.2877C49.6795 25.1568 49.3655 26.0413 49.0624 26.9386L56.6416 29.499L64.2208 32.0595C64.4722 31.3153 64.7274 30.5973 64.9867 29.9056L57.4961 27.0967ZM56.6416 29.499L53.0187 36.6317C57.8883 39.1051 63.2079 42.4532 68.7147 46.6016L73.5283 40.2119L78.342 33.8222C72.2117 29.204 66.099 25.33 60.2645 22.3664L56.6416 29.499ZM73.5283 40.2119L78.342 46.6016C83.8494 42.4527 89.1696 39.1043 94.0397 36.6308L90.417 29.498L86.7942 22.3653C80.9591 25.329 74.8457 29.2034 68.7146 33.8222L73.5283 40.2119ZM90.417 29.498L97.9961 26.9375C97.6964 26.0504 97.384 25.1648 97.0551 24.2877L89.5645 27.0967L82.0738 29.9056C82.3299 30.5885 82.5833 31.3052 82.8378 32.0586L90.417 29.498ZM89.5645 27.0967L97.0551 24.2877C94.7114 18.0379 91.7516 12.4936 88.1103 8.38632L82.124 13.6934L76.1378 19.0004C78.0186 21.122 80.1238 24.7056 82.0738 29.9057L89.5645 27.0967ZM82.124 13.6934L88.1101 8.38611C84.4729 4.28375 79.5617 1.00036 73.5307 1L73.5303 9L73.5298 17C73.5336 17 73.562 16.9995 73.6299 17.0178C73.7016 17.0372 73.8436 17.085 74.0582 17.2021C74.5036 17.445 75.2187 17.9638 76.1379 19.0006L82.124 13.6934Z" fill="white" mask="url(#path-1-outside-1_935_36477)"/>
</g>
<defs>
<filter id="filter0_d_935_36477" x="3.8743e-05" y="0" width="147.06" height="147.06" filterUnits="userSpaceOnUse" color-interpolation-filters="sRGB">
<feFlood flood-opacity="0" result="BackgroundImageFix"/>
<feColorMatrix in="SourceAlpha" type="matrix" values="0 0 0 0 0 0 0 0 0 0 0 0 0 0 0 0 0 0 127 0" result="hardAlpha"/>
<feOffset dy="1.53023"/>
<feGaussianBlur stdDeviation="0.765117"/>
<feComposite in2="hardAlpha" operator="out"/>
<feColorMatrix type="matrix" values="0 0 0 0 0 0 0 0 0 0 0 0 0 0 0 0 0 0 0.25 0"/>
<feBlend mode="normal" in2="BackgroundImageFix" result="effect1_dropShadow_935_36477"/>
<feBlend mode="normal" in="SourceGraphic" in2="effect1_dropShadow_935_36477" result="shape"/>
</filter>
<linearGradient id="paint0_linear_935_36477" x1="13.6214" y1="12.0912" x2="133.439" y2="131.909" gradientUnits="userSpaceOnUse">
<stop stop-color="#265C81"/>
<stop offset="1" stop-color="#D3E5F2"/>
</linearGradient>
</defs>
</svg>
