<svg width="135" height="135" viewBox="0 0 135 135" fill="none" xmlns="http://www.w3.org/2000/svg">
<g>
<mask id="path-1-outside-1_935_36611" maskUnits="userSpaceOnUse" x="-13.0416" y="-11.1863" width="159.217" height="159.217" fill="black">
<rect fill="white" x="-13.0416" y="-11.1863" width="159.217" height="159.217"/>
<path fill-rule="evenodd" clip-rule="evenodd" d="M68.2619 11.0467L67.9666 12.1486L63.5053 10.9532L59.044 9.75785L58.7487 10.8598L58.4534 11.9618L56.1938 11.3564L53.9342 10.7509L53.6389 11.8529L53.3437 12.9549L51.142 12.3649L48.9403 11.775L48.6295 12.935L48.3187 14.095L47.2178 13.8L46.117 13.505L45.8217 14.607L45.5264 15.709L44.4256 15.414L43.3247 15.1191L43.0295 16.221L42.7342 17.323L41.5754 17.0125L40.4166 16.702L40.1214 17.804L39.8261 18.906L38.7252 18.611L37.6244 18.3161L37.3291 19.4181L37.0339 20.5201L35.933 20.2251L34.8322 19.9301L34.5214 21.0901L34.2105 22.2501L33.1097 21.9551L32.0089 21.6601L31.7136 22.7621L31.4183 23.8641L30.3175 23.5692L29.2166 23.2742L28.6261 25.4782L28.0355 27.6821L26.8767 27.3716L25.718 27.0611L25.1119 29.3231L24.5058 31.5851L23.4049 31.2901L22.3041 30.9952L21.7136 33.1991L21.123 35.4031L20.0222 35.1081L18.9213 34.8132L17.7247 39.2791L16.528 43.7451L15.4272 43.4501L14.3263 43.1551L11.6378 53.189L8.94921 63.2229L10.0501 63.5178L11.1509 63.8128L9.95425 68.2788L8.7576 72.7447L9.85844 73.0397L10.9593 73.3346L10.3532 75.5966L9.7471 77.8586L10.8479 78.1536L11.9488 78.4485L11.3582 80.6525L10.7677 82.8565L11.9265 83.167L13.0852 83.4775L12.4947 85.6814L11.9041 87.8854L13.005 88.1804L14.1058 88.4753L13.795 89.6353L13.4842 90.7953L14.585 91.0903L15.6859 91.3853L15.3906 92.4872L15.0953 93.5892L16.1961 93.8842L17.297 94.1792L17.0017 95.2812L16.7064 96.3831L17.8073 96.6781L18.9081 96.9731L18.6128 98.0751L18.3176 99.1771L19.4763 99.4875L20.6351 99.798L20.3398 100.9L20.0446 102.002L22.2462 102.592L24.4479 103.182L24.1371 104.342L23.8263 105.502L24.9271 105.797L26.028 106.092L25.7327 107.194L25.4374 108.296L27.697 108.901L29.9566 109.507L29.6614 110.609L29.3661 111.711L32.6686 112.596L35.9711 113.48L35.6759 114.582L35.3806 115.684L39.8419 116.88L44.3032 118.075L44.0079 119.177L43.7126 120.279L51.5344 122.375L59.3561 124.471L59.6514 123.369L59.9467 122.267L65.5088 123.757L71.071 125.248L71.3662 124.146L71.6615 123.044L73.9211 123.649L76.1808 124.255L76.476 123.153L76.7713 122.051L78.973 122.641L81.1747 123.231L81.4699 122.129L81.7652 121.027L83.9669 121.616L86.1686 122.206L86.4794 121.046L86.7902 119.886L87.949 120.197L89.1078 120.507L89.403 119.405L89.6983 118.303L90.7992 118.598L91.9 118.893L92.1953 117.791L92.4906 116.689L93.5914 116.984L94.6922 117.279L94.9875 116.177L95.2828 115.075L96.3836 115.37L97.4845 115.665L97.7797 114.563L98.075 113.461L99.1759 113.756L100.277 114.051L100.588 112.891L100.898 111.731L102.057 112.042L103.216 112.352L103.806 110.148L104.397 107.944L105.498 108.239L106.599 108.534L107.189 106.33L107.78 104.126L108.881 104.421L109.981 104.716L110.588 102.454L111.194 100.192L112.294 100.487L113.395 100.782L114.281 97.4763L115.167 94.1704L116.25 94.4605L117.332 94.7506L117.898 92.9439C118.634 90.5919 123.121 73.8444 123.573 71.7636L123.922 70.159L122.839 69.8688L121.756 69.5787L122.953 65.1127L124.15 60.6468L123.049 60.3518L121.948 60.0568L122.554 57.7949L123.16 55.5329L122.059 55.2379L120.958 54.943L121.549 52.739L122.14 50.535L121.039 50.24L119.938 49.9451L120.233 48.8431L120.528 47.7411L119.37 47.4306L118.211 47.1201L118.506 46.0181L118.801 44.9161L117.701 44.6212L116.6 44.3262L117.206 42.0642L117.812 39.8023L116.711 39.5073L115.61 39.2123L115.905 38.1103L116.201 37.0083L113.999 36.4184L111.797 35.8285L112.093 34.7265L112.388 33.6245L111.229 33.314L110.07 33.0035L110.366 31.9015L110.661 30.7995L109.56 30.5046L108.459 30.2096L108.77 29.0496L109.081 27.8896L106.879 27.2997L104.678 26.7097L104.973 25.6078L105.268 24.5058L103.008 23.9003L100.749 23.2948L101.044 22.1929L101.339 21.0909L96.9361 19.911L92.5327 18.7311L92.828 17.6291L93.1232 16.5271L80.8402 13.2359L68.5571 9.94467L68.2619 11.0467ZM76.682 24.1193L76.0759 26.3813L74.9751 26.0863L73.8743 25.7913L73.2837 27.9953L72.6932 30.1993L71.5923 29.9043L70.4915 29.6093L69.5901 32.9733L68.6887 36.3372L67.5879 36.0423L66.4871 35.7473L65.6012 39.0533L64.7154 42.3592L63.6146 42.0643L62.5137 41.7693L62.2184 42.8713L61.9232 43.9733L71.8887 46.6435L81.8542 49.3138L82.4447 47.1098L83.0353 44.9058L81.8765 44.5953L80.7177 44.2848L81.6035 40.9789L82.4894 37.6729L81.3885 37.3779L80.2877 37.083L80.8938 34.821L81.4999 32.559L80.399 32.264L79.2982 31.9691L79.8887 29.7651L80.4793 27.5611L79.3785 27.2662L78.2776 26.9712L78.8837 24.7092L79.4898 22.4472L78.389 22.1523L77.2881 21.8573L76.682 24.1193ZM60.8436 21.1186L60.5483 22.2206L58.3466 21.6307L56.1449 21.0408L55.8497 22.1427L55.5544 23.2447L53.2948 22.6393L51.0352 22.0338L50.7399 23.1358L50.4446 24.2378L49.3438 23.9428L48.2429 23.6478L47.9476 24.7498L47.6524 25.8518L46.5515 25.5568L45.4507 25.2619L45.1399 26.4219L44.8291 27.5818L43.7282 27.2869L42.6274 26.9919L42.3321 28.0939L42.0368 29.1959L40.8781 28.8854L39.7193 28.5749L39.424 29.6769L39.1287 30.7789L38.0279 30.4839L36.927 30.1889L36.6318 31.2909L36.3365 32.3929L35.2356 32.0979L34.1348 31.803L33.5443 34.0069L32.9537 36.2109L42.9192 38.8812L52.8847 41.5514L53.7861 38.1874L54.6874 34.8235L55.7883 35.1185L56.8891 35.4134L57.7749 32.1075L58.6608 28.8015L59.7616 29.0965L60.8624 29.3914L61.7638 26.0275L62.6652 22.6635L63.824 22.974L64.9827 23.2845L65.2625 22.2405L65.5422 21.1965L63.3405 20.6066L61.1389 20.0167L60.8436 21.1186ZM89.8286 28.823L89.5489 29.867L90.6497 30.162L91.7505 30.4569L91.16 32.6609L90.5694 34.8649L91.6703 35.1598L92.7711 35.4548L91.5745 39.9208L90.3778 44.3867L91.4787 44.6817L92.5795 44.9766L91.6781 48.3406L90.7768 51.7046L100.742 54.3748L110.708 57.0451L111.298 54.8411L111.889 52.6371L110.788 52.3421L109.687 52.0472L109.982 50.9452L110.278 49.8432L109.177 49.5482L108.076 49.2533L108.371 48.1513L108.667 47.0493L107.566 46.7543L106.465 46.4593L106.76 45.3574L107.055 44.2554L105.897 43.9449L104.738 43.6344L105.049 42.4744L105.36 41.3144L104.259 41.0194L103.158 40.7245L103.453 39.6225L103.748 38.5205L102.648 38.2255L101.547 37.9306L101.842 36.8286L102.137 35.7266L99.9356 35.1366L97.7339 34.5467L98.0292 33.4447L98.3245 32.3427L96.0649 31.7373L93.8053 31.1318L94.1005 30.0298L94.3958 28.9278L92.2521 28.3534L90.1083 27.779L89.8286 28.823ZM25.551 46.2249L24.9449 48.4869L23.7861 48.1764L22.6273 47.8659L20.8557 54.4778L19.084 61.0897L20.2428 61.4002L21.4016 61.7107L20.5002 65.0747L19.5988 68.4386L30.6652 71.4039L41.7315 74.3691L45.0106 62.1312L48.2897 49.8934L37.2234 46.9281L26.1571 43.9629L25.551 46.2249ZM53.9332 64.522L50.6541 76.7599L62.8792 80.0356L75.1043 83.3113L78.3834 71.0734L81.6626 58.8356L69.4374 55.5599L57.2123 52.2842L53.9332 64.522ZM87.306 73.4642L84.0269 85.7021L95.1512 88.6828L106.275 91.6636L106.882 89.4016L107.488 87.1396L108.588 87.4346L109.689 87.7296L112.052 78.9137L114.414 70.0978L113.313 69.8028L112.212 69.5078L112.523 68.3479L112.834 67.1879L101.709 64.2071L90.5852 61.2264L87.306 73.4642ZM11.6932 53.2038C10.2059 58.7544 9.60709 61.0458 10.3625 58.2959C11.1179 55.546 12.3347 51.0047 13.0666 48.204C13.7986 45.4034 13.1804 47.6533 11.6932 53.2038ZM21.3136 79.6524L21.0183 80.7544L22.1192 81.0494L23.22 81.3443L22.6295 83.5483L22.0389 85.7523L23.1397 86.0472L24.2406 86.3422L23.9453 87.4442L23.65 88.5462L24.8088 88.8567L25.9676 89.1672L25.6568 90.3272L25.346 91.4871L26.4468 91.7821L27.5476 92.0771L27.2524 93.1791L26.9571 94.2811L28.0579 94.576L29.1588 94.871L28.8635 95.973L28.5682 97.075L30.7699 97.6649L32.9716 98.2548L32.6763 99.3568L32.381 100.459L34.6406 101.064L36.9003 101.67L36.605 102.772L36.3097 103.874L38.5114 104.464L40.7131 105.054L40.4022 106.214L40.0914 107.374L41.1923 107.669L42.2931 107.963L42.8837 105.76L43.4742 103.556L42.3154 103.245L41.1567 102.935L41.7472 100.731L42.3378 98.5266L41.2369 98.2316L40.1361 97.9367L41.3327 93.4707L42.5294 89.0048L41.4285 88.7098L40.3277 88.4148L40.9338 86.1529L41.5399 83.8909L31.5744 81.2207L21.6089 78.5504L21.3136 79.6524ZM50.2831 87.4147L49.9878 88.5167L51.0886 88.8117L52.1895 89.1067L51.3036 92.4126L50.4178 95.7186L51.5187 96.0136L52.6195 96.3085L51.7181 99.6725L50.8168 103.036L51.9176 103.331L53.0184 103.626L52.4279 105.83L51.8373 108.034L52.9382 108.329L54.039 108.624L53.7282 109.784L53.4174 110.944L54.5182 111.239L55.6191 111.534L55.9299 110.374L56.2407 109.214L57.3415 109.509L58.4424 109.804L59.0329 107.6L59.6235 105.396L60.7243 105.691L61.8252 105.986L62.4157 103.782L63.0063 101.578L64.1071 101.873L65.2079 102.168L66.1093 98.8042L67.0107 95.4402L68.1695 95.7507L69.3282 96.0612L69.9188 93.8572L70.5093 91.6532L60.5438 88.983L50.5784 86.3128L50.2831 87.4147ZM78.5306 97.408L77.6292 100.772L76.5284 100.477L75.4275 100.182L74.5262 103.546L73.6248 106.91L72.5239 106.615L71.4231 106.32L70.5528 109.568L69.6825 112.816L71.8263 113.39L73.97 113.965L74.2653 112.863L74.5606 111.761L76.8202 112.366L79.0798 112.972L79.3751 111.87L79.6704 110.768L81.872 111.358L84.0737 111.948L84.369 110.846L84.6643 109.744L85.7651 110.039L86.8659 110.334L87.1612 109.232L87.4565 108.13L88.6153 108.44L89.7741 108.751L90.0849 107.591L90.3957 106.431L91.4965 106.726L92.5974 107.021L92.8926 105.919L93.1879 104.817L94.2888 105.112L95.3896 105.407L95.9802 103.203L96.5707 100.999L97.6715 101.294L98.7724 101.589L99.0677 100.487L99.3629 99.3845L89.3974 96.7143L79.4319 94.0441L78.5306 97.408ZM67.1545 113.444L66.8592 114.546L67.9021 114.825L68.945 115.105L69.2403 114.003L69.5356 112.901L68.4927 112.621L67.4498 112.342L67.1545 113.444Z"/>
</mask>
<path fill-rule="evenodd" clip-rule="evenodd" d="M68.2619 11.0467L67.9666 12.1486L63.5053 10.9532L59.044 9.75785L58.7487 10.8598L58.4534 11.9618L56.1938 11.3564L53.9342 10.7509L53.6389 11.8529L53.3437 12.9549L51.142 12.3649L48.9403 11.775L48.6295 12.935L48.3187 14.095L47.2178 13.8L46.117 13.505L45.8217 14.607L45.5264 15.709L44.4256 15.414L43.3247 15.1191L43.0295 16.221L42.7342 17.323L41.5754 17.0125L40.4166 16.702L40.1214 17.804L39.8261 18.906L38.7252 18.611L37.6244 18.3161L37.3291 19.4181L37.0339 20.5201L35.933 20.2251L34.8322 19.9301L34.5214 21.0901L34.2105 22.2501L33.1097 21.9551L32.0089 21.6601L31.7136 22.7621L31.4183 23.8641L30.3175 23.5692L29.2166 23.2742L28.6261 25.4782L28.0355 27.6821L26.8767 27.3716L25.718 27.0611L25.1119 29.3231L24.5058 31.5851L23.4049 31.2901L22.3041 30.9952L21.7136 33.1991L21.123 35.4031L20.0222 35.1081L18.9213 34.8132L17.7247 39.2791L16.528 43.7451L15.4272 43.4501L14.3263 43.1551L11.6378 53.189L8.94921 63.2229L10.0501 63.5178L11.1509 63.8128L9.95425 68.2788L8.7576 72.7447L9.85844 73.0397L10.9593 73.3346L10.3532 75.5966L9.7471 77.8586L10.8479 78.1536L11.9488 78.4485L11.3582 80.6525L10.7677 82.8565L11.9265 83.167L13.0852 83.4775L12.4947 85.6814L11.9041 87.8854L13.005 88.1804L14.1058 88.4753L13.795 89.6353L13.4842 90.7953L14.585 91.0903L15.6859 91.3853L15.3906 92.4872L15.0953 93.5892L16.1961 93.8842L17.297 94.1792L17.0017 95.2812L16.7064 96.3831L17.8073 96.6781L18.9081 96.9731L18.6128 98.0751L18.3176 99.1771L19.4763 99.4875L20.6351 99.798L20.3398 100.9L20.0446 102.002L22.2462 102.592L24.4479 103.182L24.1371 104.342L23.8263 105.502L24.9271 105.797L26.028 106.092L25.7327 107.194L25.4374 108.296L27.697 108.901L29.9566 109.507L29.6614 110.609L29.3661 111.711L32.6686 112.596L35.9711 113.48L35.6759 114.582L35.3806 115.684L39.8419 116.88L44.3032 118.075L44.0079 119.177L43.7126 120.279L51.5344 122.375L59.3561 124.471L59.6514 123.369L59.9467 122.267L65.5088 123.757L71.071 125.248L71.3662 124.146L71.6615 123.044L73.9211 123.649L76.1808 124.255L76.476 123.153L76.7713 122.051L78.973 122.641L81.1747 123.231L81.4699 122.129L81.7652 121.027L83.9669 121.616L86.1686 122.206L86.4794 121.046L86.7902 119.886L87.949 120.197L89.1078 120.507L89.403 119.405L89.6983 118.303L90.7992 118.598L91.9 118.893L92.1953 117.791L92.4906 116.689L93.5914 116.984L94.6922 117.279L94.9875 116.177L95.2828 115.075L96.3836 115.37L97.4845 115.665L97.7797 114.563L98.075 113.461L99.1759 113.756L100.277 114.051L100.588 112.891L100.898 111.731L102.057 112.042L103.216 112.352L103.806 110.148L104.397 107.944L105.498 108.239L106.599 108.534L107.189 106.33L107.78 104.126L108.881 104.421L109.981 104.716L110.588 102.454L111.194 100.192L112.294 100.487L113.395 100.782L114.281 97.4763L115.167 94.1704L116.25 94.4605L117.332 94.7506L117.898 92.9439C118.634 90.5919 123.121 73.8444 123.573 71.7636L123.922 70.159L122.839 69.8688L121.756 69.5787L122.953 65.1127L124.15 60.6468L123.049 60.3518L121.948 60.0568L122.554 57.7949L123.16 55.5329L122.059 55.2379L120.958 54.943L121.549 52.739L122.14 50.535L121.039 50.24L119.938 49.9451L120.233 48.8431L120.528 47.7411L119.37 47.4306L118.211 47.1201L118.506 46.0181L118.801 44.9161L117.701 44.6212L116.6 44.3262L117.206 42.0642L117.812 39.8023L116.711 39.5073L115.61 39.2123L115.905 38.1103L116.201 37.0083L113.999 36.4184L111.797 35.8285L112.093 34.7265L112.388 33.6245L111.229 33.314L110.07 33.0035L110.366 31.9015L110.661 30.7995L109.56 30.5046L108.459 30.2096L108.77 29.0496L109.081 27.8896L106.879 27.2997L104.678 26.7097L104.973 25.6078L105.268 24.5058L103.008 23.9003L100.749 23.2948L101.044 22.1929L101.339 21.0909L96.9361 19.911L92.5327 18.7311L92.828 17.6291L93.1232 16.5271L80.8402 13.2359L68.5571 9.94467L68.2619 11.0467ZM76.682 24.1193L76.0759 26.3813L74.9751 26.0863L73.8743 25.7913L73.2837 27.9953L72.6932 30.1993L71.5923 29.9043L70.4915 29.6093L69.5901 32.9733L68.6887 36.3372L67.5879 36.0423L66.4871 35.7473L65.6012 39.0533L64.7154 42.3592L63.6146 42.0643L62.5137 41.7693L62.2184 42.8713L61.9232 43.9733L71.8887 46.6435L81.8542 49.3138L82.4447 47.1098L83.0353 44.9058L81.8765 44.5953L80.7177 44.2848L81.6035 40.9789L82.4894 37.6729L81.3885 37.3779L80.2877 37.083L80.8938 34.821L81.4999 32.559L80.399 32.264L79.2982 31.9691L79.8887 29.7651L80.4793 27.5611L79.3785 27.2662L78.2776 26.9712L78.8837 24.7092L79.4898 22.4472L78.389 22.1523L77.2881 21.8573L76.682 24.1193ZM60.8436 21.1186L60.5483 22.2206L58.3466 21.6307L56.1449 21.0408L55.8497 22.1427L55.5544 23.2447L53.2948 22.6393L51.0352 22.0338L50.7399 23.1358L50.4446 24.2378L49.3438 23.9428L48.2429 23.6478L47.9476 24.7498L47.6524 25.8518L46.5515 25.5568L45.4507 25.2619L45.1399 26.4219L44.8291 27.5818L43.7282 27.2869L42.6274 26.9919L42.3321 28.0939L42.0368 29.1959L40.8781 28.8854L39.7193 28.5749L39.424 29.6769L39.1287 30.7789L38.0279 30.4839L36.927 30.1889L36.6318 31.2909L36.3365 32.3929L35.2356 32.0979L34.1348 31.803L33.5443 34.0069L32.9537 36.2109L42.9192 38.8812L52.8847 41.5514L53.7861 38.1874L54.6874 34.8235L55.7883 35.1185L56.8891 35.4134L57.7749 32.1075L58.6608 28.8015L59.7616 29.0965L60.8624 29.3914L61.7638 26.0275L62.6652 22.6635L63.824 22.974L64.9827 23.2845L65.2625 22.2405L65.5422 21.1965L63.3405 20.6066L61.1389 20.0167L60.8436 21.1186ZM89.8286 28.823L89.5489 29.867L90.6497 30.162L91.7505 30.4569L91.16 32.6609L90.5694 34.8649L91.6703 35.1598L92.7711 35.4548L91.5745 39.9208L90.3778 44.3867L91.4787 44.6817L92.5795 44.9766L91.6781 48.3406L90.7768 51.7046L100.742 54.3748L110.708 57.0451L111.298 54.8411L111.889 52.6371L110.788 52.3421L109.687 52.0472L109.982 50.9452L110.278 49.8432L109.177 49.5482L108.076 49.2533L108.371 48.1513L108.667 47.0493L107.566 46.7543L106.465 46.4593L106.76 45.3574L107.055 44.2554L105.897 43.9449L104.738 43.6344L105.049 42.4744L105.36 41.3144L104.259 41.0194L103.158 40.7245L103.453 39.6225L103.748 38.5205L102.648 38.2255L101.547 37.9306L101.842 36.8286L102.137 35.7266L99.9356 35.1366L97.7339 34.5467L98.0292 33.4447L98.3245 32.3427L96.0649 31.7373L93.8053 31.1318L94.1005 30.0298L94.3958 28.9278L92.2521 28.3534L90.1083 27.779L89.8286 28.823ZM25.551 46.2249L24.9449 48.4869L23.7861 48.1764L22.6273 47.8659L20.8557 54.4778L19.084 61.0897L20.2428 61.4002L21.4016 61.7107L20.5002 65.0747L19.5988 68.4386L30.6652 71.4039L41.7315 74.3691L45.0106 62.1312L48.2897 49.8934L37.2234 46.9281L26.1571 43.9629L25.551 46.2249ZM53.9332 64.522L50.6541 76.7599L62.8792 80.0356L75.1043 83.3113L78.3834 71.0734L81.6626 58.8356L69.4374 55.5599L57.2123 52.2842L53.9332 64.522ZM87.306 73.4642L84.0269 85.7021L95.1512 88.6828L106.275 91.6636L106.882 89.4016L107.488 87.1396L108.588 87.4346L109.689 87.7296L112.052 78.9137L114.414 70.0978L113.313 69.8028L112.212 69.5078L112.523 68.3479L112.834 67.1879L101.709 64.2071L90.5852 61.2264L87.306 73.4642ZM11.6932 53.2038C10.2059 58.7544 9.60709 61.0458 10.3625 58.2959C11.1179 55.546 12.3347 51.0047 13.0666 48.204C13.7986 45.4034 13.1804 47.6533 11.6932 53.2038ZM21.3136 79.6524L21.0183 80.7544L22.1192 81.0494L23.22 81.3443L22.6295 83.5483L22.0389 85.7523L23.1397 86.0472L24.2406 86.3422L23.9453 87.4442L23.65 88.5462L24.8088 88.8567L25.9676 89.1672L25.6568 90.3272L25.346 91.4871L26.4468 91.7821L27.5476 92.0771L27.2524 93.1791L26.9571 94.2811L28.0579 94.576L29.1588 94.871L28.8635 95.973L28.5682 97.075L30.7699 97.6649L32.9716 98.2548L32.6763 99.3568L32.381 100.459L34.6406 101.064L36.9003 101.67L36.605 102.772L36.3097 103.874L38.5114 104.464L40.7131 105.054L40.4022 106.214L40.0914 107.374L41.1923 107.669L42.2931 107.963L42.8837 105.76L43.4742 103.556L42.3154 103.245L41.1567 102.935L41.7472 100.731L42.3378 98.5266L41.2369 98.2316L40.1361 97.9367L41.3327 93.4707L42.5294 89.0048L41.4285 88.7098L40.3277 88.4148L40.9338 86.1529L41.5399 83.8909L31.5744 81.2207L21.6089 78.5504L21.3136 79.6524ZM50.2831 87.4147L49.9878 88.5167L51.0886 88.8117L52.1895 89.1067L51.3036 92.4126L50.4178 95.7186L51.5187 96.0136L52.6195 96.3085L51.7181 99.6725L50.8168 103.036L51.9176 103.331L53.0184 103.626L52.4279 105.83L51.8373 108.034L52.9382 108.329L54.039 108.624L53.7282 109.784L53.4174 110.944L54.5182 111.239L55.6191 111.534L55.9299 110.374L56.2407 109.214L57.3415 109.509L58.4424 109.804L59.0329 107.6L59.6235 105.396L60.7243 105.691L61.8252 105.986L62.4157 103.782L63.0063 101.578L64.1071 101.873L65.2079 102.168L66.1093 98.8042L67.0107 95.4402L68.1695 95.7507L69.3282 96.0612L69.9188 93.8572L70.5093 91.6532L60.5438 88.983L50.5784 86.3128L50.2831 87.4147ZM78.5306 97.408L77.6292 100.772L76.5284 100.477L75.4275 100.182L74.5262 103.546L73.6248 106.91L72.5239 106.615L71.4231 106.32L70.5528 109.568L69.6825 112.816L71.8263 113.39L73.97 113.965L74.2653 112.863L74.5606 111.761L76.8202 112.366L79.0798 112.972L79.3751 111.87L79.6704 110.768L81.872 111.358L84.0737 111.948L84.369 110.846L84.6643 109.744L85.7651 110.039L86.8659 110.334L87.1612 109.232L87.4565 108.13L88.6153 108.44L89.7741 108.751L90.0849 107.591L90.3957 106.431L91.4965 106.726L92.5974 107.021L92.8926 105.919L93.1879 104.817L94.2888 105.112L95.3896 105.407L95.9802 103.203L96.5707 100.999L97.6715 101.294L98.7724 101.589L99.0677 100.487L99.3629 99.3845L89.3974 96.7143L79.4319 94.0441L78.5306 97.408ZM67.1545 113.444L66.8592 114.546L67.9021 114.825L68.945 115.105L69.2403 114.003L69.5356 112.901L68.4927 112.621L67.4498 112.342L67.1545 113.444Z" fill="#2A2A2A"/>
<path fill-rule="evenodd" clip-rule="evenodd" d="M68.2619 11.0467L67.9666 12.1486L63.5053 10.9532L59.044 9.75785L58.7487 10.8598L58.4534 11.9618L56.1938 11.3564L53.9342 10.7509L53.6389 11.8529L53.3437 12.9549L51.142 12.3649L48.9403 11.775L48.6295 12.935L48.3187 14.095L47.2178 13.8L46.117 13.505L45.8217 14.607L45.5264 15.709L44.4256 15.414L43.3247 15.1191L43.0295 16.221L42.7342 17.323L41.5754 17.0125L40.4166 16.702L40.1214 17.804L39.8261 18.906L38.7252 18.611L37.6244 18.3161L37.3291 19.4181L37.0339 20.5201L35.933 20.2251L34.8322 19.9301L34.5214 21.0901L34.2105 22.2501L33.1097 21.9551L32.0089 21.6601L31.7136 22.7621L31.4183 23.8641L30.3175 23.5692L29.2166 23.2742L28.6261 25.4782L28.0355 27.6821L26.8767 27.3716L25.718 27.0611L25.1119 29.3231L24.5058 31.5851L23.4049 31.2901L22.3041 30.9952L21.7136 33.1991L21.123 35.4031L20.0222 35.1081L18.9213 34.8132L17.7247 39.2791L16.528 43.7451L15.4272 43.4501L14.3263 43.1551L11.6378 53.189L8.94921 63.2229L10.0501 63.5178L11.1509 63.8128L9.95425 68.2788L8.7576 72.7447L9.85844 73.0397L10.9593 73.3346L10.3532 75.5966L9.7471 77.8586L10.8479 78.1536L11.9488 78.4485L11.3582 80.6525L10.7677 82.8565L11.9265 83.167L13.0852 83.4775L12.4947 85.6814L11.9041 87.8854L13.005 88.1804L14.1058 88.4753L13.795 89.6353L13.4842 90.7953L14.585 91.0903L15.6859 91.3853L15.3906 92.4872L15.0953 93.5892L16.1961 93.8842L17.297 94.1792L17.0017 95.2812L16.7064 96.3831L17.8073 96.6781L18.9081 96.9731L18.6128 98.0751L18.3176 99.1771L19.4763 99.4875L20.6351 99.798L20.3398 100.9L20.0446 102.002L22.2462 102.592L24.4479 103.182L24.1371 104.342L23.8263 105.502L24.9271 105.797L26.028 106.092L25.7327 107.194L25.4374 108.296L27.697 108.901L29.9566 109.507L29.6614 110.609L29.3661 111.711L32.6686 112.596L35.9711 113.48L35.6759 114.582L35.3806 115.684L39.8419 116.88L44.3032 118.075L44.0079 119.177L43.7126 120.279L51.5344 122.375L59.3561 124.471L59.6514 123.369L59.9467 122.267L65.5088 123.757L71.071 125.248L71.3662 124.146L71.6615 123.044L73.9211 123.649L76.1808 124.255L76.476 123.153L76.7713 122.051L78.973 122.641L81.1747 123.231L81.4699 122.129L81.7652 121.027L83.9669 121.616L86.1686 122.206L86.4794 121.046L86.7902 119.886L87.949 120.197L89.1078 120.507L89.403 119.405L89.6983 118.303L90.7992 118.598L91.9 118.893L92.1953 117.791L92.4906 116.689L93.5914 116.984L94.6922 117.279L94.9875 116.177L95.2828 115.075L96.3836 115.37L97.4845 115.665L97.7797 114.563L98.075 113.461L99.1759 113.756L100.277 114.051L100.588 112.891L100.898 111.731L102.057 112.042L103.216 112.352L103.806 110.148L104.397 107.944L105.498 108.239L106.599 108.534L107.189 106.33L107.78 104.126L108.881 104.421L109.981 104.716L110.588 102.454L111.194 100.192L112.294 100.487L113.395 100.782L114.281 97.4763L115.167 94.1704L116.25 94.4605L117.332 94.7506L117.898 92.9439C118.634 90.5919 123.121 73.8444 123.573 71.7636L123.922 70.159L122.839 69.8688L121.756 69.5787L122.953 65.1127L124.15 60.6468L123.049 60.3518L121.948 60.0568L122.554 57.7949L123.16 55.5329L122.059 55.2379L120.958 54.943L121.549 52.739L122.14 50.535L121.039 50.24L119.938 49.9451L120.233 48.8431L120.528 47.7411L119.37 47.4306L118.211 47.1201L118.506 46.0181L118.801 44.9161L117.701 44.6212L116.6 44.3262L117.206 42.0642L117.812 39.8023L116.711 39.5073L115.61 39.2123L115.905 38.1103L116.201 37.0083L113.999 36.4184L111.797 35.8285L112.093 34.7265L112.388 33.6245L111.229 33.314L110.07 33.0035L110.366 31.9015L110.661 30.7995L109.56 30.5046L108.459 30.2096L108.77 29.0496L109.081 27.8896L106.879 27.2997L104.678 26.7097L104.973 25.6078L105.268 24.5058L103.008 23.9003L100.749 23.2948L101.044 22.1929L101.339 21.0909L96.9361 19.911L92.5327 18.7311L92.828 17.6291L93.1232 16.5271L80.8402 13.2359L68.5571 9.94467L68.2619 11.0467ZM76.682 24.1193L76.0759 26.3813L74.9751 26.0863L73.8743 25.7913L73.2837 27.9953L72.6932 30.1993L71.5923 29.9043L70.4915 29.6093L69.5901 32.9733L68.6887 36.3372L67.5879 36.0423L66.4871 35.7473L65.6012 39.0533L64.7154 42.3592L63.6146 42.0643L62.5137 41.7693L62.2184 42.8713L61.9232 43.9733L71.8887 46.6435L81.8542 49.3138L82.4447 47.1098L83.0353 44.9058L81.8765 44.5953L80.7177 44.2848L81.6035 40.9789L82.4894 37.6729L81.3885 37.3779L80.2877 37.083L80.8938 34.821L81.4999 32.559L80.399 32.264L79.2982 31.9691L79.8887 29.7651L80.4793 27.5611L79.3785 27.2662L78.2776 26.9712L78.8837 24.7092L79.4898 22.4472L78.389 22.1523L77.2881 21.8573L76.682 24.1193ZM60.8436 21.1186L60.5483 22.2206L58.3466 21.6307L56.1449 21.0408L55.8497 22.1427L55.5544 23.2447L53.2948 22.6393L51.0352 22.0338L50.7399 23.1358L50.4446 24.2378L49.3438 23.9428L48.2429 23.6478L47.9476 24.7498L47.6524 25.8518L46.5515 25.5568L45.4507 25.2619L45.1399 26.4219L44.8291 27.5818L43.7282 27.2869L42.6274 26.9919L42.3321 28.0939L42.0368 29.1959L40.8781 28.8854L39.7193 28.5749L39.424 29.6769L39.1287 30.7789L38.0279 30.4839L36.927 30.1889L36.6318 31.2909L36.3365 32.3929L35.2356 32.0979L34.1348 31.803L33.5443 34.0069L32.9537 36.2109L42.9192 38.8812L52.8847 41.5514L53.7861 38.1874L54.6874 34.8235L55.7883 35.1185L56.8891 35.4134L57.7749 32.1075L58.6608 28.8015L59.7616 29.0965L60.8624 29.3914L61.7638 26.0275L62.6652 22.6635L63.824 22.974L64.9827 23.2845L65.2625 22.2405L65.5422 21.1965L63.3405 20.6066L61.1389 20.0167L60.8436 21.1186ZM89.8286 28.823L89.5489 29.867L90.6497 30.162L91.7505 30.4569L91.16 32.6609L90.5694 34.8649L91.6703 35.1598L92.7711 35.4548L91.5745 39.9208L90.3778 44.3867L91.4787 44.6817L92.5795 44.9766L91.6781 48.3406L90.7768 51.7046L100.742 54.3748L110.708 57.0451L111.298 54.8411L111.889 52.6371L110.788 52.3421L109.687 52.0472L109.982 50.9452L110.278 49.8432L109.177 49.5482L108.076 49.2533L108.371 48.1513L108.667 47.0493L107.566 46.7543L106.465 46.4593L106.76 45.3574L107.055 44.2554L105.897 43.9449L104.738 43.6344L105.049 42.4744L105.36 41.3144L104.259 41.0194L103.158 40.7245L103.453 39.6225L103.748 38.5205L102.648 38.2255L101.547 37.9306L101.842 36.8286L102.137 35.7266L99.9356 35.1366L97.7339 34.5467L98.0292 33.4447L98.3245 32.3427L96.0649 31.7373L93.8053 31.1318L94.1005 30.0298L94.3958 28.9278L92.2521 28.3534L90.1083 27.779L89.8286 28.823ZM25.551 46.2249L24.9449 48.4869L23.7861 48.1764L22.6273 47.8659L20.8557 54.4778L19.084 61.0897L20.2428 61.4002L21.4016 61.7107L20.5002 65.0747L19.5988 68.4386L30.6652 71.4039L41.7315 74.3691L45.0106 62.1312L48.2897 49.8934L37.2234 46.9281L26.1571 43.9629L25.551 46.2249ZM53.9332 64.522L50.6541 76.7599L62.8792 80.0356L75.1043 83.3113L78.3834 71.0734L81.6626 58.8356L69.4374 55.5599L57.2123 52.2842L53.9332 64.522ZM87.306 73.4642L84.0269 85.7021L95.1512 88.6828L106.275 91.6636L106.882 89.4016L107.488 87.1396L108.588 87.4346L109.689 87.7296L112.052 78.9137L114.414 70.0978L113.313 69.8028L112.212 69.5078L112.523 68.3479L112.834 67.1879L101.709 64.2071L90.5852 61.2264L87.306 73.4642ZM11.6932 53.2038C10.2059 58.7544 9.60709 61.0458 10.3625 58.2959C11.1179 55.546 12.3347 51.0047 13.0666 48.204C13.7986 45.4034 13.1804 47.6533 11.6932 53.2038ZM21.3136 79.6524L21.0183 80.7544L22.1192 81.0494L23.22 81.3443L22.6295 83.5483L22.0389 85.7523L23.1397 86.0472L24.2406 86.3422L23.9453 87.4442L23.65 88.5462L24.8088 88.8567L25.9676 89.1672L25.6568 90.3272L25.346 91.4871L26.4468 91.7821L27.5476 92.0771L27.2524 93.1791L26.9571 94.2811L28.0579 94.576L29.1588 94.871L28.8635 95.973L28.5682 97.075L30.7699 97.6649L32.9716 98.2548L32.6763 99.3568L32.381 100.459L34.6406 101.064L36.9003 101.67L36.605 102.772L36.3097 103.874L38.5114 104.464L40.7131 105.054L40.4022 106.214L40.0914 107.374L41.1923 107.669L42.2931 107.963L42.8837 105.76L43.4742 103.556L42.3154 103.245L41.1567 102.935L41.7472 100.731L42.3378 98.5266L41.2369 98.2316L40.1361 97.9367L41.3327 93.4707L42.5294 89.0048L41.4285 88.7098L40.3277 88.4148L40.9338 86.1529L41.5399 83.8909L31.5744 81.2207L21.6089 78.5504L21.3136 79.6524ZM50.2831 87.4147L49.9878 88.5167L51.0886 88.8117L52.1895 89.1067L51.3036 92.4126L50.4178 95.7186L51.5187 96.0136L52.6195 96.3085L51.7181 99.6725L50.8168 103.036L51.9176 103.331L53.0184 103.626L52.4279 105.83L51.8373 108.034L52.9382 108.329L54.039 108.624L53.7282 109.784L53.4174 110.944L54.5182 111.239L55.6191 111.534L55.9299 110.374L56.2407 109.214L57.3415 109.509L58.4424 109.804L59.0329 107.6L59.6235 105.396L60.7243 105.691L61.8252 105.986L62.4157 103.782L63.0063 101.578L64.1071 101.873L65.2079 102.168L66.1093 98.8042L67.0107 95.4402L68.1695 95.7507L69.3282 96.0612L69.9188 93.8572L70.5093 91.6532L60.5438 88.983L50.5784 86.3128L50.2831 87.4147ZM78.5306 97.408L77.6292 100.772L76.5284 100.477L75.4275 100.182L74.5262 103.546L73.6248 106.91L72.5239 106.615L71.4231 106.32L70.5528 109.568L69.6825 112.816L71.8263 113.39L73.97 113.965L74.2653 112.863L74.5606 111.761L76.8202 112.366L79.0798 112.972L79.3751 111.87L79.6704 110.768L81.872 111.358L84.0737 111.948L84.369 110.846L84.6643 109.744L85.7651 110.039L86.8659 110.334L87.1612 109.232L87.4565 108.13L88.6153 108.44L89.7741 108.751L90.0849 107.591L90.3957 106.431L91.4965 106.726L92.5974 107.021L92.8926 105.919L93.1879 104.817L94.2888 105.112L95.3896 105.407L95.9802 103.203L96.5707 100.999L97.6715 101.294L98.7724 101.589L99.0677 100.487L99.3629 99.3845L89.3974 96.7143L79.4319 94.0441L78.5306 97.408ZM67.1545 113.444L66.8592 114.546L67.9021 114.825L68.945 115.105L69.2403 114.003L69.5356 112.901L68.4927 112.621L67.4498 112.342L67.1545 113.444Z" stroke="white" stroke-width="16" stroke-linejoin="round" mask="url(#path-1-outside-1_935_36611)"/>
</g>
<defs>
<filter id="filter0_d_935_36611" x="4.64916e-06" y="4.64916e-06" width="134.907" height="135.006" filterUnits="userSpaceOnUse" color-interpolation-filters="sRGB">
<feFlood flood-opacity="0" result="BackgroundImageFix"/>
<feColorMatrix in="SourceAlpha" type="matrix" values="0 0 0 0 0 0 0 0 0 0 0 0 0 0 0 0 0 0 127 0" result="hardAlpha"/>
<feOffset dx="1"/>
<feGaussianBlur stdDeviation="0.877927"/>
<feComposite in2="hardAlpha" operator="out"/>
<feColorMatrix type="matrix" values="0 0 0 0 0 0 0 0 0 0 0 0 0 0 0 0 0 0 0.25 0"/>
<feBlend mode="normal" in2="BackgroundImageFix" result="effect1_dropShadow_935_36611"/>
<feBlend mode="normal" in="SourceGraphic" in2="effect1_dropShadow_935_36611" result="shape"/>
</filter>
</defs>
</svg>
