<svg width="416" height="406" viewBox="0 0 416 406" fill="none" xmlns="http://www.w3.org/2000/svg">
<g>
<path d="M299.003 151.489C338.107 154.91 369.344 182.863 366.477 215.624C363.611 248.384 327.995 270.487 288.891 267.066C249.787 263.645 218.551 235.693 221.417 202.933C224.284 170.172 259.899 148.068 299.003 151.489Z" fill="#2A2A2A" stroke="white" stroke-width="8"/>
<path d="M273.458 175.21C273.575 175.321 273.661 175.434 273.716 175.549C273.845 175.82 273.864 176.087 273.771 176.35C273.673 176.602 273.509 176.782 273.28 176.892C273.092 176.982 272.892 177.007 272.68 176.967C272.479 176.922 272.289 176.82 272.111 176.661L270.391 175.155L265.722 177.385L265.82 179.685C265.842 179.919 265.802 180.13 265.7 180.32C265.603 180.494 265.466 180.624 265.289 180.709C265.017 180.839 264.773 180.865 264.557 180.789C264.352 180.707 264.189 180.541 264.069 180.291C264.024 180.197 263.993 180.09 263.974 179.971L263.4 168.738C263.384 168.489 263.432 168.267 263.544 168.072C263.657 167.877 263.822 167.741 264.041 167.662C264.229 167.572 264.429 167.547 264.641 167.587C264.858 167.612 265.05 167.706 265.218 167.869L273.458 175.21ZM265.629 175.216L268.763 173.72L265.429 170.809L265.629 175.216Z" fill="#F9F0DC"/>
<path d="M283.758 172.415C283.925 172.471 284.066 172.564 284.179 172.692C284.303 172.817 284.383 172.959 284.42 173.117C284.467 173.32 284.443 173.522 284.347 173.722C284.225 173.964 283.99 174.126 283.64 174.208C283.37 174.271 283.107 174.266 282.853 174.195C281.933 173.922 281.308 173.075 280.978 171.654C280.883 171.249 280.673 170.959 280.347 170.785C280.033 170.609 279.627 170.578 279.131 170.694L275.969 171.43L276.733 174.711C276.804 175.015 276.777 175.283 276.653 175.514C276.54 175.743 276.348 175.888 276.077 175.951C275.75 176.027 275.44 175.999 275.148 175.865C274.864 175.717 274.687 175.496 274.619 175.203L272.343 165.429C272.275 165.136 272.314 164.871 272.461 164.635C272.617 164.384 272.841 164.225 273.134 164.157L278.005 163.023C278.591 162.886 279.18 162.915 279.772 163.11C280.364 163.305 280.877 163.643 281.31 164.125C281.754 164.604 282.056 165.187 282.217 165.875C282.348 166.438 282.324 167.026 282.146 167.638C281.965 168.239 281.669 168.754 281.258 169.182C282.083 169.513 282.627 170.088 282.889 170.906C282.965 171.079 283.023 171.249 283.062 171.419C283.188 171.758 283.293 172.001 283.375 172.148C283.454 172.284 283.581 172.373 283.758 172.415ZM279.267 168.826C279.47 168.779 279.645 168.637 279.792 168.401C279.939 168.164 280.038 167.874 280.088 167.529C280.136 167.173 280.117 166.809 280.03 166.437C279.956 166.122 279.827 165.849 279.643 165.618C279.456 165.377 279.248 165.199 279.02 165.086C278.791 164.973 278.576 164.94 278.373 164.987L274.669 165.85L275.563 169.688L279.267 168.826Z" fill="#F9F0DC"/>
<path d="M296.703 167.59C296.723 168.736 296.488 169.793 295.995 170.763C295.503 171.721 294.81 172.486 293.918 173.058C293.036 173.629 292.034 173.925 290.912 173.945C289.789 173.965 288.771 173.705 287.859 173.166C286.958 172.626 286.244 171.886 285.718 170.946C285.203 169.994 284.935 168.946 284.915 167.8C284.895 166.654 285.125 165.602 285.606 164.644C286.098 163.674 286.784 162.904 287.666 162.332C288.559 161.761 289.566 161.465 290.689 161.445C291.812 161.425 292.824 161.685 293.725 162.225C294.637 162.764 295.357 163.51 295.883 164.461C296.409 165.401 296.683 166.444 296.703 167.59ZM294.446 167.63C294.432 166.855 294.264 166.157 293.94 165.538C293.616 164.907 293.173 164.411 292.611 164.05C292.049 163.69 291.421 163.516 290.726 163.528C290.02 163.541 289.393 163.737 288.844 164.118C288.306 164.486 287.887 164.991 287.586 165.633C287.296 166.275 287.158 166.984 287.172 167.76C287.186 168.535 287.349 169.238 287.661 169.87C287.985 170.501 288.422 170.996 288.973 171.357C289.535 171.706 290.169 171.874 290.875 171.862C291.569 171.849 292.191 171.653 292.74 171.273C293.289 170.892 293.714 170.387 294.015 169.756C294.316 169.114 294.46 168.405 294.446 167.63Z" fill="#F9F0DC"/>
<path d="M308.862 163.541C309.158 163.597 309.379 163.739 309.524 163.967C309.669 164.195 309.712 164.462 309.654 164.769L308.479 170.944C308.3 171.888 307.942 172.686 307.405 173.338C306.869 173.99 306.204 174.453 305.409 174.726C304.615 174.999 303.757 175.048 302.836 174.873C301.915 174.698 301.129 174.336 300.48 173.788C299.841 173.243 299.392 172.568 299.132 171.764C298.873 170.961 298.833 170.087 299.012 169.143L300.187 162.968C300.243 162.673 300.392 162.448 300.633 162.293C300.877 162.128 301.158 162.075 301.476 162.136C301.749 162.187 301.969 162.335 302.134 162.579C302.302 162.811 302.358 163.075 302.302 163.371L301.127 169.546C301.024 170.092 301.05 170.603 301.207 171.081C301.365 171.547 301.622 171.932 301.977 172.235C302.343 172.54 302.759 172.737 303.225 172.826C303.714 172.919 304.191 172.892 304.655 172.744C305.13 172.599 305.533 172.34 305.863 171.967C306.207 171.584 306.431 171.12 306.535 170.574L307.709 164.399C307.768 164.092 307.901 163.858 308.108 163.697C308.315 163.537 308.567 163.484 308.862 163.541Z" fill="#F9F0DC"/>
<path d="M322.621 168.596C322.877 168.704 323.048 168.877 323.136 169.116C323.224 169.354 323.213 169.601 323.105 169.857L319.154 179.177C319.037 179.454 318.841 179.648 318.568 179.759C318.31 179.863 318.043 179.857 317.766 179.739C317.616 179.676 317.476 179.591 317.345 179.485C317.229 179.373 317.157 179.261 317.129 179.149L314.42 169.212L311.527 176.038C311.418 176.294 311.243 176.471 311 176.57C310.768 176.672 310.518 176.667 310.252 176.554C309.996 176.446 309.824 176.273 309.737 176.034C309.649 175.796 309.66 175.549 309.768 175.293L313.718 165.973C313.836 165.696 314.024 165.505 314.282 165.401C314.555 165.29 314.83 165.293 315.107 165.411C315.267 165.479 315.408 165.576 315.53 165.703C315.663 165.835 315.744 165.97 315.773 166.108L318.448 175.993L321.362 169.118C321.471 168.862 321.641 168.683 321.873 168.58C322.116 168.482 322.365 168.487 322.621 168.596Z" fill="#F9F0DC"/>
<path d="M331.765 174.401C332.639 175.05 333.224 175.825 333.522 176.724C333.836 177.621 333.879 178.562 333.652 179.547C333.441 180.529 332.996 181.476 332.32 182.386C331.643 183.296 330.861 183.999 329.974 184.493C329.103 184.986 328.19 185.215 327.233 185.182C326.293 185.147 325.387 184.804 324.513 184.155L321.183 181.679C320.941 181.5 320.796 181.269 320.746 180.986C320.712 180.702 320.785 180.439 320.965 180.197L326.953 172.143C327.133 171.902 327.36 171.761 327.635 171.72C327.927 171.677 328.193 171.745 328.435 171.925L331.765 174.401ZM325.565 182.449C326.401 183.071 327.256 183.23 328.13 182.928C329.011 182.616 329.804 181.987 330.508 181.039C331.213 180.092 331.579 179.153 331.608 178.222C331.652 177.289 331.261 176.515 330.435 175.9L328.135 174.191L323.266 180.74L325.565 182.449Z" fill="#F9F0DC"/>
<path d="M256.277 231.5C256.486 231.724 256.59 231.968 256.59 232.232C256.589 232.497 256.481 232.73 256.265 232.931C256.05 233.132 255.81 233.225 255.546 233.208C255.291 233.183 255.058 233.059 254.849 232.835L253.027 230.886L246.52 236.969C246.304 237.17 246.049 237.261 245.753 237.243C245.465 237.218 245.213 237.089 244.996 236.857C244.779 236.625 244.672 236.369 244.673 236.089C244.683 235.8 244.795 235.555 245.01 235.354L251.518 229.271L249.695 227.322C249.486 227.098 249.382 226.854 249.383 226.589C249.384 226.325 249.492 226.092 249.707 225.891C249.914 225.697 250.15 225.609 250.414 225.626C250.685 225.651 250.922 225.771 251.123 225.987L256.277 231.5Z" fill="#F9F0DC"/>
<path d="M264.751 237.619C265.013 237.798 265.169 238.021 265.22 238.289C265.27 238.556 265.21 238.817 265.037 239.069L259.502 247.187C259.336 247.431 259.111 247.579 258.827 247.633C258.55 247.677 258.281 247.61 258.019 247.431C257.784 247.271 257.637 247.055 257.577 246.78C257.524 246.497 257.58 246.234 257.746 245.99L259.977 242.718L255.497 239.663L253.266 242.935C253.1 243.178 252.87 243.324 252.577 243.371C252.291 243.409 252.031 243.348 251.797 243.188C251.544 243.016 251.387 242.793 251.327 242.519C251.283 242.242 251.344 241.981 251.51 241.738L257.046 233.62C257.212 233.377 257.433 233.233 257.71 233.188C257.994 233.135 258.267 233.197 258.529 233.376C258.763 233.536 258.907 233.757 258.96 234.041C259.02 234.315 258.967 234.574 258.801 234.817L256.599 238.047L261.079 241.103L263.282 237.872C263.448 237.629 263.674 237.488 263.96 237.45C264.253 237.403 264.517 237.459 264.751 237.619Z" fill="#F9F0DC"/>
<path d="M269.351 250.756C269.621 250.875 269.802 251.067 269.896 251.331C270.005 251.59 270.007 251.839 269.901 252.077C269.787 252.336 269.6 252.508 269.34 252.591C269.091 252.679 268.831 252.664 268.562 252.545L263.352 250.245C263.082 250.126 262.893 249.937 262.784 249.678C262.69 249.414 262.703 249.147 262.822 248.877L266.79 239.889C266.909 239.619 267.096 239.435 267.35 239.337C267.619 239.232 267.888 239.24 268.158 239.359L273.367 241.659C273.637 241.778 273.821 241.964 273.919 242.218C274.033 242.467 274.03 242.725 273.911 242.995C273.796 243.254 273.615 243.428 273.365 243.516C273.12 243.594 272.858 243.571 272.578 243.447L268.363 241.587L267.196 244.23L270.711 245.782C270.98 245.901 271.164 246.087 271.263 246.341C271.376 246.59 271.373 246.849 271.254 247.118C271.14 247.377 270.958 247.551 270.709 247.639C270.464 247.717 270.201 247.694 269.921 247.57L266.407 246.019L265.137 248.896L269.351 250.756Z" fill="#F9F0DC"/>
<path d="M292.81 245.938C293.078 245.98 293.308 246.125 293.499 246.373C293.702 246.611 293.78 246.887 293.731 247.2C293.715 247.301 293.681 247.41 293.628 247.528L288.797 256.753C288.7 256.933 288.559 257.065 288.374 257.151C288.188 257.237 287.994 257.27 287.791 257.249C287.589 257.218 287.407 257.132 287.246 256.992C287.084 256.852 286.969 256.668 286.902 256.439L285.365 250.642L282.115 255.692C281.981 255.889 281.816 256.029 281.619 256.113C281.423 256.197 281.223 256.223 281.022 256.192C280.822 256.149 280.647 256.059 280.497 255.92C280.346 255.782 280.252 255.613 280.215 255.412L278.428 245.153C278.414 245.025 278.414 244.91 278.43 244.81C278.479 244.496 278.631 244.256 278.887 244.09C279.155 243.914 279.429 243.847 279.709 243.891C279.933 243.926 280.125 244.019 280.285 244.17C280.447 244.31 280.545 244.486 280.581 244.698L281.897 252.681L284.9 247.782C285.021 247.594 285.174 247.458 285.359 247.372C285.546 247.275 285.746 247.249 285.957 247.293C286.171 247.315 286.347 247.4 286.485 247.548C286.635 247.686 286.739 247.863 286.797 248.078L288.052 253.591L291.716 246.438C291.815 246.247 291.963 246.11 292.159 246.026C292.369 245.932 292.586 245.903 292.81 245.938Z" fill="#F9F0DC"/>
<path d="M305.715 251.381C305.767 252.502 305.565 253.543 305.111 254.506C304.656 255.458 304 256.226 303.142 256.81C302.295 257.394 301.323 257.711 300.225 257.762C299.127 257.813 298.124 257.588 297.215 257.085C296.319 256.582 295.599 255.878 295.058 254.973C294.528 254.056 294.236 253.037 294.184 251.917C294.132 250.796 294.328 249.76 294.772 248.809C295.226 247.846 295.877 247.073 296.723 246.489C297.581 245.905 298.559 245.587 299.657 245.536C300.755 245.485 301.753 245.711 302.65 246.214C303.558 246.716 304.283 247.426 304.825 248.342C305.366 249.247 305.662 250.26 305.715 251.381ZM303.507 251.483C303.472 250.725 303.287 250.047 302.953 249.45C302.618 248.842 302.171 248.369 301.611 248.032C301.051 247.695 300.431 247.542 299.752 247.574C299.061 247.606 298.453 247.816 297.926 248.203C297.41 248.579 297.014 249.085 296.737 249.722C296.472 250.358 296.357 251.056 296.392 251.814C296.427 252.572 296.606 253.256 296.93 253.865C297.264 254.474 297.706 254.947 298.255 255.284C298.815 255.61 299.44 255.757 300.13 255.725C300.81 255.693 301.412 255.483 301.939 255.096C302.466 254.708 302.868 254.202 303.145 253.576C303.421 252.94 303.542 252.242 303.507 251.483Z" fill="#F9F0DC"/>
<path d="M317.97 253.021C318.134 253.075 318.272 253.165 318.382 253.291C318.504 253.413 318.583 253.552 318.619 253.707C318.666 253.905 318.642 254.103 318.549 254.299C318.43 254.537 318.199 254.695 317.857 254.776C317.592 254.838 317.335 254.834 317.086 254.764C316.186 254.498 315.573 253.669 315.247 252.279C315.154 251.882 314.948 251.598 314.629 251.429C314.321 251.256 313.924 251.227 313.439 251.341L310.344 252.065L311.096 255.276C311.165 255.574 311.139 255.837 311.018 256.063C310.907 256.287 310.72 256.43 310.455 256.492C310.135 256.566 309.831 256.539 309.545 256.408C309.266 256.263 309.094 256.048 309.027 255.761L306.786 246.194C306.719 245.907 306.757 245.648 306.901 245.417C307.053 245.171 307.273 245.015 307.559 244.948L312.326 243.832C312.9 243.697 313.477 243.725 314.057 243.915C314.637 244.105 315.139 244.436 315.564 244.907C315.999 245.375 316.296 245.946 316.453 246.619C316.583 247.171 316.56 247.746 316.386 248.346C316.21 248.934 315.921 249.438 315.518 249.858C316.327 250.181 316.86 250.743 317.118 251.544C317.192 251.713 317.249 251.88 317.288 252.046C317.412 252.377 317.514 252.615 317.595 252.759C317.672 252.892 317.797 252.98 317.97 253.021ZM313.569 249.512C313.768 249.465 313.939 249.326 314.083 249.095C314.226 248.863 314.323 248.579 314.372 248.241C314.418 247.893 314.399 247.537 314.313 247.173C314.241 246.864 314.114 246.596 313.934 246.371C313.75 246.135 313.547 245.961 313.323 245.851C313.099 245.74 312.888 245.708 312.689 245.755L309.064 246.603L309.944 250.361L313.569 249.512Z" fill="#F9F0DC"/>
<path d="M327.033 248.999C327.304 248.883 327.566 248.875 327.819 248.976C328.078 249.062 328.265 249.241 328.381 249.512C328.493 249.772 328.493 250.031 328.382 250.289C328.276 250.531 328.088 250.711 327.817 250.827L322.739 253.004C322.469 253.12 322.201 253.13 321.938 253.033C321.681 252.922 321.494 252.73 321.378 252.46L317.505 243.429C317.389 243.158 317.387 242.894 317.498 242.637C317.606 242.369 317.805 242.172 318.097 242.047C318.357 241.936 318.621 241.933 318.889 242.041C319.152 242.137 319.342 242.321 319.458 242.592L322.955 250.747L327.033 248.999Z" fill="#F9F0DC"/>
<path d="M329.24 236.131C330.113 235.52 331.013 235.216 331.94 235.217C332.871 235.203 333.758 235.453 334.603 235.969C335.45 236.469 336.192 237.174 336.829 238.084C337.465 238.994 337.876 239.937 338.062 240.914C338.25 241.875 338.181 242.795 337.854 243.673C337.531 244.535 336.933 245.272 336.06 245.882L332.73 248.211C332.489 248.38 332.23 248.444 331.952 248.403C331.677 248.346 331.455 248.197 331.286 247.955L325.655 239.904C325.486 239.662 325.425 239.407 325.473 239.139C325.523 238.855 325.669 238.628 325.91 238.46L329.24 236.131ZM334.8 244.378C335.636 243.793 336.048 243.048 336.038 242.143C336.02 241.228 335.68 240.297 335.018 239.35C334.355 238.403 333.596 237.772 332.74 237.458C331.887 237.128 331.047 237.252 330.221 237.83L327.922 239.438L332.502 245.985L334.8 244.378Z" fill="#F9F0DC"/>
<path d="M291.169 241.035C269.041 239.099 252.28 223.274 253.813 205.759C255.345 188.244 274.599 175.57 296.727 177.506C318.855 179.442 335.616 195.266 334.083 212.782C332.551 230.297 313.297 242.971 291.169 241.035ZM296.515 179.925C275.718 178.105 257.648 189.786 256.232 205.971C254.816 222.155 270.583 236.796 291.381 238.616C312.178 240.435 330.248 228.755 331.664 212.57C333.08 196.385 317.313 181.745 296.515 179.925Z" fill="#1298D2"/>
<path d="M292.118 230.205C269.611 228.236 252.787 217.5 253.814 205.767C254.84 194.034 273.273 186.383 295.78 188.352C318.287 190.321 335.111 201.056 334.084 212.79C333.058 224.523 314.625 232.174 292.118 230.205ZM295.569 190.763C274.771 188.944 257.126 195.769 256.234 205.971C255.341 216.172 271.533 225.958 292.33 227.777C313.128 229.597 330.773 222.771 331.666 212.57C332.558 202.369 316.366 192.583 295.569 190.763Z" fill="#1298D2"/>
<path d="M293.035 219.707C273.093 217.962 253.213 212.615 253.812 205.768C254.411 198.922 274.917 197.108 294.86 198.853C314.802 200.598 334.682 205.945 334.083 212.791C333.484 219.638 312.978 221.452 293.035 219.707ZM294.648 201.272C271.278 199.228 256.524 202.633 256.232 205.98C255.939 209.327 269.877 215.243 293.247 217.288C316.617 219.332 331.371 215.926 331.664 212.58C331.956 209.233 318.018 203.317 294.648 201.272Z" fill="#F9F0DC"/>
<path d="M291.17 241.036C276.534 239.756 265.878 224.465 267.41 206.95C268.943 189.435 282.092 176.227 296.729 177.507C311.365 178.788 322.021 194.078 320.489 211.594C318.956 229.109 305.807 242.317 291.17 241.036ZM296.517 179.926C283.219 178.763 271.246 190.977 269.83 207.162C268.414 223.346 278.084 237.454 291.382 238.617C304.68 239.781 316.653 227.567 318.069 211.382C319.485 195.197 309.815 181.09 296.517 179.926Z" fill="#1298D2"/>
<path d="M291.17 241.037C284.057 240.414 279.705 225.976 281.264 208.162C282.822 190.348 289.615 176.885 296.728 177.507C303.84 178.13 308.192 192.568 306.634 210.382C305.075 228.195 298.282 241.659 291.17 241.037ZM296.516 179.927C291.662 179.502 285.197 191.076 283.683 208.374C282.17 225.671 286.527 238.193 291.381 238.617C296.236 239.042 302.701 227.468 304.214 210.17C305.728 192.872 301.371 180.351 296.516 179.927Z" fill="#F9F0DC"/>
<path d="M240.668 219.934C240.313 219.903 239.983 219.687 239.818 219.339C237.447 214.216 236.483 208.882 236.955 203.487C237.788 193.972 243.098 185.295 251.899 179.06C252.366 178.735 253.007 178.84 253.34 179.308C253.673 179.776 253.56 180.416 253.092 180.749C244.793 186.629 239.79 194.772 239.011 203.675C238.571 208.707 239.475 213.694 241.697 218.48C241.937 218.997 241.712 219.611 241.196 219.85C241.027 219.925 240.845 219.957 240.676 219.943L240.668 219.934Z" fill="#FF551D"/>
<path d="M342.898 228.878C342.72 228.863 342.555 228.808 342.402 228.697C341.935 228.372 341.82 227.728 342.146 227.261C345.166 222.926 346.922 218.179 347.363 213.139C348.077 204.97 345.121 196.683 339.037 189.788C338.66 189.357 338.701 188.711 339.132 188.334C339.555 187.957 340.209 187.998 340.586 188.429C347.048 195.747 350.183 204.586 349.419 213.319C348.946 218.722 347.071 223.807 343.838 228.441C343.616 228.754 343.253 228.909 342.898 228.878Z" fill="#FF551D"/>
<path d="M240.922 220.754C240.882 220.751 240.833 220.746 240.793 220.743L234.693 219.421C234.134 219.299 233.784 218.748 233.906 218.19C234.028 217.632 234.579 217.282 235.137 217.404L240.408 218.548L242.618 213.54C242.851 213.016 243.456 212.785 243.981 213.01C244.505 213.242 244.736 213.848 244.511 214.372L241.967 220.147C241.785 220.553 241.366 220.793 240.93 220.755L240.922 220.754Z" fill="#FF551D"/>
<path d="M337.529 195.028C337.481 195.024 337.433 195.02 337.385 195.007C336.828 194.877 336.486 194.327 336.616 193.77L337.948 188.02C338.052 187.566 338.447 187.235 338.912 187.218L345.205 186.989C345.784 186.966 346.256 187.414 346.272 187.984C346.295 188.555 345.846 189.036 345.276 189.051L339.766 189.251L338.614 194.237C338.497 194.747 338.021 195.079 337.521 195.036L337.529 195.028Z" fill="#FF551D"/>
</g>
<g>
<path d="M247.407 193.026C246.819 192.314 244.616 190.001 241.195 190.001C240.948 190.001 240.716 190.001 240.469 190.042C240.1 189.906 239.703 189.81 239.306 189.755L236.036 189.331C236.473 186.649 235.981 183.761 234.065 181.052C233.764 180.627 233.463 180.244 233.162 179.875C233.791 179.054 234.27 178.082 234.544 176.96C235.023 175.017 234.886 172.95 234.202 171.13C235.94 169.68 237.664 168.106 238.499 166.929C238.677 166.683 238.841 166.409 238.964 166.135C239.689 164.753 239.963 163.221 239.785 161.647C241.605 159.047 243.945 155.01 245.888 149.372C247.503 144.692 246.34 141.613 245.095 139.861C243.316 137.371 240.291 136.002 236.569 136.002C235.871 136.002 235.146 136.057 234.612 136.139H234.448C234.352 136.139 234.257 136.139 234.161 136.139C232.806 135.29 229.645 133.703 225.047 133.703C223.542 133.703 221.995 133.881 220.449 134.223C219.874 134.36 219.313 134.469 218.766 134.579C212.922 135.783 207.394 136.919 184.321 151.862C177.684 156.242 144.061 179.095 141.229 180.751C140.955 180.751 140.668 180.723 140.339 180.71L139.997 180.682C139.655 180.655 139.026 180.614 131.431 180.614C123.836 180.614 113.723 180.655 111.451 180.669C111.328 180.559 111.164 180.409 110.958 180.19C108.632 177.631 102.871 172.034 101.667 170.87C100.517 169.57 98.5876 168.366 96.097 168.366C94.7012 168.366 93.319 168.736 91.9916 169.475C89.501 170.857 86.4357 173.416 86.1072 173.703C84.383 175.154 83.7535 177.548 84.5472 179.656L85.2177 181.449L69.7815 181.38C68.7689 180.764 67.5783 180.436 66.292 180.436C64.1298 180.436 56.7401 181.777 51.4031 187.73C50.2126 189.071 49.761 190.918 50.2263 192.656C50.6915 194.394 51.9916 195.776 53.6885 196.351C54.8516 196.734 55.3853 196.939 55.4538 196.967C56.7949 197.487 58.2865 197.432 59.5865 196.844L83.2608 198.636C84.2735 199.8 85.7378 200.484 87.2978 200.484H89.0221C88.9126 201.921 89.3779 203.385 90.4042 204.507C91.499 205.711 93.0453 206.327 94.5917 206.231L95.4949 208.695L61.0918 210.241C61.0097 210.241 60.9276 210.241 60.8181 210.241C58.2454 210.241 56.138 210.802 54.5643 211.897L50.6778 214.606C48.8167 215.906 47.982 218.233 48.5978 220.422C49.2136 222.612 51.1431 224.158 53.4011 224.295L95.9328 226.868C96.9728 229.399 99.2992 233.108 104.869 233.108C109.07 233.108 130.199 231.26 143.432 226.047C153.244 222.174 159.292 218.725 161.865 217.124C164.068 216.81 166.053 215.564 167.503 213.635C168.612 213.06 170.404 212.17 172.402 211.185C172.471 211.213 172.553 211.254 172.621 211.281C172.826 211.363 173.032 211.431 173.251 211.486C173.456 212.8 173.921 214.045 174.633 215.126C176.056 217.261 178.355 218.547 180.805 218.561C181.379 218.999 182.091 219.382 182.967 219.67C183.035 219.697 183.117 219.711 183.186 219.752C184.144 220.231 185.156 220.477 186.21 220.477C188.495 220.477 192.628 219.314 194.722 211.568C194.763 211.404 194.804 211.24 194.845 211.076C195.201 210.829 195.529 210.542 195.817 210.214C196.692 210.734 197.705 211.021 198.772 211.021C200.661 211.021 202.289 210.118 203.63 209.242C204.356 208.763 204.999 208.339 205.56 207.942C206.518 209.735 208.379 210.857 210.459 210.857C212.183 210.857 213.73 210.118 215.81 208.859C217.534 207.805 218.848 206.998 219.71 206.423L220.668 206.19C221.53 205.971 222.31 205.547 222.967 204.959L230.397 205.013C230.397 205.013 230.439 205.096 230.466 205.123C231.451 206.806 233.285 207.86 235.256 207.86C236.405 207.86 237.513 207.531 238.649 206.82C240.716 205.52 245.752 201.346 246.737 200.525C247.818 199.622 248.502 198.322 248.639 196.912C248.762 195.503 248.324 194.093 247.421 193.012L247.407 193.026Z" fill="white"/>
<path d="M231.572 140.831C231.572 140.831 227.823 138.012 221.596 139.422C215.384 140.831 211.853 140.352 187.221 156.322C175.479 164.068 147.919 183.076 143.581 185.539C142.294 186.237 141.35 186.114 139.585 186.018C137.819 185.895 110.97 186.018 110.97 186.018C110.97 186.018 109.438 186.483 106.974 183.787C104.511 181.078 97.7098 174.509 97.7098 174.509C97.7098 174.509 96.6561 172.976 94.535 174.153C92.4276 175.33 89.4854 177.793 89.4854 177.793L92.8928 186.825L67.3163 186.716C67.3163 186.716 67.4395 185.771 66.2626 185.771C65.0858 185.771 59.3382 186.825 55.356 191.286C56.7655 191.752 57.354 191.984 57.354 191.984L58.4077 191.396L87.8569 193.626L87.2685 195.145H96.1771L96.9982 197.02L94.3023 200.893L97.5866 199.018L102.978 213.688L61.0899 215.563C61.0899 215.563 58.7498 215.44 57.5729 216.261C56.396 217.082 53.7139 218.957 53.7139 218.957L98.2846 221.652C98.2846 221.652 99.8172 221.652 100.406 223.527C100.994 225.402 101.692 227.756 104.867 227.756C108.042 227.756 128.678 226.114 141.473 221.064C154.255 216.014 175.835 203.342 175.835 203.342C175.835 203.342 178.531 201.7 179.366 201.7C180.2 201.7 184.402 201.591 184.402 201.591L183.348 205.819C183.348 205.819 180.543 203.945 178.887 207.817C177.245 211.69 180.543 215.563 183.457 211.444C183.567 214.961 183.923 214.153 185.565 214.961C187.207 215.782 188.726 213.195 189.561 210.157C190.382 207.106 187.221 206.64 186.509 207.352C186.153 206.64 185.797 206.175 186.386 204.287C187.563 205.231 188.849 206.408 188.849 206.408C188.849 206.408 190.833 205.819 191.778 206.64L191.312 205.34C191.312 205.34 193.885 204.752 197.169 202.179C199.509 201.823 200.221 201.591 200.221 201.591L198.688 204.41C198.688 204.41 197.279 206.996 200.686 204.766C204.094 202.535 205.257 201.481 205.257 201.481L212.181 201.358L210.416 204.875C210.416 204.875 209.13 206.64 213.002 204.287C216.875 201.947 217.464 201.468 217.464 201.468L219.338 201.002L220.406 199.593L236.006 199.716C236.006 199.716 233.885 203.466 235.774 202.302C237.648 201.126 243.286 196.432 243.286 196.432C243.286 196.432 242.11 195.036 240.7 195.378C239.291 195.734 238.593 195.022 238.593 195.022L227.686 193.613C227.686 193.613 233.078 188.919 229.67 184.102C226.276 179.299 221.46 178.573 216.068 181.748C210.676 184.909 205.982 187.852 205.982 187.852L201.412 184.335L223.594 169.323L223.827 171.553C223.827 171.553 222.541 172.032 222.541 174.605C222.541 177.178 225.346 178.354 225.825 176.138C226.523 177.191 228.753 178.012 229.342 175.659C229.93 173.305 228.398 170.499 226.646 171.553C225.825 171.197 225.346 168.625 225.346 168.625L226.755 168.159L227.577 169.569C227.577 169.569 232.982 165.464 234.145 163.821C234.145 163.698 235.076 162.768 233.912 160.537C235.199 159.004 238.374 154.79 240.837 147.633C243.3 140.475 235.91 141.297 235.322 141.42C234.734 141.529 232.859 141.42 232.859 141.42C232.859 141.42 232.626 141.762 231.559 140.831H231.572Z" fill="#FF551D"/>
</g>
<defs>
<filter id="filter0_d_935_36612" x="215.175" y="147.145" width="157.545" height="128.378" filterUnits="userSpaceOnUse" color-interpolation-filters="sRGB">
<feFlood flood-opacity="0" result="BackgroundImageFix"/>
<feColorMatrix in="SourceAlpha" type="matrix" values="0 0 0 0 0 0 0 0 0 0 0 0 0 0 0 0 0 0 127 0" result="hardAlpha"/>
<feOffset dy="2.0565"/>
<feGaussianBlur stdDeviation="1.02825"/>
<feComposite in2="hardAlpha" operator="out"/>
<feColorMatrix type="matrix" values="0 0 0 0 0 0 0 0 0 0 0 0 0 0 0 0 0 0 0.25 0"/>
<feBlend mode="normal" in2="BackgroundImageFix" result="effect1_dropShadow_935_36612"/>
<feBlend mode="normal" in="SourceGraphic" in2="effect1_dropShadow_935_36612" result="shape"/>
</filter>
<filter id="filter1_d_935_36612" x="44.9192" y="131.225" width="205.218" height="104.361" filterUnits="userSpaceOnUse" color-interpolation-filters="sRGB">
<feFlood flood-opacity="0" result="BackgroundImageFix"/>
<feColorMatrix in="SourceAlpha" type="matrix" values="0 0 0 0 0 0 0 0 0 0 0 0 0 0 0 0 0 0 127 0" result="hardAlpha"/>
<feOffset dx="-1"/>
<feGaussianBlur stdDeviation="1.23913"/>
<feComposite in2="hardAlpha" operator="out"/>
<feColorMatrix type="matrix" values="0 0 0 0 0 0 0 0 0 0 0 0 0 0 0 0 0 0 0.25 0"/>
<feBlend mode="normal" in2="BackgroundImageFix" result="effect1_dropShadow_935_36612"/>
<feBlend mode="normal" in="SourceGraphic" in2="effect1_dropShadow_935_36612" result="shape"/>
</filter>
</defs>
</svg>
