<svg width="351" height="457" viewBox="0 0 351 457" fill="none" xmlns="http://www.w3.org/2000/svg">
<g>
<mask id="path-1-outside-1_935_36482" maskUnits="userSpaceOnUse" x="-10.6839" y="-11.4526" width="461.434" height="478.948" fill="black">
<rect fill="white" x="-10.6839" y="-11.4526" width="461.434" height="478.948"/>
<path d="M226.964 38.069C229.229 36.9586 230 38.0839 230.245 39.2835C230.442 40.2548 230.27 41.2679 229.832 42.1545L223.148 55.7174C227.265 51.2828 229.093 54.4797 229.093 54.4797C229.099 54.5192 229.105 54.5588 229.11 54.5984C229.113 54.5877 229.115 54.5823 229.115 54.5823C230.015 60.0097 220.601 66.4564 218.233 67.9833C217.949 68.1666 217.766 68.2786 217.715 68.3099L239.546 118.123L239.541 118.125C239.539 118.133 239.538 118.141 239.536 118.149L239.567 118.22C239.56 118.263 239.551 118.306 239.543 118.349C239.597 118.449 239.646 118.553 239.691 118.662C239.695 118.515 239.699 118.368 239.702 118.219L242.373 123.87C251.929 122.548 260.469 128.645 260.469 128.645C262.3 129.808 264.273 130.806 266.184 131.646C267.142 125.508 274.468 129.098 274.468 129.098C280.056 124.777 286.426 129.939 286.426 129.939C293.923 135.788 290.161 142.476 290.146 142.501L290.351 142.992C291.262 145.175 291.19 147.678 290.03 149.738C288.307 152.794 285.464 152.822 284.621 152.757C284.156 155.058 284.408 157.38 285.47 159.558C286.555 161.785 288.791 163.101 291.061 164.202C292.217 164.714 293.402 165.189 294.504 165.774C296.221 166.684 297.669 167.866 298.851 169.24C301.78 172.426 303.237 176.648 302.785 181.324C302.606 185.144 301.286 188.955 298.841 192.02C289.458 203.786 277.222 200.289 273.101 198.639L274.439 203.164L298.006 211.079C298.008 211.079 298.01 211.079 298.012 211.078L297.116 212.696L309.533 218.131C309.535 218.132 309.888 218.265 310.447 218.56C313.384 220.095 322.322 226.267 315.111 241.878L314.235 243.753C314.272 243.636 314.31 243.52 314.348 243.403L290.836 293.823C292.871 295.516 294.143 297.469 294.111 299.701C294.111 299.701 295.367 307.09 284.312 311.293C284.401 312.02 284.447 312.809 284.433 313.66L284.509 313.665C284.569 314.959 284.524 316.287 284.37 317.617C295.36 320.074 316.411 327.057 313.473 344.147C313.778 345.119 313.868 345.681 313.868 345.681C311.528 355.477 308.066 356.19 307.852 356.225C307.848 356.258 307.845 356.291 307.841 356.323C307.841 356.323 304.903 359.783 297.196 358.733L308.999 376.163C309.747 377.267 309.432 378.705 308.432 379.437C308.811 380.667 308.134 382.048 306.816 382.436L297.05 385.299L315.974 412.773L296.613 394.324L303.916 408.332L288.133 396.268L291.474 405.836L277.445 391.048L240.121 401.993L259.515 430.15L240.153 411.702L247.456 425.709L231.673 413.646L235.014 423.213L220.376 407.783L204.766 412.361C198.663 414.152 192.084 412.047 188.155 407.05L46.6309 227.099C45.2492 225.342 45.3228 223.018 46.4851 221.369C46.5447 219.471 47.7294 217.657 49.7292 216.976L49.7253 216.974L163.405 178.191C168.259 175.655 174.245 177.164 177.317 181.699L190.22 200.753C190.539 200.675 190.885 200.593 191.255 200.508C190.942 199.793 190.639 198.717 190.575 198.514C189.801 196.127 189.924 193.586 190.472 191.167C188.853 188.962 187.645 186.304 187.702 183.594C187.747 181.417 188.823 179.46 190.395 178.017C190.062 178.1 190.031 178.054 190.411 177.796C203.958 168.583 220.605 161.206 236.159 153.18L222.884 143.204C222.886 143.203 222.924 143.198 222.994 143.189C220.938 141.266 221.753 135.444 224.906 129.244L198.499 64.0306C197.655 61.9371 197.686 59.5908 198.59 57.5251L205.351 42.078C206.813 39.1787 208.993 39.6458 209.005 39.6485C211.329 39.8067 210.761 43.0787 210.757 43.1027L212.731 38.5922C214.765 35.4669 216.509 36.5008 216.52 36.5076C218.351 36.9265 217.941 39.6232 217.941 39.6232C220.372 34.0681 223.337 35.8453 223.337 35.8453C225.913 36.9732 223.839 42.5876 223.839 42.5876L224.814 40.359C225.246 39.3726 225.996 38.5439 226.964 38.069ZM245.775 225.033C245.284 224.829 244.792 224.622 244.299 224.412C243.992 230.608 240.72 238.387 228.713 244.467C227.143 245.962 225.14 247.358 222.593 248.561L226.523 254.365C228.69 252.6 232.768 249.607 237.607 247.681C240.289 241.355 243.418 233.258 245.775 225.033ZM286.365 232.113L283.82 236.709C283.82 236.707 283.819 236.691 283.817 236.662C283.817 236.679 283.818 236.696 283.818 236.712C283.791 236.707 278.621 235.755 270.696 233.565C270.673 233.69 270.651 233.816 270.628 233.941C270.529 234.479 270.425 235.024 270.319 235.576C270.273 235.819 270.226 236.064 270.178 236.309C270.148 236.463 270.118 236.617 270.087 236.772C270.038 237.024 269.988 237.277 269.937 237.531C269.924 237.598 269.91 237.664 269.897 237.731C269.752 238.45 269.602 239.179 269.446 239.918C269.411 240.083 269.376 240.248 269.341 240.413C269.276 240.715 269.211 241.018 269.145 241.323C269.135 241.369 269.125 241.414 269.115 241.459C269.032 241.84 268.948 242.224 268.861 242.61C268.843 242.694 268.824 242.778 268.805 242.863C268.727 243.208 268.649 243.555 268.569 243.904C268.552 243.977 268.536 244.049 268.519 244.121C268.442 244.455 268.365 244.79 268.286 245.127C268.25 245.278 268.214 245.429 268.179 245.581C268.115 245.852 268.05 246.123 267.984 246.396C267.943 246.566 267.902 246.737 267.86 246.909C267.795 247.179 267.729 247.449 267.662 247.721C267.612 247.923 267.562 248.125 267.511 248.328C267.442 248.604 267.372 248.881 267.302 249.159C267.251 249.36 267.2 249.562 267.149 249.764C267.087 250.003 267.025 250.244 266.963 250.485C266.913 250.676 266.863 250.868 266.813 251.06C266.747 251.313 266.679 251.568 266.612 251.823C266.553 252.044 266.494 252.264 266.434 252.486C266.374 252.709 266.314 252.932 266.253 253.156C266.182 253.42 266.109 253.685 266.036 253.95C265.967 254.199 265.897 254.449 265.827 254.7C265.77 254.904 265.713 255.11 265.655 255.315C265.587 255.555 265.519 255.794 265.45 256.035C265.38 256.282 265.309 256.529 265.237 256.777C265.212 256.863 265.188 256.948 265.164 257.034C265.114 257.205 265.063 257.375 265.012 257.547C264.946 257.771 264.881 257.996 264.814 258.222C264.792 258.293 264.772 258.365 264.751 258.437C264.706 258.587 264.66 258.737 264.615 258.887C264.534 259.155 264.454 259.424 264.372 259.693C264.353 259.757 264.334 259.821 264.314 259.886C264.273 260.021 264.23 260.155 264.189 260.291C264.093 260.602 263.997 260.914 263.9 261.227C263.854 261.374 263.807 261.522 263.761 261.669C263.659 261.993 263.557 262.318 263.453 262.644C263.392 262.834 263.331 263.024 263.269 263.215C263.268 263.345 263.266 263.475 263.261 263.606C263.288 263.912 263.23 264.403 263.199 264.717C263.166 265.121 263.114 265.554 263.05 265.991C264.201 266.077 265.96 266.399 267.661 267.46L267.704 267.386C269.638 268.461 271.094 270.114 272.104 272.038L287.942 231.102L286.365 232.113ZM206.624 176.839C206.263 176.715 205.88 176.594 205.477 176.481C205.871 176.607 206.268 176.732 206.624 176.839ZM297.978 211.088C297.794 211.128 296.844 211.354 295.516 211.996L295.543 212.008C296.305 211.656 297.115 211.347 297.978 211.088ZM237.201 131.292C236.862 131.971 236.495 132.656 236.1 133.342C235.38 134.591 234.616 135.76 233.829 136.831C235.077 135.351 236.242 133.53 237.201 131.292Z"/>
</mask>
<path d="M226.964 38.069C229.229 36.9586 230 38.0839 230.245 39.2835C230.442 40.2548 230.27 41.2679 229.832 42.1545L223.148 55.7174C227.265 51.2828 229.093 54.4797 229.093 54.4797C229.099 54.5192 229.105 54.5588 229.11 54.5984C229.113 54.5877 229.115 54.5823 229.115 54.5823C230.015 60.0097 220.601 66.4564 218.233 67.9833C217.949 68.1666 217.766 68.2786 217.715 68.3099L239.546 118.123L239.541 118.125C239.539 118.133 239.538 118.141 239.536 118.149L239.567 118.22C239.56 118.263 239.551 118.306 239.543 118.349C239.597 118.449 239.646 118.553 239.691 118.662C239.695 118.515 239.699 118.368 239.702 118.219L242.373 123.87C251.929 122.548 260.469 128.645 260.469 128.645C262.3 129.808 264.273 130.806 266.184 131.646C267.142 125.508 274.468 129.098 274.468 129.098C280.056 124.777 286.426 129.939 286.426 129.939C293.923 135.788 290.161 142.476 290.146 142.501L290.351 142.992C291.262 145.175 291.19 147.678 290.03 149.738C288.307 152.794 285.464 152.822 284.621 152.757C284.156 155.058 284.408 157.38 285.47 159.558C286.555 161.785 288.791 163.101 291.061 164.202C292.217 164.714 293.402 165.189 294.504 165.774C296.221 166.684 297.669 167.866 298.851 169.24C301.78 172.426 303.237 176.648 302.785 181.324C302.606 185.144 301.286 188.955 298.841 192.02C289.458 203.786 277.222 200.289 273.101 198.639L274.439 203.164L298.006 211.079C298.008 211.079 298.01 211.079 298.012 211.078L297.116 212.696L309.533 218.131C309.535 218.132 309.888 218.265 310.447 218.56C313.384 220.095 322.322 226.267 315.111 241.878L314.235 243.753C314.272 243.636 314.31 243.52 314.348 243.403L290.836 293.823C292.871 295.516 294.143 297.469 294.111 299.701C294.111 299.701 295.367 307.09 284.312 311.293C284.401 312.02 284.447 312.809 284.433 313.66L284.509 313.665C284.569 314.959 284.524 316.287 284.37 317.617C295.36 320.074 316.411 327.057 313.473 344.147C313.778 345.119 313.868 345.681 313.868 345.681C311.528 355.477 308.066 356.19 307.852 356.225C307.848 356.258 307.845 356.291 307.841 356.323C307.841 356.323 304.903 359.783 297.196 358.733L308.999 376.163C309.747 377.267 309.432 378.705 308.432 379.437C308.811 380.667 308.134 382.048 306.816 382.436L297.05 385.299L315.974 412.773L296.613 394.324L303.916 408.332L288.133 396.268L291.474 405.836L277.445 391.048L240.121 401.993L259.515 430.15L240.153 411.702L247.456 425.709L231.673 413.646L235.014 423.213L220.376 407.783L204.766 412.361C198.663 414.152 192.084 412.047 188.155 407.05L46.6309 227.099C45.2492 225.342 45.3228 223.018 46.4851 221.369C46.5447 219.471 47.7294 217.657 49.7292 216.976L49.7253 216.974L163.405 178.191C168.259 175.655 174.245 177.164 177.317 181.699L190.22 200.753C190.539 200.675 190.885 200.593 191.255 200.508C190.942 199.793 190.639 198.717 190.575 198.514C189.801 196.127 189.924 193.586 190.472 191.167C188.853 188.962 187.645 186.304 187.702 183.594C187.747 181.417 188.823 179.46 190.395 178.017C190.062 178.1 190.031 178.054 190.411 177.796C203.958 168.583 220.605 161.206 236.159 153.18L222.884 143.204C222.886 143.203 222.924 143.198 222.994 143.189C220.938 141.266 221.753 135.444 224.906 129.244L198.499 64.0306C197.655 61.9371 197.686 59.5908 198.59 57.5251L205.351 42.078C206.813 39.1787 208.993 39.6458 209.005 39.6485C211.329 39.8067 210.761 43.0787 210.757 43.1027L212.731 38.5922C214.765 35.4669 216.509 36.5008 216.52 36.5076C218.351 36.9265 217.941 39.6232 217.941 39.6232C220.372 34.0681 223.337 35.8453 223.337 35.8453C225.913 36.9732 223.839 42.5876 223.839 42.5876L224.814 40.359C225.246 39.3726 225.996 38.5439 226.964 38.069ZM245.775 225.033C245.284 224.829 244.792 224.622 244.299 224.412C243.992 230.608 240.72 238.387 228.713 244.467C227.143 245.962 225.14 247.358 222.593 248.561L226.523 254.365C228.69 252.6 232.768 249.607 237.607 247.681C240.289 241.355 243.418 233.258 245.775 225.033ZM286.365 232.113L283.82 236.709C283.82 236.707 283.819 236.691 283.817 236.662C283.817 236.679 283.818 236.696 283.818 236.712C283.791 236.707 278.621 235.755 270.696 233.565C270.673 233.69 270.651 233.816 270.628 233.941C270.529 234.479 270.425 235.024 270.319 235.576C270.273 235.819 270.226 236.064 270.178 236.309C270.148 236.463 270.118 236.617 270.087 236.772C270.038 237.024 269.988 237.277 269.937 237.531C269.924 237.598 269.91 237.664 269.897 237.731C269.752 238.45 269.602 239.179 269.446 239.918C269.411 240.083 269.376 240.248 269.341 240.413C269.276 240.715 269.211 241.018 269.145 241.323C269.135 241.369 269.125 241.414 269.115 241.459C269.032 241.84 268.948 242.224 268.861 242.61C268.843 242.694 268.824 242.778 268.805 242.863C268.727 243.208 268.649 243.555 268.569 243.904C268.552 243.977 268.536 244.049 268.519 244.121C268.442 244.455 268.365 244.79 268.286 245.127C268.25 245.278 268.214 245.429 268.179 245.581C268.115 245.852 268.05 246.123 267.984 246.396C267.943 246.566 267.902 246.737 267.86 246.909C267.795 247.179 267.729 247.449 267.662 247.721C267.612 247.923 267.562 248.125 267.511 248.328C267.442 248.604 267.372 248.881 267.302 249.159C267.251 249.36 267.2 249.562 267.149 249.764C267.087 250.003 267.025 250.244 266.963 250.485C266.913 250.676 266.863 250.868 266.813 251.06C266.747 251.313 266.679 251.568 266.612 251.823C266.553 252.044 266.494 252.264 266.434 252.486C266.374 252.709 266.314 252.932 266.253 253.156C266.182 253.42 266.109 253.685 266.036 253.95C265.967 254.199 265.897 254.449 265.827 254.7C265.77 254.904 265.713 255.11 265.655 255.315C265.587 255.555 265.519 255.794 265.45 256.035C265.38 256.282 265.309 256.529 265.237 256.777C265.212 256.863 265.188 256.948 265.164 257.034C265.114 257.205 265.063 257.375 265.012 257.547C264.946 257.771 264.881 257.996 264.814 258.222C264.792 258.293 264.772 258.365 264.751 258.437C264.706 258.587 264.66 258.737 264.615 258.887C264.534 259.155 264.454 259.424 264.372 259.693C264.353 259.757 264.334 259.821 264.314 259.886C264.273 260.021 264.23 260.155 264.189 260.291C264.093 260.602 263.997 260.914 263.9 261.227C263.854 261.374 263.807 261.522 263.761 261.669C263.659 261.993 263.557 262.318 263.453 262.644C263.392 262.834 263.331 263.024 263.269 263.215C263.268 263.345 263.266 263.475 263.261 263.606C263.288 263.912 263.23 264.403 263.199 264.717C263.166 265.121 263.114 265.554 263.05 265.991C264.201 266.077 265.96 266.399 267.661 267.46L267.704 267.386C269.638 268.461 271.094 270.114 272.104 272.038L287.942 231.102L286.365 232.113ZM206.624 176.839C206.263 176.715 205.88 176.594 205.477 176.481C205.871 176.607 206.268 176.732 206.624 176.839ZM297.978 211.088C297.794 211.128 296.844 211.354 295.516 211.996L295.543 212.008C296.305 211.656 297.115 211.347 297.978 211.088ZM237.201 131.292C236.862 131.971 236.495 132.656 236.1 133.342C235.38 134.591 234.616 135.76 233.829 136.831C235.077 135.351 236.242 133.53 237.201 131.292Z" fill="white"/>
<path d="M226.964 38.069C229.229 36.9586 230 38.0839 230.245 39.2835C230.442 40.2548 230.27 41.2679 229.832 42.1545L223.148 55.7174C227.265 51.2828 229.093 54.4797 229.093 54.4797C229.099 54.5192 229.105 54.5588 229.11 54.5984C229.113 54.5877 229.115 54.5823 229.115 54.5823C230.015 60.0097 220.601 66.4564 218.233 67.9833C217.949 68.1666 217.766 68.2786 217.715 68.3099L239.546 118.123L239.541 118.125C239.539 118.133 239.538 118.141 239.536 118.149L239.567 118.22C239.56 118.263 239.551 118.306 239.543 118.349C239.597 118.449 239.646 118.553 239.691 118.662C239.695 118.515 239.699 118.368 239.702 118.219L242.373 123.87C251.929 122.548 260.469 128.645 260.469 128.645C262.3 129.808 264.273 130.806 266.184 131.646C267.142 125.508 274.468 129.098 274.468 129.098C280.056 124.777 286.426 129.939 286.426 129.939C293.923 135.788 290.161 142.476 290.146 142.501L290.351 142.992C291.262 145.175 291.19 147.678 290.03 149.738C288.307 152.794 285.464 152.822 284.621 152.757C284.156 155.058 284.408 157.38 285.47 159.558C286.555 161.785 288.791 163.101 291.061 164.202C292.217 164.714 293.402 165.189 294.504 165.774C296.221 166.684 297.669 167.866 298.851 169.24C301.78 172.426 303.237 176.648 302.785 181.324C302.606 185.144 301.286 188.955 298.841 192.02C289.458 203.786 277.222 200.289 273.101 198.639L274.439 203.164L298.006 211.079C298.008 211.079 298.01 211.079 298.012 211.078L297.116 212.696L309.533 218.131C309.535 218.132 309.888 218.265 310.447 218.56C313.384 220.095 322.322 226.267 315.111 241.878L314.235 243.753C314.272 243.636 314.31 243.52 314.348 243.403L290.836 293.823C292.871 295.516 294.143 297.469 294.111 299.701C294.111 299.701 295.367 307.09 284.312 311.293C284.401 312.02 284.447 312.809 284.433 313.66L284.509 313.665C284.569 314.959 284.524 316.287 284.37 317.617C295.36 320.074 316.411 327.057 313.473 344.147C313.778 345.119 313.868 345.681 313.868 345.681C311.528 355.477 308.066 356.19 307.852 356.225C307.848 356.258 307.845 356.291 307.841 356.323C307.841 356.323 304.903 359.783 297.196 358.733L308.999 376.163C309.747 377.267 309.432 378.705 308.432 379.437C308.811 380.667 308.134 382.048 306.816 382.436L297.05 385.299L315.974 412.773L296.613 394.324L303.916 408.332L288.133 396.268L291.474 405.836L277.445 391.048L240.121 401.993L259.515 430.15L240.153 411.702L247.456 425.709L231.673 413.646L235.014 423.213L220.376 407.783L204.766 412.361C198.663 414.152 192.084 412.047 188.155 407.05L46.6309 227.099C45.2492 225.342 45.3228 223.018 46.4851 221.369C46.5447 219.471 47.7294 217.657 49.7292 216.976L49.7253 216.974L163.405 178.191C168.259 175.655 174.245 177.164 177.317 181.699L190.22 200.753C190.539 200.675 190.885 200.593 191.255 200.508C190.942 199.793 190.639 198.717 190.575 198.514C189.801 196.127 189.924 193.586 190.472 191.167C188.853 188.962 187.645 186.304 187.702 183.594C187.747 181.417 188.823 179.46 190.395 178.017C190.062 178.1 190.031 178.054 190.411 177.796C203.958 168.583 220.605 161.206 236.159 153.18L222.884 143.204C222.886 143.203 222.924 143.198 222.994 143.189C220.938 141.266 221.753 135.444 224.906 129.244L198.499 64.0306C197.655 61.9371 197.686 59.5908 198.59 57.5251L205.351 42.078C206.813 39.1787 208.993 39.6458 209.005 39.6485C211.329 39.8067 210.761 43.0787 210.757 43.1027L212.731 38.5922C214.765 35.4669 216.509 36.5008 216.52 36.5076C218.351 36.9265 217.941 39.6232 217.941 39.6232C220.372 34.0681 223.337 35.8453 223.337 35.8453C225.913 36.9732 223.839 42.5876 223.839 42.5876L224.814 40.359C225.246 39.3726 225.996 38.5439 226.964 38.069ZM245.775 225.033C245.284 224.829 244.792 224.622 244.299 224.412C243.992 230.608 240.72 238.387 228.713 244.467C227.143 245.962 225.14 247.358 222.593 248.561L226.523 254.365C228.69 252.6 232.768 249.607 237.607 247.681C240.289 241.355 243.418 233.258 245.775 225.033ZM286.365 232.113L283.82 236.709C283.82 236.707 283.819 236.691 283.817 236.662C283.817 236.679 283.818 236.696 283.818 236.712C283.791 236.707 278.621 235.755 270.696 233.565C270.673 233.69 270.651 233.816 270.628 233.941C270.529 234.479 270.425 235.024 270.319 235.576C270.273 235.819 270.226 236.064 270.178 236.309C270.148 236.463 270.118 236.617 270.087 236.772C270.038 237.024 269.988 237.277 269.937 237.531C269.924 237.598 269.91 237.664 269.897 237.731C269.752 238.45 269.602 239.179 269.446 239.918C269.411 240.083 269.376 240.248 269.341 240.413C269.276 240.715 269.211 241.018 269.145 241.323C269.135 241.369 269.125 241.414 269.115 241.459C269.032 241.84 268.948 242.224 268.861 242.61C268.843 242.694 268.824 242.778 268.805 242.863C268.727 243.208 268.649 243.555 268.569 243.904C268.552 243.977 268.536 244.049 268.519 244.121C268.442 244.455 268.365 244.79 268.286 245.127C268.25 245.278 268.214 245.429 268.179 245.581C268.115 245.852 268.05 246.123 267.984 246.396C267.943 246.566 267.902 246.737 267.86 246.909C267.795 247.179 267.729 247.449 267.662 247.721C267.612 247.923 267.562 248.125 267.511 248.328C267.442 248.604 267.372 248.881 267.302 249.159C267.251 249.36 267.2 249.562 267.149 249.764C267.087 250.003 267.025 250.244 266.963 250.485C266.913 250.676 266.863 250.868 266.813 251.06C266.747 251.313 266.679 251.568 266.612 251.823C266.553 252.044 266.494 252.264 266.434 252.486C266.374 252.709 266.314 252.932 266.253 253.156C266.182 253.42 266.109 253.685 266.036 253.95C265.967 254.199 265.897 254.449 265.827 254.7C265.77 254.904 265.713 255.11 265.655 255.315C265.587 255.555 265.519 255.794 265.45 256.035C265.38 256.282 265.309 256.529 265.237 256.777C265.212 256.863 265.188 256.948 265.164 257.034C265.114 257.205 265.063 257.375 265.012 257.547C264.946 257.771 264.881 257.996 264.814 258.222C264.792 258.293 264.772 258.365 264.751 258.437C264.706 258.587 264.66 258.737 264.615 258.887C264.534 259.155 264.454 259.424 264.372 259.693C264.353 259.757 264.334 259.821 264.314 259.886C264.273 260.021 264.23 260.155 264.189 260.291C264.093 260.602 263.997 260.914 263.9 261.227C263.854 261.374 263.807 261.522 263.761 261.669C263.659 261.993 263.557 262.318 263.453 262.644C263.392 262.834 263.331 263.024 263.269 263.215C263.268 263.345 263.266 263.475 263.261 263.606C263.288 263.912 263.23 264.403 263.199 264.717C263.166 265.121 263.114 265.554 263.05 265.991C264.201 266.077 265.96 266.399 267.661 267.46L267.704 267.386C269.638 268.461 271.094 270.114 272.104 272.038L287.942 231.102L286.365 232.113ZM206.624 176.839C206.263 176.715 205.88 176.594 205.477 176.481C205.871 176.607 206.268 176.732 206.624 176.839ZM297.978 211.088C297.794 211.128 296.844 211.354 295.516 211.996L295.543 212.008C296.305 211.656 297.115 211.347 297.978 211.088ZM237.201 131.292C236.862 131.971 236.495 132.656 236.1 133.342C235.38 134.591 234.616 135.76 233.829 136.831C235.077 135.351 236.242 133.53 237.201 131.292Z" stroke="white" stroke-width="16" stroke-linejoin="round" mask="url(#path-1-outside-1_935_36482)"/>
</g>
<path d="M276.779 390.346L291.474 405.836L288.133 396.268L303.916 408.332L296.613 394.325L315.975 412.773L295.607 383.203L276.779 390.346Z" fill="#FF551D"/>
<path d="M279.308 389.393L292.886 384.195L300.7 394.429L291.247 389.393L292.845 394.833L284.98 389.337L284.632 394.05L279.308 389.393Z" fill="#F9C30C"/>
<path d="M220.319 407.724L235.014 423.214L231.673 413.646L247.456 425.709L240.153 411.702L259.515 430.151L239.147 400.58L220.319 407.724Z" fill="#FF551D"/>
<path d="M222.849 406.771L236.426 401.573L244.24 411.806L234.787 406.771L236.385 412.211L228.52 406.714L228.172 411.427L222.849 406.771Z" fill="#F9C30C"/>
<path d="M298.012 211.078L283.82 236.71C283.82 236.71 282.37 215.737 298.012 211.078Z" fill="#171717"/>
<path d="M288.457 208.906L309.533 218.131C309.533 218.131 323.6 223.389 315.07 241.856L289.54 296.603C289.54 296.603 273.863 294.001 265.761 288.435L287.943 231.102L282.331 234.698L276.086 233.085L288.463 208.904L288.457 208.906Z" fill="#F9F0DC"/>
<path d="M305.364 216.578C309.467 218.66 313.638 220.854 315.662 225.211C318.41 231.129 316.256 237.525 314.235 243.753L315.111 241.878C323.641 223.412 309.574 218.153 309.574 218.153L289.435 209.338C294.706 211.839 300.159 213.945 305.362 216.582L305.364 216.578Z" fill="#FF551D"/>
<path d="M250.077 194.983L298.009 211.081C298.009 211.081 283.612 213.907 283.817 236.713C283.817 236.713 260.436 232.42 236.775 221.004L250.073 194.981L250.077 194.983Z" fill="#FF551D"/>
<path d="M207.932 177.141C207.777 177.294 203.567 175.834 203.174 175.754C200.073 175.129 196.695 174.937 193.672 176.03C190.503 177.173 187.774 180.1 187.702 183.594C187.629 187.089 189.658 190.498 191.96 192.958C191.96 192.958 207.925 177.147 207.931 177.144L207.932 177.141Z" fill="#171717"/>
<path d="M256.668 221.287C267.692 222.777 277.139 220.212 277.768 215.558C278.398 210.903 269.971 205.921 258.947 204.431C247.922 202.941 238.475 205.506 237.846 210.161C237.217 214.815 245.644 219.797 256.668 221.287Z" fill="#171717"/>
<path d="M236.1 133.342C240.274 126.098 241.369 118.906 238.546 117.28C235.723 115.653 230.051 120.207 225.877 127.452C221.703 134.696 220.608 141.888 223.431 143.514C226.254 145.141 231.926 140.587 236.1 133.342Z" fill="#171717"/>
<path d="M276.32 135.085C276.32 135.085 267.382 133.04 260.469 128.645C260.469 128.645 251.461 122.213 241.596 123.993L271.677 198.002C271.677 198.002 287.386 206.385 298.841 192.02C305.265 183.967 303.933 170.772 294.504 165.774C291.365 164.11 287.553 163.34 285.655 160.043C284.067 157.288 284.002 154.046 285.078 151.092C285.078 151.092 292.795 137.769 276.32 135.085Z" fill="#2A82F7"/>
<path d="M296.998 167.521C296.022 166.748 294.944 166.064 293.76 165.482C290.791 164.021 286.995 162.687 285.47 159.558C284.139 156.827 284.079 153.869 285.113 151.012C285.113 151.012 289.493 143.447 284.604 138.569C286.407 140.367 284.053 147.482 283.43 149.602C282.397 153.109 280.555 156.876 281.899 160.566C283.709 165.53 290.037 166.88 293.921 170.466C296.376 172.734 297.849 176.034 297.897 179.379C297.98 185.394 293.829 191.284 289.589 195.222C286.825 197.788 283.644 199.263 280.256 200.264C285.72 200.743 292.878 199.46 298.876 191.94C301.01 189.265 302.266 185.311 302.709 181.992C303.495 176.141 301.312 170.945 296.996 167.516L296.998 167.521Z" fill="#FF551D"/>
<path d="M275.267 137.57C275.267 137.57 270.85 141.606 267.474 140.525C267.474 140.525 266.68 136.568 263.472 136.432C261.834 136.36 260.299 137.361 259.673 138.876C259.114 140.226 259.172 142.095 262.041 143.849C262.041 143.849 260.587 150.51 252.849 152.424L258.462 165.358C258.462 165.358 263.165 163.702 264.835 160.192C264.835 160.192 274.274 169.232 284.84 148.126C284.84 148.126 286.947 141.489 275.267 137.57Z" fill="#F9F0DC"/>
<path d="M280.136 145.173C281.615 145.82 283.338 145.146 283.985 143.668C284.632 142.19 283.958 140.466 282.48 139.819C281.001 139.172 279.278 139.846 278.631 141.325C277.984 142.803 278.658 144.526 280.136 145.173Z" fill="#2A82F7"/>
<path d="M283.011 147.514C284.216 148.041 285.62 147.492 286.148 146.287C286.675 145.082 286.126 143.678 284.921 143.15C283.716 142.623 282.312 143.172 281.784 144.377C281.257 145.582 281.806 146.987 283.011 147.514Z" fill="#2A82F7"/>
<path d="M266.076 132.819C266.076 132.819 290.728 136.75 284.811 151.741L284.378 152.731C284.378 152.731 287.989 153.358 290.03 149.738C291.19 147.678 291.262 145.175 290.351 142.992L290.146 142.501C290.146 142.501 293.937 135.799 286.425 129.939C286.425 129.939 280.056 124.777 274.467 129.098C274.467 129.098 266.257 125.076 266.082 132.826L266.076 132.819Z" fill="#F9C30C"/>
<path d="M239.547 118.123L217.676 68.2206C217.676 68.2206 230.119 60.6864 229.093 54.4797C229.093 54.4797 227.266 51.2829 223.149 55.7177L229.832 42.1545C230.271 41.2679 230.442 40.255 230.245 39.2837C230 38.0841 229.23 36.9586 226.965 38.0691C225.996 38.544 225.246 39.3728 224.814 40.3592L223.839 42.5875C223.839 42.5875 225.914 36.9731 223.337 35.8454C223.337 35.8454 220.372 34.0681 217.941 39.6233C217.941 39.6233 218.351 36.9266 216.52 36.5077C216.52 36.5077 214.772 35.4568 212.732 38.5923L210.757 43.103C210.757 43.103 211.338 39.8076 209.005 39.6488C209.005 39.6488 206.818 39.1707 205.352 42.0783L198.59 57.5251C197.686 59.5909 197.655 61.9373 198.499 64.0309L226.867 134.086C226.867 134.086 236.797 133.463 239.541 118.125L239.547 118.123Z" fill="#F9F0DC"/>
<path d="M239.345 119.358L216.872 68.5472L213.255 67.987C226.263 64.7013 229.115 54.5825 229.115 54.5825C230.143 60.7853 217.7 68.3195 217.7 68.3195L239.567 118.22C239.498 118.609 239.425 118.988 239.345 119.358Z" fill="#FF551D"/>
<path d="M239.702 118.219L265.399 172.594L277.55 213.688C277.55 213.688 269.544 200.628 244.389 206.032L207.939 177.337C206.38 176.687 204.239 176.008 201.64 175.774C196.495 175.311 188.556 179.054 190.411 177.796C203.957 168.583 220.605 161.207 236.158 153.181L222.884 143.204C222.884 143.204 239.285 141.56 239.702 118.219Z" fill="#FF551D"/>
<path d="M249.259 207.039C249.259 207.039 261.148 202.328 273.582 210.854C273.582 210.854 272.362 239.844 259.773 273.239L231.981 259.982C231.981 259.982 247.756 228.849 249.259 207.039Z" fill="#F9C30C"/>
<path d="M257.47 272.139C270.02 244.604 273.377 212.848 273.573 210.947C273.486 212.799 271.944 240.934 259.791 273.187C259.788 273.204 259.779 273.223 259.773 273.239L257.47 272.139Z" fill="#FF551D"/>
<path d="M190.552 190.825C192.043 184.724 196.583 178.575 201.749 176.85C202.802 176.499 203.904 176.35 205.012 176.42C205.68 176.463 208.103 177.51 208.502 177.334L241.054 163.109C241.054 163.109 224.519 170.198 233.278 193.554L205.6 200.057C205.6 200.057 191.753 201.151 191.729 201.154C191.328 201.186 190.674 198.825 190.575 198.514C189.765 196.016 189.936 193.349 190.551 190.829L190.552 190.825Z" fill="#FF551D"/>
<path d="M241.053 163.113L233.277 193.558C232.763 193.688 223.102 172.33 241.053 163.113Z" fill="#171717"/>
<path d="M234.785 169.575C236.341 169.39 237.937 169.166 239.574 168.901C243.096 168.331 246.406 167.637 249.49 166.866C255.346 165.64 261.185 168.625 263.435 173.763C265.379 178.2 264.342 183.549 260.795 187.197L241.378 212.887C241.378 212.887 230.407 196.69 207.799 199.697C217.663 192.274 227.527 184.851 237.391 177.427C235.83 178.044 234.266 178.659 232.703 179.28C232.502 178.297 232.333 176.892 232.544 175.232C232.891 172.512 234.075 170.564 234.779 169.577L234.785 169.575Z" fill="#F9F0DC"/>
<path d="M187.627 201.451C187.627 201.451 227.341 189.134 242.085 213.846C242.085 213.846 252.423 232.49 228.673 244.488C228.673 244.488 245.72 224.444 218.539 214.248C218.539 214.248 204.61 209.368 194.164 212.097L187.629 201.447L187.627 201.451Z" fill="#171717"/>
<path d="M194.101 211.194C194.101 211.194 227.701 208.025 233.21 225.957C233.21 225.957 239.708 244.317 216.907 250.641L194.101 211.194Z" fill="#FF551D"/>
<path d="M264.385 284.703C264.385 284.703 294.264 288.99 294.112 299.701C294.112 299.701 295.777 309.502 278.388 312.949L277.985 316.46C277.985 316.46 318.948 321.344 313.198 345.485C313.198 345.485 312.162 328.737 270.901 314.996L264.379 284.705L264.385 284.703Z" fill="#2A82F7"/>
<path d="M270.744 313.627L278.386 327.436C278.386 327.436 310.15 339.928 307.842 356.227C307.842 356.227 311.453 355.793 313.869 345.681C313.869 345.681 311.617 331.512 291.183 322.568L270.746 313.623L270.744 313.627Z" fill="#171717"/>
<path d="M278.342 326.67C278.342 326.67 310.226 338.879 307.84 356.324C307.84 356.324 304.748 359.967 296.583 358.643L288.353 358.036L271.267 324.574L278.346 326.672L278.342 326.67Z" fill="#FF551D"/>
<path d="M49.7253 216.974L163.406 178.191C168.259 175.655 174.245 177.164 177.317 181.699L308.999 376.163C309.909 377.506 309.247 379.346 307.691 379.804L205.641 409.729C199.538 411.52 192.96 409.415 189.03 404.417L47.5101 224.468C45.4696 221.874 46.603 218.042 49.7292 216.976L49.7253 216.974Z" fill="#F9C30C"/>
<path d="M48.8503 219.607L162.531 180.823C167.384 178.287 173.37 179.797 176.442 184.331L308.124 378.795C309.034 380.139 308.372 381.978 306.816 382.436L204.766 412.361C198.663 414.152 192.085 412.047 188.155 407.05L46.6312 227.099C44.5907 224.505 45.7241 220.672 48.8503 219.607Z" fill="#2A82F7"/>
<path d="M239.345 119.358L216.872 68.5472L213.255 67.987C226.263 64.7013 229.115 54.5825 229.115 54.5825C230.143 60.7853 217.7 68.3195 217.7 68.3195L239.567 118.22C239.498 118.609 239.425 118.988 239.345 119.358Z" fill="#FF551D"/>
<path d="M257.47 272.139C270.02 244.604 273.377 212.848 273.573 210.947C273.486 212.799 271.944 240.934 259.791 273.187L257.47 272.139Z" fill="#FF551D"/>
<path d="M224.852 255.806C224.852 255.806 244.494 237.165 258.075 250.895C258.075 250.895 263.858 258.672 261.755 265.985C261.755 265.985 274.402 264.671 272.478 282.622C272.478 282.622 287.326 285.525 281.54 304.653C281.54 304.653 288.778 311.56 280.37 327.009C280.37 327.009 269.559 342.767 261.538 324.317C261.538 324.317 253.951 322.346 254.899 314.399C254.899 314.399 241.706 315.295 242.318 300.102C242.318 300.102 231.093 304.906 231.254 290.014C231.254 290.014 231.833 279.181 234.582 270.026L224.848 255.805L224.852 255.806Z" fill="#F9F0DC"/>
<path d="M234.581 270.026L237.429 261.256L233.439 265.613L224.852 255.806L234.581 270.026Z" fill="#FF551D"/>
<path d="M255.642 248.714C260.423 252.029 263.461 257.715 263.261 263.606C263.288 263.913 263.23 264.403 263.199 264.717C263.115 265.74 262.912 266.952 262.7 267.942C260.658 278.042 255.925 287.665 248.881 295.216C245.338 298.985 241.084 302.848 235.61 300.314L234.665 299.831L234.732 299.676C237.251 300.852 240.263 300.889 242.627 299.333C244.962 297.843 246.778 295.674 248.576 293.575C253.897 287.16 257.769 279.598 260.189 271.637C261.116 268.327 262.156 264.92 261.941 261.451C261.776 257.995 260.424 254.638 258.358 251.881C257.528 250.775 256.601 249.724 255.544 248.842L255.649 248.708L255.642 248.714Z" fill="#FF551D"/>
<path d="M267.701 267.384C271.94 269.737 273.883 274.87 273.868 279.538C273.934 282.083 273.338 284.667 272.654 287.073C271.547 291.203 270.044 295.215 268.26 299.103C265.991 303.6 263.703 308.333 259.862 311.727C254.52 316.349 248.061 315.688 244.268 309.589C243.905 308.965 243.631 308.296 243.392 307.63L243.546 307.563C244.981 310.676 247.949 313.279 251.423 313.662C259.347 314.179 263.762 304.385 266.733 298.389C269.108 293.33 271.005 288.029 272.354 282.609C273.354 277.27 272.314 270.841 267.618 267.532L267.705 267.386L267.701 267.384Z" fill="#FF551D"/>
<path d="M279.781 287.04C283.46 290.904 284.048 296.785 283.216 301.846C281.851 310.251 276.143 318.636 268.701 322.833C265.519 324.648 261.655 325.557 258.482 323.191C257.529 322.483 256.764 321.577 256.186 320.591L256.288 320.515C259.497 324.843 263.936 324.652 268.192 321.974C275.581 317.436 281.342 308.581 282.447 299.979C283.023 295.589 282.488 290.704 279.688 287.128L279.781 287.04Z" fill="#FF551D"/>
<path d="M284.509 313.665C284.862 321.273 281.572 330.108 274.021 333.067C272.78 333.543 271.407 333.795 270.06 333.597C268.724 333.385 267.484 332.7 266.671 331.703L266.73 331.642C267.642 332.506 268.84 333.067 270.098 333.152C273.907 333.317 277.337 330.642 279.612 327.803C281.118 325.784 282.239 323.486 283.018 321.084C283.801 318.684 284.258 316.178 284.424 313.66L284.509 313.665Z" fill="#FF551D"/>
<path d="M147.035 185.662C147.384 188.198 147.609 191.199 147.764 194.87C148.107 203.259 148.721 205.974 151.055 209.218C152.414 211.133 153.01 211.668 154.276 212.069C156.635 212.842 159.485 212.135 163.113 209.777C166.637 207.549 167.823 208.887 169.014 210.507C169.421 211.06 170.077 212.232 169.866 213.613C169.322 216.973 165.371 218.546 154.595 219.655C131.224 222.038 116.669 227.247 102.075 238.519C92.5573 245.863 88.4679 251.414 87.8223 257.972C87.4026 262.267 89.3446 266.716 92.5074 268.587C93.5874 269.222 93.9915 269.282 94.2769 268.768C102.882 254.838 121.585 241.931 140.637 236.792C161.225 231.247 183.515 232.879 193.547 240.693L193.551 240.704C194.762 241.656 195.908 243.009 197.103 244.843C200.034 249.392 200.374 253.329 198.147 257.315C197.105 259.156 196.588 259.638 191.379 263.458C184.818 268.219 181.117 270.064 172.262 272.885C162.596 275.991 152.128 277.796 139.708 278.478L134.416 278.783L131.881 282.074C126.714 288.732 123.659 294.857 122.53 300.898C121.108 308.478 123.284 313.525 129.261 316.655C140.622 322.521 170.823 317.687 184.233 307.795C189.782 303.675 190.394 300.825 187.356 292.729C183.315 281.947 185.203 274.783 193.496 269.465C198.394 266.334 203.541 265.419 208.397 266.812C212.404 267.959 214.555 269.494 217.781 273.467C222.261 279.073 223.689 283.594 222.787 289.521C221.836 295.941 219.199 299.719 212.133 304.902C208.362 307.619 206.582 308.67 202.85 310.335C192.236 315.003 179.47 318.752 165.92 321.233C147.445 324.592 132.703 324.582 120.878 321.094L89.868 281.689C90.0677 279.802 90.4548 277.951 91.0324 276.171L92.0643 273.061L87.4348 272.317C85.2025 271.946 83.2525 271.526 81.468 271.014L55.2398 237.686C55.3022 233.477 56.2941 229.271 58.2786 225.278C60.505 220.732 62.3951 218.372 66.4476 214.991C68.0772 213.641 69.8661 212.407 71.7751 211.302L88.7772 205.509C90.2776 205.3 91.7868 205.163 93.2939 205.103C102.901 204.695 110.851 206.271 125.348 211.476C131.66 213.744 136.369 215.143 139.131 215.569C141.409 215.89 143.291 216.089 143.309 215.976C143.357 215.835 142.102 215.378 140.599 214.998C136.516 213.961 132.85 212.306 130.06 210.316C127.459 208.509 124.636 204.992 118.139 195.507L147.035 185.662ZM189.217 241.266C184.87 239.243 176.635 243.6 157.92 257.742C147.469 265.617 141.981 270.311 138.507 274.339L137.442 275.532L140.356 274.977C144.919 274.029 154.382 270.719 160.528 267.893C168.955 264.004 175.458 260.204 182.615 255.005C189.508 249.995 191.296 248.123 191.609 245.491C191.84 243.586 190.946 242.092 189.217 241.266Z" fill="#549DFF"/>
<defs>
<filter id="filter0_d_935_36482" x="35.0007" y="27.5747" width="293.461" height="415.783" filterUnits="userSpaceOnUse" color-interpolation-filters="sRGB">
<feFlood flood-opacity="0" result="BackgroundImageFix"/>
<feColorMatrix in="SourceAlpha" type="matrix" values="0 0 0 0 0 0 0 0 0 0 0 0 0 0 0 0 0 0 127 0" result="hardAlpha"/>
<feOffset dy="2.60381"/>
<feGaussianBlur stdDeviation="1.3019"/>
<feComposite in2="hardAlpha" operator="out"/>
<feColorMatrix type="matrix" values="0 0 0 0 0 0 0 0 0 0 0 0 0 0 0 0 0 0 0.25 0"/>
<feBlend mode="normal" in2="BackgroundImageFix" result="effect1_dropShadow_935_36482"/>
<feBlend mode="normal" in="SourceGraphic" in2="effect1_dropShadow_935_36482" result="shape"/>
</filter>
</defs>
</svg>
