<svg width="274" height="268" viewBox="0 0 274 268" fill="none" xmlns="http://www.w3.org/2000/svg">
<path fill-rule="evenodd" clip-rule="evenodd" d="M163.447 54.5391C169.713 44.8994 182.608 42.1658 192.247 48.4307C201.887 54.6968 204.621 67.5909 198.355 77.2305C198.352 77.2353 198.349 77.2404 198.345 77.2451L197.927 77.8652C197.923 77.8703 197.919 77.8758 197.916 77.8809C197.316 78.7321 196.662 79.5234 195.964 80.2549C208.631 93.5668 216.433 110.711 221.115 127.482C226.925 148.294 228.234 169.557 227.598 184.838L227.597 184.843L227.531 186.295C227.531 186.297 227.53 186.299 227.53 186.301L227.479 187.01C227.16 190.468 225.77 194.263 223.006 197.194C222.988 197.632 222.976 197.948 222.97 198.069L222.958 198.695C222.957 198.942 222.957 199.238 222.958 199.622C222.959 200.31 222.96 201.266 222.899 202.27C222.796 203.991 222.481 206.933 220.869 209.795C220.865 209.802 220.86 209.811 220.855 209.818L220.538 210.349C220.533 210.356 220.529 210.365 220.524 210.373C219.999 211.206 218.471 213.422 215.611 214.632C215.58 214.754 215.548 214.878 215.512 215.002C215.104 216.425 214.29 218.537 212.494 220.461C212.486 220.469 212.476 220.476 212.469 220.483C211.589 221.421 209.99 222.817 207.583 223.509C205.235 224.184 203.072 223.968 201.248 223.321C199.832 223.666 198.194 223.742 196.412 223.28C193.113 222.426 191.162 220.188 190.206 218.84C190.205 218.839 190.205 218.837 190.204 218.836L189.956 218.471C189.936 218.44 189.918 218.409 189.898 218.379C186.904 216.988 185.319 214.521 184.595 212.766C184.592 212.757 184.587 212.75 184.584 212.741L184.583 212.739C179.922 209.924 179.531 204.871 179.588 203.062C179.588 203.051 179.586 203.04 179.587 203.028C179.589 202.976 179.593 202.904 179.594 202.893V202.888L179.596 202.829C179.6 202.734 179.605 202.642 179.611 202.556C179.692 200.941 179.848 199.179 179.938 197.943V197.942C180.016 196.882 180.105 195.818 180.203 194.754C176.668 190.993 175.111 185.865 175.359 181.149L175.36 181.13C175.873 171.408 175.766 162.206 175.279 153.787C173.811 159.559 172.24 165.384 170.622 171.123C164.705 192.112 158.024 212.543 153.214 226.278L163.595 245.925V245.926C166.194 250.847 165.927 256.791 162.892 261.46C161.673 263.336 159.802 264.685 157.649 265.255L157.215 265.358C154.88 265.853 152.443 265.402 150.441 264.101L90.0799 224.864C85.9134 222.155 84.7309 216.581 87.4392 212.414C96.7935 198.023 105.437 183.007 112.721 169.497C103.332 181.639 93.1187 195.635 83.7644 210.025C81.0554 214.192 75.4806 215.375 71.3133 212.666L10.9519 173.43C8.95091 172.129 7.54959 170.085 7.05447 167.751C6.59055 165.563 6.95715 163.285 8.07693 161.359L8.08963 161.338L8.29763 161C8.30182 160.993 8.30694 160.986 8.31131 160.979C11.3464 156.311 16.6718 153.654 22.2234 154.032L44.3904 155.542C54.9901 145.57 70.9518 131.172 87.7322 117.244C92.3206 113.436 97.0057 109.633 101.685 105.947C93.7893 108.922 85.3301 112.563 76.6472 116.982L76.6443 116.983C73.1407 118.766 68.9285 119.52 64.8133 118.757C63.2253 119.642 61.6289 120.499 60.0281 121.329C60.0269 121.33 60.0255 121.331 60.0242 121.332C58.9018 121.914 57.3501 122.745 55.8924 123.463C55.8852 123.467 55.8748 123.473 55.8631 123.479C55.8587 123.482 55.8538 123.484 55.8494 123.486L55.6013 123.609L55.5974 123.611C55.5834 123.618 55.5692 123.625 55.5633 123.628C55.5554 123.632 55.5516 123.633 55.5496 123.634C55.5247 123.646 55.4692 123.673 55.4119 123.7C55.4038 123.704 55.3946 123.706 55.3865 123.71C54.2126 124.265 52.6671 124.764 50.8738 124.834C49.2083 124.899 46.8819 124.59 44.6726 123.123C44.625 123.125 44.5763 123.13 44.5281 123.132C42.7283 123.2 39.8106 122.841 37.2595 120.705C37.061 120.679 36.8565 120.65 36.6492 120.612C36.6473 120.612 36.6452 120.611 36.6433 120.61C35.0901 120.325 32.1956 119.531 30.0017 116.876C28.83 115.458 28.2012 113.942 27.9178 112.507C26.6617 111.206 25.6218 109.467 25.2166 107.235L25.1404 106.754C24.7836 104.136 25.5106 102.025 26.0408 100.86L26.0574 100.829C27.1433 98.4576 28.77 96.9089 29.8914 96.0059C29.9946 95.9227 30.099 95.8418 30.2019 95.7637C30.2242 92.6326 31.7229 90.3604 32.2429 89.624C32.2483 89.6164 32.2549 89.609 32.2605 89.6016C34.3098 86.714 37.125 85.1366 38.7517 84.3184C39.6517 83.8657 40.533 83.4827 41.1795 83.2041C41.3858 83.1152 41.5665 83.0344 41.7283 82.9639C42.7719 77.4671 46.756 73.425 50.7615 71.3955C64.6293 64.3706 85.4731 56.4613 107.803 53.2832C125.261 50.7985 144.339 51.1138 161.773 57.6621C162.134 56.8253 162.554 56.0028 163.034 55.2012L163.044 55.1855L163.437 54.5547L163.447 54.5391ZM90.6248 224.026L150.986 263.263C151.093 263.332 151.202 263.399 151.312 263.463C151.203 263.399 151.094 263.332 150.987 263.263L90.6258 224.026C90.5106 223.951 90.3979 223.874 90.2879 223.794C90.3978 223.874 90.5097 223.952 90.6248 224.026ZM155.872 255.565C155.728 255.906 155.552 256.237 155.346 256.554L155.347 256.555C155.553 256.238 155.728 255.907 155.872 255.566V255.565ZM156.118 254.871L156.119 254.872L156.118 254.871ZM144.253 224.64C143.966 225.453 143.686 226.241 143.415 227L155.636 250.13H155.637L143.416 227C143.687 226.241 143.966 225.453 144.253 224.64ZM204.103 222.902C204.355 222.919 204.611 222.925 204.871 222.92C204.741 222.922 204.613 222.922 204.485 222.919C204.35 222.916 204.215 222.909 204.082 222.9C204.089 222.901 204.096 222.902 204.103 222.902ZM197.928 222.548C197.949 222.55 197.97 222.552 197.991 222.554C197.868 222.541 197.743 222.525 197.618 222.507L197.928 222.548ZM196.387 222.237C196.478 222.264 196.569 222.289 196.662 222.312C196.878 222.368 197.092 222.415 197.303 222.454L196.985 222.39C196.878 222.366 196.771 222.34 196.663 222.312C196.57 222.288 196.478 222.264 196.387 222.237ZM200.79 222.401C200.704 222.42 200.618 222.438 200.53 222.454C200.706 222.421 200.879 222.384 201.049 222.342L200.79 222.401ZM201.302 222.275C201.414 222.319 201.529 222.36 201.644 222.4C201.529 222.36 201.415 222.319 201.303 222.275H201.302ZM190.148 217.391C190.29 217.46 190.434 217.527 190.583 217.591C190.719 217.813 190.863 218.037 191.019 218.258L191.021 218.262C191.105 218.38 191.198 218.505 191.298 218.635C191.198 218.505 191.106 218.38 191.022 218.262L191.02 218.258C190.864 218.037 190.72 217.813 190.584 217.591C190.435 217.527 190.29 217.46 190.148 217.391ZM188.883 216.641C188.955 216.692 189.028 216.742 189.103 216.792C189.132 216.811 189.162 216.829 189.191 216.848C189.086 216.78 188.983 216.711 188.883 216.641ZM188.266 216.165C188.301 216.194 188.338 216.221 188.374 216.25C188.32 216.206 188.267 216.164 188.215 216.119C188.232 216.134 188.249 216.15 188.266 216.165ZM187.89 215.831C187.93 215.868 187.972 215.903 188.012 215.939C187.962 215.894 187.912 215.85 187.863 215.804L187.89 215.831ZM205.214 214.819C205.175 214.834 205.135 214.848 205.095 214.859H205.096C205.136 214.848 205.175 214.834 205.214 214.819ZM92.6199 206.156C91.9057 207.295 91.1865 208.431 90.4627 209.565C89.7388 210.7 89.0101 211.831 88.2771 212.959H88.2781C89.011 211.832 89.7399 210.7 90.4637 209.566C91.1873 208.433 91.9059 207.296 92.6199 206.157V206.156ZM200.854 212.71C200.946 212.537 201.035 212.367 201.116 212.201H201.115L200.854 212.71ZM185.388 212.055C185.427 212.157 185.466 212.259 185.509 212.362C185.467 212.259 185.428 212.156 185.389 212.055C185.375 212.047 185.361 212.038 185.346 212.03C185.361 212.038 185.374 212.047 185.388 212.055ZM10.866 172.136C10.9652 172.215 11.0663 172.292 11.1697 172.367C11.2766 172.445 11.3857 172.52 11.4969 172.592L71.8582 211.828C71.9721 211.902 72.0876 211.973 72.2039 212.04C72.0879 211.973 71.9729 211.902 71.8592 211.828L11.4978 172.592C11.279 172.45 11.0682 172.297 10.866 172.136ZM184.98 211.812C184.989 211.818 184.998 211.823 185.007 211.828C184.987 211.816 184.968 211.804 184.949 211.792C184.96 211.799 184.97 211.806 184.98 211.812ZM180.584 203.417C180.583 203.288 180.585 203.169 180.589 203.062H180.587C180.583 203.169 180.583 203.288 180.584 203.417ZM180.68 201.403C180.653 201.812 180.628 202.222 180.608 202.623C180.602 202.708 180.598 202.794 180.595 202.879L180.592 202.938C180.59 202.97 180.587 203.014 180.586 203.063C180.587 203.014 180.591 202.97 180.593 202.938L180.595 202.879C180.598 202.794 180.603 202.708 180.609 202.623C180.629 202.222 180.654 201.813 180.681 201.404C180.699 201.144 180.718 200.884 180.737 200.627C180.718 200.884 180.698 201.143 180.68 201.403ZM213.872 202.277C213.856 202.442 213.839 202.606 213.817 202.769H213.818C213.84 202.606 213.856 202.442 213.872 202.277ZM213.918 201.646C213.926 201.499 213.934 201.352 213.939 201.204C213.934 201.352 213.926 201.499 213.918 201.646ZM181.001 194.143C181.079 194.225 181.158 194.308 181.239 194.389C181.125 195.6 181.023 196.81 180.935 198.016V198.017C180.894 198.581 180.841 199.24 180.787 199.94C180.841 199.24 180.895 198.581 180.936 198.017V198.016C181.024 196.81 181.126 195.6 181.24 194.389C181.159 194.307 181.079 194.225 181.001 194.143ZM214.184 192.538C214.092 194.758 213.996 197.284 213.978 197.678C213.972 197.83 213.968 197.986 213.965 198.145L213.979 197.678C213.997 197.284 214.093 194.758 214.185 192.538C214.312 192.489 214.436 192.434 214.557 192.377C214.436 192.434 214.311 192.489 214.184 192.538ZM218.635 183.745C218.608 184.458 218.577 185.157 218.542 185.842C218.537 185.933 218.532 186.024 218.524 186.114C218.514 186.246 218.499 186.377 218.482 186.508C218.51 186.287 218.531 186.065 218.543 185.842C218.578 185.157 218.608 184.458 218.635 183.745ZM176.358 181.201L176.357 181.202H176.358L176.359 181.201C176.398 180.466 176.432 179.735 176.464 179.006C176.432 179.735 176.397 180.466 176.358 181.201ZM176.623 174.394C176.606 175.065 176.585 175.738 176.562 176.415C176.585 175.738 176.606 175.065 176.623 174.394ZM102.367 168.205C101.404 169.469 100.434 170.749 99.4597 172.046L101.559 169.266C101.829 168.911 102.099 168.557 102.367 168.205ZM176.693 169.748C176.697 169.089 176.699 168.434 176.698 167.781C176.699 168.434 176.697 169.089 176.693 169.748ZM118.829 160.103C117.294 163.055 115.673 166.117 113.979 169.266C115.674 166.116 117.297 163.053 118.832 160.1C118.831 160.101 118.83 160.101 118.829 160.103ZM7.91385 166.82C7.94223 167.062 7.98108 167.304 8.03201 167.544H8.03299C7.98206 167.304 7.94248 167.062 7.91385 166.82ZM103.639 166.537C103.592 166.599 103.544 166.661 103.497 166.724C103.736 166.411 103.976 166.1 104.215 165.79C104.024 166.039 103.831 166.287 103.639 166.537ZM47.6463 164.786L47.6472 164.785L21.6121 163.012H21.6111L47.6463 164.786ZM105.698 163.863C105.584 164.011 105.47 164.159 105.355 164.307C105.605 163.984 105.855 163.663 106.103 163.343C105.969 163.516 105.833 163.689 105.698 163.863ZM8.94119 161.862H8.94217L9.15017 161.524H9.1492L8.94119 161.862ZM217.343 154.833C217.586 156.825 217.794 158.795 217.97 160.733C217.794 158.795 217.586 156.825 217.343 154.833ZM175.834 147.414C176.03 149.778 176.2 152.216 176.336 154.721C176.201 152.215 176.031 149.776 175.835 147.411C175.835 147.412 175.834 147.413 175.834 147.414ZM216.529 148.956C216.621 149.549 216.708 150.141 216.794 150.731C216.708 150.141 216.621 149.549 216.529 148.955V148.956ZM215.198 141.45C215.459 142.755 215.704 144.058 215.932 145.355L215.902 145.178C215.683 143.939 215.447 142.696 215.198 141.45ZM125.363 139.535C126.642 138.025 127.854 136.61 128.99 135.296C127.854 136.61 126.642 138.025 125.363 139.535ZM213.928 135.64C214.031 136.073 214.132 136.506 214.231 136.939C214.132 136.506 214.031 136.072 213.928 135.639V135.64ZM132.228 131.592C132.743 131.01 133.234 130.46 133.699 129.941H133.698C133.233 130.46 132.743 131.01 132.228 131.592ZM85.2078 120.652C84.9669 120.854 84.7275 121.058 84.4871 121.26C84.9427 120.877 85.399 120.494 85.8562 120.111L85.2078 120.652ZM36.8289 119.629C37.1174 119.682 37.4036 119.72 37.6844 119.752C37.7552 119.815 37.8265 119.877 37.8982 119.937L37.6853 119.752C37.4043 119.72 37.1186 119.682 36.8299 119.629L36.825 119.628H36.824L36.8289 119.629ZM33.1707 118.291C33.201 118.309 33.2322 118.325 33.2625 118.343C33.1963 118.304 33.1305 118.264 33.0642 118.224C33.1002 118.246 33.1348 118.27 33.1707 118.291ZM32.7576 118.03C32.7925 118.054 32.8291 118.074 32.864 118.097C32.7991 118.055 32.7336 118.012 32.6687 117.968C32.6987 117.988 32.7276 118.01 32.7576 118.03ZM64.6472 117.706C64.7723 117.732 64.8977 117.756 65.0232 117.779C64.8981 117.756 64.7731 117.732 64.6482 117.706H64.6472ZM208.038 116.699L207.669 115.773C207.617 115.646 207.564 115.52 207.512 115.394C207.69 115.828 207.866 116.263 208.038 116.699ZM51.7342 115.481C51.6777 115.508 51.6198 115.538 51.5633 115.564H51.5642C51.621 115.538 51.6784 115.508 51.7351 115.481L51.7361 115.48H51.7351L51.7342 115.481ZM206.908 113.935C207.076 114.331 207.241 114.729 207.404 115.127C207.24 114.728 207.076 114.33 206.908 113.934V113.935ZM29.4676 114.131C29.5065 114.22 29.547 114.309 29.5896 114.397H29.5906C29.5343 114.28 29.4815 114.162 29.4314 114.045C29.4436 114.073 29.455 114.102 29.4676 114.131ZM95.4226 112.229C94.6339 112.868 93.847 113.51 93.0613 114.151L95.4236 112.229C96.2122 111.591 97.0021 110.954 97.7928 110.319L95.4226 112.229ZM47.2244 113.134C47.042 113.206 46.8593 113.285 46.6756 113.366C46.8596 113.285 47.0426 113.206 47.2254 113.134H47.2244ZM206.116 112.108H206.117C205.921 111.668 205.722 111.229 205.521 110.791C205.722 111.229 205.92 111.668 206.116 112.108ZM28.6023 111.779C28.6823 111.863 28.7636 111.945 28.8455 112.024H28.8465C28.6826 111.865 28.5218 111.698 28.366 111.522L28.6023 111.779ZM61.0613 110.543C61.5033 110.295 61.9446 110.045 62.3836 109.792H62.3826L61.0613 110.543ZM26.9451 109.384C26.9557 109.406 26.9675 109.428 26.9783 109.45C26.9519 109.396 26.9267 109.341 26.9011 109.285C26.9162 109.318 26.9297 109.351 26.9451 109.384ZM63.2205 109.104C63.1862 109.151 63.1485 109.197 63.1062 109.243C63.1911 109.151 63.2594 109.058 63.3133 108.964L63.2205 109.104ZM26.1306 106.619C26.1908 107.061 26.2782 107.482 26.3885 107.884H26.3894C26.2792 107.482 26.1918 107.061 26.1316 106.619C26.1115 106.472 26.0947 106.326 26.0818 106.182L26.1306 106.619ZM174.921 107.781C174.957 107.352 174.991 106.929 175.021 106.51H175.02C174.99 106.929 174.956 107.352 174.921 107.781ZM104.917 104.687C105.708 104.071 106.499 103.46 107.288 102.853H107.286C106.497 103.459 105.707 104.071 104.917 104.687ZM84.368 103.333C84.2781 103.373 84.1884 103.414 84.0984 103.454C84.673 103.197 85.2458 102.943 85.8172 102.692L84.368 103.333ZM26.3924 102.812C26.3642 102.914 26.3372 103.02 26.3113 103.128L26.3933 102.812C26.4216 102.709 26.4502 102.608 26.4803 102.511L26.3924 102.812ZM30.1023 97.1328C29.9684 97.2489 29.8304 97.3733 29.6892 97.5059C29.9828 97.2301 30.2641 96.9907 30.5193 96.7852H30.5183L30.1023 97.1328ZM194.659 92.5576L194.056 91.7842C193.987 91.696 193.915 91.6093 193.845 91.5215C194.119 91.8649 194.391 92.2096 194.659 92.5576ZM33.0642 90.1973L33.0594 90.2012L32.8279 90.543C32.7429 90.6737 32.6496 90.8255 32.5506 90.9961C32.7534 90.6466 32.9356 90.3779 33.0603 90.2012L33.0652 90.1973C33.18 90.035 33.297 89.8763 33.4168 89.7227C33.2969 89.8764 33.1791 90.0349 33.0642 90.1973ZM191.508 88.7207C191.176 88.3422 190.84 87.9675 190.501 87.5957C190.84 87.9676 191.176 88.3422 191.508 88.7207ZM187.115 84.123C187.32 84.3192 187.523 84.5163 187.725 84.7148C187.523 84.5163 187.32 84.3192 187.115 84.123ZM41.575 84.123H41.576C42.0195 83.9319 42.35 83.7877 42.6238 83.666H42.6228C42.3492 83.7877 42.0181 83.932 41.575 84.123ZM183.429 80.832C183.666 81.0282 183.9 81.2257 184.134 81.4248C183.9 81.2257 183.666 81.0281 183.429 80.832ZM179.982 78.1523C180.087 78.2284 180.19 78.3062 180.295 78.3828C180.191 78.3064 180.088 78.2282 179.983 78.1523C179.72 77.9614 179.454 77.7733 179.187 77.5859C179.454 77.7731 179.719 77.9616 179.982 78.1523ZM191.095 71.8613C191.054 71.93 191.014 71.9992 190.972 72.0674C190.919 72.1535 190.865 72.2399 190.809 72.3252H190.81C190.91 72.1724 191.003 72.017 191.095 71.8613ZM191.319 71.4629C191.344 71.4165 191.37 71.3708 191.394 71.3242L191.417 71.2783C191.385 71.3401 191.352 71.4014 191.319 71.4629ZM153.398 64.3516C153.807 64.4714 154.215 64.593 154.621 64.7197L153.675 64.4316C153.583 64.4043 153.49 64.3786 153.398 64.3516ZM190.728 59.3164L190.693 59.2617C190.677 59.2373 190.659 59.2137 190.642 59.1894C190.671 59.2316 190.7 59.2739 190.728 59.3164ZM163.891 55.7148C163.578 56.2375 163.292 56.7694 163.033 57.3086C162.968 57.4435 162.905 57.579 162.844 57.7148C162.72 57.9863 162.604 58.2595 162.494 58.5342C162.439 58.6712 162.385 58.8085 162.334 58.9463L162.335 58.9473C162.49 58.5331 162.66 58.1221 162.845 57.7148C162.906 57.5793 162.969 57.4442 163.034 57.3096C163.293 56.7701 163.579 56.2378 163.892 55.7148L164.286 55.084H164.285L163.891 55.7148ZM187.342 55.9766C187.512 56.0876 187.68 56.2021 187.844 56.3203H187.845C187.681 56.202 187.514 56.0877 187.343 55.9766C187.323 55.9638 187.303 55.9521 187.283 55.9394C187.302 55.9519 187.322 55.964 187.342 55.9766ZM181.883 54.1064C182.249 54.1367 182.615 54.1832 182.979 54.248L182.412 54.1611C182.236 54.1386 182.059 54.121 181.883 54.1064ZM181.228 54.0703C181.053 54.0656 180.877 54.0643 180.702 54.0674C180.877 54.0643 181.053 54.0656 181.228 54.0703ZM170.198 49.2002C170.14 49.2371 170.083 49.275 170.026 49.3125C170.125 49.2475 170.225 49.1832 170.325 49.1201C170.283 49.1468 170.24 49.1732 170.198 49.2002ZM170.606 48.9453C170.561 48.9727 170.516 49.0005 170.471 49.0283C170.584 48.959 170.697 48.8912 170.81 48.8242C170.742 48.8644 170.674 48.9043 170.606 48.9453ZM171.863 48.2441C171.721 48.3168 171.58 48.3916 171.439 48.4678C171.283 48.5527 171.127 48.6403 170.972 48.7295C171.296 48.5428 171.624 48.3649 171.956 48.1973C171.925 48.2129 171.894 48.2284 171.863 48.2441ZM178.194 46.2529C178.174 46.2558 178.153 46.2588 178.133 46.2617C178.31 46.2366 178.488 46.2137 178.667 46.1934L178.194 46.2529ZM10.5886 171.902C10.6718 171.975 10.7563 172.047 10.8426 172.116C10.7562 172.047 10.6718 171.975 10.5886 171.902ZM182.275 209.203C182.344 209.306 182.416 209.407 182.49 209.509C182.416 209.408 182.344 209.306 182.275 209.203ZM182.503 209.526C182.574 209.624 182.649 209.72 182.725 209.815C182.649 209.72 182.574 209.623 182.503 209.526ZM218.284 164.649C218.247 164.122 218.207 163.593 218.166 163.061C218.208 163.593 218.247 164.122 218.284 164.649ZM131.388 132.543C131.251 132.7 131.112 132.859 130.971 133.02C131.405 132.525 131.824 132.049 132.228 131.592C131.955 131.9 131.675 132.217 131.388 132.543ZM192.025 89.3193C191.87 89.1385 191.715 88.9576 191.558 88.7783C191.715 88.9576 191.87 89.1386 192.025 89.3193Z" fill="white"/>
<path d="M187.273 55.9774C192.746 59.5344 194.298 66.8537 190.741 72.326C188.142 76.325 183.533 78.2273 179.105 77.5754C213.852 101.987 219.961 156.615 218.473 185.843C218.325 188.758 216.799 191.499 214.117 192.538C214.025 194.758 213.927 197.284 213.91 197.678C213.804 200.117 214.201 203.411 212.84 205.577C212.591 205.971 212.234 206.347 211.764 206.422C211.345 206.488 210.918 206.291 210.613 206.004C209.855 205.291 209.633 204.237 209.462 203.27C209.258 202.106 209.053 200.944 208.849 199.781C208.293 203.354 207.738 206.928 207.183 210.501C206.982 211.8 206.789 213.309 205.847 214.319C205.623 214.559 205.348 214.768 205.028 214.86C204.411 215.037 203.727 214.739 203.3 214.268C201.977 212.806 202.022 209.986 202.189 208.185C202.06 209.576 201.661 210.943 201.047 212.202C200.296 213.741 199.062 215.866 197.479 213.634C196.267 211.923 196.567 209.588 196.852 207.66C196.709 208.631 194.845 210.697 193.712 210.258C193.303 210.1 193.008 209.731 192.845 209.333C192.445 208.355 192.589 207.244 192.555 206.221C192.514 205.038 192.486 203.853 192.499 202.67C192.484 203.933 190.754 205.811 189.344 205.137C188.704 204.831 188.483 204.038 188.513 203.345C188.515 203.284 188.519 203.222 188.521 203.16L188.522 203.159C188.594 201.643 188.735 200.115 188.846 198.599C189.022 196.185 189.248 193.774 189.537 191.372C189.575 191.052 189.64 190.791 189.728 190.577C189.693 190.564 189.658 190.551 189.623 190.538C186.028 189.174 184.076 185.463 184.279 181.623C186.166 145.872 180.012 116.732 176.5 106.181L174.953 106.51C172.675 138.486 152.933 200.16 143.346 227L155.568 250.13C156.643 252.166 156.533 254.625 155.278 256.555L94.9162 217.319C116.709 183.792 134.657 147.054 140.908 132.875L134.653 128.809C124.232 140.278 97.9434 171.594 76.1504 205.121L15.7886 165.885C17.0436 163.955 19.2457 162.855 21.5429 163.012L47.6425 164.791C68.2795 145.135 116.629 102.056 144.928 86.9932L144.599 85.4449C133.531 86.5187 104.402 92.7239 72.4953 108.963C69.5356 110.469 66.0129 110.466 63.364 108.677C63.2575 109.067 62.9477 109.427 62.3143 109.792C60.1775 111.025 58.0078 112.204 55.8141 113.342C54.4369 114.055 53.0596 114.802 51.6668 115.481L51.6657 115.482C51.6089 115.509 51.5524 115.538 51.4955 115.565C50.8578 115.873 50.0239 115.998 49.476 115.552C48.2722 114.57 49.3315 112.269 50.5112 111.743C49.4059 112.235 48.2832 112.69 47.1561 113.134C46.182 113.519 45.1981 114.099 44.1181 114.14C43.6789 114.157 43.2131 114.043 42.8981 113.743C42.0267 112.913 43.2101 110.415 44.0623 109.893C42.3691 110.931 40.2991 112.145 38.2012 111.761C35.4656 111.258 36.9578 109.297 38.0975 108.003C39.029 106.946 40.1498 106.036 41.4022 105.356C39.78 106.237 37.1524 107.421 35.2439 106.837C34.6282 106.648 34.0714 106.16 33.9874 105.539C33.9434 105.216 34.0277 104.887 34.163 104.59C34.7273 103.341 36.0645 102.557 37.2012 101.851C40.3288 99.906 43.4569 97.9612 46.5845 96.0163C45.4101 96.3066 44.2361 96.596 43.0617 96.8863C42.0852 97.1275 41.0064 97.3571 40.029 96.972C39.636 96.8166 39.2783 96.5169 39.1702 96.1179C39.049 95.6689 39.2573 95.1982 39.5267 94.8168C41.0058 92.7254 44.2573 91.7414 46.503 90.6568C46.8376 90.495 48.8535 89.5329 50.772 88.6119C50.6265 87.9097 50.511 87.2036 50.4343 86.4939C50.1074 83.4681 52.0438 80.8009 54.7586 79.4255C81.1335 66.0648 134.351 49.264 170.804 72.1366C168.455 68.363 168.341 63.4175 170.924 59.4445C174.481 53.9724 181.801 52.4203 187.273 55.9774Z" fill="url(#paint0_radial_1047_2332)"/>
<defs>
<radialGradient id="paint0_radial_1047_2332" cx="0" cy="0" r="1" gradientUnits="userSpaceOnUse" gradientTransform="translate(136.802 133.858) rotate(123.995) scale(145.41 161.132)">
<stop stop-color="#FFEC83"/>
<stop offset="1" stop-color="#FF702F"/>
</radialGradient>
</defs>
</svg>
