<svg width="258" height="372" viewBox="0 0 258 372" fill="none" xmlns="http://www.w3.org/2000/svg">
<path d="M80.2225 33.4939C80.0576 31.969 82.1663 31.404 82.7859 32.807L93.0097 55.9584C93.4544 56.9654 94.8552 57.039 95.4028 56.084L107.991 34.1277C108.754 32.7972 110.791 33.5796 110.468 35.0789L105.131 59.8184C104.899 60.8944 105.989 61.777 106.994 61.3262L130.082 50.9623C131.482 50.3342 132.671 52.165 131.528 53.1879L112.668 70.0653C111.848 70.7995 112.211 72.1549 113.289 72.3807L138.06 77.5673C139.561 77.8816 139.447 80.0616 137.921 80.2173L112.744 82.7863C111.649 82.8981 111.146 84.2076 111.885 85.0235L128.876 103.78C129.906 104.917 128.533 106.613 127.207 105.842L105.327 93.1216C104.375 92.5684 103.199 93.3324 103.317 94.4269L106.012 119.337L154.883 162.57L154.802 161.868L184.2 188.317C216.942 194.077 225.634 230.864 225.882 248.584L234.394 323.659L224.784 326.234L175.393 340.006L168.105 276.958L118.439 290.266C110.934 291.982 105.166 289 101.178 285C101.133 284.983 101.088 284.968 101.044 284.951C100.82 284.735 100.117 284.028 99.1042 282.642C97.6913 280.827 96.6034 278.954 95.8459 277.308C95.6229 276.881 95.3956 276.433 95.1654 275.964C94.0077 275.681 92.9182 275.343 91.9201 274.956C91.4622 274.513 86.5554 272.661 84.746 265.908L84.8251 265.887C84.8159 265.844 84.8061 265.801 84.798 265.759C74.8479 263.268 70.9347 255.722 70.222 252.26C56.5771 245.602 59.8094 231.844 63.1312 225.797L99.1281 132.043L103.548 120.418C103.522 120.373 103.498 120.325 103.476 120.275L93.2518 97.1239C92.8071 96.1169 91.4062 96.0434 90.8587 96.9984L78.2708 118.955C77.5078 120.285 75.4702 119.503 75.7937 118.003L81.1306 93.2639C81.3626 92.188 80.2727 91.3055 79.2685 91.756L56.1791 102.12C54.7798 102.748 53.5909 100.917 54.7339 99.8945L73.5932 83.017C74.4134 82.2829 74.0502 80.9273 72.9728 80.7017L48.2014 75.5151C46.7002 75.2007 46.8143 73.0207 48.3402 72.865L73.5183 70.2958C74.6132 70.1839 75.1158 68.8747 74.377 68.0589L57.3853 49.3023C56.3555 48.1657 57.729 46.4693 59.0549 47.24L80.9345 59.9607C81.8862 60.514 83.0626 59.7499 82.9442 58.6554L80.2225 33.4939ZM112.38 154.583C112.424 154.917 112.465 155.267 112.503 155.631C112.53 155.705 112.556 155.78 112.584 155.854L112.561 156.25C112.866 159.694 112.856 164.297 112.169 169.353L112.241 169.314L111.92 171.027C111.842 171.503 111.758 171.982 111.668 172.463L111.64 172.981L111.57 172.971C111.513 173.261 111.454 173.552 111.392 173.843L111.171 175.029L110.937 175.833C110.58 177.28 110.161 178.738 109.674 180.194L109.643 180.301C108.936 182.499 107.502 186.258 104.964 190.289C104.894 190.4 104.824 190.511 104.754 190.621C104.71 190.689 104.666 190.757 104.622 190.825C102.643 193.881 100.223 196.743 97.2724 199.244L98.4526 205.993L98.5214 205.899L102.129 226.95L160.459 211.321L138.965 181.625C132.492 179.922 118.113 172.128 112.38 154.583Z" fill="white"/>
<path d="M72.2271 33.862C71.5878 23.7871 85.4111 20.0831 89.8948 29.1279L90.1037 29.5754L95.0093 40.6843L101.051 30.1484L101.306 29.725C106.801 21.0581 120.503 26.5021 118.288 36.7659L115.727 48.6362L126.806 43.6636C136.545 39.292 144.812 52.0342 136.863 59.1489L127.813 67.2477L139.7 69.7373C150.142 71.9241 149.353 87.0927 138.733 88.1763L126.651 89.4088L134.806 98.4088C141.855 106.19 132.711 117.756 123.619 112.997L123.186 112.759L112.686 106.654L113.631 115.397L157.762 154.436C158.624 154.779 159.436 155.275 160.153 155.92L187.919 180.902C206.081 184.909 217.539 197.201 224.327 210.28C231.212 223.545 233.669 238.213 233.871 248.039L242.343 322.758C242.789 326.692 240.29 330.361 236.465 331.386L226.933 333.94L177.542 347.712C175.288 348.34 172.871 347.95 170.929 346.645C168.987 345.339 167.715 343.249 167.446 340.924L161.223 287.084L120.51 297.993C120.415 298.019 120.319 298.043 120.223 298.065C109.784 300.452 101.591 296.394 96.2065 291.32C95.9542 291.128 95.7116 290.923 95.4829 290.702C94.9692 290.205 94.0046 289.201 92.7584 287.514C91.4923 285.883 90.4316 284.214 89.5669 282.618C89.3854 282.551 89.2044 282.484 89.025 282.414C88.4497 282.191 87.9047 281.9 87.3981 281.553C87.2324 281.457 86.9485 281.292 86.6558 281.111C85.8329 280.603 84.6984 279.836 83.4814 278.738C81.7346 277.162 79.9316 275 78.5412 272.107C70.4143 268.774 65.7833 262.713 63.6323 257.722C56.3282 253.056 52.9984 246.313 52.3508 239.563C51.7048 232.83 53.7253 226.537 55.8321 222.488L91.6596 129.175L94.8981 120.656L91.2509 112.399L85.2113 122.934C79.9007 132.194 65.7241 126.744 67.9737 116.316L70.5335 104.446L59.4549 109.419C49.7161 113.79 41.4492 101.048 49.3992 93.9334L58.4482 85.8339L46.5621 83.345C36.1197 81.1585 36.9082 65.9902 47.5277 64.9062L59.6085 63.673L51.4565 54.6735C44.2943 46.7673 53.8461 34.9597 63.075 40.3239L73.5738 46.4269L72.269 34.3542L72.2271 33.862ZM82.7855 32.8072C82.1659 31.4042 80.0577 31.969 80.2226 33.4939L82.9439 58.6557L82.9513 58.857C82.9182 59.7748 81.9673 60.3927 81.1154 60.0495L80.9348 59.9604L59.0551 47.2397C57.7292 46.469 56.356 48.1659 57.3857 49.3026L74.3767 68.0587C75.1156 68.8745 74.6131 70.1837 73.5182 70.2956L48.3401 72.8656C46.8145 73.0215 46.7006 75.2008 48.2018 75.5151L72.9731 80.7014C74.0504 80.9272 74.4137 82.2831 73.5936 83.0172L55.0511 99.6093L54.7342 99.8944C53.5913 100.917 54.7795 102.748 56.1787 102.12L79.2686 91.7563C80.2728 91.3058 81.3625 92.1884 81.1305 93.2643L75.7939 118.003L75.7704 118.142C75.6022 119.504 77.4091 120.198 78.1957 119.073L78.2712 118.955L78.4831 118.584L78.4838 118.583L90.8592 96.9986C91.4067 96.0436 92.8066 96.1171 93.2514 97.1239L103.476 120.275C103.498 120.325 103.522 120.373 103.548 120.418L99.128 132.043L63.1315 225.796C59.8097 231.843 56.5776 245.602 70.2224 252.26C70.9354 255.722 74.8482 263.268 84.7979 265.759L84.8251 265.887L84.7459 265.909C86.555 272.66 91.4602 274.513 91.9198 274.956C92.9178 275.343 94.0076 275.681 95.1653 275.964C95.3954 276.433 95.623 276.881 95.846 277.308C96.6034 278.954 97.6914 280.827 99.1043 282.642C100.117 284.028 100.821 284.734 101.044 284.95L101.179 284.999C105.041 288.874 110.575 291.795 117.741 290.414L118.439 290.266L168.105 276.958L175.393 340.005L224.784 326.233L234.394 323.658L225.882 248.585C225.634 230.864 216.942 194.077 184.2 188.317L154.802 161.868L154.883 162.57L106.012 119.337L103.317 94.4268C103.199 93.3324 104.376 92.5686 105.327 93.1219L127.207 105.843C128.491 106.589 129.82 105.02 128.966 103.888L128.876 103.78L111.884 85.0238C111.146 84.2079 111.649 82.8984 112.744 82.7867L137.921 80.2169C139.399 80.0661 139.553 78.0165 138.196 77.6026L138.06 77.5672L113.289 72.3808C112.212 72.1551 111.848 70.7992 112.669 70.0651L131.528 53.1879C132.671 52.1651 131.482 50.3347 130.082 50.9628L106.994 61.3259C105.989 61.7767 104.899 60.8942 105.131 59.8182L110.468 35.0792C110.792 33.58 108.754 32.7974 107.991 34.1273L96.3094 54.5012L94.2381 55.4151L92.2719 54.288L82.7855 32.8072ZM98.4344 292.514C98.4338 292.514 98.4323 292.513 98.4287 292.512C98.4268 292.511 98.4236 292.51 98.4196 292.508C98.428 292.511 98.4331 292.514 98.4344 292.514ZM86.6858 281.004C86.7508 281.06 86.8121 281.11 86.8679 281.155C86.8067 281.105 86.7455 281.056 86.6858 281.004ZM86.3595 280.707C86.4593 280.804 86.555 280.891 86.6439 280.969C86.5472 280.884 86.4522 280.797 86.3595 280.707ZM112.38 154.583C118.113 172.128 132.491 179.921 138.965 181.625L160.459 211.321L102.129 226.95L98.5216 205.899L98.4528 205.993L97.2721 199.244C100.223 196.743 102.644 193.881 104.623 190.825L104.754 190.622C104.824 190.511 104.894 190.4 104.964 190.289C107.184 186.762 108.56 183.443 109.343 181.196L109.643 180.301L109.674 180.194C110.161 178.738 110.58 177.28 110.937 175.833L111.171 175.029L111.392 173.843C111.453 173.551 111.513 173.261 111.57 172.971L111.64 172.981L111.667 172.464C111.758 171.982 111.842 171.503 111.919 171.027L112.241 169.314L112.169 169.353C112.856 164.297 112.866 159.693 112.562 156.249L112.583 155.854C112.556 155.78 112.529 155.705 112.502 155.631C112.465 155.267 112.425 154.917 112.38 154.583ZM118.484 178.603C118.145 179.901 117.761 181.211 117.326 182.527C117.304 182.601 117.283 182.677 117.259 182.751C116.411 185.385 114.728 189.791 111.743 194.534C111.666 194.657 111.583 194.791 111.494 194.93C111.491 194.936 111.487 194.941 111.484 194.946C111.435 195.022 111.383 195.103 111.328 195.187L111.327 195.186C109.772 197.586 107.971 199.91 105.892 202.091L106.12 203.396C106.243 203.768 106.339 204.153 106.406 204.548L108.533 216.952L147.166 206.6L134.003 188.415C129.565 186.746 123.854 183.598 118.484 178.603ZM94.2381 55.4151L96.3094 54.5012L95.403 56.0837L95.2911 56.2512C94.725 56.9747 93.5916 56.9151 93.1039 56.1366L93.0097 55.9586L92.2719 54.288L94.2381 55.4151Z" fill="white"/>
<g filter="url(#filter0_i_1005_2245)">
<path d="M184.563 188.102C217.523 193.71 226.261 230.648 226.509 248.416L235.022 323.491L176.08 339.284L168.986 276.722L119.066 290.098C105.946 293.098 98.1326 281.74 95.8658 275.687C88.8372 274.476 85.9769 268.452 85.4253 265.591C75.4752 263.1 71.5621 255.554 70.8493 252.092C57.2044 245.434 60.4367 231.676 63.7585 225.629L105.143 117.845L184.563 188.102ZM113.008 154.415C114.276 163.96 113.03 186.255 97.8997 199.076L102.746 226.785L161.086 211.153L139.592 181.457C133.119 179.754 118.74 171.96 113.008 154.415Z" fill="#FF7745"/>
</g>
<path d="M155.427 161.701L176.018 339.838L225.458 326.591L215.031 215.325L155.427 161.701Z" fill="url(#paint0_linear_1005_2245)" fill-opacity="0.4"/>
<path d="M113.208 155.687C107.391 139.743 105.283 123.706 105.036 117.98L85.5995 169.102L112.265 172.813L113.208 155.687Z" fill="url(#paint1_linear_1005_2245)"/>
<path d="M95.1953 178.744L97.9215 199.048C105.592 192.56 109.035 183.97 110.269 180.134L111.797 174.862L112.866 169.147L95.1953 178.744Z" fill="url(#paint2_linear_1005_2245)"/>
<path d="M99.1463 205.732L102.76 226.816L79.2308 233.12L99.1463 205.732Z" fill="url(#paint3_linear_1005_2245)"/>
<path d="M126.361 237.228L70.8613 252.1C72.388 257.797 76.3602 260.804 76.8181 261.247C89.6416 266.224 132.27 259.281 126.361 237.228Z" fill="url(#paint4_linear_1005_2245)"/>
<path d="M166.512 256.665L95.7129 275.635C98.7319 281.838 101.212 284.34 101.67 284.783C114.493 289.76 172.421 278.717 166.512 256.665Z" fill="url(#paint5_linear_1005_2245)"/>
<path d="M127.365 254.489L85.3711 265.741C87.1805 272.494 92.0871 274.345 92.545 274.788C105.368 279.766 133.274 276.541 127.365 254.489Z" fill="url(#paint6_linear_1005_2245)"/>
<g filter="url(#filter1_i_1005_2245)">
<path d="M80.8479 33.326C80.683 31.8011 82.7916 31.2361 83.4112 32.6392L93.6349 55.7908C94.0797 56.7979 95.4806 56.8713 96.0281 55.9163L108.616 33.9601C109.379 32.6295 111.417 33.4118 111.093 34.9111L105.756 59.6505C105.524 60.7266 106.614 61.6095 107.619 61.1587L130.708 50.7947C132.107 50.1666 133.296 51.9974 132.153 53.0202L113.294 69.8979C112.474 70.632 112.837 71.9871 113.914 72.2127L138.686 77.3995C140.187 77.7138 140.073 79.8939 138.547 80.0496L113.369 82.6186C112.274 82.7304 111.771 84.0401 112.51 84.8559L129.502 103.612C130.532 104.749 129.158 106.446 127.832 105.675L105.952 92.954C105.001 92.4007 103.824 93.1647 103.943 94.2592L106.664 119.421C106.829 120.946 104.721 121.511 104.101 120.108L93.8773 96.9562C93.4326 95.9491 92.0317 95.8757 91.4841 96.8307L78.8964 118.787C78.1335 120.118 76.0955 119.335 76.419 117.836L81.756 93.0965C81.9882 92.0204 80.8979 91.1375 79.8936 91.5883L56.8044 101.952C55.4051 102.58 54.2161 100.75 55.3591 99.7268L74.2183 82.8492C75.0386 82.115 74.6756 80.76 73.5981 80.5343L48.8266 75.3475C47.3254 75.0332 47.4397 72.8532 48.9655 72.6975L74.1434 70.1284C75.2386 70.0166 75.7413 68.7069 75.0022 67.8911L58.0105 49.1346C56.9807 47.9979 58.3545 46.3013 59.6805 47.0723L81.5599 59.793C82.5116 60.3463 83.6882 59.5823 83.5698 58.4878L80.8479 33.326Z" fill="#FFEC83"/>
</g>
<defs>
<filter id="filter0_i_1005_2245" x="60.8555" y="117.845" width="174.166" height="221.439" filterUnits="userSpaceOnUse" color-interpolation-filters="sRGB">
<feFlood flood-opacity="0" result="BackgroundImageFix"/>
<feBlend mode="normal" in="SourceGraphic" in2="BackgroundImageFix" result="shape"/>
<feColorMatrix in="SourceAlpha" type="matrix" values="0 0 0 0 0 0 0 0 0 0 0 0 0 0 0 0 0 0 127 0" result="hardAlpha"/>
<feOffset/>
<feGaussianBlur stdDeviation="11.652"/>
<feComposite in2="hardAlpha" operator="arithmetic" k2="-1" k3="1"/>
<feColorMatrix type="matrix" values="0 0 0 0 1 0 0 0 0 0.898039 0 0 0 0 0.509804 0 0 0 1 0"/>
<feBlend mode="normal" in2="shape" result="effect1_innerShadow_1005_2245"/>
</filter>
<filter id="filter1_i_1005_2245" x="47.7588" y="31.8356" width="91.9941" height="89.0759" filterUnits="userSpaceOnUse" color-interpolation-filters="sRGB">
<feFlood flood-opacity="0" result="BackgroundImageFix"/>
<feBlend mode="normal" in="SourceGraphic" in2="BackgroundImageFix" result="shape"/>
<feColorMatrix in="SourceAlpha" type="matrix" values="0 0 0 0 0 0 0 0 0 0 0 0 0 0 0 0 0 0 127 0" result="hardAlpha"/>
<feOffset/>
<feGaussianBlur stdDeviation="11.652"/>
<feComposite in2="hardAlpha" operator="arithmetic" k2="-1" k3="1"/>
<feColorMatrix type="matrix" values="0 0 0 0 1 0 0 0 0 1 0 0 0 0 1 0 0 0 0.25 0"/>
<feBlend mode="normal" in2="shape" result="effect1_innerShadow_1005_2245"/>
</filter>
<linearGradient id="paint0_linear_1005_2245" x1="219.317" y1="265.085" x2="168.463" y2="265.755" gradientUnits="userSpaceOnUse">
<stop stop-color="#FFE582" stop-opacity="0"/>
<stop offset="1" stop-color="#FFE582" stop-opacity="0.8"/>
</linearGradient>
<linearGradient id="paint1_linear_1005_2245" x1="89.5813" y1="122.765" x2="100.842" y2="164.792" gradientUnits="userSpaceOnUse">
<stop stop-color="#FFE582" stop-opacity="0.8"/>
<stop offset="1" stop-color="#FFE582" stop-opacity="0"/>
</linearGradient>
<linearGradient id="paint2_linear_1005_2245" x1="100.787" y1="177.246" x2="106.046" y2="196.871" gradientUnits="userSpaceOnUse">
<stop stop-color="#FFE582" stop-opacity="0"/>
<stop offset="1" stop-color="#FFE582" stop-opacity="0.8"/>
</linearGradient>
<linearGradient id="paint3_linear_1005_2245" x1="92.5263" y1="218.588" x2="102.999" y2="226.865" gradientUnits="userSpaceOnUse">
<stop stop-color="#FFE582" stop-opacity="0"/>
<stop offset="1" stop-color="#FFE582" stop-opacity="0.8"/>
</linearGradient>
<linearGradient id="paint4_linear_1005_2245" x1="91.0885" y1="255.84" x2="87.5606" y2="247.738" gradientUnits="userSpaceOnUse">
<stop stop-color="#FFE582" stop-opacity="0"/>
<stop offset="1" stop-color="#FFE582" stop-opacity="0.8"/>
</linearGradient>
<linearGradient id="paint5_linear_1005_2245" x1="115.94" y1="279.376" x2="112.412" y2="271.274" gradientUnits="userSpaceOnUse">
<stop stop-color="#FFE582" stop-opacity="0"/>
<stop offset="1" stop-color="#FFE582" stop-opacity="0.8"/>
</linearGradient>
<linearGradient id="paint6_linear_1005_2245" x1="105.598" y1="269.481" x2="102.07" y2="261.379" gradientUnits="userSpaceOnUse">
<stop stop-color="#FFE582" stop-opacity="0"/>
<stop offset="1" stop-color="#FFE582" stop-opacity="0.8"/>
</linearGradient>
</defs>
</svg>
