<svg width="274" height="269" viewBox="0 0 274 269" fill="none" xmlns="http://www.w3.org/2000/svg">
<g filter="url(#filter0_d_1005_2303)">
<path d="M163.446 54.5391C169.713 44.8994 182.607 42.1658 192.246 48.4307C201.886 54.6968 204.62 67.5909 198.354 77.2305C198.351 77.2353 198.348 77.2404 198.345 77.2451L197.926 77.8652C197.922 77.8703 197.919 77.8758 197.915 77.8809C197.316 78.7321 196.661 79.5234 195.963 80.2549C208.631 93.5668 216.432 110.711 221.114 127.482C226.925 148.294 228.233 169.557 227.598 184.838L227.597 184.843L227.53 186.295C227.53 186.297 227.529 186.299 227.529 186.301L227.479 187.01C227.159 190.468 225.769 194.263 223.005 197.194C222.987 197.632 222.975 197.948 222.97 198.069L222.957 198.695C222.956 198.942 222.956 199.238 222.957 199.622C222.958 200.31 222.959 201.266 222.898 202.27C222.795 203.991 222.48 206.933 220.868 209.795C220.864 209.802 220.859 209.811 220.854 209.818L220.537 210.349C220.533 210.356 220.528 210.365 220.523 210.373C219.999 211.206 218.471 213.422 215.61 214.632C215.579 214.754 215.547 214.878 215.512 215.002C215.103 216.425 214.289 218.537 212.493 220.461C212.486 220.469 212.476 220.476 212.468 220.483C211.589 221.421 209.989 222.817 207.582 223.509C205.234 224.184 203.071 223.968 201.247 223.321C199.832 223.666 198.193 223.742 196.411 223.28C193.112 222.426 191.161 220.188 190.205 218.84C190.204 218.839 190.204 218.837 190.203 218.836L189.955 218.471C189.935 218.44 189.917 218.409 189.897 218.379C186.904 216.988 185.318 214.521 184.595 212.766C184.591 212.757 184.586 212.75 184.583 212.741L184.582 212.739C179.921 209.924 179.531 204.871 179.587 203.062C179.587 203.051 179.586 203.04 179.586 203.028C179.588 202.976 179.592 202.904 179.593 202.893V202.888L179.596 202.829C179.599 202.734 179.605 202.642 179.61 202.556C179.692 200.941 179.847 199.179 179.938 197.943V197.942C180.015 196.882 180.105 195.818 180.202 194.754C176.667 190.993 175.11 185.865 175.358 181.149L175.359 181.13C175.872 171.408 175.765 162.206 175.278 153.787C173.81 159.559 172.239 165.384 170.621 171.123C164.705 192.112 158.023 212.543 153.213 226.278L163.594 245.925V245.926C166.193 250.847 165.926 256.791 162.892 261.46C161.672 263.336 159.801 264.685 157.648 265.255L157.214 265.358C154.879 265.853 152.442 265.402 150.44 264.101L90.0791 224.864C85.9127 222.155 84.7302 216.581 87.4385 212.414C96.7928 198.023 105.436 183.007 112.721 169.497C103.331 181.639 93.1179 195.635 83.7637 210.025C81.0546 214.192 75.4799 215.375 71.3125 212.666L10.9512 173.43C8.95015 172.129 7.54883 170.085 7.05371 167.751C6.5898 165.563 6.9564 163.285 8.07617 161.359L8.08887 161.338L8.29688 161C8.30106 160.993 8.30618 160.986 8.31055 160.979C11.3456 156.311 16.671 153.654 22.2227 154.032L44.3896 155.542C54.9893 145.571 70.951 131.172 87.7314 117.244C92.3199 113.436 97.0049 109.633 101.685 105.947C93.7885 108.922 85.3293 112.563 76.6465 116.982L76.6436 116.983C73.1399 118.766 68.9277 119.52 64.8125 118.757C63.2246 119.642 61.6282 120.499 60.0273 121.329C60.0261 121.33 60.0247 121.331 60.0234 121.332C58.901 121.914 57.3493 122.745 55.8916 123.463C55.8844 123.467 55.8741 123.473 55.8623 123.479C55.8579 123.482 55.853 123.484 55.8486 123.486L55.6006 123.609L55.5967 123.611C55.5827 123.618 55.5684 123.625 55.5625 123.628C55.5546 123.632 55.5509 123.633 55.5488 123.634C55.524 123.646 55.4685 123.673 55.4111 123.7C55.4031 123.704 55.3939 123.706 55.3857 123.71C54.2119 124.265 52.6664 124.764 50.873 124.834C49.2075 124.899 46.8811 124.59 44.6719 123.123C44.6242 123.125 44.5756 123.13 44.5273 123.132C42.7275 123.2 39.8099 122.842 37.2588 120.705C37.0602 120.679 36.8557 120.65 36.6484 120.612C36.6466 120.612 36.6444 120.611 36.6426 120.61C35.0893 120.325 32.1948 119.531 30.001 116.876C28.8293 115.458 28.2004 113.942 27.917 112.507C26.661 111.206 25.621 109.467 25.2158 107.235L25.1396 106.754C24.7828 104.136 25.5099 102.025 26.04 100.86L26.0566 100.829C27.1425 98.4576 28.7692 96.9089 29.8906 96.0059C29.9939 95.9227 30.0983 95.8418 30.2012 95.7637C30.2235 92.6326 31.7222 90.3604 32.2422 89.624C32.2476 89.6164 32.2541 89.609 32.2598 89.6016C34.309 86.7141 37.1242 85.1366 38.751 84.3184C39.6509 83.8657 40.5322 83.4827 41.1787 83.2041C41.385 83.1152 41.5657 83.0344 41.7275 82.9639C42.7711 77.4671 46.7552 73.425 50.7607 71.3955C64.6286 64.3707 85.4723 56.4613 107.802 53.2832C125.26 50.7985 144.338 51.1138 161.772 57.6621C162.133 56.8253 162.553 56.0029 163.033 55.2012L163.043 55.1855L163.437 54.5547L163.446 54.5391ZM90.624 224.026L150.985 263.263C151.092 263.332 151.202 263.399 151.312 263.463C151.202 263.399 151.093 263.332 150.986 263.263L90.625 224.026C90.5098 223.951 90.3972 223.874 90.2871 223.794C90.397 223.874 90.509 223.952 90.624 224.026ZM155.871 255.565C155.727 255.906 155.552 256.237 155.346 256.554L155.347 256.555C155.552 256.238 155.727 255.907 155.871 255.566V255.565ZM156.117 254.871L156.118 254.872L156.117 254.871ZM144.252 224.64C143.965 225.453 143.685 226.241 143.414 227L155.635 250.13H155.636L143.415 227C143.686 226.241 143.965 225.453 144.252 224.64ZM204.103 222.902C204.354 222.919 204.61 222.925 204.87 222.92C204.741 222.922 204.612 222.922 204.484 222.919C204.349 222.916 204.214 222.909 204.081 222.9C204.088 222.901 204.095 222.902 204.103 222.902ZM197.928 222.548C197.949 222.55 197.969 222.552 197.99 222.554C197.867 222.541 197.742 222.525 197.617 222.507L197.928 222.548ZM196.387 222.237C196.477 222.264 196.569 222.289 196.661 222.312C196.877 222.368 197.092 222.415 197.303 222.454L196.984 222.39C196.878 222.366 196.77 222.34 196.662 222.312C196.569 222.288 196.477 222.264 196.387 222.237ZM200.789 222.401C200.703 222.42 200.617 222.438 200.529 222.454C200.706 222.421 200.878 222.384 201.048 222.342L200.789 222.401ZM201.301 222.275C201.413 222.319 201.528 222.36 201.644 222.4C201.528 222.36 201.414 222.319 201.302 222.275H201.301ZM190.147 217.391C190.289 217.46 190.433 217.527 190.582 217.591C190.719 217.813 190.862 218.037 191.019 218.258L191.021 218.262C191.104 218.38 191.197 218.505 191.297 218.635C191.197 218.505 191.105 218.38 191.021 218.262L191.02 218.258C190.863 218.037 190.72 217.813 190.583 217.591C190.434 217.527 190.289 217.46 190.147 217.391ZM188.882 216.641C188.954 216.692 189.028 216.742 189.103 216.792C189.131 216.811 189.161 216.829 189.19 216.848C189.085 216.78 188.982 216.711 188.882 216.641ZM188.266 216.165C188.3 216.194 188.338 216.221 188.373 216.25C188.32 216.206 188.266 216.164 188.214 216.119C188.231 216.134 188.248 216.15 188.266 216.165ZM187.89 215.831C187.929 215.868 187.971 215.903 188.012 215.939C187.962 215.894 187.911 215.85 187.862 215.804L187.89 215.831ZM205.213 214.819C205.174 214.834 205.135 214.848 205.095 214.859H205.096C205.136 214.848 205.175 214.834 205.213 214.819ZM92.6191 206.156C91.905 207.295 91.1857 208.431 90.4619 209.565C89.738 210.7 89.0093 211.831 88.2764 212.959H88.2773C89.0102 211.832 89.7391 210.7 90.4629 209.566C91.1866 208.433 91.9051 207.296 92.6191 206.157V206.156ZM200.854 212.71C200.946 212.537 201.035 212.367 201.115 212.201H201.114L200.854 212.71ZM185.388 212.055C185.426 212.157 185.466 212.259 185.508 212.362C185.466 212.259 185.427 212.156 185.389 212.055C185.374 212.047 185.36 212.038 185.346 212.03C185.36 212.038 185.374 212.047 185.388 212.055ZM10.8652 172.136C10.9645 172.215 11.0656 172.292 11.1689 172.367C11.2759 172.445 11.3849 172.52 11.4961 172.592L71.8574 211.828C71.9714 211.902 72.0868 211.973 72.2031 212.04C72.0871 211.973 71.9721 211.902 71.8584 211.828L11.4971 172.592C11.2783 172.45 11.0675 172.297 10.8652 172.136ZM184.979 211.812C184.988 211.818 184.997 211.823 185.006 211.828C184.987 211.816 184.967 211.804 184.948 211.792C184.959 211.799 184.969 211.806 184.979 211.812ZM180.583 203.417C180.582 203.288 180.584 203.169 180.588 203.062H180.586C180.582 203.169 180.582 203.288 180.583 203.417ZM180.68 201.403C180.652 201.812 180.628 202.222 180.607 202.623C180.602 202.708 180.597 202.794 180.594 202.879L180.591 202.938C180.589 202.97 180.587 203.014 180.585 203.063C180.587 203.014 180.59 202.97 180.592 202.938L180.595 202.879C180.598 202.794 180.603 202.708 180.608 202.623C180.628 202.222 180.653 201.813 180.681 201.404C180.698 201.144 180.718 200.884 180.736 200.627C180.718 200.884 180.697 201.143 180.68 201.403ZM213.871 202.277C213.856 202.442 213.838 202.606 213.816 202.769H213.817C213.839 202.606 213.856 202.442 213.871 202.277ZM213.917 201.646C213.925 201.499 213.933 201.352 213.938 201.204C213.933 201.352 213.925 201.499 213.917 201.646ZM181 194.143C181.079 194.225 181.158 194.308 181.238 194.389C181.124 195.6 181.023 196.81 180.935 198.016V198.017C180.893 198.581 180.84 199.24 180.786 199.94C180.84 199.24 180.894 198.581 180.936 198.017V198.016C181.024 196.81 181.125 195.6 181.239 194.389C181.158 194.307 181.079 194.225 181 194.143ZM214.184 192.538C214.092 194.758 213.995 197.284 213.978 197.678C213.971 197.83 213.967 197.986 213.964 198.145L213.979 197.678C213.996 197.284 214.093 194.758 214.185 192.538C214.311 192.489 214.435 192.434 214.557 192.377C214.435 192.434 214.311 192.489 214.184 192.538ZM218.634 183.745C218.607 184.458 218.576 185.157 218.541 185.842C218.536 185.933 218.531 186.024 218.523 186.114C218.513 186.246 218.498 186.377 218.481 186.508C218.509 186.287 218.531 186.065 218.542 185.842C218.577 185.157 218.608 184.458 218.634 183.745ZM176.357 181.201L176.356 181.202H176.357L176.358 181.201C176.397 180.466 176.431 179.735 176.463 179.006C176.431 179.735 176.396 180.466 176.357 181.201ZM176.622 174.394C176.605 175.065 176.584 175.738 176.562 176.415C176.584 175.738 176.605 175.065 176.622 174.394ZM102.366 168.205C101.403 169.469 100.433 170.749 99.459 172.046L101.559 169.266C101.828 168.911 102.098 168.557 102.366 168.205ZM176.692 169.748C176.696 169.089 176.698 168.434 176.697 167.781C176.698 168.434 176.696 169.089 176.692 169.748ZM118.828 160.103C117.293 163.055 115.672 166.117 113.979 169.266C115.673 166.116 117.296 163.053 118.831 160.1C118.83 160.101 118.829 160.101 118.828 160.103ZM7.91309 166.82C7.94148 167.062 7.98032 167.304 8.03125 167.544H8.03223C7.9813 167.304 7.94172 167.062 7.91309 166.82ZM103.639 166.537C103.591 166.599 103.544 166.661 103.496 166.724C103.735 166.411 103.975 166.1 104.214 165.79C104.023 166.039 103.83 166.287 103.639 166.537ZM47.6455 164.786L47.6465 164.785L21.6113 163.012H21.6104L47.6455 164.786ZM105.697 163.863C105.583 164.011 105.469 164.159 105.354 164.307C105.604 163.984 105.854 163.663 106.103 163.343C105.968 163.516 105.832 163.689 105.697 163.863ZM8.94043 161.862H8.94141L9.14941 161.524H9.14844L8.94043 161.862ZM217.342 154.833C217.585 156.825 217.793 158.795 217.969 160.733C217.793 158.795 217.585 156.825 217.342 154.833ZM175.833 147.414C176.03 149.778 176.2 152.216 176.335 154.721C176.2 152.215 176.031 149.776 175.834 147.411C175.834 147.412 175.833 147.413 175.833 147.414ZM216.528 148.956C216.62 149.549 216.707 150.141 216.793 150.731C216.707 150.141 216.62 149.549 216.528 148.955V148.956ZM215.197 141.45C215.458 142.755 215.703 144.058 215.932 145.355L215.901 145.178C215.682 143.939 215.447 142.696 215.197 141.45ZM125.362 139.535C126.641 138.025 127.853 136.61 128.989 135.296C127.853 136.61 126.641 138.025 125.362 139.535ZM213.927 135.64C214.03 136.073 214.131 136.506 214.23 136.939C214.131 136.506 214.03 136.072 213.927 135.639V135.64ZM132.228 131.592C132.742 131.01 133.233 130.46 133.698 129.941H133.697C133.232 130.46 132.742 131.01 132.228 131.592ZM85.207 120.652C84.9662 120.854 84.7267 121.058 84.4863 121.26C84.9419 120.877 85.3982 120.494 85.8555 120.111L85.207 120.652ZM36.8281 119.629C37.1166 119.682 37.4028 119.72 37.6836 119.752C37.7545 119.815 37.8257 119.877 37.8975 119.937L37.6846 119.752C37.4035 119.72 37.1179 119.682 36.8291 119.629L36.8242 119.628H36.8232L36.8281 119.629ZM33.1699 118.291C33.2002 118.309 33.2315 118.325 33.2617 118.343C33.1956 118.304 33.1297 118.264 33.0635 118.224C33.0994 118.246 33.134 118.27 33.1699 118.291ZM32.7568 118.03C32.7917 118.054 32.8283 118.074 32.8633 118.097C32.7983 118.055 32.7328 118.012 32.668 117.968C32.6979 117.988 32.7268 118.01 32.7568 118.03ZM64.6465 117.706C64.7716 117.732 64.897 117.756 65.0225 117.779C64.8973 117.756 64.7723 117.732 64.6475 117.706H64.6465ZM208.037 116.699L207.668 115.773C207.617 115.646 207.563 115.52 207.512 115.394C207.689 115.828 207.865 116.263 208.037 116.699ZM51.7334 115.481C51.6769 115.508 51.619 115.538 51.5625 115.564H51.5635C51.6202 115.538 51.6776 115.508 51.7344 115.481L51.7354 115.48H51.7344L51.7334 115.481ZM206.907 113.935C207.075 114.331 207.24 114.729 207.403 115.127C207.24 114.728 207.075 114.33 206.907 113.934V113.935ZM29.4668 114.131C29.5058 114.22 29.5463 114.309 29.5889 114.397H29.5898C29.5335 114.28 29.4808 114.162 29.4307 114.045C29.4428 114.073 29.4543 114.102 29.4668 114.131ZM95.4219 112.229C94.6332 112.868 93.8463 113.51 93.0605 114.151L95.4229 112.229C96.2115 111.591 97.0013 110.954 97.792 110.319L95.4219 112.229ZM47.2236 113.134C47.0412 113.206 46.8586 113.285 46.6748 113.366C46.8589 113.285 47.0419 113.206 47.2246 113.134H47.2236ZM206.115 112.108H206.116C205.921 111.668 205.722 111.229 205.521 110.791C205.722 111.229 205.92 111.668 206.115 112.108ZM28.6016 111.779C28.6816 111.863 28.7628 111.945 28.8447 112.024H28.8457C28.6819 111.865 28.5211 111.698 28.3652 111.522L28.6016 111.779ZM61.0605 110.543C61.5025 110.295 61.9438 110.045 62.3828 109.792H62.3818L61.0605 110.543ZM26.9443 109.384C26.955 109.406 26.9668 109.428 26.9775 109.45C26.9511 109.396 26.9259 109.341 26.9004 109.285C26.9155 109.318 26.9289 109.351 26.9443 109.384ZM63.2197 109.104C63.1854 109.151 63.1477 109.197 63.1055 109.243C63.1903 109.151 63.2586 109.058 63.3125 108.964L63.2197 109.104ZM26.1299 106.619C26.1901 107.061 26.2774 107.482 26.3877 107.884H26.3887C26.2784 107.482 26.191 107.061 26.1309 106.619C26.1107 106.472 26.0939 106.326 26.0811 106.182L26.1299 106.619ZM174.92 107.781C174.956 107.352 174.991 106.929 175.021 106.51H175.02C174.99 106.929 174.956 107.352 174.92 107.781ZM104.916 104.687C105.707 104.071 106.498 103.46 107.287 102.853H107.285C106.496 103.459 105.707 104.071 104.916 104.687ZM84.3672 103.333C84.2773 103.373 84.1876 103.414 84.0977 103.454C84.6723 103.197 85.2451 102.943 85.8164 102.692L84.3672 103.333ZM26.3916 102.812C26.3634 102.914 26.3364 103.02 26.3105 103.128L26.3926 102.812C26.4208 102.709 26.4495 102.608 26.4795 102.511L26.3916 102.812ZM30.1016 97.1328C29.9677 97.2489 29.8296 97.3733 29.6885 97.5059C29.9821 97.2301 30.2633 96.9907 30.5186 96.7852H30.5176L30.1016 97.1328ZM194.658 92.5576L194.056 91.7842C193.986 91.696 193.915 91.6093 193.845 91.5215C194.118 91.8649 194.39 92.2096 194.658 92.5576ZM33.0635 90.1973L33.0586 90.2012L32.8271 90.543C32.7421 90.6737 32.6488 90.8255 32.5498 90.9961C32.7526 90.6466 32.9348 90.3779 33.0596 90.2012L33.0645 90.1973C33.1792 90.035 33.2963 89.8763 33.416 89.7227C33.2962 89.8764 33.1783 90.0349 33.0635 90.1973ZM191.507 88.7207C191.175 88.3422 190.839 87.9675 190.5 87.5957C190.839 87.9676 191.175 88.3422 191.507 88.7207ZM187.114 84.123C187.319 84.3192 187.522 84.5163 187.725 84.7148C187.522 84.5163 187.319 84.3192 187.114 84.123ZM41.5742 84.123H41.5752C42.0188 83.9319 42.3493 83.7877 42.623 83.666H42.6221C42.3485 83.7877 42.0174 83.932 41.5742 84.123ZM183.429 80.832C183.665 81.0282 183.9 81.2257 184.133 81.4248C183.9 81.2258 183.665 81.0281 183.429 80.832ZM179.981 78.1523C180.086 78.2284 180.19 78.3062 180.294 78.3828C180.19 78.3064 180.087 78.2282 179.982 78.1523C179.719 77.9614 179.453 77.7733 179.187 77.5859C179.453 77.7731 179.718 77.9616 179.981 78.1523ZM191.094 71.8613C191.053 71.93 191.014 71.9992 190.972 72.0674C190.919 72.1535 190.864 72.2399 190.809 72.3252H190.81C190.909 72.1724 191.002 72.017 191.094 71.8613ZM191.318 71.4629C191.343 71.4165 191.369 71.3708 191.394 71.3242L191.416 71.2783C191.384 71.3401 191.351 71.4014 191.318 71.4629ZM153.397 64.3516C153.806 64.4714 154.214 64.593 154.62 64.7197L153.674 64.4316C153.582 64.4043 153.489 64.3786 153.397 64.3516ZM190.728 59.3164L190.692 59.2617C190.676 59.2373 190.658 59.2137 190.642 59.1895C190.671 59.2316 190.699 59.2739 190.728 59.3164ZM163.891 55.7148C163.578 56.2375 163.292 56.7694 163.032 57.3086C162.967 57.4435 162.904 57.579 162.843 57.7148C162.72 57.9863 162.603 58.2595 162.493 58.5342C162.438 58.6712 162.385 58.8085 162.333 58.9463L162.334 58.9473C162.489 58.5331 162.659 58.1221 162.844 57.7148C162.905 57.5793 162.968 57.4442 163.033 57.3096C163.293 56.7701 163.578 56.2378 163.892 55.7148L164.285 55.084H164.284L163.891 55.7148ZM187.341 55.9766C187.512 56.0876 187.68 56.2021 187.843 56.3203H187.844C187.68 56.202 187.513 56.0877 187.342 55.9766C187.322 55.9638 187.302 55.9521 187.282 55.9395C187.302 55.9519 187.321 55.964 187.341 55.9766ZM181.882 54.1064C182.248 54.1367 182.614 54.1832 182.979 54.248L182.411 54.1611C182.235 54.1386 182.058 54.121 181.882 54.1064ZM181.228 54.0703C181.052 54.0656 180.876 54.0643 180.701 54.0674C180.876 54.0643 181.052 54.0656 181.228 54.0703ZM170.197 49.2002C170.14 49.2371 170.083 49.275 170.025 49.3125C170.125 49.2475 170.224 49.1832 170.324 49.1201C170.282 49.1468 170.239 49.1732 170.197 49.2002ZM170.605 48.9453C170.56 48.9727 170.516 49.0005 170.471 49.0283C170.583 48.959 170.696 48.8912 170.81 48.8242C170.741 48.8644 170.673 48.9043 170.605 48.9453ZM171.862 48.2441C171.72 48.3168 171.579 48.3916 171.438 48.4678C171.282 48.5527 171.126 48.6403 170.972 48.7295C171.295 48.5428 171.623 48.3649 171.955 48.1973C171.924 48.2129 171.893 48.2284 171.862 48.2441ZM178.193 46.2529C178.173 46.2558 178.152 46.2588 178.132 46.2617C178.31 46.2366 178.488 46.2137 178.666 46.1934L178.193 46.2529ZM10.5879 171.902C10.671 171.975 10.7555 172.047 10.8418 172.116C10.7555 172.047 10.671 171.975 10.5879 171.902ZM182.274 209.203C182.343 209.306 182.415 209.407 182.489 209.509C182.415 209.408 182.343 209.306 182.274 209.203ZM182.502 209.526C182.573 209.624 182.648 209.72 182.725 209.815C182.648 209.72 182.574 209.623 182.502 209.526ZM218.283 164.649C218.246 164.122 218.207 163.593 218.165 163.061C218.207 163.593 218.246 164.122 218.283 164.649ZM131.388 132.543C131.25 132.7 131.111 132.859 130.971 133.02C131.404 132.525 131.823 132.049 132.228 131.592C131.954 131.9 131.674 132.217 131.388 132.543ZM192.024 89.3193C191.869 89.1386 191.714 88.9576 191.558 88.7783C191.714 88.9576 191.869 89.1386 192.024 89.3193Z" fill="white"/>
</g>
<g filter="url(#filter1_in_1005_2303)">
<path d="M187.273 55.9774C192.746 59.5344 194.298 66.8537 190.741 72.326C188.142 76.325 183.533 78.2273 179.105 77.5754C213.852 101.987 219.961 156.615 218.473 185.843C218.325 188.758 216.799 191.499 214.117 192.538C214.025 194.758 213.927 197.284 213.91 197.678C213.804 200.117 214.201 203.411 212.84 205.577C212.591 205.971 212.234 206.347 211.764 206.422C211.345 206.488 210.918 206.291 210.613 206.004C209.855 205.291 209.633 204.237 209.462 203.27C209.258 202.106 209.053 200.944 208.849 199.781C208.293 203.354 207.738 206.928 207.183 210.501C206.982 211.8 206.789 213.309 205.847 214.319C205.623 214.559 205.348 214.768 205.028 214.86C204.411 215.037 203.727 214.739 203.3 214.268C201.977 212.806 202.022 209.986 202.189 208.185C202.06 209.576 201.661 210.943 201.047 212.202C200.296 213.741 199.062 215.866 197.479 213.634C196.267 211.923 196.567 209.588 196.852 207.66C196.709 208.631 194.845 210.697 193.712 210.258C193.303 210.1 193.008 209.731 192.845 209.333C192.445 208.355 192.589 207.244 192.555 206.221C192.514 205.038 192.486 203.853 192.499 202.67C192.484 203.933 190.754 205.811 189.344 205.137C188.704 204.831 188.483 204.038 188.513 203.345C188.515 203.284 188.519 203.222 188.521 203.16L188.522 203.159C188.594 201.643 188.735 200.115 188.846 198.599C189.022 196.185 189.248 193.774 189.537 191.372C189.575 191.052 189.64 190.791 189.728 190.577C189.693 190.564 189.658 190.551 189.623 190.538C186.028 189.174 184.076 185.463 184.279 181.623C186.166 145.872 180.012 116.732 176.5 106.181L174.953 106.51C172.675 138.486 152.933 200.16 143.346 227L155.568 250.13C156.643 252.166 156.533 254.625 155.278 256.555L94.9162 217.319C116.709 183.792 134.657 147.054 140.908 132.875L134.653 128.809C124.232 140.278 97.9434 171.594 76.1504 205.121L15.7886 165.885C17.0436 163.955 19.2457 162.855 21.5429 163.012L47.6425 164.791C68.2795 145.135 116.629 102.056 144.928 86.9932L144.599 85.4449C133.531 86.5187 104.402 92.7239 72.4953 108.963C69.5356 110.469 66.0129 110.466 63.364 108.677C63.2575 109.067 62.9477 109.427 62.3143 109.792C60.1775 111.025 58.0078 112.204 55.8141 113.342C54.4369 114.055 53.0596 114.802 51.6668 115.481L51.6657 115.482C51.6089 115.509 51.5524 115.538 51.4955 115.565C50.8578 115.873 50.0239 115.998 49.476 115.552C48.2722 114.57 49.3315 112.269 50.5112 111.743C49.4059 112.235 48.2832 112.69 47.1561 113.134C46.182 113.519 45.1981 114.099 44.1181 114.14C43.6789 114.157 43.2131 114.043 42.8981 113.743C42.0267 112.913 43.2101 110.415 44.0623 109.893C42.3691 110.931 40.2991 112.145 38.2012 111.761C35.4656 111.258 36.9578 109.297 38.0975 108.003C39.029 106.946 40.1498 106.036 41.4022 105.356C39.78 106.237 37.1524 107.421 35.2439 106.837C34.6282 106.648 34.0714 106.16 33.9874 105.539C33.9434 105.216 34.0277 104.887 34.163 104.59C34.7273 103.341 36.0645 102.557 37.2012 101.851C40.3288 99.906 43.4569 97.9612 46.5845 96.0163C45.4101 96.3066 44.2361 96.596 43.0617 96.8863C42.0852 97.1275 41.0064 97.3571 40.029 96.972C39.636 96.8166 39.2783 96.5169 39.1702 96.1179C39.049 95.6689 39.2573 95.1982 39.5267 94.8168C41.0058 92.7254 44.2573 91.7414 46.503 90.6568C46.8376 90.495 48.8535 89.5329 50.772 88.6119C50.6265 87.9097 50.511 87.2036 50.4343 86.4939C50.1074 83.4681 52.0438 80.8009 54.7586 79.4255C81.1335 66.0648 134.351 49.264 170.804 72.1366C168.455 68.363 168.341 63.4175 170.924 59.4445C174.481 53.9724 181.801 52.4203 187.273 55.9774Z" fill="#FFEC83"/>
</g>
<defs>
<filter id="filter0_d_1005_2303" x="5.25361" y="42.4615" width="226.093" height="225.697" filterUnits="userSpaceOnUse" color-interpolation-filters="sRGB">
<feFlood flood-opacity="0" result="BackgroundImageFix"/>
<feColorMatrix in="SourceAlpha" type="matrix" values="0 0 0 0 0 0 0 0 0 0 0 0 0 0 0 0 0 0 127 0" result="hardAlpha"/>
<feOffset dx="1"/>
<feGaussianBlur stdDeviation="1.3019"/>
<feComposite in2="hardAlpha" operator="out"/>
<feColorMatrix type="matrix" values="0 0 0 0 0 0 0 0 0 0 0 0 0 0 0 0 0 0 0.25 0"/>
<feBlend mode="normal" in2="BackgroundImageFix" result="effect1_dropShadow_1005_2303"/>
<feBlend mode="normal" in="SourceGraphic" in2="effect1_dropShadow_1005_2303" result="shape"/>
</filter>
<filter id="filter1_in_1005_2303" x="15.7891" y="54.0665" width="202.887" height="202.489" filterUnits="userSpaceOnUse" color-interpolation-filters="sRGB">
<feFlood flood-opacity="0" result="BackgroundImageFix"/>
<feBlend mode="normal" in="SourceGraphic" in2="BackgroundImageFix" result="shape"/>
<feColorMatrix in="SourceAlpha" type="matrix" values="0 0 0 0 0 0 0 0 0 0 0 0 0 0 0 0 0 0 127 0" result="hardAlpha"/>
<feOffset/>
<feGaussianBlur stdDeviation="20"/>
<feComposite in2="hardAlpha" operator="arithmetic" k2="-1" k3="1"/>
<feColorMatrix type="matrix" values="0 0 0 0 1 0 0 0 0 0.415686 0 0 0 0 0.196078 0 0 0 0.9 0"/>
<feBlend mode="normal" in2="shape" result="effect1_innerShadow_1005_2303"/>
<feTurbulence type="fractalNoise" baseFrequency="2 2" stitchTiles="stitch" numOctaves="3" result="noise" seed="4329" />
<feColorMatrix in="noise" type="luminanceToAlpha" result="alphaNoise" />
<feComponentTransfer in="alphaNoise" result="coloredNoise1">
<feFuncA type="discrete" tableValues="0 0 0 0 0 0 0 0 0 1 1 1 1 1 1 1 1 1 1 1 1 1 1 1 1 1 1 1 1 1 1 1 1 1 1 1 1 1 1 1 0 0 0 0 0 0 0 0 0 0 0 0 0 0 0 0 0 0 0 0 0 0 0 0 0 0 0 0 0 0 0 0 0 0 0 0 0 0 0 0 0 0 0 0 0 0 0 0 0 0 0 0 0 0 0 0 0 0 0 0 "/>
</feComponentTransfer>
<feComposite operator="in" in2="effect1_innerShadow_1005_2303" in="coloredNoise1" result="noise1Clipped" />
<feFlood flood-color="rgba(255, 255, 255, 0.5)" result="color1Flood" />
<feComposite operator="in" in2="noise1Clipped" in="color1Flood" result="color1" />
<feMerge result="effect2_noise_1005_2303">
<feMergeNode in="effect1_innerShadow_1005_2303" />
<feMergeNode in="color1" />
</feMerge>
</filter>
</defs>
</svg>
